;TYPE=NON_PLATED
;Layer: NPTH_Through
;EasyEDA Pro Client v2.2.43.4, 2026-09-22 16:51:31
;Gerber Generator version 0.3
M48
METRIC,LZ,0000.00000
;Hole size 1 = 0.70002 METRIC
T01C0.70002
;Hole size 2 = 2.99999 METRIC
T02C2.99999
;Hole size 3 = 4.00000 METRIC
T03C4.00000
%
G05
G90
T01
X511.51092Y502.52948
X517.29094Y502.52948
T02
X315.7058Y500.7864
X322.0458Y503.3264
X353.8058Y500.7864
X360.1458Y503.3264
X372.8558Y500.7864
X379.1958Y503.3264
X391.9058Y500.7864
X398.2458Y503.3264
X410.9558Y500.7864
X417.2958Y503.3264
X439.5054Y500.7864
X445.8454Y503.3264
X458.5554Y500.7864
X464.8954Y503.3264
X477.6054Y500.7864
X483.9454Y503.3264
X496.6554Y500.7864
X502.9954Y503.3264
X525.2558Y500.7864
X531.5958Y503.3264
X544.3058Y500.7864
X550.6458Y503.3264
X563.305Y500.7864
X569.645Y503.3264
X582.4058Y500.7864
X588.7458Y503.3264
X606.231Y500.7864
X612.571Y503.3264
X315.7058Y476.9612
X322.0458Y479.5012
X334.7558Y476.9612
X341.0958Y479.5012
X353.8058Y476.9612
X360.1458Y479.5012
X372.8558Y476.9612
X379.1958Y479.5012
X391.9058Y476.9612
X398.2458Y479.5012
X410.9558Y476.9612
X417.2958Y479.5012
X430.0058Y476.9612
X436.3458Y479.5012
X449.0558Y476.9612
X455.3958Y479.5012
X468.1058Y476.9612
X474.4458Y479.5012
X487.1558Y476.9612
X493.4958Y479.5012
X506.2058Y476.9612
X512.5458Y479.5012
X525.2558Y476.9612
X531.5958Y479.5012
X544.3058Y476.9612
X550.6458Y479.5012
X572.8554Y476.9612
X579.1954Y479.5012
X606.231Y476.9612
X612.571Y479.5012
X320.481Y457.9112
X326.821Y460.4512
X344.2554Y457.9112
X350.5954Y460.4512
X363.3054Y457.9112
X369.6454Y460.4512
X382.3554Y457.9112
X388.6954Y460.4512
X401.4054Y457.9112
X407.7454Y460.4512
X420.4554Y457.9112
X426.7954Y460.4512
X439.5054Y457.9112
X445.8454Y460.4512
X458.5554Y457.9112
X464.8954Y460.4512
X477.6054Y457.9112
X483.9454Y460.4512
X496.6554Y457.9112
X502.9954Y460.4512
X515.7054Y457.9112
X522.0454Y460.4512
X534.7554Y457.9112
X541.0954Y460.4512
X553.8054Y457.9112
X560.1454Y460.4512
X577.6306Y457.9112
X583.9706Y460.4512
X606.1802Y457.9112
X612.5202Y460.4512
X322.8686Y438.8612
X329.2086Y441.4012
X349.0306Y438.8612
X355.3706Y441.4012
X368.0806Y438.8612
X374.4206Y441.4012
X387.1306Y438.8612
X393.4706Y441.4012
X406.1806Y438.8612
X412.5206Y441.4012
X425.2306Y438.8612
X431.5706Y441.4012
X444.2806Y438.8612
X450.6206Y441.4012
X463.3306Y438.8612
X469.6706Y441.4012
X482.3806Y438.8612
X488.7206Y441.4012
X501.4306Y438.8612
X507.7706Y441.4012
X520.4806Y438.8612
X526.8206Y441.4012
X539.5306Y438.8612
X545.8706Y441.4012
X570.4678Y438.8612
X576.8078Y441.4012
X606.231Y438.8612
X612.571Y441.4012
X327.62529Y419.81232
X333.96529Y422.35232
X358.581Y419.8112
X364.921Y422.3512
X377.631Y419.8112
X383.971Y422.3512
X396.681Y419.8112
X403.021Y422.3512
X415.731Y419.8112
X422.071Y422.3512
X434.781Y419.8112
X441.121Y422.3512
X453.831Y419.8112
X460.171Y422.3512
X472.881Y419.8112
X479.221Y422.3512
X491.931Y419.8112
X498.271Y422.3512
X510.981Y419.8112
X517.321Y422.3512
X530.031Y419.8112
X536.371Y422.3512
X558.5806Y419.8112
X564.9206Y422.3512
X587.181Y419.8112
X593.521Y422.3512
X318.0934Y400.7612
X324.4334Y403.3012
X341.8678Y400.7612
X348.2078Y403.3012
X365.693Y400.7612
X372.033Y403.3012
X437.4988Y400.812
X443.8388Y403.352
X506.2058Y400.7612
X512.5458Y403.3012
X549.081Y400.7612
X555.421Y403.3012
X568.131Y400.7612
X574.471Y403.3012
X587.181Y400.7612
X593.521Y403.3012
X606.231Y400.7612
X612.571Y403.3012
X606.231Y419.8112
X612.571Y422.3512
X527.6434Y400.7612
X533.9834Y403.3012
T03
X319.5058Y498.2464
X357.6058Y498.2464
X376.6558Y498.2464
X395.7058Y498.2464
X414.7558Y498.2464
X443.3054Y498.2464
X462.3554Y498.2464
X481.4054Y498.2464
X500.4554Y498.2464
X529.0558Y498.2464
X548.1058Y498.2464
X567.105Y498.2464
X586.2058Y498.2464
X610.031Y498.2464
X319.5058Y474.4212
X338.5558Y474.4212
X357.6058Y474.4212
X376.6558Y474.4212
X395.7058Y474.4212
X414.7558Y474.4212
X433.8058Y474.4212
X452.8558Y474.4212
X471.9058Y474.4212
X490.9558Y474.4212
X510.0058Y474.4212
X529.0558Y474.4212
X548.1058Y474.4212
X576.6554Y474.4212
X610.031Y474.4212
X324.281Y455.3712
X348.0554Y455.3712
X367.1054Y455.3712
X386.1554Y455.3712
X405.2054Y455.3712
X424.2554Y455.3712
X443.3054Y455.3712
X462.3554Y455.3712
X481.4054Y455.3712
X500.4554Y455.3712
X519.5054Y455.3712
X538.5554Y455.3712
X557.6054Y455.3712
X581.4306Y455.3712
X609.9802Y455.3712
X326.6686Y436.3212
X352.8306Y436.3212
X371.8806Y436.3212
X390.9306Y436.3212
X409.9806Y436.3212
X429.0306Y436.3212
X448.0806Y436.3212
X467.1306Y436.3212
X486.1806Y436.3212
X505.2306Y436.3212
X524.2806Y436.3212
X543.3306Y436.3212
X574.2678Y436.3212
X610.031Y436.3212
X331.42529Y417.27232
X362.381Y417.2712
X381.431Y417.2712
X400.481Y417.2712
X419.531Y417.2712
X438.581Y417.2712
X457.631Y417.2712
X476.681Y417.2712
X495.731Y417.2712
X514.781Y417.2712
X533.831Y417.2712
X562.3806Y417.2712
X590.981Y417.2712
X321.8934Y398.2212
X345.6678Y398.2212
X369.493Y398.2212
X441.2988Y398.272
X510.0058Y398.2212
X552.881Y398.2212
X571.931Y398.2212
X590.981Y398.2212
X610.031Y398.2212
X610.031Y417.2712
X531.4434Y398.2212
M30