;TYPE=PLATED
;Layer: PTH_Through
;EasyEDA Pro Client v2.2.43.4, 2026-09-22 16:51:31
;Gerber Generator version 0.3
M48
METRIC,LZ,0000.00000
;Hole size 1 = 0.25400 METRIC
T01C0.25400
;Hole size 2 = 0.30500 METRIC
T02C0.30500
;Hole size 3 = 0.38100 METRIC
T03C0.38100
;Hole size 4 = 0.50800 METRIC
T04C0.50800
;Hole size 5 = 0.60000 METRIC
T05C0.60000
;Hole size 6 = 0.60960 METRIC
T06C0.60960
;Hole size 7 = 3.20000 METRIC
T07C3.20000
%
G05
G90
T01
X458.75909Y405.23972
X457.30041Y406.7306
X460.06778Y405.23972
X464.02556Y405.29052
X462.59515Y406.72092
X387.38363Y408.3046
X540.85439Y406.4252
X517.98071Y406.98978
X458.63794Y406.72034
X431.61942Y409.3087
T02
X332.1304Y399.796
X326.898Y475.996
X334.4672Y437.7944
X370.2304Y418.9476
X354.0252Y401.2184
X327.91545Y492.08515
X332.5876Y456.8952
X346.8116Y474.5736
X338.9376Y418.90465
X365.8108Y498.1878
X365.1504Y476.0468
X360.6292Y437.9468
X384.81Y497.6876
X384.0988Y476.0976
X374.5992Y456.8952
X379.73Y437.9976
X388.7724Y418.8968
X403.7584Y498.3988
X408.2796Y418.7952
X403.098Y476.0468
X393.6492Y456.8952
X398.272Y437.896
X419.7604Y499.872
X427.3296Y418.846
X422.3512Y475.9452
X412.9024Y456.946
X417.2204Y437.9468
X441.9092Y473.5068
X448.13947Y399.88152
X436.3212Y437.896
X431.4952Y457.0476
X445.8716Y418.846
X451.4596Y498.1956
X465.1248Y418.846
X460.2988Y476.0468
X450.85Y456.946
X455.5744Y437.7944
X470.662Y496.6208
X479.298Y475.8944
X469.646Y457.0476
X474.5736Y437.8452
X489.4072Y497.2304
X503.3772Y418.7952
X498.4496Y475.996
X488.8484Y457.0476
X493.6236Y437.8452
X518.8712Y400.9644
X507.746Y456.8952
X517.7028Y475.8944
X512.7244Y437.9468
X522.478Y418.8968
X537.0576Y498.2972
X539.5468Y399.796
X536.3464Y475.8436
X527.1008Y456.8444
X531.6728Y437.9976
X541.0708Y418.7952
X556.1584Y497.9924
X560.5272Y399.796
X555.498Y475.8944
X546.1508Y456.946
X551.0276Y437.896
X575.1068Y498.2972
X579.4248Y399.8468
X565.39332Y456.91491
X581.66253Y437.94267
X570.13638Y418.86842
X598.64575Y399.79417
X598.59475Y418.91942
X588.85362Y456.91491
X584.00856Y475.93816
X355.9556Y456.946
X322.26419Y491.95263
X323.08794Y468.04993
X328.0112Y448.83571
X330.10258Y429.75429
X384.47426Y406.05462
X334.22922Y392.40712
X317.57824Y407.54376
X315.64133Y407.21794
X314.92189Y406.71264
X314.80081Y405.76922
X472.07535Y407.93225
X452.36557Y504.52452
X472.95608Y408.53155
X462.59126Y480.72232
X450.62776Y403.939
X433.30021Y459.48712
X438.43008Y442.64119
X451.3954Y404.76021
X448.40888Y423.57483
X453.15312Y399.34925
X450.00602Y402.50057
X338.7788Y408.98159
X350.4446Y408.93376
X507.90834Y491.62431
X379.50636Y408.97508
X471.30857Y404.23401
X376.76763Y399.78024
X467.07429Y408.71853
X484.63508Y406.6008
X487.01053Y406.88818
X558.00394Y406.25334
X574.66451Y408.63909
X483.997Y418.846
X427.101Y394.97
X427.101Y394.208
X425.45Y396.1892
X424.8912Y395.6304
X427.5836Y401.3708
X428.3964Y401.3708
X427.5836Y403.8092
X428.3964Y403.8092
X483.7176Y394.97
X484.4796Y394.97
X481.18395Y395.6304
X480.568Y395.01445
X479.8568Y406.2476
X463.1436Y393.8524
X460.1464Y401.574
X349.9104Y492.4044
X361.3912Y492.9632
X368.96995Y492.34632
X380.3396Y492.9632
X388.112Y492.4552
X399.542Y492.9632
X407.0096Y492.4044
X418.4396Y492.9632
X435.864Y492.4552
X447.1924Y492.9632
X454.6092Y493.3188
X466.4964Y492.9632
X474.0148Y492.4044
X485.3432Y492.9632
X493.0648Y492.4552
X504.444Y492.9632
X521.4112Y492.4044
X532.7904Y492.9632
X540.6644Y492.4044
X551.7896Y492.9632
X559.6636Y492.4552
X570.7888Y492.9632
X578.7644Y492.4552
X589.8896Y492.9632
X602.5896Y492.4552
X613.8164Y492.9632
X614.426Y470.2556
X602.2046Y468.56854
X580.39Y469.138
X568.8584Y468.2744
X551.7896Y469.138
X540.57662Y468.56854
X532.7904Y469.138
X521.24802Y468.46694
X513.842Y469.138
X502.13673Y469.27974
X494.7412Y469.138
X482.57431Y469.02574
X475.6404Y469.138
X463.90323Y469.22894
X444.754Y468.4776
X456.55679Y469.138
X437.6928Y469.138
X425.5008Y469.7984
X418.5412Y469.138
X406.0698Y468.122
X399.415Y469.138
X388.0612Y468.5792
X380.492Y469.138
X368.8334Y468.4776
X361.315Y469.138
X349.8342Y469.2396
X342.265Y469.138
X330.4794Y468.8332
X340.487Y449.58
X351.90161Y450.088
X359.41Y449.58
X370.713Y450.088
X378.46Y449.453
X390.1186Y450.088
X397.0274Y449.58
X409.1432Y450.088
X416.306Y449.58
X428.117Y450.088
X435.356Y449.58
X447.3702Y450.0372
X454.55272Y449.5452
X466.09Y450.088
X473.456Y449.58
X485.267Y450.088
X492.76Y449.58
X504.317Y450.088
X511.62669Y449.51854
X523.69784Y450.088
X530.86Y449.58
X542.9758Y450.0118
X549.91Y449.58
X562.98327Y450.0372
X573.659Y449.58
X585.39662Y450.088
X602.2086Y449.58
X613.918Y450.088
X614.0704Y431.038
X601.73559Y430.46854
X578.5104Y432.1556
X566.48681Y430.46854
X547.9542Y430.9872
X535.813Y431.038
X528.193Y431.038
X516.4328Y432.5874
X509.143Y431.038
X497.70792Y430.44392
X490.06211Y431.038
X478.536Y431.292
X471.7034Y430.9872
X459.3108Y430.52138
X452.3232Y431.038
X440.153Y430.42792
X433.2478Y431.038
X421.4114Y431.546
X414.782Y430.9872
X402.0312Y432.3588
X395.5288Y430.9872
X383.54Y431.165
X375.7295Y431.038
X364.1344Y432.2318
X357.7844Y430.9872
X345.03384Y430.44392
X354.584Y411.48
X367.0554Y411.988
X373.5832Y412.75
X385.3372Y411.988
X392.60296Y411.44274
X404.495Y411.988
X411.607Y411.734
X423.545Y411.988
X430.784Y411.607
X442.468Y411.988
X449.961Y411.48
X461.518Y411.988
X468.884Y411.607
X480.568Y411.988
X487.3244Y411.48
X499.491Y411.988
X506.857Y411.48
X518.795Y411.988
X525.77489Y411.37594
X537.845Y411.988
X554.482Y413.0294
X566.547Y411.988
X583.057Y411.48
X594.995Y411.988
X601.89601Y411.39194
X613.918Y411.988
X613.918Y392.938
X601.8355Y392.38824
X594.868Y392.938
X583.0316Y394.208
X575.818Y392.938
X563.18467Y393.84265
X556.768Y392.938
X545.10905Y392.31774
X535.432Y392.938
X522.88431Y394.09665
X514.096Y392.938
X504.2524Y390.7768
X487.172Y395.605
X489.077Y395.605
X481.6348Y396.7988
X446.151Y392.9634
X433.197Y392.303
X412.19034Y394.65251
X408.94Y393.7
X405.638Y399.288
X398.145Y393.065
X393.38573Y393.14683
X373.253Y392.938
X360.45846Y394.04585
X349.504Y392.938
X337.87297Y392.31865
X406.11591Y401.48149
X421.005Y393.446
X465.582Y401.701
X469.2904Y403.5552
X477.1644Y393.5984
X342.27792Y407.80992
X338.836Y411.25183
X479.8568Y405.13
X598.32603Y408.0256
X412.242Y409.1432
X452.31014Y403.94058
X416.7632Y396.5448
X414.782Y398.526
X510.8448Y500.2784
X593.95369Y493.07438
X318.4016Y503.33591
X329.5268Y503.38671
X334.6068Y503.38671
X339.6868Y503.38671
X344.7668Y503.38671
X354.9268Y503.38671
X375.2468Y503.38671
X385.4068Y503.38671
X390.4868Y503.38671
X395.5668Y503.38671
X405.7268Y503.38671
X410.8068Y503.38671
X426.0468Y503.38671
X431.1268Y503.38671
X441.2868Y503.38671
X451.4468Y503.28511
X461.6068Y503.38671
X471.7668Y503.38671
X476.8468Y503.38671
X490.3596Y503.38671
X497.1668Y503.38671
X527.6468Y503.38671
X537.8068Y503.38671
X547.9668Y503.38671
X558.1268Y503.38671
X563.2068Y503.38671
X583.5268Y503.38671
X598.7668Y503.38671
X608.9268Y503.38671
X314.2868Y498.30671
X329.5268Y498.30671
X334.6068Y498.30671
X344.7668Y498.30671
X349.8468Y498.30671
X354.9268Y498.30671
X370.1668Y498.30671
X390.4868Y498.30671
X405.7268Y498.30671
X410.8068Y498.30671
X420.9668Y498.30671
X426.0468Y498.30671
X431.1268Y498.30671
X436.2068Y498.30671
X446.3668Y498.30671
X456.5268Y498.30671
X471.7668Y498.30671
X476.8468Y498.30671
X487.0068Y498.30671
X492.0868Y498.30671
X497.1668Y498.30671
X511.1876Y494.49671
X542.8868Y498.30671
X558.1268Y498.30671
X563.2068Y498.30671
X573.3668Y498.30671
X578.4468Y498.30671
X583.5268Y498.30671
X603.8468Y498.30671
X329.5268Y493.22671
X334.6068Y493.22671
X339.6868Y493.22671
X344.7668Y493.22671
X349.8976Y494.54751
X401.104Y492.97271
X406.9968Y494.24271
X420.9668Y493.22671
X426.0468Y493.22671
X434.3272Y492.46471
X471.97Y492.41391
X487.1084Y492.97271
X492.0868Y493.22671
X553.0468Y493.22671
X558.1268Y493.22671
X573.3668Y493.22671
X578.4468Y493.22671
X598.7668Y493.22671
X314.2868Y488.14671
X324.4468Y488.14671
X329.5268Y488.14671
X334.6068Y488.14671
X339.6868Y488.14671
X344.7668Y488.14671
X349.8468Y488.14671
X354.9268Y488.14671
X360.0068Y488.14671
X370.1668Y488.14671
X375.2468Y488.14671
X380.3268Y488.14671
X390.4868Y488.14671
X395.5668Y488.14671
X400.6468Y488.14671
X405.7268Y488.14671
X410.8068Y488.14671
X415.8868Y488.14671
X426.0468Y488.14671
X431.1268Y488.14671
X436.2068Y488.14671
X441.2868Y488.14671
X446.3668Y488.14671
X451.4468Y488.14671
X461.6068Y488.14671
X466.6868Y488.14671
X471.7668Y488.14671
X476.8468Y488.14671
X481.9268Y488.14671
X487.0068Y488.14671
X492.0868Y488.14671
X497.1668Y488.14671
X507.3268Y488.14671
X517.4868Y488.14671
X522.5668Y488.14671
X527.6468Y488.14671
X542.8868Y488.14671
X547.9668Y488.14671
X553.0468Y488.14671
X558.1268Y488.14671
X563.2068Y488.14671
X568.2868Y488.14671
X573.3668Y488.14671
X578.4468Y488.14671
X583.5268Y488.14671
X588.6068Y488.14671
X593.6868Y488.14671
X598.7668Y488.14671
X603.8468Y488.14671
X608.9268Y488.14671
X614.0068Y488.14671
X319.4176Y483.72711
X324.4468Y483.72711
X329.5776Y483.72711
X334.556Y483.72711
X339.8392Y483.72711
X344.7668Y483.72711
X349.8976Y483.72711
X355.0284Y483.67631
X360.1084Y483.67631
X370.116Y483.67631
X375.2976Y483.67631
X380.3268Y483.67631
X390.4868Y483.67631
X395.516Y483.67631
X400.6468Y483.67631
X405.8792Y483.67631
X410.8576Y483.67631
X415.8868Y483.67631
X421.0684Y483.67631
X426.1484Y483.67631
X431.0252Y483.67631
X436.1052Y483.67631
X441.2868Y483.67631
X446.3668Y483.67631
X451.2944Y483.67631
X456.4252Y483.67631
X466.7376Y483.67631
X471.716Y483.67631
X475.018Y483.67631
X481.8252Y483.67631
X486.956Y483.67631
X491.9344Y483.67631
X495.7952Y483.67631
X502.196Y483.67631
X507.2252Y483.67631
X511.7464Y483.67631
X522.4652Y483.67631
X531.9648Y483.67631
X542.6836Y483.67631
X547.9668Y483.67631
X553.0468Y483.67631
X558.1268Y483.67631
X563.2068Y483.67631
X569.1504Y483.67631
X573.4684Y483.67631
X578.1928Y483.67631
X583.2728Y483.67631
X588.3528Y483.67631
X593.4328Y483.67631
X598.5128Y483.67631
X603.5928Y483.67631
X608.6728Y483.67631
X613.7528Y483.67631
X319.3668Y477.98671
X375.2468Y477.98671
X395.5668Y477.98671
X451.4468Y477.98671
X471.7668Y477.98671
X527.6468Y477.98671
X547.9668Y477.98671
X558.1268Y477.98671
X563.2068Y477.98671
X588.6068Y477.98671
X593.6868Y477.98671
X598.7668Y477.98671
X608.9268Y477.98671
X314.2868Y472.90671
X323.126Y472.75431
X329.5268Y472.90671
X334.6068Y472.90671
X349.8468Y472.90671
X354.9268Y472.90671
X360.0068Y472.90671
X370.1668Y472.90671
X380.3268Y472.90671
X390.4868Y472.90671
X400.6468Y472.90671
X405.7268Y472.90671
X410.8068Y472.90671
X426.0468Y472.90671
X431.1268Y472.90671
X436.2068Y472.90671
X446.3668Y472.90671
X456.5268Y472.90671
X466.6868Y472.90671
X481.9268Y472.90671
X487.0068Y472.90671
X502.2468Y472.90671
X507.3268Y472.90671
X512.4068Y472.90671
X517.4868Y472.90671
X522.5668Y472.90671
X532.7268Y472.90671
X542.8868Y472.90671
X558.1268Y472.90671
X563.2068Y472.90671
X568.2868Y472.90671
X573.3668Y472.90671
X588.6068Y472.90671
X593.128Y472.75431
X598.7668Y472.90671
X603.8468Y472.90671
X614.0068Y472.90671
X330.492Y467.57271
X349.8468Y467.82671
X366.0012Y468.48711
X385.5084Y468.58871
X406.0824Y469.65551
X420.9668Y467.82671
X425.488Y467.82671
X442.4044Y468.48711
X463.8928Y467.72511
X482.5872Y467.62351
X502.1452Y467.72511
X518.8076Y468.43631
X538.6704Y468.53791
X558.1268Y467.82671
X563.2068Y467.82671
X568.8456Y470.31591
X573.5192Y467.36951
X314.2868Y462.74671
X319.3668Y462.74671
X603.8468Y462.74671
X608.9268Y462.74671
X614.0068Y462.74671
X314.2868Y457.66671
X350.1008Y457.71751
X369.7096Y457.61591
X396.6844Y454.97431
X426.1992Y457.71751
X445.8588Y457.66671
X472.478Y455.02511
X502.2468Y457.66671
X522.5668Y457.66671
X548.9828Y454.92351
X569.0488Y457.66671
X583.5268Y457.66671
X593.6868Y457.66671
X598.7668Y457.66671
X314.2868Y452.58671
X319.8748Y453.70431
X334.6068Y452.58671
X354.9268Y452.58671
X370.1668Y452.58671
X390.4868Y452.58671
X410.4512Y451.92631
X431.1268Y452.58671
X447.84Y451.62151
X466.6868Y452.58671
X487.4132Y452.18031
X504.99Y451.62151
X524.04Y451.51991
X542.9884Y451.87551
X563.0036Y451.51991
X587.4384Y451.51991
X593.6868Y452.58671
X598.7668Y452.58671
X614.0068Y452.58671
X314.2868Y447.50671
X319.3668Y447.50671
X314.2868Y442.42671
X324.4468Y442.42671
X339.6868Y442.42671
X349.8468Y442.42671
X370.37Y441.81711
X389.3184Y441.91871
X400.6468Y441.61391
X404.3044Y441.56311
X419.6968Y442.17271
X426.0468Y442.17271
X446.3668Y442.42671
X461.6068Y442.42671
X466.6868Y442.42671
X476.8468Y442.42671
X481.9268Y442.42671
X502.2468Y442.42671
X517.9948Y442.42671
X522.5668Y442.42671
X542.1248Y441.66471
X553.0468Y442.42671
X558.1268Y442.42671
X563.2068Y442.42671
X568.2868Y442.42671
X573.3668Y442.42671
X583.5268Y442.42671
X588.6068Y442.42671
X593.6868Y442.42671
X603.8468Y442.42671
X608.9268Y442.42671
X329.5268Y437.34671
X376.2628Y432.52071
X385.4576Y435.61951
X395.5668Y437.34671
X400.7484Y435.67031
X451.4976Y435.00991
X462.8768Y435.46711
X477.1516Y436.22911
X553.0468Y437.34671
X558.1268Y437.34671
X563.2068Y437.34671
X583.5268Y437.34671
X588.6068Y437.34671
X598.7668Y437.34671
X334.6068Y432.26671
X339.6868Y432.26671
X357.7716Y432.77471
X395.516Y432.36831
X414.7692Y432.52071
X421.2208Y432.77471
X471.716Y432.57151
X492.0868Y432.26671
X497.1668Y432.26671
X509.8668Y432.52071
X547.9668Y432.26671
X553.0468Y432.26671
X558.1268Y432.26671
X563.2068Y432.26671
X583.5268Y432.26671
X588.6068Y432.26671
X593.6868Y432.26671
X614.0576Y432.26671
X319.9256Y427.18671
X322.5672Y427.18671
X329.5268Y427.18671
X334.6068Y427.18671
X339.6868Y427.18671
X344.7668Y427.18671
X349.8468Y427.18671
X354.9268Y427.18671
X360.0068Y427.18671
X365.0868Y427.18671
X370.1668Y427.18671
X375.2468Y427.18671
X380.3268Y427.18671
X390.4868Y427.18671
X395.5668Y427.18671
X400.6468Y427.18671
X410.8068Y427.18671
X415.8868Y427.18671
X420.9668Y427.18671
X426.0468Y427.18671
X431.1268Y427.18671
X436.2068Y427.18671
X446.3668Y427.18671
X451.4468Y427.18671
X466.6868Y427.18671
X471.7668Y427.18671
X476.8468Y427.18671
X487.0068Y427.18671
X492.0868Y427.18671
X507.3268Y427.18671
X512.4068Y427.18671
X517.4868Y427.18671
X522.5668Y427.18671
X527.6468Y427.18671
X532.7268Y427.18671
X542.8868Y427.18671
X547.9668Y427.18671
X553.0468Y427.18671
X558.1268Y427.18671
X563.2068Y427.18671
X568.2868Y427.18671
X573.3668Y427.18671
X578.4468Y427.18671
X583.5268Y427.18671
X588.6068Y427.18671
X593.6868Y427.18671
X598.7668Y427.18671
X603.8468Y427.18671
X608.9268Y427.18671
X614.0068Y427.18671
X319.3668Y422.10671
X329.5268Y422.10671
X344.7668Y422.10671
X349.8468Y422.10671
X360.0068Y422.10671
X380.3268Y422.10671
X390.4868Y422.10671
X399.4784Y422.10671
X410.4004Y422.76711
X415.9884Y422.76711
X436.2068Y422.10671
X451.4468Y422.10671
X456.5268Y422.10671
X471.7668Y422.10671
X476.4404Y422.10671
X487.0068Y422.10671
X492.0868Y422.10671
X512.4068Y422.10671
X532.7268Y422.10671
X542.8868Y422.10671
X547.9668Y422.10671
X553.0468Y422.10671
X558.1268Y422.10671
X573.3668Y422.10671
X578.4468Y422.10671
X588.6068Y422.10671
X603.8468Y422.10671
X608.9268Y422.10671
X319.3668Y417.02671
X324.4468Y417.02671
X334.556Y416.26471
X339.6868Y417.02671
X344.7668Y417.02671
X349.8468Y417.02671
X354.9268Y417.02671
X367.068Y413.47071
X370.1668Y417.02671
X375.2468Y417.02671
X390.4868Y417.02671
X395.5668Y417.02671
X410.8068Y417.02671
X415.8868Y417.02671
X431.1268Y417.02671
X451.4468Y417.02671
X471.7668Y417.02671
X487.0068Y417.02671
X492.0868Y417.02671
X502.2468Y417.02671
X507.3268Y417.02671
X517.944Y416.36631
X522.5668Y417.02671
X527.6468Y417.02671
X542.8868Y417.02671
X547.9668Y417.02671
X553.0468Y417.02671
X558.1268Y417.02671
X568.49Y417.22991
X573.3668Y417.02671
X578.4468Y417.02671
X583.5268Y417.02671
X594.2456Y416.51871
X598.7668Y417.02671
X603.8468Y417.02671
X319.3668Y411.94671
X339.5344Y413.52151
X344.7668Y411.48951
X349.9992Y411.48951
X370.5224Y411.33711
X390.5884Y411.43871
X405.9808Y411.99751
X411.6196Y413.11511
X425.3864Y411.99751
X471.7668Y411.94671
X481.9268Y411.99751
X487.3116Y413.21671
X506.8696Y413.06431
X542.8868Y411.94671
X568.2868Y411.99751
X578.7008Y411.48951
X583.0696Y413.36911
X542.836Y406.71431
X547.9668Y406.71431
X553.0468Y406.71431
X563.2068Y406.61271
X568.2868Y406.61271
X573.4176Y406.61271
X583.5268Y406.61271
X588.6068Y406.66351
X594.1948Y406.61271
X597.192Y407.17151
X603.8468Y407.17151
X608.9268Y407.17151
X614.0068Y407.17151
X344.7668Y401.78671
X355.8412Y401.17711
X360.0068Y401.78671
X368.8968Y402.44711
X385.4068Y401.78671
X390.4868Y401.78671
X400.6468Y401.78671
X441.2868Y401.78671
X456.5268Y401.78671
X542.4804Y401.22791
X553.0468Y401.78671
X597.954Y401.07551
X608.9268Y401.78671
X314.2868Y396.70671
X319.3668Y396.70671
X324.4468Y396.70671
X329.5268Y396.70671
X339.6868Y396.70671
X349.8468Y396.70671
X354.9268Y396.70671
X360.0068Y396.70671
X365.0868Y396.70671
X405.6252Y396.70671
X410.8068Y396.70671
X436.2068Y397.26551
X456.5268Y396.70671
X507.3268Y396.70671
X512.5592Y396.70671
X517.4868Y396.70671
X522.5668Y396.70671
X527.6468Y396.70671
X547.9668Y396.70671
X563.2068Y396.70671
X568.2868Y396.70671
X583.5268Y396.70671
X588.6068Y396.70671
X593.6868Y396.70671
X598.7668Y396.70671
X603.8468Y396.70671
X614.0068Y396.70671
X314.2868Y391.62671
X354.9268Y391.62671
X360.464Y392.03311
X433.2096Y391.06791
X447.6368Y391.32191
X522.8716Y391.67751
X545.122Y390.86471
X549.9988Y390.86471
X563.2068Y391.62671
X581.0376Y392.99831
X583.0696Y391.77911
X599.9352Y392.38871
X508.8888Y492.53937
X508.8888Y493.30137
X495.376Y405.003
X495.376Y405.765
X486.156Y400.7612
X487.172Y400.7612
X476.6564Y397.8656
X472.45932Y396.80501
X475.0308Y407.5176
X419.2524Y405.384
X417.4744Y405.13
X520.29059Y496.56559
X509.1684Y494.4872
X419.354Y397.8148
X425.3484Y397.3576
X425.8056Y404.1648
X496.2144Y403.6568
X494.40192Y401.81539
X421.691Y404.1646
X436.931Y403.8598
X497.9418Y403.6566
X457.251Y398.7798
X446.1766Y394.5126
X488.1374Y393.6998
X492.811Y393.6998
X417.32534Y400.11123
X473.964Y401.2692
X474.472Y396.7988
X382.8288Y393.7
X507.035Y506.7298
X514.655Y505.917
X518.16321Y494.538
X518.719Y490.5754
X320.4972Y434.848
X510.2616Y495.31841
X512.25063Y495.31841
X471.7668Y437.34671
X443.5856Y413.512
T03
X616.75928Y489.55608
X616.7628Y488.442
X616.4072Y466.6996
X616.4072Y465.582
X616.59251Y447.83491
X616.6104Y446.8368
X616.69136Y428.57896
X616.712Y427.6344
X615.95Y408.9908
X615.95Y407.7716
T04
X379.1712Y390.3472
X380.7968Y390.3472
T05
X510.07587Y502.45936G85X510.07587Y501.55936
X518.72589Y502.4594G85X518.72589Y501.55937
X510.07582Y506.50943G85X510.07582Y505.90943
X518.72579Y506.50943G85X518.72579Y505.90943
T06
X508.4886Y503.10376
X618.7173Y392.27656
X617.5502Y392.27656
X379.2347Y394.7795
X380.746Y394.7668
X501.142Y390.906
X502.3612Y390.906
X498.2718Y394.6906
X498.2464Y393.192
X516.0776Y499.364
X512.7752Y499.364
T07
X337.93037Y498.27645
X597.21015Y498.2464
X595.84071Y474.35714
X339.9194Y435.29063
X332.72831Y396.17313
X541.98401Y396.12213
X555.65219Y436.20864
X594.46369Y436.20864
M30