G04 Layer: BottomSolderMaskLayer*
G04 EasyEDA Pro v2.2.43.4, 2026-09-22 16:51:30*
G04 Gerber Generator version 0.3*
G04 Scale: 100 percent, Rotated: No, Reflected: No*
G04 Dimensions in millimeters*
G04 Leading zeros omitted, absolute positions, 4 integers and 5 decimals*
G04 Generated by one-click*
%FSLAX45Y45*%
%MOMM*%
%AMRoundRect*1,1,$1,$2,$3*1,1,$1,$4,$5*1,1,$1,0-$2,0-$3*1,1,$1,0-$4,0-$5*20,1,$1,$2,$3,$4,$5,0*20,1,$1,$4,$5,0-$2,0-$3,0*20,1,$1,0-$2,0-$3,0-$4,0-$5,0*20,1,$1,0-$4,0-$5,$2,$3,0*4,1,4,$2,$3,$4,$5,0-$2,0-$3,0-$4,0-$5,$2,$3,0*%
%ADD10RoundRect,0.09495X-0.67833X-0.70833X-0.67833X0.70833*%
%ADD11RoundRect,0.09207X-0.48476X-0.44477X-0.48476X0.44477*%
%ADD12RoundRect,0.09387X-0.69237X-0.57013X-0.69237X0.57013*%
%ADD13RoundRect,0.09618X-1.00271X0.85271X1.00271X0.85271*%
%ADD14RoundRect,0.08109X-0.16026X0.76026X0.16026X0.76026*%
%ADD15RoundRect,0.09554X-0.75303X-0.95303X-0.75303X0.95303*%
%ADD16O,1.6016X0.4016*%
%ADD17O,0.4016X1.6016*%
%ADD18RoundRect,0.09288X-1.23936X0.49437X1.23936X0.49437*%
%ADD19RoundRect,0.1032X-1.23693X1.80193X1.23693X1.80193*%
%ADD20RoundRect,0.09774X-1.23693X1.80193X1.23693X1.80193*%
%ADD21RoundRect,0.08669X-0.28168X0.55667X0.28168X0.55667*%
%ADD22RoundRect,0.08002X-0.16X0.56X0.16X0.56*%
%ADD23O,1.20002X2.10002*%
%ADD24O,1.30002X1.90002*%
%ADD25RoundRect,0.09424X-0.60368X-0.70368X-0.60368X0.70368*%
%ADD26RoundRect,0.09138X-0.40835X0.43711X0.40835X0.43711*%
%ADD27RoundRect,0.09131X-0.40514X0.45514X0.40514X0.45514*%
%ADD28RoundRect,0.09131X-0.45514X-0.40514X-0.45514X0.40514*%
%ADD29RoundRect,0.09495X-0.70833X0.67833X0.70833X0.67833*%
%ADD30RoundRect,0.09387X-0.57013X0.69237X0.57013X0.69237*%
%ADD31RoundRect,0.09554X-0.95303X0.75303X0.95303X0.75303*%
%ADD32O,1.60002X0.37003*%
%ADD33O,0.37003X1.60002*%
%ADD34RoundRect,0.09632X-1.25185X1.27686X1.25185X1.27686*%
%ADD35RoundRect,0.08756X-0.27302X0.54302X0.27302X0.54302*%
G75*


G04 Pad Start*
G54D10*
G01X31340120Y49443640D03*
G01X31340120Y49243640D03*
G01X31338520Y47064600D03*
G01X31338520Y46864600D03*
G01X31821120Y45154520D03*
G01X31821120Y44954520D03*
G01X32054800Y43254600D03*
G01X32054800Y43054600D03*
G01X31580286Y39441490D03*
G01X31580286Y39241490D03*
G01X33248317Y47066013D03*
G01X33248317Y46866014D03*
G01X32533637Y41346939D03*
G01X32533637Y41146940D03*
G01X33962717Y39439610D03*
G01X33962717Y39239610D03*
G01X35153600Y49447120D03*
G01X35153600Y49247120D03*
G01X35156619Y47062534D03*
G01X35156619Y46862534D03*
G01X34198560Y45159600D03*
G01X34198560Y44959600D03*
G01X34675898Y43252137D03*
G01X34675898Y43052138D03*
G01X35627459Y41348539D03*
G01X35627459Y41148540D03*
G01X37062000Y49445252D03*
G01X37062000Y49245252D03*
G01X37058600Y47064600D03*
G01X37058600Y46864600D03*
G01X36108640Y45159600D03*
G01X36108640Y44959600D03*
G01X36581000Y43253737D03*
G01X36581000Y43053738D03*
G01X37532840Y41345339D03*
G01X37532840Y41145339D03*
G01X36342240Y39439610D03*
G01X36342240Y39239610D03*
G01X38968680Y49447120D03*
G01X38968680Y49247120D03*
G01X38965311Y47060933D03*
G01X38965311Y46860934D03*
G01X38008560Y45154520D03*
G01X38008560Y44954520D03*
G01X38484590Y43255617D03*
G01X38484590Y43055617D03*
G01X39441230Y41352019D03*
G01X39441230Y41152020D03*
G01X40868600Y49442040D03*
G01X40868600Y49242040D03*
G01X40872101Y47066013D03*
G01X40872101Y46866014D03*
G01X39913560Y45154520D03*
G01X39913560Y44954520D03*
G01X40391080Y43254600D03*
G01X40391080Y43054600D03*
G01X41342941Y41346939D03*
G01X41342941Y41146940D03*
G01X42768520Y47059520D03*
G01X42768520Y46859520D03*
G01X41823640Y45154520D03*
G01X41823640Y44954520D03*
G01X42296080Y43254600D03*
G01X42296080Y43054600D03*
G01X43249732Y41341859D03*
G01X43249732Y41141860D03*
G01X43485012Y39439610D03*
G01X43485012Y39239610D03*
G01X43732522Y49443651D03*
G01X43732522Y49243652D03*
G01X44678600Y47064600D03*
G01X44678600Y46864600D03*
G01X43723560Y45164680D03*
G01X43723560Y44964680D03*
G01X44199882Y43250537D03*
G01X44199882Y43050537D03*
G01X45156120Y41349600D03*
G01X45156120Y41149600D03*
G01X45629153Y49443651D03*
G01X45629153Y49243652D03*
G01X46583600Y47064600D03*
G01X46583600Y46864600D03*
G01X45628560Y45154520D03*
G01X45628560Y44954520D03*
G01X46103193Y43252137D03*
G01X46103193Y43052138D03*
G01X47059833Y41348539D03*
G01X47059833Y41148540D03*
G01X47538640Y49447120D03*
G01X47538640Y49247120D03*
G01X48488600Y47064600D03*
G01X48488600Y46864600D03*
G01X47537544Y45157335D03*
G01X47537544Y44957336D03*
G01X48011080Y43249520D03*
G01X48011080Y43049520D03*
G01X48963424Y41350419D03*
G01X48963424Y41150419D03*
G01X49437654Y49443651D03*
G01X49437654Y49243652D03*
G01X50388520Y47064600D03*
G01X50388520Y46864600D03*
G01X49439255Y45157335D03*
G01X49439255Y44957336D03*
G01X49911695Y43252137D03*
G01X49911695Y43052138D03*
G01X50871815Y41346939D03*
G01X50871815Y41146940D03*
G01X50428850Y39442906D03*
G01X50428850Y39242906D03*
G01X52296005Y49445252D03*
G01X52296005Y49245252D03*
G01X52298600Y47059520D03*
G01X52298600Y46859520D03*
G01X51343560Y45159600D03*
G01X51343560Y44959600D03*
G01X51823565Y43252137D03*
G01X51823565Y43052138D03*
G01X52771925Y41345339D03*
G01X52771925Y41145339D03*
G01X52536366Y39439610D03*
G01X52536366Y39239610D03*
G01X54207307Y49443651D03*
G01X54207307Y49243652D03*
G01X54203600Y47064600D03*
G01X54203600Y46864600D03*
G01X53248787Y45157335D03*
G01X53248787Y44957336D03*
G01X53724707Y43253737D03*
G01X53724707Y43053738D03*
G01X56109018Y49448731D03*
G01X56109018Y49248732D03*
G01X55155578Y45157335D03*
G01X55155578Y44957336D03*
G01X56824880Y43254600D03*
G01X56824880Y43054600D03*
G01X55633098Y41352019D03*
G01X55633098Y41152020D03*
G01X56584658Y39439610D03*
G01X56584658Y39239610D03*
G01X58017409Y49445252D03*
G01X58017409Y49245252D03*
G01X57063640Y47064600D03*
G01X57063640Y46864600D03*
G01X57534809Y45157335D03*
G01X57534809Y44957336D03*
G01X58489849Y41346939D03*
G01X58489849Y41146940D03*
G01X58491449Y39439610D03*
G01X58491449Y39239610D03*
G01X60396639Y49445252D03*
G01X60396639Y49245252D03*
G01X60396120Y47064600D03*
G01X60396120Y46864600D03*
G01X60391040Y45154520D03*
G01X60391040Y44954520D03*
G01X60391040Y43254600D03*
G01X60391040Y43054600D03*
G01X60396639Y41346939D03*
G01X60396639Y41146940D03*
G01X60395039Y39436410D03*
G01X60395039Y39236410D03*
G01X54676040Y39439520D03*
G01X54676040Y39239520D03*
G54D11*
G01X32552640Y49980571D03*
G01X32552640Y49658549D03*
G01X36362640Y49990731D03*
G01X36362640Y49668709D03*
G01X38267640Y49980571D03*
G01X38267640Y49658549D03*
G01X40172640Y49990731D03*
G01X40172640Y49668709D03*
G01X42077640Y49980571D03*
G01X42077640Y49658549D03*
G01X44932600Y49990731D03*
G01X44932600Y49668709D03*
G01X46837600Y49975491D03*
G01X46837600Y49653469D03*
G01X48742600Y49990731D03*
G01X48742600Y49668709D03*
G01X50657760Y50000891D03*
G01X50657760Y49678869D03*
G01X53507640Y49980571D03*
G01X53507640Y49658549D03*
G01X55417720Y49980571D03*
G01X55417720Y49658549D03*
G01X57312560Y49980571D03*
G01X57312560Y49658549D03*
G01X59217560Y49995811D03*
G01X59217560Y49673789D03*
G01X61595000Y49995811D03*
G01X61595000Y49673789D03*
G01X32542480Y47603131D03*
G01X32542480Y47281109D03*
G01X33025080Y45687971D03*
G01X33025080Y45365949D03*
G01X33263840Y43782971D03*
G01X33263840Y43460949D03*
G01X32791400Y39978051D03*
G01X32791400Y39656029D03*
G01X34452560Y47603131D03*
G01X34452560Y47281109D03*
G01X33741360Y41888131D03*
G01X33741360Y41566109D03*
G01X35168840Y39983131D03*
G01X35168840Y39661109D03*
G01X36362640Y47603131D03*
G01X36362640Y47281109D03*
G01X35407600Y45698131D03*
G01X35407600Y45376109D03*
G01X35880040Y43788051D03*
G01X35880040Y43466029D03*
G01X36845240Y41888131D03*
G01X36845240Y41566109D03*
G01X38262560Y47613291D03*
G01X38262560Y47291269D03*
G01X37312600Y45687971D03*
G01X37312600Y45365949D03*
G01X37795200Y43798211D03*
G01X37795200Y43476189D03*
G01X38745160Y41893211D03*
G01X38745160Y41571189D03*
G01X37556440Y39978051D03*
G01X37556440Y39656029D03*
G01X40172640Y47603131D03*
G01X40172640Y47281109D03*
G01X39217600Y45687971D03*
G01X39217600Y45365949D03*
G01X39690040Y43782971D03*
G01X39690040Y43460949D03*
G01X40655240Y41883051D03*
G01X40655240Y41561029D03*
G01X42077640Y47592971D03*
G01X42077640Y47270949D03*
G01X41122600Y45693051D03*
G01X41122600Y45371029D03*
G01X41605200Y43793131D03*
G01X41605200Y43471109D03*
G01X42555160Y41883051D03*
G01X42555160Y41561029D03*
G01X43982640Y47598051D03*
G01X43982640Y47276029D03*
G01X43027600Y45703211D03*
G01X43027600Y45381189D03*
G01X43510200Y43788051D03*
G01X43510200Y43466029D03*
G01X44460160Y41883051D03*
G01X44460160Y41561029D03*
G01X44693840Y39988211D03*
G01X44693840Y39666189D03*
G01X45887640Y47603131D03*
G01X45887640Y47281109D03*
G01X44932600Y45693051D03*
G01X44932600Y45371029D03*
G01X45415200Y43777891D03*
G01X45415200Y43455869D03*
G01X46365160Y41883051D03*
G01X46365160Y41561029D03*
G01X47787560Y47587891D03*
G01X47787560Y47265869D03*
G01X46837600Y45703211D03*
G01X46837600Y45381189D03*
G01X47315120Y43782971D03*
G01X47315120Y43460949D03*
G01X48265080Y41883051D03*
G01X48265080Y41561029D03*
G01X49692560Y47598051D03*
G01X49692560Y47276029D03*
G01X48742600Y45698131D03*
G01X48742600Y45376109D03*
G01X49220120Y43777891D03*
G01X49220120Y43455869D03*
G01X50170080Y41883051D03*
G01X50170080Y41561029D03*
G01X52075080Y41888131D03*
G01X52075080Y41566109D03*
G01X51602640Y39988211D03*
G01X51602640Y39666189D03*
G01X51125120Y43793131D03*
G01X51125120Y43471109D03*
G01X50647600Y45687971D03*
G01X50647600Y45365949D03*
G01X51602640Y47587891D03*
G01X51602640Y47265869D03*
G01X53502560Y47587891D03*
G01X53502560Y47265869D03*
G01X52547520Y45682891D03*
G01X52547520Y45360869D03*
G01X53030120Y43793131D03*
G01X53030120Y43471109D03*
G01X53746400Y39978051D03*
G01X53746400Y39656029D03*
G01X53985160Y41877971D03*
G01X53985160Y41555949D03*
G01X55407560Y47587891D03*
G01X55407560Y47265869D03*
G01X54462680Y45693051D03*
G01X54462680Y45371029D03*
G01X54935120Y43788051D03*
G01X54935120Y43466029D03*
G01X55890160Y39978051D03*
G01X55890160Y39656029D03*
G01X56357520Y45687971D03*
G01X56357520Y45365949D03*
G01X58028840Y43788051D03*
G01X58028840Y43466029D03*
G01X56845200Y41883051D03*
G01X56845200Y41561029D03*
G01X57795160Y39983131D03*
G01X57795160Y39661109D03*
G01X58262520Y47592971D03*
G01X58262520Y47270949D03*
G01X58745120Y45687971D03*
G01X58745120Y45365949D03*
G01X59700160Y41888131D03*
G01X59700160Y41566109D03*
G01X59710320Y39978051D03*
G01X59710320Y39656029D03*
G01X61605160Y47592971D03*
G01X61605160Y47270949D03*
G01X61600080Y45693051D03*
G01X61600080Y45371029D03*
G01X61605160Y43767731D03*
G01X61605160Y43445709D03*
G01X61610240Y41883051D03*
G01X61610240Y41561029D03*
G01X61605160Y39967891D03*
G01X61605160Y39645869D03*
G54D12*
G01X32419822Y49453542D03*
G01X32419822Y49253543D03*
G01X32540142Y47064144D03*
G01X32540142Y46864144D03*
G01X33036382Y45157346D03*
G01X33036382Y44957346D03*
G01X33271662Y43253748D03*
G01X33271662Y43053748D03*
G01X33739022Y41348550D03*
G01X33739022Y41148550D03*
G01X32804302Y39444700D03*
G01X32804302Y39244701D03*
G01X61612624Y49297932D03*
G01X61612624Y49097932D03*
G01X61600085Y47022000D03*
G01X61600085Y46822001D03*
G01X61565982Y45150490D03*
G01X61565982Y44950491D03*
G01X61608456Y43217544D03*
G01X61608456Y43017545D03*
G01X61602235Y41334797D03*
G01X61602235Y41134797D03*
G01X61549280Y39439520D03*
G01X61549280Y39239520D03*
G54D10*
G01X45450588Y39718019D03*
G01X45450588Y39518019D03*
G54D13*
G01X48581196Y39369505D03*
G01X48091204Y39369505D03*
G54D14*
G01X48261207Y39624495D03*
G01X48311194Y39624495D03*
G01X48361206Y39624495D03*
G01X48411194Y39624495D03*
G54D12*
G01X45450588Y40165059D03*
G01X45450588Y39965059D03*
G54D15*
G01X45785868Y39431380D03*
G01X45785868Y40231378D03*
G54D16*
G01X46685619Y39629931D03*
G01X46685619Y39679943D03*
G01X46685619Y39729930D03*
G01X46685619Y39779943D03*
G01X46685619Y39829930D03*
G01X46685619Y39879943D03*
G01X46685619Y39929930D03*
G01X46685619Y39979943D03*
G01X46685619Y40029930D03*
G01X46685619Y40079942D03*
G01X46685619Y40129930D03*
G01X46685619Y40179942D03*
G01X46685619Y40229929D03*
G01X46685619Y40279942D03*
G01X46685619Y40329929D03*
G01X46685619Y40379942D03*
G54D17*
G01X46880614Y40574938D03*
G01X46930627Y40574938D03*
G01X46980614Y40574938D03*
G01X47030627Y40574938D03*
G01X47080614Y40574938D03*
G01X47130627Y40574938D03*
G01X47180614Y40574938D03*
G01X47230626Y40574938D03*
G01X47280614Y40574938D03*
G01X47330626Y40574938D03*
G01X47380613Y40574938D03*
G01X47430626Y40574938D03*
G01X47480613Y40574938D03*
G01X47530626Y40574938D03*
G01X47580613Y40574938D03*
G01X47630626Y40574938D03*
G54D16*
G01X47823259Y40379942D03*
G01X47823259Y40329929D03*
G01X47823259Y40279942D03*
G01X47823259Y40229929D03*
G01X47823259Y40179942D03*
G01X47823259Y40129930D03*
G01X47823259Y40079942D03*
G01X47823259Y40029930D03*
G01X47823259Y39979943D03*
G01X47823259Y39929930D03*
G01X47823259Y39879943D03*
G01X47823259Y39829930D03*
G01X47823259Y39779943D03*
G01X47823259Y39729930D03*
G01X47823259Y39679943D03*
G01X47823259Y39629931D03*
G54D17*
G01X47630626Y39434935D03*
G01X47580613Y39434935D03*
G01X47530626Y39434935D03*
G01X47480613Y39434935D03*
G01X47430626Y39434935D03*
G01X47380613Y39434935D03*
G01X47330626Y39434935D03*
G01X47280614Y39434935D03*
G01X47230626Y39434935D03*
G01X47180614Y39434935D03*
G01X47130627Y39434935D03*
G01X47080614Y39434935D03*
G01X47030627Y39434935D03*
G01X46980614Y39434935D03*
G01X46930627Y39434935D03*
G01X46880614Y39434935D03*
G54D18*
G01X49723682Y40213131D03*
G01X49723682Y39983134D03*
G01X49723682Y39753137D03*
G54D20*
G01X49156703Y39983134D03*
G54D21*
G01X51120078Y50145937D03*
G01X51200088Y50145937D03*
G54D22*
G01X51265087Y50145937D03*
G01X51315099Y50145937D03*
G01X51365087Y50145937D03*
G01X51415074Y50145937D03*
G01X51465086Y50145937D03*
G01X51515074Y50145937D03*
G01X51565086Y50145937D03*
G01X51615099Y50145937D03*
G54D21*
G01X51680097Y50145937D03*
G01X51760082Y50145937D03*
G54D23*
G01X51007582Y50200928D03*
G01X51872579Y50200928D03*
G54D24*
G01X51007582Y50620943D03*
G01X51872579Y50620943D03*
G54D25*
G01X46325849Y39949989D03*
G01X46325849Y39729974D03*
G01X46155847Y39729974D03*
G01X46155847Y39949989D03*
G54D26*
G01X49256544Y40614600D03*
G01X49407216Y40614600D03*
G01X49251464Y40457120D03*
G01X49402136Y40457120D03*
G01X48906024Y40299640D03*
G01X49056696Y40299640D03*
G54D27*
G01X46175926Y39540262D03*
G01X46315930Y39540262D03*
G01X46315930Y40160022D03*
G01X46175926Y40160022D03*
G01X49560414Y39350154D03*
G01X49420410Y39350154D03*
G54D28*
G01X48724452Y39850250D03*
G01X48724452Y39710245D03*
G54D27*
G01X49559212Y39522598D03*
G01X49419207Y39522598D03*
G54D28*
G01X48905097Y39852485D03*
G01X48905097Y39712481D03*
G01X47853600Y39350798D03*
G01X47853600Y39490802D03*
G54D27*
G01X47913442Y40777160D03*
G01X47773438Y40777160D03*
G01X40752156Y39532517D03*
G01X40892161Y39532517D03*
G01X40895166Y40148149D03*
G01X40755161Y40148149D03*
G54D29*
G01X39723334Y39801920D03*
G01X39923333Y39801920D03*
G54D13*
G01X42967796Y39369505D03*
G01X42477804Y39369505D03*
G54D14*
G01X42647807Y39624495D03*
G01X42697794Y39624495D03*
G01X42747806Y39624495D03*
G01X42797794Y39624495D03*
G54D30*
G01X40344871Y39800037D03*
G01X40144871Y39800037D03*
G54D31*
G01X39637359Y40128075D03*
G01X40437358Y40128075D03*
G54D32*
G01X41275013Y39620303D03*
G01X41275013Y39670315D03*
G01X41275013Y39720303D03*
G01X41275013Y39770315D03*
G01X41275013Y39820302D03*
G01X41275013Y39870315D03*
G01X41275013Y39920302D03*
G01X41275013Y39970315D03*
G01X41275013Y40020302D03*
G01X41275013Y40070315D03*
G01X41275013Y40120302D03*
G01X41275013Y40170314D03*
G54D33*
G01X41425000Y40320301D03*
G01X41475013Y40320301D03*
G01X41525000Y40320301D03*
G01X41575013Y40320301D03*
G01X41625000Y40320301D03*
G01X41675012Y40320301D03*
G01X41725000Y40320301D03*
G01X41775012Y40320301D03*
G01X41824999Y40320301D03*
G01X41875012Y40320301D03*
G01X41924999Y40320301D03*
G01X41975012Y40320301D03*
G54D32*
G01X42124999Y40170314D03*
G01X42124999Y40120302D03*
G01X42124999Y40070315D03*
G01X42124999Y40020302D03*
G01X42124999Y39970315D03*
G01X42124999Y39920302D03*
G01X42124999Y39870315D03*
G01X42124999Y39820302D03*
G01X42124999Y39770315D03*
G01X42124999Y39720303D03*
G01X42124999Y39670315D03*
G01X42124999Y39620303D03*
G54D33*
G01X41975012Y39470316D03*
G01X41924999Y39470316D03*
G01X41875012Y39470316D03*
G01X41824999Y39470316D03*
G01X41775012Y39470316D03*
G01X41725000Y39470316D03*
G01X41675012Y39470316D03*
G01X41625000Y39470316D03*
G01X41575013Y39470316D03*
G01X41525000Y39470316D03*
G01X41475013Y39470316D03*
G01X41425000Y39470316D03*
G54D25*
G01X40912004Y39939956D03*
G01X40912004Y39719941D03*
G01X40742002Y39719941D03*
G01X40742002Y39939956D03*
G54D28*
G01X41097200Y39478102D03*
G01X41097200Y39338098D03*
G01X42252900Y39376198D03*
G01X42252900Y39516202D03*
G54D27*
G01X42452442Y40421560D03*
G01X42312438Y40421560D03*
G54D28*
G01X51120040Y49777802D03*
G01X51120040Y49637798D03*
G01X50919305Y49777609D03*
G01X50919305Y49637604D03*
G01X38417500Y39998498D03*
G01X38417500Y40138502D03*
G01X39497000Y39452702D03*
G01X39497000Y39312698D03*
G01X38223107Y40001137D03*
G01X38223107Y40141142D03*
G01X39674800Y39452702D03*
G01X39674800Y39312698D03*
G54D18*
G01X38591211Y39368603D03*
G01X38591211Y39598600D03*
G01X38591211Y39828597D03*
G54D20*
G01X39158189Y39598600D03*
G36*
G01X32269120Y49250240D02*
G01X32135120Y49250240D01*
G02X32130040Y49255320I0J5080D01*
G01X32130040Y49337320D01*
G02X32135120Y49342400I5080J0D01*
G01X32269120Y49342400D01*
G02X32274200Y49337320I0J-5080D01*
G01X32274200Y49255320D01*
G02X32269120Y49250240I-5080J0D01*
G37*
G36*
G01X32135120Y49489720D02*
G01X32269120Y49489720D01*
G02X32274200Y49484640I0J-5080D01*
G01X32274200Y49402640D01*
G02X32269120Y49397560I-5080J0D01*
G01X32135120Y49397560D01*
G02X32130040Y49402640I0J5080D01*
G01X32130040Y49484640D01*
G02X32135120Y49489720I5080J0D01*
G37*
G54D34*
G01X32558071Y50331736D03*
G36*
G01X31771280Y49250240D02*
G01X31637280Y49250240D01*
G02X31632200Y49255320I0J5080D01*
G01X31632200Y49337320D01*
G02X31637280Y49342400I5080J0D01*
G01X31771280Y49342400D01*
G02X31776360Y49337320I0J-5080D01*
G01X31776360Y49255320D01*
G02X31771280Y49250240I-5080J0D01*
G37*
G36*
G01X31771280Y49397560D02*
G01X31637280Y49397560D01*
G02X31632200Y49402640I0J5080D01*
G01X31632200Y49484640D01*
G02X31637280Y49489720I5080J0D01*
G01X31771280Y49489720D01*
G02X31776360Y49484640I0J-5080D01*
G01X31776360Y49402640D01*
G02X31771280Y49397560I-5080J0D01*
G37*
G01X31190580Y50077736D03*
G36*
G01X36079120Y49250240D02*
G01X35945120Y49250240D01*
G02X35940040Y49255320I0J5080D01*
G01X35940040Y49337320D01*
G02X35945120Y49342400I5080J0D01*
G01X36079120Y49342400D01*
G02X36084200Y49337320I0J-5080D01*
G01X36084200Y49255320D01*
G02X36079120Y49250240I-5080J0D01*
G37*
G36*
G01X35945120Y49489720D02*
G01X36079120Y49489720D01*
G02X36084200Y49484640I0J-5080D01*
G01X36084200Y49402640D01*
G02X36079120Y49397560I-5080J0D01*
G01X35945120Y49397560D01*
G02X35940040Y49402640I0J5080D01*
G01X35940040Y49484640D01*
G02X35945120Y49489720I5080J0D01*
G37*
G01X36368071Y50331736D03*
G36*
G01X35581280Y49250240D02*
G01X35447280Y49250240D01*
G02X35442200Y49255320I0J5080D01*
G01X35442200Y49337320D01*
G02X35447280Y49342400I5080J0D01*
G01X35581280Y49342400D01*
G02X35586360Y49337320I0J-5080D01*
G01X35586360Y49255320D01*
G02X35581280Y49250240I-5080J0D01*
G37*
G36*
G01X35581280Y49397560D02*
G01X35447280Y49397560D01*
G02X35442200Y49402640I0J5080D01*
G01X35442200Y49484640D01*
G02X35447280Y49489720I5080J0D01*
G01X35581280Y49489720D01*
G02X35586360Y49484640I0J-5080D01*
G01X35586360Y49402640D01*
G02X35581280Y49397560I-5080J0D01*
G37*
G01X35000580Y50077736D03*
G36*
G01X37984120Y49250240D02*
G01X37850120Y49250240D01*
G02X37845040Y49255320I0J5080D01*
G01X37845040Y49337320D01*
G02X37850120Y49342400I5080J0D01*
G01X37984120Y49342400D01*
G02X37989200Y49337320I0J-5080D01*
G01X37989200Y49255320D01*
G02X37984120Y49250240I-5080J0D01*
G37*
G36*
G01X37850120Y49489720D02*
G01X37984120Y49489720D01*
G02X37989200Y49484640I0J-5080D01*
G01X37989200Y49402640D01*
G02X37984120Y49397560I-5080J0D01*
G01X37850120Y49397560D01*
G02X37845040Y49402640I0J5080D01*
G01X37845040Y49484640D01*
G02X37850120Y49489720I5080J0D01*
G37*
G01X38273071Y50331736D03*
G36*
G01X37486280Y49250240D02*
G01X37352280Y49250240D01*
G02X37347200Y49255320I0J5080D01*
G01X37347200Y49337320D01*
G02X37352280Y49342400I5080J0D01*
G01X37486280Y49342400D01*
G02X37491360Y49337320I0J-5080D01*
G01X37491360Y49255320D01*
G02X37486280Y49250240I-5080J0D01*
G37*
G36*
G01X37486280Y49397560D02*
G01X37352280Y49397560D01*
G02X37347200Y49402640I0J5080D01*
G01X37347200Y49484640D01*
G02X37352280Y49489720I5080J0D01*
G01X37486280Y49489720D01*
G02X37491360Y49484640I0J-5080D01*
G01X37491360Y49402640D01*
G02X37486280Y49397560I-5080J0D01*
G37*
G01X36905580Y50077736D03*
G36*
G01X39889120Y49250240D02*
G01X39755120Y49250240D01*
G02X39750040Y49255320I0J5080D01*
G01X39750040Y49337320D01*
G02X39755120Y49342400I5080J0D01*
G01X39889120Y49342400D01*
G02X39894200Y49337320I0J-5080D01*
G01X39894200Y49255320D01*
G02X39889120Y49250240I-5080J0D01*
G37*
G36*
G01X39755120Y49489720D02*
G01X39889120Y49489720D01*
G02X39894200Y49484640I0J-5080D01*
G01X39894200Y49402640D01*
G02X39889120Y49397560I-5080J0D01*
G01X39755120Y49397560D01*
G02X39750040Y49402640I0J5080D01*
G01X39750040Y49484640D01*
G02X39755120Y49489720I5080J0D01*
G37*
G01X40178071Y50331736D03*
G36*
G01X39391280Y49250240D02*
G01X39257280Y49250240D01*
G02X39252200Y49255320I0J5080D01*
G01X39252200Y49337320D01*
G02X39257280Y49342400I5080J0D01*
G01X39391280Y49342400D01*
G02X39396360Y49337320I0J-5080D01*
G01X39396360Y49255320D01*
G02X39391280Y49250240I-5080J0D01*
G37*
G36*
G01X39391280Y49397560D02*
G01X39257280Y49397560D01*
G02X39252200Y49402640I0J5080D01*
G01X39252200Y49484640D01*
G02X39257280Y49489720I5080J0D01*
G01X39391280Y49489720D01*
G02X39396360Y49484640I0J-5080D01*
G01X39396360Y49402640D01*
G02X39391280Y49397560I-5080J0D01*
G37*
G01X38810580Y50077736D03*
G36*
G01X41794120Y49250240D02*
G01X41660120Y49250240D01*
G02X41655040Y49255320I0J5080D01*
G01X41655040Y49337320D01*
G02X41660120Y49342400I5080J0D01*
G01X41794120Y49342400D01*
G02X41799200Y49337320I0J-5080D01*
G01X41799200Y49255320D01*
G02X41794120Y49250240I-5080J0D01*
G37*
G36*
G01X41660120Y49489720D02*
G01X41794120Y49489720D01*
G02X41799200Y49484640I0J-5080D01*
G01X41799200Y49402640D01*
G02X41794120Y49397560I-5080J0D01*
G01X41660120Y49397560D01*
G02X41655040Y49402640I0J5080D01*
G01X41655040Y49484640D01*
G02X41660120Y49489720I5080J0D01*
G37*
G01X42083071Y50331736D03*
G36*
G01X41296280Y49250240D02*
G01X41162280Y49250240D01*
G02X41157200Y49255320I0J5080D01*
G01X41157200Y49337320D01*
G02X41162280Y49342400I5080J0D01*
G01X41296280Y49342400D01*
G02X41301360Y49337320I0J-5080D01*
G01X41301360Y49255320D01*
G02X41296280Y49250240I-5080J0D01*
G37*
G36*
G01X41296280Y49397560D02*
G01X41162280Y49397560D01*
G02X41157200Y49402640I0J5080D01*
G01X41157200Y49484640D01*
G02X41162280Y49489720I5080J0D01*
G01X41296280Y49489720D01*
G02X41301360Y49484640I0J-5080D01*
G01X41301360Y49402640D01*
G02X41296280Y49397560I-5080J0D01*
G37*
G01X40715580Y50077736D03*
G36*
G01X44649080Y49250240D02*
G01X44515080Y49250240D01*
G02X44510000Y49255320I0J5080D01*
G01X44510000Y49337320D01*
G02X44515080Y49342400I5080J0D01*
G01X44649080Y49342400D01*
G02X44654160Y49337320I0J-5080D01*
G01X44654160Y49255320D01*
G02X44649080Y49250240I-5080J0D01*
G37*
G36*
G01X44515080Y49489720D02*
G01X44649080Y49489720D01*
G02X44654160Y49484640I0J-5080D01*
G01X44654160Y49402640D01*
G02X44649080Y49397560I-5080J0D01*
G01X44515080Y49397560D01*
G02X44510000Y49402640I0J5080D01*
G01X44510000Y49484640D01*
G02X44515080Y49489720I5080J0D01*
G37*
G01X44938031Y50331736D03*
G36*
G01X44151240Y49250240D02*
G01X44017240Y49250240D01*
G02X44012160Y49255320I0J5080D01*
G01X44012160Y49337320D01*
G02X44017240Y49342400I5080J0D01*
G01X44151240Y49342400D01*
G02X44156320Y49337320I0J-5080D01*
G01X44156320Y49255320D01*
G02X44151240Y49250240I-5080J0D01*
G37*
G36*
G01X44151240Y49397560D02*
G01X44017240Y49397560D01*
G02X44012160Y49402640I0J5080D01*
G01X44012160Y49484640D01*
G02X44017240Y49489720I5080J0D01*
G01X44151240Y49489720D01*
G02X44156320Y49484640I0J-5080D01*
G01X44156320Y49402640D01*
G02X44151240Y49397560I-5080J0D01*
G37*
G01X43570540Y50077736D03*
G36*
G01X46554080Y49250240D02*
G01X46420080Y49250240D01*
G02X46415000Y49255320I0J5080D01*
G01X46415000Y49337320D01*
G02X46420080Y49342400I5080J0D01*
G01X46554080Y49342400D01*
G02X46559160Y49337320I0J-5080D01*
G01X46559160Y49255320D01*
G02X46554080Y49250240I-5080J0D01*
G37*
G36*
G01X46420080Y49489720D02*
G01X46554080Y49489720D01*
G02X46559160Y49484640I0J-5080D01*
G01X46559160Y49402640D01*
G02X46554080Y49397560I-5080J0D01*
G01X46420080Y49397560D01*
G02X46415000Y49402640I0J5080D01*
G01X46415000Y49484640D01*
G02X46420080Y49489720I5080J0D01*
G37*
G01X46843031Y50331736D03*
G36*
G01X46056240Y49250240D02*
G01X45922240Y49250240D01*
G02X45917160Y49255320I0J5080D01*
G01X45917160Y49337320D01*
G02X45922240Y49342400I5080J0D01*
G01X46056240Y49342400D01*
G02X46061320Y49337320I0J-5080D01*
G01X46061320Y49255320D01*
G02X46056240Y49250240I-5080J0D01*
G37*
G36*
G01X46056240Y49397560D02*
G01X45922240Y49397560D01*
G02X45917160Y49402640I0J5080D01*
G01X45917160Y49484640D01*
G02X45922240Y49489720I5080J0D01*
G01X46056240Y49489720D01*
G02X46061320Y49484640I0J-5080D01*
G01X46061320Y49402640D01*
G02X46056240Y49397560I-5080J0D01*
G37*
G01X45475540Y50077736D03*
G36*
G01X48459080Y49250240D02*
G01X48325080Y49250240D01*
G02X48320000Y49255320I0J5080D01*
G01X48320000Y49337320D01*
G02X48325080Y49342400I5080J0D01*
G01X48459080Y49342400D01*
G02X48464160Y49337320I0J-5080D01*
G01X48464160Y49255320D01*
G02X48459080Y49250240I-5080J0D01*
G37*
G36*
G01X48325080Y49489720D02*
G01X48459080Y49489720D01*
G02X48464160Y49484640I0J-5080D01*
G01X48464160Y49402640D01*
G02X48459080Y49397560I-5080J0D01*
G01X48325080Y49397560D01*
G02X48320000Y49402640I0J5080D01*
G01X48320000Y49484640D01*
G02X48325080Y49489720I5080J0D01*
G37*
G01X48748031Y50331736D03*
G36*
G01X47961240Y49250240D02*
G01X47827240Y49250240D01*
G02X47822160Y49255320I0J5080D01*
G01X47822160Y49337320D01*
G02X47827240Y49342400I5080J0D01*
G01X47961240Y49342400D01*
G02X47966320Y49337320I0J-5080D01*
G01X47966320Y49255320D01*
G02X47961240Y49250240I-5080J0D01*
G37*
G36*
G01X47961240Y49397560D02*
G01X47827240Y49397560D01*
G02X47822160Y49402640I0J5080D01*
G01X47822160Y49484640D01*
G02X47827240Y49489720I5080J0D01*
G01X47961240Y49489720D01*
G02X47966320Y49484640I0J-5080D01*
G01X47966320Y49402640D01*
G02X47961240Y49397560I-5080J0D01*
G37*
G01X47380540Y50077736D03*
G36*
G01X50364080Y49250240D02*
G01X50230080Y49250240D01*
G02X50225000Y49255320I0J5080D01*
G01X50225000Y49337320D01*
G02X50230080Y49342400I5080J0D01*
G01X50364080Y49342400D01*
G02X50369160Y49337320I0J-5080D01*
G01X50369160Y49255320D01*
G02X50364080Y49250240I-5080J0D01*
G37*
G36*
G01X50230080Y49489720D02*
G01X50364080Y49489720D01*
G02X50369160Y49484640I0J-5080D01*
G01X50369160Y49402640D01*
G02X50364080Y49397560I-5080J0D01*
G01X50230080Y49397560D01*
G02X50225000Y49402640I0J5080D01*
G01X50225000Y49484640D01*
G02X50230080Y49489720I5080J0D01*
G37*
G01X50653031Y50331736D03*
G36*
G01X49866240Y49250240D02*
G01X49732240Y49250240D01*
G02X49727160Y49255320I0J5080D01*
G01X49727160Y49337320D01*
G02X49732240Y49342400I5080J0D01*
G01X49866240Y49342400D01*
G02X49871320Y49337320I0J-5080D01*
G01X49871320Y49255320D01*
G02X49866240Y49250240I-5080J0D01*
G37*
G36*
G01X49866240Y49397560D02*
G01X49732240Y49397560D01*
G02X49727160Y49402640I0J5080D01*
G01X49727160Y49484640D01*
G02X49732240Y49489720I5080J0D01*
G01X49866240Y49489720D01*
G02X49871320Y49484640I0J-5080D01*
G01X49871320Y49402640D01*
G02X49866240Y49397560I-5080J0D01*
G37*
G01X49285540Y50077736D03*
G36*
G01X53224120Y49250240D02*
G01X53090120Y49250240D01*
G02X53085040Y49255320I0J5080D01*
G01X53085040Y49337320D01*
G02X53090120Y49342400I5080J0D01*
G01X53090120Y49342400D01*
G01X53224120Y49342400D01*
G01X53224120Y49342400D01*
G02X53229200Y49337320I0J-5080D01*
G01X53229200Y49255320D01*
G02X53224120Y49250240I-5080J0D01*
G37*
G36*
G01X53090120Y49489720D02*
G01X53224120Y49489720D01*
G02X53229200Y49484640I0J-5080D01*
G01X53229200Y49402640D01*
G02X53224120Y49397560I-5080J0D01*
G01X53224120Y49397560D01*
G01X53090120Y49397560D01*
G01X53090120Y49397560D01*
G02X53085040Y49402640I0J5080D01*
G01X53085040Y49484640D01*
G02X53090120Y49489720I5080J0D01*
G37*
G01X53513071Y50331736D03*
G36*
G01X52726280Y49250240D02*
G01X52592280Y49250240D01*
G02X52587200Y49255320I0J5080D01*
G01X52587200Y49337320D01*
G02X52592280Y49342400I5080J0D01*
G01X52592280Y49342400D01*
G01X52726280Y49342400D01*
G01X52726280Y49342400D01*
G02X52731360Y49337320I0J-5080D01*
G01X52731360Y49255320D01*
G02X52726280Y49250240I-5080J0D01*
G37*
G36*
G01X52726280Y49397560D02*
G01X52592280Y49397560D01*
G01X52592280Y49397560D01*
G02X52587200Y49402640I0J5080D01*
G01X52587200Y49484640D01*
G02X52592280Y49489720I5080J0D01*
G01X52726280Y49489720D01*
G02X52731360Y49484640I0J-5080D01*
G01X52731360Y49402640D01*
G02X52726280Y49397560I-5080J0D01*
G01X52726280Y49397560D01*
G37*
G01X52145580Y50077736D03*
G36*
G01X55129120Y49250240D02*
G01X54995120Y49250240D01*
G02X54990040Y49255320I0J5080D01*
G01X54990040Y49337320D01*
G02X54995120Y49342400I5080J0D01*
G01X54995120Y49342400D01*
G01X55129120Y49342400D01*
G01X55129120Y49342400D01*
G02X55134200Y49337320I0J-5080D01*
G01X55134200Y49255320D01*
G02X55129120Y49250240I-5080J0D01*
G37*
G36*
G01X54995120Y49489720D02*
G01X55129120Y49489720D01*
G02X55134200Y49484640I0J-5080D01*
G01X55134200Y49402640D01*
G02X55129120Y49397560I-5080J0D01*
G01X55129120Y49397560D01*
G01X54995120Y49397560D01*
G01X54995120Y49397560D01*
G02X54990040Y49402640I0J5080D01*
G01X54990040Y49484640D01*
G02X54995120Y49489720I5080J0D01*
G37*
G01X55418071Y50331736D03*
G36*
G01X54631280Y49250240D02*
G01X54497280Y49250240D01*
G02X54492200Y49255320I0J5080D01*
G01X54492200Y49337320D01*
G02X54497280Y49342400I5080J0D01*
G01X54497280Y49342400D01*
G01X54631280Y49342400D01*
G01X54631280Y49342400D01*
G02X54636360Y49337320I0J-5080D01*
G01X54636360Y49255320D01*
G02X54631280Y49250240I-5080J0D01*
G37*
G36*
G01X54631280Y49397560D02*
G01X54497280Y49397560D01*
G01X54497280Y49397560D01*
G02X54492200Y49402640I0J5080D01*
G01X54492200Y49484640D01*
G02X54497280Y49489720I5080J0D01*
G01X54631280Y49489720D01*
G02X54636360Y49484640I0J-5080D01*
G01X54636360Y49402640D01*
G02X54631280Y49397560I-5080J0D01*
G01X54631280Y49397560D01*
G37*
G01X54050580Y50077736D03*
G36*
G01X57029040Y49250240D02*
G01X56895040Y49250240D01*
G02X56889960Y49255320I0J5080D01*
G01X56889960Y49337320D01*
G02X56895040Y49342400I5080J0D01*
G01X56895040Y49342400D01*
G01X57029040Y49342400D01*
G01X57029040Y49342400D01*
G02X57034120Y49337320I0J-5080D01*
G01X57034120Y49255320D01*
G02X57029040Y49250240I-5080J0D01*
G37*
G36*
G01X56895040Y49489720D02*
G01X57029040Y49489720D01*
G02X57034120Y49484640I0J-5080D01*
G01X57034120Y49402640D01*
G02X57029040Y49397560I-5080J0D01*
G01X57029040Y49397560D01*
G01X56895040Y49397560D01*
G01X56895040Y49397560D01*
G02X56889960Y49402640I0J5080D01*
G01X56889960Y49484640D01*
G02X56895040Y49489720I5080J0D01*
G37*
G01X57317991Y50331736D03*
G36*
G01X56531200Y49250240D02*
G01X56397200Y49250240D01*
G02X56392120Y49255320I0J5080D01*
G01X56392120Y49337320D01*
G02X56397200Y49342400I5080J0D01*
G01X56397200Y49342400D01*
G01X56531200Y49342400D01*
G01X56531200Y49342400D01*
G02X56536280Y49337320I0J-5080D01*
G01X56536280Y49255320D01*
G02X56531200Y49250240I-5080J0D01*
G37*
G36*
G01X56531200Y49397560D02*
G01X56397200Y49397560D01*
G01X56397200Y49397560D01*
G02X56392120Y49402640I0J5080D01*
G01X56392120Y49484640D01*
G02X56397200Y49489720I5080J0D01*
G01X56531200Y49489720D01*
G02X56536280Y49484640I0J-5080D01*
G01X56536280Y49402640D01*
G02X56531200Y49397560I-5080J0D01*
G01X56531200Y49397560D01*
G37*
G01X55950500Y50077736D03*
G36*
G01X58939120Y49250240D02*
G01X58805120Y49250240D01*
G02X58800040Y49255320I0J5080D01*
G01X58800040Y49337320D01*
G02X58805120Y49342400I5080J0D01*
G01X58805120Y49342400D01*
G01X58939120Y49342400D01*
G01X58939120Y49342400D01*
G02X58944200Y49337320I0J-5080D01*
G01X58944200Y49255320D01*
G02X58939120Y49250240I-5080J0D01*
G37*
G36*
G01X58805120Y49489720D02*
G01X58939120Y49489720D01*
G02X58944200Y49484640I0J-5080D01*
G01X58944200Y49402640D01*
G02X58939120Y49397560I-5080J0D01*
G01X58939120Y49397560D01*
G01X58805120Y49397560D01*
G01X58805120Y49397560D01*
G02X58800040Y49402640I0J5080D01*
G01X58800040Y49484640D01*
G02X58805120Y49489720I5080J0D01*
G37*
G01X59228071Y50331736D03*
G36*
G01X58441280Y49250240D02*
G01X58307280Y49250240D01*
G02X58302200Y49255320I0J5080D01*
G01X58302200Y49337320D01*
G02X58307280Y49342400I5080J0D01*
G01X58307280Y49342400D01*
G01X58441280Y49342400D01*
G01X58441280Y49342400D01*
G02X58446360Y49337320I0J-5080D01*
G01X58446360Y49255320D01*
G02X58441280Y49250240I-5080J0D01*
G37*
G36*
G01X58441280Y49397560D02*
G01X58307280Y49397560D01*
G01X58307280Y49397560D01*
G02X58302200Y49402640I0J5080D01*
G01X58302200Y49484640D01*
G02X58307280Y49489720I5080J0D01*
G01X58441280Y49489720D01*
G02X58446360Y49484640I0J-5080D01*
G01X58446360Y49402640D01*
G02X58441280Y49397560I-5080J0D01*
G01X58441280Y49397560D01*
G37*
G01X57860580Y50077736D03*
G36*
G01X61321640Y49250240D02*
G01X61187640Y49250240D01*
G02X61182560Y49255320I0J5080D01*
G01X61182560Y49337320D01*
G02X61187640Y49342400I5080J0D01*
G01X61187640Y49342400D01*
G01X61321640Y49342400D01*
G01X61321640Y49342400D01*
G02X61326720Y49337320I0J-5080D01*
G01X61326720Y49255320D01*
G02X61321640Y49250240I-5080J0D01*
G37*
G36*
G01X61187640Y49489720D02*
G01X61321640Y49489720D01*
G02X61326720Y49484640I0J-5080D01*
G01X61326720Y49402640D01*
G02X61321640Y49397560I-5080J0D01*
G01X61321640Y49397560D01*
G01X61187640Y49397560D01*
G01X61187640Y49397560D01*
G02X61182560Y49402640I0J5080D01*
G01X61182560Y49484640D01*
G02X61187640Y49489720I5080J0D01*
G37*
G01X61610591Y50331736D03*
G36*
G01X60823800Y49250240D02*
G01X60689800Y49250240D01*
G02X60684720Y49255320I0J5080D01*
G01X60684720Y49337320D01*
G02X60689800Y49342400I5080J0D01*
G01X60689800Y49342400D01*
G01X60823800Y49342400D01*
G01X60823800Y49342400D01*
G02X60828880Y49337320I0J-5080D01*
G01X60828880Y49255320D01*
G02X60823800Y49250240I-5080J0D01*
G37*
G36*
G01X60823800Y49397560D02*
G01X60689800Y49397560D01*
G01X60689800Y49397560D01*
G02X60684720Y49402640I0J5080D01*
G01X60684720Y49484640D01*
G02X60689800Y49489720I5080J0D01*
G01X60823800Y49489720D01*
G02X60828880Y49484640I0J-5080D01*
G01X60828880Y49402640D01*
G02X60823800Y49397560I-5080J0D01*
G01X60823800Y49397560D01*
G37*
G01X60243100Y50077736D03*
G36*
G01X32269120Y46867720D02*
G01X32135120Y46867720D01*
G02X32130040Y46872800I0J5080D01*
G01X32130040Y46954800D01*
G02X32135120Y46959880I5080J0D01*
G01X32269120Y46959880D01*
G02X32274200Y46954800I0J-5080D01*
G01X32274200Y46872800D01*
G02X32269120Y46867720I-5080J0D01*
G37*
G36*
G01X32135120Y47107200D02*
G01X32269120Y47107200D01*
G02X32274200Y47102120I0J-5080D01*
G01X32274200Y47020120D01*
G02X32269120Y47015040I-5080J0D01*
G01X32135120Y47015040D01*
G02X32130040Y47020120I0J5080D01*
G01X32130040Y47102120D01*
G02X32135120Y47107200I5080J0D01*
G37*
G01X32558071Y47949216D03*
G36*
G01X31771280Y46867720D02*
G01X31637280Y46867720D01*
G02X31632200Y46872800I0J5080D01*
G01X31632200Y46954800D01*
G02X31637280Y46959880I5080J0D01*
G01X31771280Y46959880D01*
G02X31776360Y46954800I0J-5080D01*
G01X31776360Y46872800D01*
G02X31771280Y46867720I-5080J0D01*
G37*
G36*
G01X31771280Y47015040D02*
G01X31637280Y47015040D01*
G02X31632200Y47020120I0J5080D01*
G01X31632200Y47102120D01*
G02X31637280Y47107200I5080J0D01*
G01X31771280Y47107200D01*
G02X31776360Y47102120I0J-5080D01*
G01X31776360Y47020120D01*
G02X31771280Y47015040I-5080J0D01*
G37*
G01X31190580Y47695216D03*
G36*
G01X34174120Y46867720D02*
G01X34040120Y46867720D01*
G02X34035040Y46872800I0J5080D01*
G01X34035040Y46954800D01*
G02X34040120Y46959880I5080J0D01*
G01X34174120Y46959880D01*
G02X34179200Y46954800I0J-5080D01*
G01X34179200Y46872800D01*
G02X34174120Y46867720I-5080J0D01*
G37*
G36*
G01X34040120Y47107200D02*
G01X34174120Y47107200D01*
G02X34179200Y47102120I0J-5080D01*
G01X34179200Y47020120D01*
G02X34174120Y47015040I-5080J0D01*
G01X34040120Y47015040D01*
G02X34035040Y47020120I0J5080D01*
G01X34035040Y47102120D01*
G02X34040120Y47107200I5080J0D01*
G37*
G01X34463071Y47949216D03*
G36*
G01X33676280Y46867720D02*
G01X33542280Y46867720D01*
G02X33537200Y46872800I0J5080D01*
G01X33537200Y46954800D01*
G02X33542280Y46959880I5080J0D01*
G01X33676280Y46959880D01*
G02X33681360Y46954800I0J-5080D01*
G01X33681360Y46872800D01*
G02X33676280Y46867720I-5080J0D01*
G37*
G36*
G01X33676280Y47015040D02*
G01X33542280Y47015040D01*
G02X33537200Y47020120I0J5080D01*
G01X33537200Y47102120D01*
G02X33542280Y47107200I5080J0D01*
G01X33676280Y47107200D01*
G02X33681360Y47102120I0J-5080D01*
G01X33681360Y47020120D01*
G02X33676280Y47015040I-5080J0D01*
G37*
G01X33095580Y47695216D03*
G36*
G01X36079120Y46867720D02*
G01X35945120Y46867720D01*
G02X35940040Y46872800I0J5080D01*
G01X35940040Y46954800D01*
G02X35945120Y46959880I5080J0D01*
G01X36079120Y46959880D01*
G02X36084200Y46954800I0J-5080D01*
G01X36084200Y46872800D01*
G02X36079120Y46867720I-5080J0D01*
G37*
G36*
G01X35945120Y47107200D02*
G01X36079120Y47107200D01*
G02X36084200Y47102120I0J-5080D01*
G01X36084200Y47020120D01*
G02X36079120Y47015040I-5080J0D01*
G01X35945120Y47015040D01*
G02X35940040Y47020120I0J5080D01*
G01X35940040Y47102120D01*
G02X35945120Y47107200I5080J0D01*
G37*
G01X36368071Y47949216D03*
G36*
G01X35581280Y46867720D02*
G01X35447280Y46867720D01*
G02X35442200Y46872800I0J5080D01*
G01X35442200Y46954800D01*
G02X35447280Y46959880I5080J0D01*
G01X35581280Y46959880D01*
G02X35586360Y46954800I0J-5080D01*
G01X35586360Y46872800D01*
G02X35581280Y46867720I-5080J0D01*
G37*
G36*
G01X35581280Y47015040D02*
G01X35447280Y47015040D01*
G02X35442200Y47020120I0J5080D01*
G01X35442200Y47102120D01*
G02X35447280Y47107200I5080J0D01*
G01X35581280Y47107200D01*
G02X35586360Y47102120I0J-5080D01*
G01X35586360Y47020120D01*
G02X35581280Y47015040I-5080J0D01*
G37*
G01X35000580Y47695216D03*
G36*
G01X37984120Y46867720D02*
G01X37850120Y46867720D01*
G02X37845040Y46872800I0J5080D01*
G01X37845040Y46954800D01*
G02X37850120Y46959880I5080J0D01*
G01X37984120Y46959880D01*
G02X37989200Y46954800I0J-5080D01*
G01X37989200Y46872800D01*
G02X37984120Y46867720I-5080J0D01*
G37*
G36*
G01X37850120Y47107200D02*
G01X37984120Y47107200D01*
G02X37989200Y47102120I0J-5080D01*
G01X37989200Y47020120D01*
G02X37984120Y47015040I-5080J0D01*
G01X37850120Y47015040D01*
G02X37845040Y47020120I0J5080D01*
G01X37845040Y47102120D01*
G02X37850120Y47107200I5080J0D01*
G37*
G01X38273071Y47949216D03*
G36*
G01X37486280Y46867720D02*
G01X37352280Y46867720D01*
G02X37347200Y46872800I0J5080D01*
G01X37347200Y46954800D01*
G02X37352280Y46959880I5080J0D01*
G01X37486280Y46959880D01*
G02X37491360Y46954800I0J-5080D01*
G01X37491360Y46872800D01*
G02X37486280Y46867720I-5080J0D01*
G37*
G36*
G01X37486280Y47015040D02*
G01X37352280Y47015040D01*
G02X37347200Y47020120I0J5080D01*
G01X37347200Y47102120D01*
G02X37352280Y47107200I5080J0D01*
G01X37486280Y47107200D01*
G02X37491360Y47102120I0J-5080D01*
G01X37491360Y47020120D01*
G02X37486280Y47015040I-5080J0D01*
G37*
G01X36905580Y47695216D03*
G36*
G01X39889120Y46867720D02*
G01X39755120Y46867720D01*
G02X39750040Y46872800I0J5080D01*
G01X39750040Y46954800D01*
G02X39755120Y46959880I5080J0D01*
G01X39889120Y46959880D01*
G02X39894200Y46954800I0J-5080D01*
G01X39894200Y46872800D01*
G02X39889120Y46867720I-5080J0D01*
G37*
G36*
G01X39755120Y47107200D02*
G01X39889120Y47107200D01*
G02X39894200Y47102120I0J-5080D01*
G01X39894200Y47020120D01*
G02X39889120Y47015040I-5080J0D01*
G01X39755120Y47015040D01*
G02X39750040Y47020120I0J5080D01*
G01X39750040Y47102120D01*
G02X39755120Y47107200I5080J0D01*
G37*
G01X40178071Y47949216D03*
G36*
G01X39391280Y46867720D02*
G01X39257280Y46867720D01*
G02X39252200Y46872800I0J5080D01*
G01X39252200Y46954800D01*
G02X39257280Y46959880I5080J0D01*
G01X39391280Y46959880D01*
G02X39396360Y46954800I0J-5080D01*
G01X39396360Y46872800D01*
G02X39391280Y46867720I-5080J0D01*
G37*
G36*
G01X39391280Y47015040D02*
G01X39257280Y47015040D01*
G02X39252200Y47020120I0J5080D01*
G01X39252200Y47102120D01*
G02X39257280Y47107200I5080J0D01*
G01X39391280Y47107200D01*
G02X39396360Y47102120I0J-5080D01*
G01X39396360Y47020120D01*
G02X39391280Y47015040I-5080J0D01*
G37*
G01X38810580Y47695216D03*
G36*
G01X41794120Y46867720D02*
G01X41660120Y46867720D01*
G02X41655040Y46872800I0J5080D01*
G01X41655040Y46954800D01*
G02X41660120Y46959880I5080J0D01*
G01X41794120Y46959880D01*
G02X41799200Y46954800I0J-5080D01*
G01X41799200Y46872800D01*
G02X41794120Y46867720I-5080J0D01*
G37*
G36*
G01X41660120Y47107200D02*
G01X41794120Y47107200D01*
G02X41799200Y47102120I0J-5080D01*
G01X41799200Y47020120D01*
G02X41794120Y47015040I-5080J0D01*
G01X41660120Y47015040D01*
G02X41655040Y47020120I0J5080D01*
G01X41655040Y47102120D01*
G02X41660120Y47107200I5080J0D01*
G37*
G01X42083071Y47949216D03*
G36*
G01X41296280Y46867720D02*
G01X41162280Y46867720D01*
G02X41157200Y46872800I0J5080D01*
G01X41157200Y46954800D01*
G02X41162280Y46959880I5080J0D01*
G01X41296280Y46959880D01*
G02X41301360Y46954800I0J-5080D01*
G01X41301360Y46872800D01*
G02X41296280Y46867720I-5080J0D01*
G37*
G36*
G01X41296280Y47015040D02*
G01X41162280Y47015040D01*
G02X41157200Y47020120I0J5080D01*
G01X41157200Y47102120D01*
G02X41162280Y47107200I5080J0D01*
G01X41296280Y47107200D01*
G02X41301360Y47102120I0J-5080D01*
G01X41301360Y47020120D01*
G02X41296280Y47015040I-5080J0D01*
G37*
G01X40715580Y47695216D03*
G36*
G01X43699120Y46867720D02*
G01X43565120Y46867720D01*
G02X43560040Y46872800I0J5080D01*
G01X43560040Y46954800D01*
G02X43565120Y46959880I5080J0D01*
G01X43699120Y46959880D01*
G02X43704200Y46954800I0J-5080D01*
G01X43704200Y46872800D01*
G02X43699120Y46867720I-5080J0D01*
G37*
G36*
G01X43565120Y47107200D02*
G01X43699120Y47107200D01*
G02X43704200Y47102120I0J-5080D01*
G01X43704200Y47020120D01*
G02X43699120Y47015040I-5080J0D01*
G01X43565120Y47015040D01*
G02X43560040Y47020120I0J5080D01*
G01X43560040Y47102120D01*
G02X43565120Y47107200I5080J0D01*
G37*
G01X43988071Y47949216D03*
G36*
G01X43201280Y46867720D02*
G01X43067280Y46867720D01*
G02X43062200Y46872800I0J5080D01*
G01X43062200Y46954800D01*
G02X43067280Y46959880I5080J0D01*
G01X43201280Y46959880D01*
G02X43206360Y46954800I0J-5080D01*
G01X43206360Y46872800D01*
G02X43201280Y46867720I-5080J0D01*
G37*
G36*
G01X43201280Y47015040D02*
G01X43067280Y47015040D01*
G02X43062200Y47020120I0J5080D01*
G01X43062200Y47102120D01*
G02X43067280Y47107200I5080J0D01*
G01X43201280Y47107200D01*
G02X43206360Y47102120I0J-5080D01*
G01X43206360Y47020120D01*
G02X43201280Y47015040I-5080J0D01*
G37*
G01X42620580Y47695216D03*
G36*
G01X45604120Y46867720D02*
G01X45470120Y46867720D01*
G02X45465040Y46872800I0J5080D01*
G01X45465040Y46954800D01*
G02X45470120Y46959880I5080J0D01*
G01X45604120Y46959880D01*
G02X45609200Y46954800I0J-5080D01*
G01X45609200Y46872800D01*
G02X45604120Y46867720I-5080J0D01*
G37*
G36*
G01X45470120Y47107200D02*
G01X45604120Y47107200D01*
G02X45609200Y47102120I0J-5080D01*
G01X45609200Y47020120D01*
G02X45604120Y47015040I-5080J0D01*
G01X45470120Y47015040D01*
G02X45465040Y47020120I0J5080D01*
G01X45465040Y47102120D01*
G02X45470120Y47107200I5080J0D01*
G37*
G01X45893071Y47949216D03*
G36*
G01X45106280Y46867720D02*
G01X44972280Y46867720D01*
G02X44967200Y46872800I0J5080D01*
G01X44967200Y46954800D01*
G02X44972280Y46959880I5080J0D01*
G01X45106280Y46959880D01*
G02X45111360Y46954800I0J-5080D01*
G01X45111360Y46872800D01*
G02X45106280Y46867720I-5080J0D01*
G37*
G36*
G01X45106280Y47015040D02*
G01X44972280Y47015040D01*
G02X44967200Y47020120I0J5080D01*
G01X44967200Y47102120D01*
G02X44972280Y47107200I5080J0D01*
G01X45106280Y47107200D01*
G02X45111360Y47102120I0J-5080D01*
G01X45111360Y47020120D01*
G02X45106280Y47015040I-5080J0D01*
G37*
G01X44525580Y47695216D03*
G36*
G01X47509120Y46867720D02*
G01X47375120Y46867720D01*
G02X47370040Y46872800I0J5080D01*
G01X47370040Y46954800D01*
G02X47375120Y46959880I5080J0D01*
G01X47509120Y46959880D01*
G02X47514200Y46954800I0J-5080D01*
G01X47514200Y46872800D01*
G02X47509120Y46867720I-5080J0D01*
G37*
G36*
G01X47375120Y47107200D02*
G01X47509120Y47107200D01*
G02X47514200Y47102120I0J-5080D01*
G01X47514200Y47020120D01*
G02X47509120Y47015040I-5080J0D01*
G01X47375120Y47015040D01*
G02X47370040Y47020120I0J5080D01*
G01X47370040Y47102120D01*
G02X47375120Y47107200I5080J0D01*
G37*
G01X47798071Y47949216D03*
G36*
G01X47011280Y46867720D02*
G01X46877280Y46867720D01*
G02X46872200Y46872800I0J5080D01*
G01X46872200Y46954800D01*
G02X46877280Y46959880I5080J0D01*
G01X47011280Y46959880D01*
G02X47016360Y46954800I0J-5080D01*
G01X47016360Y46872800D01*
G02X47011280Y46867720I-5080J0D01*
G37*
G36*
G01X47011280Y47015040D02*
G01X46877280Y47015040D01*
G02X46872200Y47020120I0J5080D01*
G01X46872200Y47102120D01*
G02X46877280Y47107200I5080J0D01*
G01X47011280Y47107200D01*
G02X47016360Y47102120I0J-5080D01*
G01X47016360Y47020120D01*
G02X47011280Y47015040I-5080J0D01*
G37*
G01X46430580Y47695216D03*
G36*
G01X49414120Y46867720D02*
G01X49280120Y46867720D01*
G02X49275040Y46872800I0J5080D01*
G01X49275040Y46954800D01*
G02X49280120Y46959880I5080J0D01*
G01X49414120Y46959880D01*
G02X49419200Y46954800I0J-5080D01*
G01X49419200Y46872800D01*
G02X49414120Y46867720I-5080J0D01*
G37*
G36*
G01X49280120Y47107200D02*
G01X49414120Y47107200D01*
G02X49419200Y47102120I0J-5080D01*
G01X49419200Y47020120D01*
G02X49414120Y47015040I-5080J0D01*
G01X49280120Y47015040D01*
G02X49275040Y47020120I0J5080D01*
G01X49275040Y47102120D01*
G02X49280120Y47107200I5080J0D01*
G37*
G01X49703071Y47949216D03*
G36*
G01X48916280Y46867720D02*
G01X48782280Y46867720D01*
G02X48777200Y46872800I0J5080D01*
G01X48777200Y46954800D01*
G02X48782280Y46959880I5080J0D01*
G01X48916280Y46959880D01*
G02X48921360Y46954800I0J-5080D01*
G01X48921360Y46872800D01*
G02X48916280Y46867720I-5080J0D01*
G37*
G36*
G01X48916280Y47015040D02*
G01X48782280Y47015040D01*
G02X48777200Y47020120I0J5080D01*
G01X48777200Y47102120D01*
G02X48782280Y47107200I5080J0D01*
G01X48916280Y47107200D01*
G02X48921360Y47102120I0J-5080D01*
G01X48921360Y47020120D01*
G02X48916280Y47015040I-5080J0D01*
G37*
G01X48335580Y47695216D03*
G36*
G01X51319120Y46867720D02*
G01X51185120Y46867720D01*
G02X51180040Y46872800I0J5080D01*
G01X51180040Y46954800D01*
G02X51185120Y46959880I5080J0D01*
G01X51319120Y46959880D01*
G02X51324200Y46954800I0J-5080D01*
G01X51324200Y46872800D01*
G02X51319120Y46867720I-5080J0D01*
G37*
G36*
G01X51185120Y47107200D02*
G01X51319120Y47107200D01*
G02X51324200Y47102120I0J-5080D01*
G01X51324200Y47020120D01*
G02X51319120Y47015040I-5080J0D01*
G01X51185120Y47015040D01*
G02X51180040Y47020120I0J5080D01*
G01X51180040Y47102120D01*
G02X51185120Y47107200I5080J0D01*
G37*
G01X51608071Y47949216D03*
G36*
G01X50821280Y46867720D02*
G01X50687280Y46867720D01*
G02X50682200Y46872800I0J5080D01*
G01X50682200Y46954800D01*
G02X50687280Y46959880I5080J0D01*
G01X50821280Y46959880D01*
G02X50826360Y46954800I0J-5080D01*
G01X50826360Y46872800D01*
G02X50821280Y46867720I-5080J0D01*
G37*
G36*
G01X50821280Y47015040D02*
G01X50687280Y47015040D01*
G02X50682200Y47020120I0J5080D01*
G01X50682200Y47102120D01*
G02X50687280Y47107200I5080J0D01*
G01X50821280Y47107200D01*
G02X50826360Y47102120I0J-5080D01*
G01X50826360Y47020120D01*
G02X50821280Y47015040I-5080J0D01*
G37*
G01X50240580Y47695216D03*
G36*
G01X53224120Y46867720D02*
G01X53090120Y46867720D01*
G02X53085040Y46872800I0J5080D01*
G01X53085040Y46954800D01*
G02X53090120Y46959880I5080J0D01*
G01X53224120Y46959880D01*
G02X53229200Y46954800I0J-5080D01*
G01X53229200Y46872800D01*
G02X53224120Y46867720I-5080J0D01*
G37*
G36*
G01X53090120Y47107200D02*
G01X53224120Y47107200D01*
G01X53224120Y47107200D01*
G02X53229200Y47102120I0J-5080D01*
G01X53229200Y47020120D01*
G02X53224120Y47015040I-5080J0D01*
G01X53224120Y47015040D01*
G01X53090120Y47015040D01*
G01X53090120Y47015040D01*
G02X53085040Y47020120I0J5080D01*
G01X53085040Y47102120D01*
G02X53090120Y47107200I5080J0D01*
G01X53090120Y47107200D01*
G37*
G01X53513071Y47949216D03*
G36*
G01X52726280Y46867720D02*
G01X52592280Y46867720D01*
G02X52587200Y46872800I0J5080D01*
G01X52587200Y46954800D01*
G02X52592280Y46959880I5080J0D01*
G01X52726280Y46959880D01*
G02X52731360Y46954800I0J-5080D01*
G01X52731360Y46872800D01*
G02X52726280Y46867720I-5080J0D01*
G37*
G36*
G01X52726280Y47015040D02*
G01X52592280Y47015040D01*
G01X52592280Y47015040D01*
G02X52587200Y47020120I0J5080D01*
G01X52587200Y47102120D01*
G02X52592280Y47107200I5080J0D01*
G01X52592280Y47107200D01*
G01X52726280Y47107200D01*
G01X52726280Y47107200D01*
G02X52731360Y47102120I0J-5080D01*
G01X52731360Y47020120D01*
G02X52726280Y47015040I-5080J0D01*
G01X52726280Y47015040D01*
G37*
G01X52145580Y47695216D03*
G36*
G01X55129120Y46867720D02*
G01X54995120Y46867720D01*
G02X54990040Y46872800I0J5080D01*
G01X54990040Y46954800D01*
G02X54995120Y46959880I5080J0D01*
G01X55129120Y46959880D01*
G02X55134200Y46954800I0J-5080D01*
G01X55134200Y46872800D01*
G02X55129120Y46867720I-5080J0D01*
G37*
G36*
G01X54995120Y47107200D02*
G01X55129120Y47107200D01*
G01X55129120Y47107200D01*
G02X55134200Y47102120I0J-5080D01*
G01X55134200Y47020120D01*
G02X55129120Y47015040I-5080J0D01*
G01X55129120Y47015040D01*
G01X54995120Y47015040D01*
G01X54995120Y47015040D01*
G02X54990040Y47020120I0J5080D01*
G01X54990040Y47102120D01*
G02X54995120Y47107200I5080J0D01*
G01X54995120Y47107200D01*
G37*
G01X55418071Y47949216D03*
G36*
G01X54631280Y46867720D02*
G01X54497280Y46867720D01*
G02X54492200Y46872800I0J5080D01*
G01X54492200Y46954800D01*
G02X54497280Y46959880I5080J0D01*
G01X54631280Y46959880D01*
G02X54636360Y46954800I0J-5080D01*
G01X54636360Y46872800D01*
G02X54631280Y46867720I-5080J0D01*
G37*
G36*
G01X54631280Y47015040D02*
G01X54497280Y47015040D01*
G01X54497280Y47015040D01*
G02X54492200Y47020120I0J5080D01*
G01X54492200Y47102120D01*
G02X54497280Y47107200I5080J0D01*
G01X54497280Y47107200D01*
G01X54631280Y47107200D01*
G01X54631280Y47107200D01*
G02X54636360Y47102120I0J-5080D01*
G01X54636360Y47020120D01*
G02X54631280Y47015040I-5080J0D01*
G01X54631280Y47015040D01*
G37*
G01X54050580Y47695216D03*
G36*
G01X57984080Y46867720D02*
G01X57850080Y46867720D01*
G02X57845000Y46872800I0J5080D01*
G01X57845000Y46954800D01*
G02X57850080Y46959880I5080J0D01*
G01X57984080Y46959880D01*
G02X57989160Y46954800I0J-5080D01*
G01X57989160Y46872800D01*
G02X57984080Y46867720I-5080J0D01*
G37*
G36*
G01X57850080Y47107200D02*
G01X57984080Y47107200D01*
G01X57984080Y47107200D01*
G02X57989160Y47102120I0J-5080D01*
G01X57989160Y47020120D01*
G02X57984080Y47015040I-5080J0D01*
G01X57984080Y47015040D01*
G01X57850080Y47015040D01*
G01X57850080Y47015040D01*
G02X57845000Y47020120I0J5080D01*
G01X57845000Y47102120D01*
G02X57850080Y47107200I5080J0D01*
G01X57850080Y47107200D01*
G37*
G01X58273031Y47949216D03*
G36*
G01X57486240Y46867720D02*
G01X57352240Y46867720D01*
G02X57347160Y46872800I0J5080D01*
G01X57347160Y46954800D01*
G02X57352240Y46959880I5080J0D01*
G01X57486240Y46959880D01*
G02X57491320Y46954800I0J-5080D01*
G01X57491320Y46872800D01*
G02X57486240Y46867720I-5080J0D01*
G37*
G36*
G01X57486240Y47015040D02*
G01X57352240Y47015040D01*
G01X57352240Y47015040D01*
G02X57347160Y47020120I0J5080D01*
G01X57347160Y47102120D01*
G02X57352240Y47107200I5080J0D01*
G01X57352240Y47107200D01*
G01X57486240Y47107200D01*
G01X57486240Y47107200D01*
G02X57491320Y47102120I0J-5080D01*
G01X57491320Y47020120D01*
G02X57486240Y47015040I-5080J0D01*
G01X57486240Y47015040D01*
G37*
G01X56905540Y47695216D03*
G36*
G01X61321640Y46867720D02*
G01X61187640Y46867720D01*
G02X61182560Y46872800I0J5080D01*
G01X61182560Y46954800D01*
G02X61187640Y46959880I5080J0D01*
G01X61321640Y46959880D01*
G02X61326720Y46954800I0J-5080D01*
G01X61326720Y46872800D01*
G02X61321640Y46867720I-5080J0D01*
G37*
G36*
G01X61187640Y47107200D02*
G01X61321640Y47107200D01*
G01X61321640Y47107200D01*
G02X61326720Y47102120I0J-5080D01*
G01X61326720Y47020120D01*
G02X61321640Y47015040I-5080J0D01*
G01X61321640Y47015040D01*
G01X61187640Y47015040D01*
G01X61187640Y47015040D01*
G02X61182560Y47020120I0J5080D01*
G01X61182560Y47102120D01*
G02X61187640Y47107200I5080J0D01*
G01X61187640Y47107200D01*
G37*
G01X61610591Y47949216D03*
G36*
G01X60823800Y46867720D02*
G01X60689800Y46867720D01*
G02X60684720Y46872800I0J5080D01*
G01X60684720Y46954800D01*
G02X60689800Y46959880I5080J0D01*
G01X60823800Y46959880D01*
G02X60828880Y46954800I0J-5080D01*
G01X60828880Y46872800D01*
G02X60823800Y46867720I-5080J0D01*
G37*
G36*
G01X60823800Y47015040D02*
G01X60689800Y47015040D01*
G01X60689800Y47015040D01*
G02X60684720Y47020120I0J5080D01*
G01X60684720Y47102120D01*
G02X60689800Y47107200I5080J0D01*
G01X60689800Y47107200D01*
G01X60823800Y47107200D01*
G01X60823800Y47107200D01*
G02X60828880Y47102120I0J-5080D01*
G01X60828880Y47020120D01*
G02X60823800Y47015040I-5080J0D01*
G01X60823800Y47015040D01*
G37*
G01X60243100Y47695216D03*
G36*
G01X32746640Y44962720D02*
G01X32612640Y44962720D01*
G02X32607560Y44967800I0J5080D01*
G01X32607560Y45049800D01*
G02X32612640Y45054880I5080J0D01*
G01X32746640Y45054880D01*
G02X32751720Y45049800I0J-5080D01*
G01X32751720Y44967800D01*
G02X32746640Y44962720I-5080J0D01*
G37*
G36*
G01X32612640Y45202200D02*
G01X32746640Y45202200D01*
G02X32751720Y45197120I0J-5080D01*
G01X32751720Y45115120D01*
G02X32746640Y45110040I-5080J0D01*
G01X32612640Y45110040D01*
G02X32607560Y45115120I0J5080D01*
G01X32607560Y45197120D01*
G02X32612640Y45202200I5080J0D01*
G37*
G01X33035591Y46044216D03*
G36*
G01X32248800Y44962720D02*
G01X32114800Y44962720D01*
G02X32109720Y44967800I0J5080D01*
G01X32109720Y45049800D01*
G02X32114800Y45054880I5080J0D01*
G01X32248800Y45054880D01*
G02X32253880Y45049800I0J-5080D01*
G01X32253880Y44967800D01*
G02X32248800Y44962720I-5080J0D01*
G37*
G36*
G01X32248800Y45110040D02*
G01X32114800Y45110040D01*
G02X32109720Y45115120I0J5080D01*
G01X32109720Y45197120D01*
G02X32114800Y45202200I5080J0D01*
G01X32248800Y45202200D01*
G02X32253880Y45197120I0J-5080D01*
G01X32253880Y45115120D01*
G02X32248800Y45110040I-5080J0D01*
G37*
G01X31668100Y45790216D03*
G36*
G01X35124080Y44962720D02*
G01X34990080Y44962720D01*
G02X34985000Y44967800I0J5080D01*
G01X34985000Y45049800D01*
G02X34990080Y45054880I5080J0D01*
G01X35124080Y45054880D01*
G02X35129160Y45049800I0J-5080D01*
G01X35129160Y44967800D01*
G02X35124080Y44962720I-5080J0D01*
G37*
G36*
G01X34990080Y45202200D02*
G01X35124080Y45202200D01*
G02X35129160Y45197120I0J-5080D01*
G01X35129160Y45115120D01*
G02X35124080Y45110040I-5080J0D01*
G01X34990080Y45110040D01*
G02X34985000Y45115120I0J5080D01*
G01X34985000Y45197120D01*
G02X34990080Y45202200I5080J0D01*
G37*
G01X35413031Y46044216D03*
G36*
G01X34626240Y44962720D02*
G01X34492240Y44962720D01*
G02X34487160Y44967800I0J5080D01*
G01X34487160Y45049800D01*
G02X34492240Y45054880I5080J0D01*
G01X34626240Y45054880D01*
G02X34631320Y45049800I0J-5080D01*
G01X34631320Y44967800D01*
G02X34626240Y44962720I-5080J0D01*
G37*
G36*
G01X34626240Y45110040D02*
G01X34492240Y45110040D01*
G02X34487160Y45115120I0J5080D01*
G01X34487160Y45197120D01*
G02X34492240Y45202200I5080J0D01*
G01X34626240Y45202200D01*
G02X34631320Y45197120I0J-5080D01*
G01X34631320Y45115120D01*
G02X34626240Y45110040I-5080J0D01*
G37*
G01X34045540Y45790216D03*
G36*
G01X37029080Y44962720D02*
G01X36895080Y44962720D01*
G02X36890000Y44967800I0J5080D01*
G01X36890000Y45049800D01*
G02X36895080Y45054880I5080J0D01*
G01X37029080Y45054880D01*
G02X37034160Y45049800I0J-5080D01*
G01X37034160Y44967800D01*
G02X37029080Y44962720I-5080J0D01*
G37*
G36*
G01X36895080Y45202200D02*
G01X37029080Y45202200D01*
G02X37034160Y45197120I0J-5080D01*
G01X37034160Y45115120D01*
G02X37029080Y45110040I-5080J0D01*
G01X36895080Y45110040D01*
G02X36890000Y45115120I0J5080D01*
G01X36890000Y45197120D01*
G02X36895080Y45202200I5080J0D01*
G37*
G01X37318031Y46044216D03*
G36*
G01X36531240Y44962720D02*
G01X36397240Y44962720D01*
G02X36392160Y44967800I0J5080D01*
G01X36392160Y45049800D01*
G02X36397240Y45054880I5080J0D01*
G01X36531240Y45054880D01*
G02X36536320Y45049800I0J-5080D01*
G01X36536320Y44967800D01*
G02X36531240Y44962720I-5080J0D01*
G37*
G36*
G01X36531240Y45110040D02*
G01X36397240Y45110040D01*
G02X36392160Y45115120I0J5080D01*
G01X36392160Y45197120D01*
G02X36397240Y45202200I5080J0D01*
G01X36531240Y45202200D01*
G02X36536320Y45197120I0J-5080D01*
G01X36536320Y45115120D01*
G02X36531240Y45110040I-5080J0D01*
G37*
G01X35950540Y45790216D03*
G36*
G01X38934080Y44962720D02*
G01X38800080Y44962720D01*
G02X38795000Y44967800I0J5080D01*
G01X38795000Y45049800D01*
G02X38800080Y45054880I5080J0D01*
G01X38934080Y45054880D01*
G02X38939160Y45049800I0J-5080D01*
G01X38939160Y44967800D01*
G02X38934080Y44962720I-5080J0D01*
G37*
G36*
G01X38800080Y45202200D02*
G01X38934080Y45202200D01*
G02X38939160Y45197120I0J-5080D01*
G01X38939160Y45115120D01*
G02X38934080Y45110040I-5080J0D01*
G01X38800080Y45110040D01*
G02X38795000Y45115120I0J5080D01*
G01X38795000Y45197120D01*
G02X38800080Y45202200I5080J0D01*
G37*
G01X39223031Y46044216D03*
G36*
G01X38436240Y44962720D02*
G01X38302240Y44962720D01*
G02X38297160Y44967800I0J5080D01*
G01X38297160Y45049800D01*
G02X38302240Y45054880I5080J0D01*
G01X38436240Y45054880D01*
G02X38441320Y45049800I0J-5080D01*
G01X38441320Y44967800D01*
G02X38436240Y44962720I-5080J0D01*
G37*
G36*
G01X38436240Y45110040D02*
G01X38302240Y45110040D01*
G02X38297160Y45115120I0J5080D01*
G01X38297160Y45197120D01*
G02X38302240Y45202200I5080J0D01*
G01X38436240Y45202200D01*
G02X38441320Y45197120I0J-5080D01*
G01X38441320Y45115120D01*
G02X38436240Y45110040I-5080J0D01*
G37*
G01X37855540Y45790216D03*
G36*
G01X40839080Y44962720D02*
G01X40705080Y44962720D01*
G02X40700000Y44967800I0J5080D01*
G01X40700000Y45049800D01*
G02X40705080Y45054880I5080J0D01*
G01X40839080Y45054880D01*
G02X40844160Y45049800I0J-5080D01*
G01X40844160Y44967800D01*
G02X40839080Y44962720I-5080J0D01*
G37*
G36*
G01X40705080Y45202200D02*
G01X40839080Y45202200D01*
G02X40844160Y45197120I0J-5080D01*
G01X40844160Y45115120D01*
G02X40839080Y45110040I-5080J0D01*
G01X40705080Y45110040D01*
G02X40700000Y45115120I0J5080D01*
G01X40700000Y45197120D01*
G02X40705080Y45202200I5080J0D01*
G37*
G01X41128031Y46044216D03*
G36*
G01X40341240Y44962720D02*
G01X40207240Y44962720D01*
G02X40202160Y44967800I0J5080D01*
G01X40202160Y45049800D01*
G02X40207240Y45054880I5080J0D01*
G01X40341240Y45054880D01*
G02X40346320Y45049800I0J-5080D01*
G01X40346320Y44967800D01*
G02X40341240Y44962720I-5080J0D01*
G37*
G36*
G01X40341240Y45110040D02*
G01X40207240Y45110040D01*
G02X40202160Y45115120I0J5080D01*
G01X40202160Y45197120D01*
G02X40207240Y45202200I5080J0D01*
G01X40341240Y45202200D01*
G02X40346320Y45197120I0J-5080D01*
G01X40346320Y45115120D01*
G02X40341240Y45110040I-5080J0D01*
G37*
G01X39760540Y45790216D03*
G36*
G01X42744080Y44962720D02*
G01X42610080Y44962720D01*
G02X42605000Y44967800I0J5080D01*
G01X42605000Y45049800D01*
G02X42610080Y45054880I5080J0D01*
G01X42744080Y45054880D01*
G02X42749160Y45049800I0J-5080D01*
G01X42749160Y44967800D01*
G02X42744080Y44962720I-5080J0D01*
G37*
G36*
G01X42610080Y45202200D02*
G01X42744080Y45202200D01*
G02X42749160Y45197120I0J-5080D01*
G01X42749160Y45115120D01*
G02X42744080Y45110040I-5080J0D01*
G01X42610080Y45110040D01*
G02X42605000Y45115120I0J5080D01*
G01X42605000Y45197120D01*
G02X42610080Y45202200I5080J0D01*
G37*
G01X43033031Y46044216D03*
G36*
G01X42246240Y44962720D02*
G01X42112240Y44962720D01*
G02X42107160Y44967800I0J5080D01*
G01X42107160Y45049800D01*
G02X42112240Y45054880I5080J0D01*
G01X42246240Y45054880D01*
G02X42251320Y45049800I0J-5080D01*
G01X42251320Y44967800D01*
G02X42246240Y44962720I-5080J0D01*
G37*
G36*
G01X42246240Y45110040D02*
G01X42112240Y45110040D01*
G02X42107160Y45115120I0J5080D01*
G01X42107160Y45197120D01*
G02X42112240Y45202200I5080J0D01*
G01X42246240Y45202200D01*
G02X42251320Y45197120I0J-5080D01*
G01X42251320Y45115120D01*
G02X42246240Y45110040I-5080J0D01*
G37*
G01X41665540Y45790216D03*
G36*
G01X44649080Y44962720D02*
G01X44515080Y44962720D01*
G02X44510000Y44967800I0J5080D01*
G01X44510000Y45049800D01*
G02X44515080Y45054880I5080J0D01*
G01X44649080Y45054880D01*
G02X44654160Y45049800I0J-5080D01*
G01X44654160Y44967800D01*
G02X44649080Y44962720I-5080J0D01*
G37*
G36*
G01X44515080Y45202200D02*
G01X44649080Y45202200D01*
G02X44654160Y45197120I0J-5080D01*
G01X44654160Y45115120D01*
G02X44649080Y45110040I-5080J0D01*
G01X44515080Y45110040D01*
G02X44510000Y45115120I0J5080D01*
G01X44510000Y45197120D01*
G02X44515080Y45202200I5080J0D01*
G37*
G01X44938031Y46044216D03*
G36*
G01X44151240Y44962720D02*
G01X44017240Y44962720D01*
G02X44012160Y44967800I0J5080D01*
G01X44012160Y45049800D01*
G02X44017240Y45054880I5080J0D01*
G01X44151240Y45054880D01*
G02X44156320Y45049800I0J-5080D01*
G01X44156320Y44967800D01*
G02X44151240Y44962720I-5080J0D01*
G37*
G36*
G01X44151240Y45110040D02*
G01X44017240Y45110040D01*
G02X44012160Y45115120I0J5080D01*
G01X44012160Y45197120D01*
G02X44017240Y45202200I5080J0D01*
G01X44151240Y45202200D01*
G02X44156320Y45197120I0J-5080D01*
G01X44156320Y45115120D01*
G02X44151240Y45110040I-5080J0D01*
G37*
G01X43570540Y45790216D03*
G36*
G01X46554080Y44962720D02*
G01X46420080Y44962720D01*
G02X46415000Y44967800I0J5080D01*
G01X46415000Y45049800D01*
G02X46420080Y45054880I5080J0D01*
G01X46554080Y45054880D01*
G02X46559160Y45049800I0J-5080D01*
G01X46559160Y44967800D01*
G02X46554080Y44962720I-5080J0D01*
G37*
G36*
G01X46420080Y45202200D02*
G01X46554080Y45202200D01*
G02X46559160Y45197120I0J-5080D01*
G01X46559160Y45115120D01*
G02X46554080Y45110040I-5080J0D01*
G01X46420080Y45110040D01*
G02X46415000Y45115120I0J5080D01*
G01X46415000Y45197120D01*
G02X46420080Y45202200I5080J0D01*
G37*
G01X46843031Y46044216D03*
G36*
G01X46056240Y44962720D02*
G01X45922240Y44962720D01*
G02X45917160Y44967800I0J5080D01*
G01X45917160Y45049800D01*
G02X45922240Y45054880I5080J0D01*
G01X46056240Y45054880D01*
G02X46061320Y45049800I0J-5080D01*
G01X46061320Y44967800D01*
G02X46056240Y44962720I-5080J0D01*
G37*
G36*
G01X46056240Y45110040D02*
G01X45922240Y45110040D01*
G02X45917160Y45115120I0J5080D01*
G01X45917160Y45197120D01*
G02X45922240Y45202200I5080J0D01*
G01X46056240Y45202200D01*
G02X46061320Y45197120I0J-5080D01*
G01X46061320Y45115120D01*
G02X46056240Y45110040I-5080J0D01*
G37*
G01X45475540Y45790216D03*
G36*
G01X48459080Y44962720D02*
G01X48325080Y44962720D01*
G02X48320000Y44967800I0J5080D01*
G01X48320000Y45049800D01*
G02X48325080Y45054880I5080J0D01*
G01X48459080Y45054880D01*
G02X48464160Y45049800I0J-5080D01*
G01X48464160Y44967800D01*
G02X48459080Y44962720I-5080J0D01*
G37*
G36*
G01X48325080Y45202200D02*
G01X48459080Y45202200D01*
G02X48464160Y45197120I0J-5080D01*
G01X48464160Y45115120D01*
G02X48459080Y45110040I-5080J0D01*
G01X48325080Y45110040D01*
G02X48320000Y45115120I0J5080D01*
G01X48320000Y45197120D01*
G02X48325080Y45202200I5080J0D01*
G37*
G01X48748031Y46044216D03*
G36*
G01X47961240Y44962720D02*
G01X47827240Y44962720D01*
G02X47822160Y44967800I0J5080D01*
G01X47822160Y45049800D01*
G02X47827240Y45054880I5080J0D01*
G01X47961240Y45054880D01*
G02X47966320Y45049800I0J-5080D01*
G01X47966320Y44967800D01*
G02X47961240Y44962720I-5080J0D01*
G37*
G36*
G01X47961240Y45110040D02*
G01X47827240Y45110040D01*
G02X47822160Y45115120I0J5080D01*
G01X47822160Y45197120D01*
G02X47827240Y45202200I5080J0D01*
G01X47961240Y45202200D01*
G02X47966320Y45197120I0J-5080D01*
G01X47966320Y45115120D01*
G02X47961240Y45110040I-5080J0D01*
G37*
G01X47380540Y45790216D03*
G36*
G01X50364080Y44962720D02*
G01X50230080Y44962720D01*
G02X50225000Y44967800I0J5080D01*
G01X50225000Y45049800D01*
G02X50230080Y45054880I5080J0D01*
G01X50364080Y45054880D01*
G02X50369160Y45049800I0J-5080D01*
G01X50369160Y44967800D01*
G02X50364080Y44962720I-5080J0D01*
G37*
G36*
G01X50230080Y45202200D02*
G01X50364080Y45202200D01*
G02X50369160Y45197120I0J-5080D01*
G01X50369160Y45115120D01*
G02X50364080Y45110040I-5080J0D01*
G01X50230080Y45110040D01*
G02X50225000Y45115120I0J5080D01*
G01X50225000Y45197120D01*
G02X50230080Y45202200I5080J0D01*
G37*
G01X50653031Y46044216D03*
G36*
G01X49866240Y44962720D02*
G01X49732240Y44962720D01*
G02X49727160Y44967800I0J5080D01*
G01X49727160Y45049800D01*
G02X49732240Y45054880I5080J0D01*
G01X49866240Y45054880D01*
G02X49871320Y45049800I0J-5080D01*
G01X49871320Y44967800D01*
G02X49866240Y44962720I-5080J0D01*
G37*
G36*
G01X49866240Y45110040D02*
G01X49732240Y45110040D01*
G02X49727160Y45115120I0J5080D01*
G01X49727160Y45197120D01*
G02X49732240Y45202200I5080J0D01*
G01X49866240Y45202200D01*
G02X49871320Y45197120I0J-5080D01*
G01X49871320Y45115120D01*
G02X49866240Y45110040I-5080J0D01*
G37*
G01X49285540Y45790216D03*
G36*
G01X52269080Y44962720D02*
G01X52135080Y44962720D01*
G01X52135080Y44962720D01*
G02X52130000Y44967800I0J5080D01*
G01X52130000Y45049800D01*
G02X52135080Y45054880I5080J0D01*
G01X52269080Y45054880D01*
G02X52274160Y45049800I0J-5080D01*
G01X52274160Y44967800D01*
G02X52269080Y44962720I-5080J0D01*
G01X52269080Y44962720D01*
G37*
G36*
G01X52135080Y45202200D02*
G01X52269080Y45202200D01*
G01X52269080Y45202200D01*
G02X52274160Y45197120I0J-5080D01*
G01X52274160Y45115120D01*
G02X52269080Y45110040I-5080J0D01*
G01X52269080Y45110040D01*
G01X52135080Y45110040D01*
G01X52135080Y45110040D01*
G02X52130000Y45115120I0J5080D01*
G01X52130000Y45197120D01*
G02X52135080Y45202200I5080J0D01*
G01X52135080Y45202200D01*
G37*
G01X52558031Y46044216D03*
G36*
G01X51771240Y44962720D02*
G01X51637240Y44962720D01*
G02X51632160Y44967800I0J5080D01*
G01X51632160Y45049800D01*
G02X51637240Y45054880I5080J0D01*
G01X51771240Y45054880D01*
G02X51776320Y45049800I0J-5080D01*
G01X51776320Y44967800D01*
G02X51771240Y44962720I-5080J0D01*
G37*
G36*
G01X51771240Y45110040D02*
G01X51637240Y45110040D01*
G02X51632160Y45115120I0J5080D01*
G01X51632160Y45197120D01*
G02X51637240Y45202200I5080J0D01*
G01X51771240Y45202200D01*
G02X51776320Y45197120I0J-5080D01*
G01X51776320Y45115120D01*
G02X51771240Y45110040I-5080J0D01*
G37*
G01X51190540Y45790216D03*
G36*
G01X54174080Y44962720D02*
G01X54040080Y44962720D01*
G01X54040080Y44962720D01*
G02X54035000Y44967800I0J5080D01*
G01X54035000Y45049800D01*
G02X54040080Y45054880I5080J0D01*
G01X54174080Y45054880D01*
G02X54179160Y45049800I0J-5080D01*
G01X54179160Y44967800D01*
G02X54174080Y44962720I-5080J0D01*
G01X54174080Y44962720D01*
G37*
G36*
G01X54040080Y45202200D02*
G01X54174080Y45202200D01*
G01X54174080Y45202200D01*
G02X54179160Y45197120I0J-5080D01*
G01X54179160Y45115120D01*
G02X54174080Y45110040I-5080J0D01*
G01X54174080Y45110040D01*
G01X54040080Y45110040D01*
G01X54040080Y45110040D01*
G02X54035000Y45115120I0J5080D01*
G01X54035000Y45197120D01*
G02X54040080Y45202200I5080J0D01*
G01X54040080Y45202200D01*
G37*
G01X54463031Y46044216D03*
G36*
G01X53676240Y44962720D02*
G01X53542240Y44962720D01*
G01X53542240Y44962720D01*
G02X53537160Y44967800I0J5080D01*
G01X53537160Y45049800D01*
G02X53542240Y45054880I5080J0D01*
G01X53676240Y45054880D01*
G02X53681320Y45049800I0J-5080D01*
G01X53681320Y44967800D01*
G02X53676240Y44962720I-5080J0D01*
G01X53676240Y44962720D01*
G37*
G36*
G01X53676240Y45110040D02*
G01X53542240Y45110040D01*
G01X53542240Y45110040D01*
G02X53537160Y45115120I0J5080D01*
G01X53537160Y45197120D01*
G02X53542240Y45202200I5080J0D01*
G01X53542240Y45202200D01*
G01X53676240Y45202200D01*
G01X53676240Y45202200D01*
G02X53681320Y45197120I0J-5080D01*
G01X53681320Y45115120D01*
G02X53676240Y45110040I-5080J0D01*
G01X53676240Y45110040D01*
G37*
G01X53095540Y45790216D03*
G36*
G01X56079080Y44962720D02*
G01X55945080Y44962720D01*
G01X55945080Y44962720D01*
G02X55940000Y44967800I0J5080D01*
G01X55940000Y45049800D01*
G02X55945080Y45054880I5080J0D01*
G01X56079080Y45054880D01*
G02X56084160Y45049800I0J-5080D01*
G01X56084160Y44967800D01*
G02X56079080Y44962720I-5080J0D01*
G01X56079080Y44962720D01*
G37*
G36*
G01X55945080Y45202200D02*
G01X56079080Y45202200D01*
G01X56079080Y45202200D01*
G02X56084160Y45197120I0J-5080D01*
G01X56084160Y45115120D01*
G02X56079080Y45110040I-5080J0D01*
G01X56079080Y45110040D01*
G01X55945080Y45110040D01*
G01X55945080Y45110040D01*
G02X55940000Y45115120I0J5080D01*
G01X55940000Y45197120D01*
G02X55945080Y45202200I5080J0D01*
G01X55945080Y45202200D01*
G37*
G01X56368031Y46044216D03*
G36*
G01X55581240Y44962720D02*
G01X55447240Y44962720D01*
G01X55447240Y44962720D01*
G02X55442160Y44967800I0J5080D01*
G01X55442160Y45049800D01*
G02X55447240Y45054880I5080J0D01*
G01X55581240Y45054880D01*
G02X55586320Y45049800I0J-5080D01*
G01X55586320Y44967800D01*
G02X55581240Y44962720I-5080J0D01*
G01X55581240Y44962720D01*
G37*
G36*
G01X55581240Y45110040D02*
G01X55447240Y45110040D01*
G01X55447240Y45110040D01*
G02X55442160Y45115120I0J5080D01*
G01X55442160Y45197120D01*
G02X55447240Y45202200I5080J0D01*
G01X55447240Y45202200D01*
G01X55581240Y45202200D01*
G01X55581240Y45202200D01*
G02X55586320Y45197120I0J-5080D01*
G01X55586320Y45115120D01*
G02X55581240Y45110040I-5080J0D01*
G01X55581240Y45110040D01*
G37*
G01X55000540Y45790216D03*
G36*
G01X58461600Y44962720D02*
G01X58327600Y44962720D01*
G01X58327600Y44962720D01*
G02X58322520Y44967800I0J5080D01*
G01X58322520Y45049800D01*
G02X58327600Y45054880I5080J0D01*
G01X58461600Y45054880D01*
G02X58466680Y45049800I0J-5080D01*
G01X58466680Y44967800D01*
G02X58461600Y44962720I-5080J0D01*
G01X58461600Y44962720D01*
G37*
G36*
G01X58327600Y45202200D02*
G01X58461600Y45202200D01*
G01X58461600Y45202200D01*
G02X58466680Y45197120I0J-5080D01*
G01X58466680Y45115120D01*
G02X58461600Y45110040I-5080J0D01*
G01X58461600Y45110040D01*
G01X58327600Y45110040D01*
G01X58327600Y45110040D01*
G02X58322520Y45115120I0J5080D01*
G01X58322520Y45197120D01*
G02X58327600Y45202200I5080J0D01*
G01X58327600Y45202200D01*
G37*
G01X58750551Y46044216D03*
G36*
G01X57963760Y44962720D02*
G01X57829760Y44962720D01*
G01X57829760Y44962720D01*
G02X57824680Y44967800I0J5080D01*
G01X57824680Y45049800D01*
G02X57829760Y45054880I5080J0D01*
G01X57963760Y45054880D01*
G02X57968840Y45049800I0J-5080D01*
G01X57968840Y44967800D01*
G02X57963760Y44962720I-5080J0D01*
G01X57963760Y44962720D01*
G37*
G36*
G01X57963760Y45110040D02*
G01X57829760Y45110040D01*
G01X57829760Y45110040D01*
G02X57824680Y45115120I0J5080D01*
G01X57824680Y45197120D01*
G02X57829760Y45202200I5080J0D01*
G01X57829760Y45202200D01*
G01X57963760Y45202200D01*
G01X57963760Y45202200D01*
G02X57968840Y45197120I0J-5080D01*
G01X57968840Y45115120D01*
G02X57963760Y45110040I-5080J0D01*
G01X57963760Y45110040D01*
G37*
G01X57383060Y45790216D03*
G36*
G01X61316560Y44962720D02*
G01X61182560Y44962720D01*
G01X61182560Y44962720D01*
G02X61177480Y44967800I0J5080D01*
G01X61177480Y45049800D01*
G02X61182560Y45054880I5080J0D01*
G01X61316560Y45054880D01*
G02X61321640Y45049800I0J-5080D01*
G01X61321640Y44967800D01*
G02X61316560Y44962720I-5080J0D01*
G01X61316560Y44962720D01*
G37*
G36*
G01X61182560Y45202200D02*
G01X61316560Y45202200D01*
G01X61316560Y45202200D01*
G02X61321640Y45197120I0J-5080D01*
G01X61321640Y45115120D01*
G02X61316560Y45110040I-5080J0D01*
G01X61316560Y45110040D01*
G01X61182560Y45110040D01*
G01X61182560Y45110040D01*
G02X61177480Y45115120I0J5080D01*
G01X61177480Y45197120D01*
G02X61182560Y45202200I5080J0D01*
G01X61182560Y45202200D01*
G37*
G01X61605511Y46044216D03*
G36*
G01X60818720Y44962720D02*
G01X60684720Y44962720D01*
G01X60684720Y44962720D01*
G02X60679640Y44967800I0J5080D01*
G01X60679640Y45049800D01*
G02X60684720Y45054880I5080J0D01*
G01X60818720Y45054880D01*
G02X60823800Y45049800I0J-5080D01*
G01X60823800Y44967800D01*
G02X60818720Y44962720I-5080J0D01*
G01X60818720Y44962720D01*
G37*
G36*
G01X60818720Y45110040D02*
G01X60684720Y45110040D01*
G01X60684720Y45110040D01*
G02X60679640Y45115120I0J5080D01*
G01X60679640Y45197120D01*
G02X60684720Y45202200I5080J0D01*
G01X60684720Y45202200D01*
G01X60818720Y45202200D01*
G01X60818720Y45202200D01*
G02X60823800Y45197120I0J-5080D01*
G01X60823800Y45115120D01*
G02X60818720Y45110040I-5080J0D01*
G01X60818720Y45110040D01*
G37*
G01X60238020Y45790216D03*
G36*
G01X32985400Y43057720D02*
G01X32851400Y43057720D01*
G02X32846320Y43062800I0J5080D01*
G01X32846320Y43144800D01*
G02X32851400Y43149880I5080J0D01*
G01X32985400Y43149880D01*
G02X32990480Y43144800I0J-5080D01*
G01X32990480Y43062800D01*
G02X32985400Y43057720I-5080J0D01*
G37*
G36*
G01X32851400Y43297200D02*
G01X32985400Y43297200D01*
G02X32990480Y43292120I0J-5080D01*
G01X32990480Y43210120D01*
G02X32985400Y43205040I-5080J0D01*
G01X32851400Y43205040D01*
G02X32846320Y43210120I0J5080D01*
G01X32846320Y43292120D01*
G02X32851400Y43297200I5080J0D01*
G37*
G01X33274351Y44139216D03*
G36*
G01X32487560Y43057720D02*
G01X32353560Y43057720D01*
G02X32348480Y43062800I0J5080D01*
G01X32348480Y43144800D01*
G02X32353560Y43149880I5080J0D01*
G01X32487560Y43149880D01*
G02X32492640Y43144800I0J-5080D01*
G01X32492640Y43062800D01*
G02X32487560Y43057720I-5080J0D01*
G37*
G36*
G01X32487560Y43205040D02*
G01X32353560Y43205040D01*
G02X32348480Y43210120I0J5080D01*
G01X32348480Y43292120D01*
G02X32353560Y43297200I5080J0D01*
G01X32487560Y43297200D01*
G02X32492640Y43292120I0J-5080D01*
G01X32492640Y43210120D01*
G02X32487560Y43205040I-5080J0D01*
G37*
G01X31906860Y43885216D03*
G36*
G01X35601600Y43057720D02*
G01X35467600Y43057720D01*
G02X35462520Y43062800I0J5080D01*
G01X35462520Y43144800D01*
G02X35467600Y43149880I5080J0D01*
G01X35601600Y43149880D01*
G02X35606680Y43144800I0J-5080D01*
G01X35606680Y43062800D01*
G02X35601600Y43057720I-5080J0D01*
G37*
G36*
G01X35467600Y43297200D02*
G01X35601600Y43297200D01*
G02X35606680Y43292120I0J-5080D01*
G01X35606680Y43210120D01*
G02X35601600Y43205040I-5080J0D01*
G01X35467600Y43205040D01*
G02X35462520Y43210120I0J5080D01*
G01X35462520Y43292120D01*
G02X35467600Y43297200I5080J0D01*
G37*
G01X35890551Y44139216D03*
G36*
G01X35103760Y43057720D02*
G01X34969760Y43057720D01*
G02X34964680Y43062800I0J5080D01*
G01X34964680Y43144800D01*
G02X34969760Y43149880I5080J0D01*
G01X35103760Y43149880D01*
G02X35108840Y43144800I0J-5080D01*
G01X35108840Y43062800D01*
G02X35103760Y43057720I-5080J0D01*
G37*
G36*
G01X35103760Y43205040D02*
G01X34969760Y43205040D01*
G02X34964680Y43210120I0J5080D01*
G01X34964680Y43292120D01*
G02X34969760Y43297200I5080J0D01*
G01X35103760Y43297200D01*
G02X35108840Y43292120I0J-5080D01*
G01X35108840Y43210120D01*
G02X35103760Y43205040I-5080J0D01*
G37*
G01X34523060Y43885216D03*
G36*
G01X37506600Y43057720D02*
G01X37372600Y43057720D01*
G02X37367520Y43062800I0J5080D01*
G01X37367520Y43144800D01*
G02X37372600Y43149880I5080J0D01*
G01X37506600Y43149880D01*
G02X37511680Y43144800I0J-5080D01*
G01X37511680Y43062800D01*
G02X37506600Y43057720I-5080J0D01*
G37*
G36*
G01X37372600Y43297200D02*
G01X37506600Y43297200D01*
G02X37511680Y43292120I0J-5080D01*
G01X37511680Y43210120D01*
G02X37506600Y43205040I-5080J0D01*
G01X37372600Y43205040D01*
G02X37367520Y43210120I0J5080D01*
G01X37367520Y43292120D01*
G02X37372600Y43297200I5080J0D01*
G37*
G01X37795551Y44139216D03*
G36*
G01X37008760Y43057720D02*
G01X36874760Y43057720D01*
G02X36869680Y43062800I0J5080D01*
G01X36869680Y43144800D01*
G02X36874760Y43149880I5080J0D01*
G01X37008760Y43149880D01*
G02X37013840Y43144800I0J-5080D01*
G01X37013840Y43062800D01*
G02X37008760Y43057720I-5080J0D01*
G37*
G36*
G01X37008760Y43205040D02*
G01X36874760Y43205040D01*
G02X36869680Y43210120I0J5080D01*
G01X36869680Y43292120D01*
G02X36874760Y43297200I5080J0D01*
G01X37008760Y43297200D01*
G02X37013840Y43292120I0J-5080D01*
G01X37013840Y43210120D01*
G02X37008760Y43205040I-5080J0D01*
G37*
G01X36428060Y43885216D03*
G36*
G01X39411600Y43057720D02*
G01X39277600Y43057720D01*
G02X39272520Y43062800I0J5080D01*
G01X39272520Y43144800D01*
G02X39277600Y43149880I5080J0D01*
G01X39411600Y43149880D01*
G02X39416680Y43144800I0J-5080D01*
G01X39416680Y43062800D01*
G02X39411600Y43057720I-5080J0D01*
G37*
G36*
G01X39277600Y43297200D02*
G01X39411600Y43297200D01*
G02X39416680Y43292120I0J-5080D01*
G01X39416680Y43210120D01*
G02X39411600Y43205040I-5080J0D01*
G01X39277600Y43205040D01*
G02X39272520Y43210120I0J5080D01*
G01X39272520Y43292120D01*
G02X39277600Y43297200I5080J0D01*
G37*
G01X39700551Y44139216D03*
G36*
G01X38913760Y43057720D02*
G01X38779760Y43057720D01*
G02X38774680Y43062800I0J5080D01*
G01X38774680Y43144800D01*
G02X38779760Y43149880I5080J0D01*
G01X38913760Y43149880D01*
G02X38918840Y43144800I0J-5080D01*
G01X38918840Y43062800D01*
G02X38913760Y43057720I-5080J0D01*
G37*
G36*
G01X38913760Y43205040D02*
G01X38779760Y43205040D01*
G02X38774680Y43210120I0J5080D01*
G01X38774680Y43292120D01*
G02X38779760Y43297200I5080J0D01*
G01X38913760Y43297200D01*
G02X38918840Y43292120I0J-5080D01*
G01X38918840Y43210120D01*
G02X38913760Y43205040I-5080J0D01*
G37*
G01X38333060Y43885216D03*
G36*
G01X41316600Y43057720D02*
G01X41182600Y43057720D01*
G02X41177520Y43062800I0J5080D01*
G01X41177520Y43144800D01*
G02X41182600Y43149880I5080J0D01*
G01X41316600Y43149880D01*
G02X41321680Y43144800I0J-5080D01*
G01X41321680Y43062800D01*
G02X41316600Y43057720I-5080J0D01*
G37*
G36*
G01X41182600Y43297200D02*
G01X41316600Y43297200D01*
G02X41321680Y43292120I0J-5080D01*
G01X41321680Y43210120D01*
G02X41316600Y43205040I-5080J0D01*
G01X41182600Y43205040D01*
G02X41177520Y43210120I0J5080D01*
G01X41177520Y43292120D01*
G02X41182600Y43297200I5080J0D01*
G37*
G01X41605551Y44139216D03*
G36*
G01X40818760Y43057720D02*
G01X40684760Y43057720D01*
G02X40679680Y43062800I0J5080D01*
G01X40679680Y43144800D01*
G02X40684760Y43149880I5080J0D01*
G01X40818760Y43149880D01*
G02X40823840Y43144800I0J-5080D01*
G01X40823840Y43062800D01*
G02X40818760Y43057720I-5080J0D01*
G37*
G36*
G01X40818760Y43205040D02*
G01X40684760Y43205040D01*
G02X40679680Y43210120I0J5080D01*
G01X40679680Y43292120D01*
G02X40684760Y43297200I5080J0D01*
G01X40818760Y43297200D01*
G02X40823840Y43292120I0J-5080D01*
G01X40823840Y43210120D01*
G02X40818760Y43205040I-5080J0D01*
G37*
G01X40238060Y43885216D03*
G36*
G01X43221600Y43057720D02*
G01X43087600Y43057720D01*
G02X43082520Y43062800I0J5080D01*
G01X43082520Y43144800D01*
G02X43087600Y43149880I5080J0D01*
G01X43221600Y43149880D01*
G02X43226680Y43144800I0J-5080D01*
G01X43226680Y43062800D01*
G02X43221600Y43057720I-5080J0D01*
G37*
G36*
G01X43087600Y43297200D02*
G01X43221600Y43297200D01*
G02X43226680Y43292120I0J-5080D01*
G01X43226680Y43210120D01*
G02X43221600Y43205040I-5080J0D01*
G01X43087600Y43205040D01*
G02X43082520Y43210120I0J5080D01*
G01X43082520Y43292120D01*
G02X43087600Y43297200I5080J0D01*
G37*
G01X43510551Y44139216D03*
G36*
G01X42723760Y43057720D02*
G01X42589760Y43057720D01*
G02X42584680Y43062800I0J5080D01*
G01X42584680Y43144800D01*
G02X42589760Y43149880I5080J0D01*
G01X42723760Y43149880D01*
G02X42728840Y43144800I0J-5080D01*
G01X42728840Y43062800D01*
G02X42723760Y43057720I-5080J0D01*
G37*
G36*
G01X42723760Y43205040D02*
G01X42589760Y43205040D01*
G02X42584680Y43210120I0J5080D01*
G01X42584680Y43292120D01*
G02X42589760Y43297200I5080J0D01*
G01X42723760Y43297200D01*
G02X42728840Y43292120I0J-5080D01*
G01X42728840Y43210120D01*
G02X42723760Y43205040I-5080J0D01*
G37*
G01X42143060Y43885216D03*
G36*
G01X45126600Y43057720D02*
G01X44992600Y43057720D01*
G02X44987520Y43062800I0J5080D01*
G01X44987520Y43144800D01*
G02X44992600Y43149880I5080J0D01*
G01X45126600Y43149880D01*
G02X45131680Y43144800I0J-5080D01*
G01X45131680Y43062800D01*
G02X45126600Y43057720I-5080J0D01*
G37*
G36*
G01X44992600Y43297200D02*
G01X45126600Y43297200D01*
G02X45131680Y43292120I0J-5080D01*
G01X45131680Y43210120D01*
G02X45126600Y43205040I-5080J0D01*
G01X44992600Y43205040D01*
G02X44987520Y43210120I0J5080D01*
G01X44987520Y43292120D01*
G02X44992600Y43297200I5080J0D01*
G37*
G01X45415551Y44139216D03*
G36*
G01X44628760Y43057720D02*
G01X44494760Y43057720D01*
G02X44489680Y43062800I0J5080D01*
G01X44489680Y43144800D01*
G02X44494760Y43149880I5080J0D01*
G01X44628760Y43149880D01*
G02X44633840Y43144800I0J-5080D01*
G01X44633840Y43062800D01*
G02X44628760Y43057720I-5080J0D01*
G37*
G36*
G01X44628760Y43205040D02*
G01X44494760Y43205040D01*
G02X44489680Y43210120I0J5080D01*
G01X44489680Y43292120D01*
G02X44494760Y43297200I5080J0D01*
G01X44628760Y43297200D01*
G02X44633840Y43292120I0J-5080D01*
G01X44633840Y43210120D01*
G02X44628760Y43205040I-5080J0D01*
G37*
G01X44048060Y43885216D03*
G36*
G01X47031600Y43057720D02*
G01X46897600Y43057720D01*
G02X46892520Y43062800I0J5080D01*
G01X46892520Y43144800D01*
G02X46897600Y43149880I5080J0D01*
G01X47031600Y43149880D01*
G02X47036680Y43144800I0J-5080D01*
G01X47036680Y43062800D01*
G02X47031600Y43057720I-5080J0D01*
G37*
G36*
G01X46897600Y43297200D02*
G01X47031600Y43297200D01*
G02X47036680Y43292120I0J-5080D01*
G01X47036680Y43210120D01*
G02X47031600Y43205040I-5080J0D01*
G01X46897600Y43205040D01*
G02X46892520Y43210120I0J5080D01*
G01X46892520Y43292120D01*
G02X46897600Y43297200I5080J0D01*
G37*
G01X47320551Y44139216D03*
G36*
G01X46533760Y43057720D02*
G01X46399760Y43057720D01*
G02X46394680Y43062800I0J5080D01*
G01X46394680Y43144800D01*
G02X46399760Y43149880I5080J0D01*
G01X46533760Y43149880D01*
G02X46538840Y43144800I0J-5080D01*
G01X46538840Y43062800D01*
G02X46533760Y43057720I-5080J0D01*
G37*
G36*
G01X46533760Y43205040D02*
G01X46399760Y43205040D01*
G02X46394680Y43210120I0J5080D01*
G01X46394680Y43292120D01*
G02X46399760Y43297200I5080J0D01*
G01X46533760Y43297200D01*
G02X46538840Y43292120I0J-5080D01*
G01X46538840Y43210120D01*
G02X46533760Y43205040I-5080J0D01*
G37*
G01X45953060Y43885216D03*
G36*
G01X48936600Y43057720D02*
G01X48802600Y43057720D01*
G02X48797520Y43062800I0J5080D01*
G01X48797520Y43144800D01*
G02X48802600Y43149880I5080J0D01*
G01X48936600Y43149880D01*
G02X48941680Y43144800I0J-5080D01*
G01X48941680Y43062800D01*
G02X48936600Y43057720I-5080J0D01*
G37*
G36*
G01X48802600Y43297200D02*
G01X48936600Y43297200D01*
G02X48941680Y43292120I0J-5080D01*
G01X48941680Y43210120D01*
G02X48936600Y43205040I-5080J0D01*
G01X48802600Y43205040D01*
G02X48797520Y43210120I0J5080D01*
G01X48797520Y43292120D01*
G02X48802600Y43297200I5080J0D01*
G37*
G01X49225551Y44139216D03*
G36*
G01X48438760Y43057720D02*
G01X48304760Y43057720D01*
G02X48299680Y43062800I0J5080D01*
G01X48299680Y43144800D01*
G02X48304760Y43149880I5080J0D01*
G01X48438760Y43149880D01*
G02X48443840Y43144800I0J-5080D01*
G01X48443840Y43062800D01*
G02X48438760Y43057720I-5080J0D01*
G37*
G36*
G01X48438760Y43205040D02*
G01X48304760Y43205040D01*
G02X48299680Y43210120I0J5080D01*
G01X48299680Y43292120D01*
G02X48304760Y43297200I5080J0D01*
G01X48438760Y43297200D01*
G02X48443840Y43292120I0J-5080D01*
G01X48443840Y43210120D01*
G02X48438760Y43205040I-5080J0D01*
G37*
G01X47858060Y43885216D03*
G36*
G01X50841600Y43057720D02*
G01X50707600Y43057720D01*
G02X50702520Y43062800I0J5080D01*
G01X50702520Y43144800D01*
G02X50707600Y43149880I5080J0D01*
G01X50841600Y43149880D01*
G02X50846680Y43144800I0J-5080D01*
G01X50846680Y43062800D01*
G02X50841600Y43057720I-5080J0D01*
G37*
G36*
G01X50707600Y43297200D02*
G01X50841600Y43297200D01*
G02X50846680Y43292120I0J-5080D01*
G01X50846680Y43210120D01*
G02X50841600Y43205040I-5080J0D01*
G01X50707600Y43205040D01*
G02X50702520Y43210120I0J5080D01*
G01X50702520Y43292120D01*
G02X50707600Y43297200I5080J0D01*
G37*
G01X51130551Y44139216D03*
G36*
G01X50343760Y43057720D02*
G01X50209760Y43057720D01*
G02X50204680Y43062800I0J5080D01*
G01X50204680Y43144800D01*
G02X50209760Y43149880I5080J0D01*
G01X50343760Y43149880D01*
G02X50348840Y43144800I0J-5080D01*
G01X50348840Y43062800D01*
G02X50343760Y43057720I-5080J0D01*
G37*
G36*
G01X50343760Y43205040D02*
G01X50209760Y43205040D01*
G02X50204680Y43210120I0J5080D01*
G01X50204680Y43292120D01*
G02X50209760Y43297200I5080J0D01*
G01X50343760Y43297200D01*
G02X50348840Y43292120I0J-5080D01*
G01X50348840Y43210120D01*
G02X50343760Y43205040I-5080J0D01*
G37*
G01X49763060Y43885216D03*
G36*
G01X52746600Y43057720D02*
G01X52612600Y43057720D01*
G01X52612600Y43057720D01*
G02X52607520Y43062800I0J5080D01*
G01X52607520Y43144800D01*
G02X52612600Y43149880I5080J0D01*
G01X52746600Y43149880D01*
G02X52751680Y43144800I0J-5080D01*
G01X52751680Y43062800D01*
G02X52746600Y43057720I-5080J0D01*
G01X52746600Y43057720D01*
G37*
G36*
G01X52612600Y43297200D02*
G01X52746600Y43297200D01*
G01X52746600Y43297200D01*
G02X52751680Y43292120I0J-5080D01*
G01X52751680Y43210120D01*
G02X52746600Y43205040I-5080J0D01*
G01X52746600Y43205040D01*
G01X52612600Y43205040D01*
G01X52612600Y43205040D01*
G02X52607520Y43210120I0J5080D01*
G01X52607520Y43292120D01*
G02X52612600Y43297200I5080J0D01*
G01X52612600Y43297200D01*
G37*
G01X53035551Y44139216D03*
G36*
G01X52248760Y43057720D02*
G01X52114760Y43057720D01*
G01X52114760Y43057720D01*
G02X52109680Y43062800I0J5080D01*
G01X52109680Y43144800D01*
G02X52114760Y43149880I5080J0D01*
G01X52248760Y43149880D01*
G02X52253840Y43144800I0J-5080D01*
G01X52253840Y43062800D01*
G02X52248760Y43057720I-5080J0D01*
G01X52248760Y43057720D01*
G37*
G36*
G01X52248760Y43205040D02*
G01X52114760Y43205040D01*
G01X52114760Y43205040D01*
G02X52109680Y43210120I0J5080D01*
G01X52109680Y43292120D01*
G02X52114760Y43297200I5080J0D01*
G01X52114760Y43297200D01*
G01X52248760Y43297200D01*
G01X52248760Y43297200D01*
G02X52253840Y43292120I0J-5080D01*
G01X52253840Y43210120D01*
G02X52248760Y43205040I-5080J0D01*
G01X52248760Y43205040D01*
G37*
G01X51668060Y43885216D03*
G36*
G01X54651600Y43057720D02*
G01X54517600Y43057720D01*
G01X54517600Y43057720D01*
G02X54512520Y43062800I0J5080D01*
G01X54512520Y43144800D01*
G02X54517600Y43149880I5080J0D01*
G01X54651600Y43149880D01*
G02X54656680Y43144800I0J-5080D01*
G01X54656680Y43062800D01*
G02X54651600Y43057720I-5080J0D01*
G01X54651600Y43057720D01*
G37*
G36*
G01X54517600Y43297200D02*
G01X54651600Y43297200D01*
G01X54651600Y43297200D01*
G02X54656680Y43292120I0J-5080D01*
G01X54656680Y43210120D01*
G02X54651600Y43205040I-5080J0D01*
G01X54651600Y43205040D01*
G01X54517600Y43205040D01*
G01X54517600Y43205040D01*
G02X54512520Y43210120I0J5080D01*
G01X54512520Y43292120D01*
G02X54517600Y43297200I5080J0D01*
G01X54517600Y43297200D01*
G37*
G01X54940551Y44139216D03*
G36*
G01X54153760Y43057720D02*
G01X54019760Y43057720D01*
G01X54019760Y43057720D01*
G02X54014680Y43062800I0J5080D01*
G01X54014680Y43144800D01*
G02X54019760Y43149880I5080J0D01*
G01X54153760Y43149880D01*
G02X54158840Y43144800I0J-5080D01*
G01X54158840Y43062800D01*
G02X54153760Y43057720I-5080J0D01*
G01X54153760Y43057720D01*
G37*
G36*
G01X54153760Y43205040D02*
G01X54019760Y43205040D01*
G01X54019760Y43205040D01*
G02X54014680Y43210120I0J5080D01*
G01X54014680Y43292120D01*
G02X54019760Y43297200I5080J0D01*
G01X54019760Y43297200D01*
G01X54153760Y43297200D01*
G01X54153760Y43297200D01*
G02X54158840Y43292120I0J-5080D01*
G01X54158840Y43210120D01*
G02X54153760Y43205040I-5080J0D01*
G01X54153760Y43205040D01*
G37*
G01X53573060Y43885216D03*
G36*
G01X57745320Y43057720D02*
G01X57611320Y43057720D01*
G01X57611320Y43057720D01*
G02X57606240Y43062800I0J5080D01*
G01X57606240Y43144800D01*
G02X57611320Y43149880I5080J0D01*
G01X57745320Y43149880D01*
G02X57750400Y43144800I0J-5080D01*
G01X57750400Y43062800D01*
G02X57745320Y43057720I-5080J0D01*
G01X57745320Y43057720D01*
G37*
G36*
G01X57611320Y43297200D02*
G01X57745320Y43297200D01*
G01X57745320Y43297200D01*
G02X57750400Y43292120I0J-5080D01*
G01X57750400Y43210120D01*
G02X57745320Y43205040I-5080J0D01*
G01X57745320Y43205040D01*
G01X57611320Y43205040D01*
G01X57611320Y43205040D01*
G02X57606240Y43210120I0J5080D01*
G01X57606240Y43292120D01*
G02X57611320Y43297200I5080J0D01*
G01X57611320Y43297200D01*
G37*
G01X58034271Y44139216D03*
G36*
G01X57247480Y43057720D02*
G01X57113480Y43057720D01*
G01X57113480Y43057720D01*
G02X57108400Y43062800I0J5080D01*
G01X57108400Y43144800D01*
G02X57113480Y43149880I5080J0D01*
G01X57247480Y43149880D01*
G02X57252560Y43144800I0J-5080D01*
G01X57252560Y43062800D01*
G02X57247480Y43057720I-5080J0D01*
G01X57247480Y43057720D01*
G37*
G36*
G01X57247480Y43205040D02*
G01X57113480Y43205040D01*
G01X57113480Y43205040D01*
G02X57108400Y43210120I0J5080D01*
G01X57108400Y43292120D01*
G02X57113480Y43297200I5080J0D01*
G01X57113480Y43297200D01*
G01X57247480Y43297200D01*
G01X57247480Y43297200D01*
G02X57252560Y43292120I0J-5080D01*
G01X57252560Y43210120D01*
G02X57247480Y43205040I-5080J0D01*
G01X57247480Y43205040D01*
G37*
G01X56666780Y43885216D03*
G36*
G01X61321640Y43057720D02*
G01X61187640Y43057720D01*
G01X61187640Y43057720D01*
G02X61182560Y43062800I0J5080D01*
G01X61182560Y43144800D01*
G02X61187640Y43149880I5080J0D01*
G01X61321640Y43149880D01*
G02X61326720Y43144800I0J-5080D01*
G01X61326720Y43062800D01*
G02X61321640Y43057720I-5080J0D01*
G01X61321640Y43057720D01*
G37*
G36*
G01X61187640Y43297200D02*
G01X61321640Y43297200D01*
G01X61321640Y43297200D01*
G02X61326720Y43292120I0J-5080D01*
G01X61326720Y43210120D01*
G02X61321640Y43205040I-5080J0D01*
G01X61321640Y43205040D01*
G01X61187640Y43205040D01*
G01X61187640Y43205040D01*
G02X61182560Y43210120I0J5080D01*
G01X61182560Y43292120D01*
G02X61187640Y43297200I5080J0D01*
G01X61187640Y43297200D01*
G37*
G01X61610591Y44139216D03*
G36*
G01X60823800Y43057720D02*
G01X60689800Y43057720D01*
G01X60689800Y43057720D01*
G02X60684720Y43062800I0J5080D01*
G01X60684720Y43144800D01*
G02X60689800Y43149880I5080J0D01*
G01X60823800Y43149880D01*
G02X60828880Y43144800I0J-5080D01*
G01X60828880Y43062800D01*
G02X60823800Y43057720I-5080J0D01*
G01X60823800Y43057720D01*
G37*
G36*
G01X60823800Y43205040D02*
G01X60689800Y43205040D01*
G01X60689800Y43205040D01*
G02X60684720Y43210120I0J5080D01*
G01X60684720Y43292120D01*
G02X60689800Y43297200I5080J0D01*
G01X60689800Y43297200D01*
G01X60823800Y43297200D01*
G01X60823800Y43297200D01*
G02X60828880Y43292120I0J-5080D01*
G01X60828880Y43210120D01*
G02X60823800Y43205040I-5080J0D01*
G01X60823800Y43205040D01*
G37*
G01X60243100Y43885216D03*
G36*
G01X33461068Y41152831D02*
G01X33327068Y41152831D01*
G02X33321988Y41157911I0J5080D01*
G01X33321988Y41239911D01*
G02X33327068Y41244991I5080J0D01*
G01X33461068Y41244991D01*
G02X33466148Y41239911I0J-5080D01*
G01X33466148Y41157911D01*
G02X33461068Y41152831I-5080J0D01*
G37*
G36*
G01X33327068Y41392312D02*
G01X33461068Y41392312D01*
G02X33466148Y41387232I0J-5080D01*
G01X33466148Y41305232D01*
G02X33461068Y41300152I-5080J0D01*
G01X33327068Y41300152D01*
G02X33321988Y41305232I0J5080D01*
G01X33321988Y41387232D01*
G02X33327068Y41392312I5080J0D01*
G37*
G01X33750019Y42234328D03*
G36*
G01X32963228Y41152831D02*
G01X32829228Y41152831D01*
G02X32824148Y41157911I0J5080D01*
G01X32824148Y41239911D01*
G02X32829228Y41244991I5080J0D01*
G01X32963228Y41244991D01*
G02X32968308Y41239911I0J-5080D01*
G01X32968308Y41157911D01*
G02X32963228Y41152831I-5080J0D01*
G37*
G36*
G01X32963228Y41300152D02*
G01X32829228Y41300152D01*
G02X32824148Y41305232I0J5080D01*
G01X32824148Y41387232D01*
G02X32829228Y41392312I5080J0D01*
G01X32963228Y41392312D01*
G02X32968308Y41387232I0J-5080D01*
G01X32968308Y41305232D01*
G02X32963228Y41300152I-5080J0D01*
G37*
G01X32382529Y41980328D03*
G36*
G01X36556640Y41152720D02*
G01X36422640Y41152720D01*
G02X36417560Y41157800I0J5080D01*
G01X36417560Y41239800D01*
G02X36422640Y41244880I5080J0D01*
G01X36556640Y41244880D01*
G02X36561720Y41239800I0J-5080D01*
G01X36561720Y41157800D01*
G02X36556640Y41152720I-5080J0D01*
G37*
G36*
G01X36422640Y41392200D02*
G01X36556640Y41392200D01*
G02X36561720Y41387120I0J-5080D01*
G01X36561720Y41305120D01*
G02X36556640Y41300040I-5080J0D01*
G01X36422640Y41300040D01*
G02X36417560Y41305120I0J5080D01*
G01X36417560Y41387120D01*
G02X36422640Y41392200I5080J0D01*
G37*
G01X36845591Y42234216D03*
G36*
G01X36058800Y41152720D02*
G01X35924800Y41152720D01*
G02X35919720Y41157800I0J5080D01*
G01X35919720Y41239800D01*
G02X35924800Y41244880I5080J0D01*
G01X36058800Y41244880D01*
G02X36063880Y41239800I0J-5080D01*
G01X36063880Y41157800D01*
G02X36058800Y41152720I-5080J0D01*
G37*
G36*
G01X36058800Y41300040D02*
G01X35924800Y41300040D01*
G02X35919720Y41305120I0J5080D01*
G01X35919720Y41387120D01*
G02X35924800Y41392200I5080J0D01*
G01X36058800Y41392200D01*
G02X36063880Y41387120I0J-5080D01*
G01X36063880Y41305120D01*
G02X36058800Y41300040I-5080J0D01*
G37*
G01X35478100Y41980216D03*
G36*
G01X38461640Y41152720D02*
G01X38327640Y41152720D01*
G02X38322560Y41157800I0J5080D01*
G01X38322560Y41239800D01*
G02X38327640Y41244880I5080J0D01*
G01X38461640Y41244880D01*
G02X38466720Y41239800I0J-5080D01*
G01X38466720Y41157800D01*
G02X38461640Y41152720I-5080J0D01*
G37*
G36*
G01X38327640Y41392200D02*
G01X38461640Y41392200D01*
G02X38466720Y41387120I0J-5080D01*
G01X38466720Y41305120D01*
G02X38461640Y41300040I-5080J0D01*
G01X38327640Y41300040D01*
G02X38322560Y41305120I0J5080D01*
G01X38322560Y41387120D01*
G02X38327640Y41392200I5080J0D01*
G37*
G01X38750591Y42234216D03*
G36*
G01X37963800Y41152720D02*
G01X37829800Y41152720D01*
G02X37824720Y41157800I0J5080D01*
G01X37824720Y41239800D01*
G02X37829800Y41244880I5080J0D01*
G01X37963800Y41244880D01*
G02X37968880Y41239800I0J-5080D01*
G01X37968880Y41157800D01*
G02X37963800Y41152720I-5080J0D01*
G37*
G36*
G01X37963800Y41300040D02*
G01X37829800Y41300040D01*
G02X37824720Y41305120I0J5080D01*
G01X37824720Y41387120D01*
G02X37829800Y41392200I5080J0D01*
G01X37963800Y41392200D01*
G02X37968880Y41387120I0J-5080D01*
G01X37968880Y41305120D01*
G02X37963800Y41300040I-5080J0D01*
G37*
G01X37383100Y41980216D03*
G36*
G01X40366640Y41152720D02*
G01X40232640Y41152720D01*
G02X40227560Y41157800I0J5080D01*
G01X40227560Y41239800D01*
G02X40232640Y41244880I5080J0D01*
G01X40366640Y41244880D01*
G02X40371720Y41239800I0J-5080D01*
G01X40371720Y41157800D01*
G02X40366640Y41152720I-5080J0D01*
G37*
G36*
G01X40232640Y41392200D02*
G01X40366640Y41392200D01*
G02X40371720Y41387120I0J-5080D01*
G01X40371720Y41305120D01*
G02X40366640Y41300040I-5080J0D01*
G01X40232640Y41300040D01*
G02X40227560Y41305120I0J5080D01*
G01X40227560Y41387120D01*
G02X40232640Y41392200I5080J0D01*
G37*
G01X40655591Y42234216D03*
G36*
G01X39868800Y41152720D02*
G01X39734800Y41152720D01*
G02X39729720Y41157800I0J5080D01*
G01X39729720Y41239800D01*
G02X39734800Y41244880I5080J0D01*
G01X39868800Y41244880D01*
G02X39873880Y41239800I0J-5080D01*
G01X39873880Y41157800D01*
G02X39868800Y41152720I-5080J0D01*
G37*
G36*
G01X39868800Y41300040D02*
G01X39734800Y41300040D01*
G02X39729720Y41305120I0J5080D01*
G01X39729720Y41387120D01*
G02X39734800Y41392200I5080J0D01*
G01X39868800Y41392200D01*
G02X39873880Y41387120I0J-5080D01*
G01X39873880Y41305120D01*
G02X39868800Y41300040I-5080J0D01*
G37*
G01X39288100Y41980216D03*
G36*
G01X42271640Y41152720D02*
G01X42137640Y41152720D01*
G02X42132560Y41157800I0J5080D01*
G01X42132560Y41239800D01*
G02X42137640Y41244880I5080J0D01*
G01X42271640Y41244880D01*
G02X42276720Y41239800I0J-5080D01*
G01X42276720Y41157800D01*
G02X42271640Y41152720I-5080J0D01*
G37*
G36*
G01X42137640Y41392200D02*
G01X42271640Y41392200D01*
G02X42276720Y41387120I0J-5080D01*
G01X42276720Y41305120D01*
G02X42271640Y41300040I-5080J0D01*
G01X42137640Y41300040D01*
G02X42132560Y41305120I0J5080D01*
G01X42132560Y41387120D01*
G02X42137640Y41392200I5080J0D01*
G37*
G01X42560591Y42234216D03*
G36*
G01X41773800Y41152720D02*
G01X41639800Y41152720D01*
G02X41634720Y41157800I0J5080D01*
G01X41634720Y41239800D01*
G02X41639800Y41244880I5080J0D01*
G01X41773800Y41244880D01*
G02X41778880Y41239800I0J-5080D01*
G01X41778880Y41157800D01*
G02X41773800Y41152720I-5080J0D01*
G37*
G36*
G01X41773800Y41300040D02*
G01X41639800Y41300040D01*
G02X41634720Y41305120I0J5080D01*
G01X41634720Y41387120D01*
G02X41639800Y41392200I5080J0D01*
G01X41773800Y41392200D01*
G02X41778880Y41387120I0J-5080D01*
G01X41778880Y41305120D01*
G02X41773800Y41300040I-5080J0D01*
G37*
G01X41193100Y41980216D03*
G36*
G01X44176640Y41152720D02*
G01X44042640Y41152720D01*
G02X44037560Y41157800I0J5080D01*
G01X44037560Y41239800D01*
G02X44042640Y41244880I5080J0D01*
G01X44176640Y41244880D01*
G02X44181720Y41239800I0J-5080D01*
G01X44181720Y41157800D01*
G02X44176640Y41152720I-5080J0D01*
G37*
G36*
G01X44042640Y41392200D02*
G01X44176640Y41392200D01*
G02X44181720Y41387120I0J-5080D01*
G01X44181720Y41305120D01*
G02X44176640Y41300040I-5080J0D01*
G01X44042640Y41300040D01*
G02X44037560Y41305120I0J5080D01*
G01X44037560Y41387120D01*
G02X44042640Y41392200I5080J0D01*
G37*
G01X44465591Y42234216D03*
G36*
G01X43678800Y41152720D02*
G01X43544800Y41152720D01*
G02X43539720Y41157800I0J5080D01*
G01X43539720Y41239800D01*
G02X43544800Y41244880I5080J0D01*
G01X43678800Y41244880D01*
G02X43683880Y41239800I0J-5080D01*
G01X43683880Y41157800D01*
G02X43678800Y41152720I-5080J0D01*
G37*
G36*
G01X43678800Y41300040D02*
G01X43544800Y41300040D01*
G02X43539720Y41305120I0J5080D01*
G01X43539720Y41387120D01*
G02X43544800Y41392200I5080J0D01*
G01X43678800Y41392200D01*
G02X43683880Y41387120I0J-5080D01*
G01X43683880Y41305120D01*
G02X43678800Y41300040I-5080J0D01*
G37*
G01X43098100Y41980216D03*
G36*
G01X46081640Y41152720D02*
G01X45947640Y41152720D01*
G02X45942560Y41157800I0J5080D01*
G01X45942560Y41239800D01*
G02X45947640Y41244880I5080J0D01*
G01X46081640Y41244880D01*
G02X46086720Y41239800I0J-5080D01*
G01X46086720Y41157800D01*
G02X46081640Y41152720I-5080J0D01*
G37*
G36*
G01X45947640Y41392200D02*
G01X46081640Y41392200D01*
G02X46086720Y41387120I0J-5080D01*
G01X46086720Y41305120D01*
G02X46081640Y41300040I-5080J0D01*
G01X45947640Y41300040D01*
G02X45942560Y41305120I0J5080D01*
G01X45942560Y41387120D01*
G02X45947640Y41392200I5080J0D01*
G37*
G01X46370591Y42234216D03*
G36*
G01X45583800Y41152720D02*
G01X45449800Y41152720D01*
G02X45444720Y41157800I0J5080D01*
G01X45444720Y41239800D01*
G02X45449800Y41244880I5080J0D01*
G01X45583800Y41244880D01*
G02X45588880Y41239800I0J-5080D01*
G01X45588880Y41157800D01*
G02X45583800Y41152720I-5080J0D01*
G37*
G36*
G01X45583800Y41300040D02*
G01X45449800Y41300040D01*
G02X45444720Y41305120I0J5080D01*
G01X45444720Y41387120D01*
G02X45449800Y41392200I5080J0D01*
G01X45583800Y41392200D01*
G02X45588880Y41387120I0J-5080D01*
G01X45588880Y41305120D01*
G02X45583800Y41300040I-5080J0D01*
G37*
G01X45003100Y41980216D03*
G36*
G01X47986640Y41152720D02*
G01X47852640Y41152720D01*
G02X47847560Y41157800I0J5080D01*
G01X47847560Y41239800D01*
G02X47852640Y41244880I5080J0D01*
G01X47986640Y41244880D01*
G02X47991720Y41239800I0J-5080D01*
G01X47991720Y41157800D01*
G02X47986640Y41152720I-5080J0D01*
G37*
G36*
G01X47852640Y41392200D02*
G01X47986640Y41392200D01*
G02X47991720Y41387120I0J-5080D01*
G01X47991720Y41305120D01*
G02X47986640Y41300040I-5080J0D01*
G01X47852640Y41300040D01*
G02X47847560Y41305120I0J5080D01*
G01X47847560Y41387120D01*
G02X47852640Y41392200I5080J0D01*
G37*
G01X48275591Y42234216D03*
G36*
G01X47488800Y41152720D02*
G01X47354800Y41152720D01*
G02X47349720Y41157800I0J5080D01*
G01X47349720Y41239800D01*
G02X47354800Y41244880I5080J0D01*
G01X47488800Y41244880D01*
G02X47493880Y41239800I0J-5080D01*
G01X47493880Y41157800D01*
G02X47488800Y41152720I-5080J0D01*
G37*
G36*
G01X47488800Y41300040D02*
G01X47354800Y41300040D01*
G02X47349720Y41305120I0J5080D01*
G01X47349720Y41387120D01*
G02X47354800Y41392200I5080J0D01*
G01X47488800Y41392200D01*
G02X47493880Y41387120I0J-5080D01*
G01X47493880Y41305120D01*
G02X47488800Y41300040I-5080J0D01*
G37*
G01X46908100Y41980216D03*
G36*
G01X49891640Y41152720D02*
G01X49757640Y41152720D01*
G02X49752560Y41157800I0J5080D01*
G01X49752560Y41239800D01*
G02X49757640Y41244880I5080J0D01*
G01X49891640Y41244880D01*
G02X49896720Y41239800I0J-5080D01*
G01X49896720Y41157800D01*
G02X49891640Y41152720I-5080J0D01*
G37*
G36*
G01X49757640Y41392200D02*
G01X49891640Y41392200D01*
G02X49896720Y41387120I0J-5080D01*
G01X49896720Y41305120D01*
G02X49891640Y41300040I-5080J0D01*
G01X49757640Y41300040D01*
G02X49752560Y41305120I0J5080D01*
G01X49752560Y41387120D01*
G02X49757640Y41392200I5080J0D01*
G37*
G01X50180591Y42234216D03*
G36*
G01X49393800Y41152720D02*
G01X49259800Y41152720D01*
G02X49254720Y41157800I0J5080D01*
G01X49254720Y41239800D01*
G02X49259800Y41244880I5080J0D01*
G01X49393800Y41244880D01*
G02X49398880Y41239800I0J-5080D01*
G01X49398880Y41157800D01*
G02X49393800Y41152720I-5080J0D01*
G37*
G36*
G01X49393800Y41300040D02*
G01X49259800Y41300040D01*
G02X49254720Y41305120I0J5080D01*
G01X49254720Y41387120D01*
G02X49259800Y41392200I5080J0D01*
G01X49393800Y41392200D01*
G02X49398880Y41387120I0J-5080D01*
G01X49398880Y41305120D01*
G02X49393800Y41300040I-5080J0D01*
G37*
G01X48813100Y41980216D03*
G36*
G01X51796640Y41152720D02*
G01X51662640Y41152720D01*
G02X51657560Y41157800I0J5080D01*
G01X51657560Y41239800D01*
G02X51662640Y41244880I5080J0D01*
G01X51796640Y41244880D01*
G02X51801720Y41239800I0J-5080D01*
G01X51801720Y41157800D01*
G02X51796640Y41152720I-5080J0D01*
G37*
G36*
G01X51662640Y41392200D02*
G01X51796640Y41392200D01*
G02X51801720Y41387120I0J-5080D01*
G01X51801720Y41305120D01*
G02X51796640Y41300040I-5080J0D01*
G01X51662640Y41300040D01*
G02X51657560Y41305120I0J5080D01*
G01X51657560Y41387120D01*
G02X51662640Y41392200I5080J0D01*
G37*
G01X52085591Y42234216D03*
G36*
G01X51298800Y41152720D02*
G01X51164800Y41152720D01*
G02X51159720Y41157800I0J5080D01*
G01X51159720Y41239800D01*
G02X51164800Y41244880I5080J0D01*
G01X51298800Y41244880D01*
G02X51303880Y41239800I0J-5080D01*
G01X51303880Y41157800D01*
G02X51298800Y41152720I-5080J0D01*
G37*
G36*
G01X51298800Y41300040D02*
G01X51164800Y41300040D01*
G02X51159720Y41305120I0J5080D01*
G01X51159720Y41387120D01*
G02X51164800Y41392200I5080J0D01*
G01X51298800Y41392200D01*
G02X51303880Y41387120I0J-5080D01*
G01X51303880Y41305120D01*
G02X51298800Y41300040I-5080J0D01*
G37*
G01X50718100Y41980216D03*
G36*
G01X53701640Y41152720D02*
G01X53567640Y41152720D01*
G02X53562560Y41157800I0J5080D01*
G01X53562560Y41239800D01*
G02X53567640Y41244880I5080J0D01*
G01X53567640Y41244880D01*
G01X53701640Y41244880D01*
G01X53701640Y41244880D01*
G02X53706720Y41239800I0J-5080D01*
G01X53706720Y41157800D01*
G02X53701640Y41152720I-5080J0D01*
G37*
G36*
G01X53567640Y41392200D02*
G01X53701640Y41392200D01*
G02X53706720Y41387120I0J-5080D01*
G01X53706720Y41305120D01*
G02X53701640Y41300040I-5080J0D01*
G01X53701640Y41300040D01*
G01X53567640Y41300040D01*
G01X53567640Y41300040D01*
G02X53562560Y41305120I0J5080D01*
G01X53562560Y41387120D01*
G02X53567640Y41392200I5080J0D01*
G37*
G01X53990591Y42234216D03*
G36*
G01X53203800Y41152720D02*
G01X53069800Y41152720D01*
G02X53064720Y41157800I0J5080D01*
G01X53064720Y41239800D01*
G02X53069800Y41244880I5080J0D01*
G01X53069800Y41244880D01*
G01X53203800Y41244880D01*
G01X53203800Y41244880D01*
G02X53208880Y41239800I0J-5080D01*
G01X53208880Y41157800D01*
G02X53203800Y41152720I-5080J0D01*
G37*
G36*
G01X53203800Y41300040D02*
G01X53069800Y41300040D01*
G01X53069800Y41300040D01*
G02X53064720Y41305120I0J5080D01*
G01X53064720Y41387120D01*
G02X53069800Y41392200I5080J0D01*
G01X53203800Y41392200D01*
G02X53208880Y41387120I0J-5080D01*
G01X53208880Y41305120D01*
G02X53203800Y41300040I-5080J0D01*
G01X53203800Y41300040D01*
G37*
G01X52623100Y41980216D03*
G36*
G01X56556600Y41152720D02*
G01X56422600Y41152720D01*
G02X56417520Y41157800I0J5080D01*
G01X56417520Y41239800D01*
G02X56422600Y41244880I5080J0D01*
G01X56422600Y41244880D01*
G01X56556600Y41244880D01*
G01X56556600Y41244880D01*
G02X56561680Y41239800I0J-5080D01*
G01X56561680Y41157800D01*
G02X56556600Y41152720I-5080J0D01*
G37*
G36*
G01X56422600Y41392200D02*
G01X56556600Y41392200D01*
G02X56561680Y41387120I0J-5080D01*
G01X56561680Y41305120D01*
G02X56556600Y41300040I-5080J0D01*
G01X56556600Y41300040D01*
G01X56422600Y41300040D01*
G01X56422600Y41300040D01*
G02X56417520Y41305120I0J5080D01*
G01X56417520Y41387120D01*
G02X56422600Y41392200I5080J0D01*
G37*
G01X56845551Y42234216D03*
G36*
G01X56058760Y41152720D02*
G01X55924760Y41152720D01*
G02X55919680Y41157800I0J5080D01*
G01X55919680Y41239800D01*
G02X55924760Y41244880I5080J0D01*
G01X55924760Y41244880D01*
G01X56058760Y41244880D01*
G01X56058760Y41244880D01*
G02X56063840Y41239800I0J-5080D01*
G01X56063840Y41157800D01*
G02X56058760Y41152720I-5080J0D01*
G37*
G36*
G01X56058760Y41300040D02*
G01X55924760Y41300040D01*
G01X55924760Y41300040D01*
G02X55919680Y41305120I0J5080D01*
G01X55919680Y41387120D01*
G02X55924760Y41392200I5080J0D01*
G01X56058760Y41392200D01*
G02X56063840Y41387120I0J-5080D01*
G01X56063840Y41305120D01*
G02X56058760Y41300040I-5080J0D01*
G01X56058760Y41300040D01*
G37*
G01X55478060Y41980216D03*
G36*
G01X59416640Y41152720D02*
G01X59282640Y41152720D01*
G02X59277560Y41157800I0J5080D01*
G01X59277560Y41239800D01*
G02X59282640Y41244880I5080J0D01*
G01X59282640Y41244880D01*
G01X59416640Y41244880D01*
G01X59416640Y41244880D01*
G02X59421720Y41239800I0J-5080D01*
G01X59421720Y41157800D01*
G02X59416640Y41152720I-5080J0D01*
G37*
G36*
G01X59282640Y41392200D02*
G01X59416640Y41392200D01*
G02X59421720Y41387120I0J-5080D01*
G01X59421720Y41305120D01*
G02X59416640Y41300040I-5080J0D01*
G01X59416640Y41300040D01*
G01X59282640Y41300040D01*
G01X59282640Y41300040D01*
G02X59277560Y41305120I0J5080D01*
G01X59277560Y41387120D01*
G02X59282640Y41392200I5080J0D01*
G37*
G01X59705591Y42234216D03*
G36*
G01X58918800Y41152720D02*
G01X58784800Y41152720D01*
G02X58779720Y41157800I0J5080D01*
G01X58779720Y41239800D01*
G02X58784800Y41244880I5080J0D01*
G01X58784800Y41244880D01*
G01X58918800Y41244880D01*
G01X58918800Y41244880D01*
G02X58923880Y41239800I0J-5080D01*
G01X58923880Y41157800D01*
G02X58918800Y41152720I-5080J0D01*
G37*
G36*
G01X58918800Y41300040D02*
G01X58784800Y41300040D01*
G01X58784800Y41300040D01*
G02X58779720Y41305120I0J5080D01*
G01X58779720Y41387120D01*
G02X58784800Y41392200I5080J0D01*
G01X58918800Y41392200D01*
G02X58923880Y41387120I0J-5080D01*
G01X58923880Y41305120D01*
G02X58918800Y41300040I-5080J0D01*
G01X58918800Y41300040D01*
G37*
G01X58338100Y41980216D03*
G36*
G01X32507880Y39247720D02*
G01X32373880Y39247720D01*
G02X32368800Y39252800I0J5080D01*
G01X32368800Y39334800D01*
G02X32373880Y39339880I5080J0D01*
G01X32507880Y39339880D01*
G02X32512960Y39334800I0J-5080D01*
G01X32512960Y39252800D01*
G02X32507880Y39247720I-5080J0D01*
G37*
G36*
G01X32373880Y39487200D02*
G01X32507880Y39487200D01*
G02X32512960Y39482120I0J-5080D01*
G01X32512960Y39400120D01*
G02X32507880Y39395040I-5080J0D01*
G01X32373880Y39395040D01*
G02X32368800Y39400120I0J5080D01*
G01X32368800Y39482120D01*
G02X32373880Y39487200I5080J0D01*
G37*
G01X32796831Y40329216D03*
G36*
G01X32010040Y39247720D02*
G01X31876040Y39247720D01*
G02X31870960Y39252800I0J5080D01*
G01X31870960Y39334800D01*
G02X31876040Y39339880I5080J0D01*
G01X32010040Y39339880D01*
G02X32015120Y39334800I0J-5080D01*
G01X32015120Y39252800D01*
G02X32010040Y39247720I-5080J0D01*
G37*
G36*
G01X32010040Y39395040D02*
G01X31876040Y39395040D01*
G02X31870960Y39400120I0J5080D01*
G01X31870960Y39482120D01*
G02X31876040Y39487200I5080J0D01*
G01X32010040Y39487200D01*
G02X32015120Y39482120I0J-5080D01*
G01X32015120Y39400120D01*
G02X32010040Y39395040I-5080J0D01*
G37*
G01X31429340Y40075216D03*
G36*
G01X34885320Y39247720D02*
G01X34751320Y39247720D01*
G02X34746240Y39252800I0J5080D01*
G01X34746240Y39334800D01*
G02X34751320Y39339880I5080J0D01*
G01X34885320Y39339880D01*
G02X34890400Y39334800I0J-5080D01*
G01X34890400Y39252800D01*
G02X34885320Y39247720I-5080J0D01*
G37*
G36*
G01X34751320Y39487200D02*
G01X34885320Y39487200D01*
G02X34890400Y39482120I0J-5080D01*
G01X34890400Y39400120D01*
G02X34885320Y39395040I-5080J0D01*
G01X34751320Y39395040D01*
G02X34746240Y39400120I0J5080D01*
G01X34746240Y39482120D01*
G02X34751320Y39487200I5080J0D01*
G37*
G01X35174271Y40329216D03*
G36*
G01X34387480Y39247720D02*
G01X34253480Y39247720D01*
G02X34248400Y39252800I0J5080D01*
G01X34248400Y39334800D01*
G02X34253480Y39339880I5080J0D01*
G01X34387480Y39339880D01*
G02X34392560Y39334800I0J-5080D01*
G01X34392560Y39252800D01*
G02X34387480Y39247720I-5080J0D01*
G37*
G36*
G01X34387480Y39395040D02*
G01X34253480Y39395040D01*
G02X34248400Y39400120I0J5080D01*
G01X34248400Y39482120D01*
G02X34253480Y39487200I5080J0D01*
G01X34387480Y39487200D01*
G02X34392560Y39482120I0J-5080D01*
G01X34392560Y39400120D01*
G02X34387480Y39395040I-5080J0D01*
G37*
G01X33806780Y40075216D03*
G36*
G01X37267840Y39247720D02*
G01X37133840Y39247720D01*
G02X37128760Y39252800I0J5080D01*
G01X37128760Y39334800D01*
G02X37133840Y39339880I5080J0D01*
G01X37267840Y39339880D01*
G02X37272920Y39334800I0J-5080D01*
G01X37272920Y39252800D01*
G02X37267840Y39247720I-5080J0D01*
G37*
G36*
G01X37133840Y39487200D02*
G01X37267840Y39487200D01*
G02X37272920Y39482120I0J-5080D01*
G01X37272920Y39400120D01*
G02X37267840Y39395040I-5080J0D01*
G01X37133840Y39395040D01*
G02X37128760Y39400120I0J5080D01*
G01X37128760Y39482120D01*
G02X37133840Y39487200I5080J0D01*
G37*
G01X37556791Y40329216D03*
G36*
G01X36770000Y39247720D02*
G01X36636000Y39247720D01*
G02X36630920Y39252800I0J5080D01*
G01X36630920Y39334800D01*
G02X36636000Y39339880I5080J0D01*
G01X36770000Y39339880D01*
G02X36775080Y39334800I0J-5080D01*
G01X36775080Y39252800D01*
G02X36770000Y39247720I-5080J0D01*
G37*
G36*
G01X36770000Y39395040D02*
G01X36636000Y39395040D01*
G02X36630920Y39400120I0J5080D01*
G01X36630920Y39482120D01*
G02X36636000Y39487200I5080J0D01*
G01X36770000Y39487200D01*
G02X36775080Y39482120I0J-5080D01*
G01X36775080Y39400120D01*
G02X36770000Y39395040I-5080J0D01*
G37*
G01X36189300Y40075216D03*
G36*
G01X44448420Y39252800D02*
G01X44314420Y39252800D01*
G02X44309340Y39257880I0J5080D01*
G01X44309340Y39339880D01*
G02X44314420Y39344960I5080J0D01*
G01X44448420Y39344960D01*
G02X44453500Y39339880I0J-5080D01*
G01X44453500Y39257880D01*
G02X44448420Y39252800I-5080J0D01*
G37*
G36*
G01X44314420Y39492280D02*
G01X44448420Y39492280D01*
G02X44453500Y39487200I0J-5080D01*
G01X44453500Y39405200D01*
G02X44448420Y39400120I-5080J0D01*
G01X44314420Y39400120D01*
G02X44309340Y39405200I0J5080D01*
G01X44309340Y39487200D01*
G02X44314420Y39492280I5080J0D01*
G37*
G01X44737371Y40334296D03*
G36*
G01X43950580Y39252800D02*
G01X43816580Y39252800D01*
G02X43811500Y39257880I0J5080D01*
G01X43811500Y39339880D01*
G02X43816580Y39344960I5080J0D01*
G01X43950580Y39344960D01*
G02X43955660Y39339880I0J-5080D01*
G01X43955660Y39257880D01*
G02X43950580Y39252800I-5080J0D01*
G37*
G36*
G01X43950580Y39400120D02*
G01X43816580Y39400120D01*
G02X43811500Y39405200I0J5080D01*
G01X43811500Y39487200D01*
G02X43816580Y39492280I5080J0D01*
G01X43950580Y39492280D01*
G02X43955660Y39487200I0J-5080D01*
G01X43955660Y39405200D01*
G02X43950580Y39400120I-5080J0D01*
G37*
G01X43369880Y40080296D03*
G36*
G01X51319120Y39247720D02*
G01X51185120Y39247720D01*
G02X51180040Y39252800I0J5080D01*
G01X51180040Y39334800D01*
G02X51185120Y39339880I5080J0D01*
G01X51319120Y39339880D01*
G02X51324200Y39334800I0J-5080D01*
G01X51324200Y39252800D01*
G02X51319120Y39247720I-5080J0D01*
G37*
G36*
G01X51185120Y39487200D02*
G01X51319120Y39487200D01*
G02X51324200Y39482120I0J-5080D01*
G01X51324200Y39400120D01*
G02X51319120Y39395040I-5080J0D01*
G01X51185120Y39395040D01*
G02X51180040Y39400120I0J5080D01*
G01X51180040Y39482120D01*
G02X51185120Y39487200I5080J0D01*
G37*
G01X51608071Y40329216D03*
G36*
G01X50821280Y39247720D02*
G01X50687280Y39247720D01*
G02X50682200Y39252800I0J5080D01*
G01X50682200Y39334800D01*
G02X50687280Y39339880I5080J0D01*
G01X50821280Y39339880D01*
G02X50826360Y39334800I0J-5080D01*
G01X50826360Y39252800D01*
G02X50821280Y39247720I-5080J0D01*
G37*
G36*
G01X50821280Y39395040D02*
G01X50687280Y39395040D01*
G02X50682200Y39400120I0J5080D01*
G01X50682200Y39482120D01*
G02X50687280Y39487200I5080J0D01*
G01X50821280Y39487200D01*
G02X50826360Y39482120I0J-5080D01*
G01X50826360Y39400120D01*
G02X50821280Y39395040I-5080J0D01*
G37*
G01X50240580Y40075216D03*
G36*
G01X55606640Y39247720D02*
G01X55472640Y39247720D01*
G02X55467560Y39252800I0J5080D01*
G01X55467560Y39334800D01*
G02X55472640Y39339880I5080J0D01*
G01X55472640Y39339880D01*
G01X55606640Y39339880D01*
G01X55606640Y39339880D01*
G02X55611720Y39334800I0J-5080D01*
G01X55611720Y39252800D01*
G02X55606640Y39247720I-5080J0D01*
G37*
G36*
G01X55472640Y39487200D02*
G01X55606640Y39487200D01*
G02X55611720Y39482120I0J-5080D01*
G01X55611720Y39400120D01*
G02X55606640Y39395040I-5080J0D01*
G01X55606640Y39395040D01*
G01X55472640Y39395040D01*
G01X55472640Y39395040D01*
G02X55467560Y39400120I0J5080D01*
G01X55467560Y39482120D01*
G02X55472640Y39487200I5080J0D01*
G37*
G01X55895591Y40329216D03*
G36*
G01X55108800Y39247720D02*
G01X54974800Y39247720D01*
G02X54969720Y39252800I0J5080D01*
G01X54969720Y39334800D01*
G02X54974800Y39339880I5080J0D01*
G01X54974800Y39339880D01*
G01X55108800Y39339880D01*
G01X55108800Y39339880D01*
G02X55113880Y39334800I0J-5080D01*
G01X55113880Y39252800D01*
G02X55108800Y39247720I-5080J0D01*
G37*
G36*
G01X55108800Y39395040D02*
G01X54974800Y39395040D01*
G01X54974800Y39395040D01*
G02X54969720Y39400120I0J5080D01*
G01X54969720Y39482120D01*
G02X54974800Y39487200I5080J0D01*
G01X55108800Y39487200D01*
G02X55113880Y39482120I0J-5080D01*
G01X55113880Y39400120D01*
G02X55108800Y39395040I-5080J0D01*
G01X55108800Y39395040D01*
G37*
G01X54528100Y40075216D03*
G36*
G01X57511640Y39247720D02*
G01X57377640Y39247720D01*
G02X57372560Y39252800I0J5080D01*
G01X57372560Y39334800D01*
G02X57377640Y39339880I5080J0D01*
G01X57377640Y39339880D01*
G01X57511640Y39339880D01*
G01X57511640Y39339880D01*
G02X57516720Y39334800I0J-5080D01*
G01X57516720Y39252800D01*
G02X57511640Y39247720I-5080J0D01*
G37*
G36*
G01X57377640Y39487200D02*
G01X57511640Y39487200D01*
G02X57516720Y39482120I0J-5080D01*
G01X57516720Y39400120D01*
G02X57511640Y39395040I-5080J0D01*
G01X57511640Y39395040D01*
G01X57377640Y39395040D01*
G01X57377640Y39395040D01*
G02X57372560Y39400120I0J5080D01*
G01X57372560Y39482120D01*
G02X57377640Y39487200I5080J0D01*
G37*
G01X57800591Y40329216D03*
G36*
G01X57013800Y39247720D02*
G01X56879800Y39247720D01*
G02X56874720Y39252800I0J5080D01*
G01X56874720Y39334800D01*
G02X56879800Y39339880I5080J0D01*
G01X56879800Y39339880D01*
G01X57013800Y39339880D01*
G01X57013800Y39339880D01*
G02X57018880Y39334800I0J-5080D01*
G01X57018880Y39252800D01*
G02X57013800Y39247720I-5080J0D01*
G37*
G36*
G01X57013800Y39395040D02*
G01X56879800Y39395040D01*
G01X56879800Y39395040D01*
G02X56874720Y39400120I0J5080D01*
G01X56874720Y39482120D01*
G02X56879800Y39487200I5080J0D01*
G01X57013800Y39487200D01*
G02X57018880Y39482120I0J-5080D01*
G01X57018880Y39400120D01*
G02X57013800Y39395040I-5080J0D01*
G01X57013800Y39395040D01*
G37*
G01X56433100Y40075216D03*
G36*
G01X59416640Y39247720D02*
G01X59282640Y39247720D01*
G02X59277560Y39252800I0J5080D01*
G01X59277560Y39334800D01*
G02X59282640Y39339880I5080J0D01*
G01X59282640Y39339880D01*
G01X59416640Y39339880D01*
G01X59416640Y39339880D01*
G02X59421720Y39334800I0J-5080D01*
G01X59421720Y39252800D01*
G02X59416640Y39247720I-5080J0D01*
G37*
G36*
G01X59282640Y39487200D02*
G01X59416640Y39487200D01*
G02X59421720Y39482120I0J-5080D01*
G01X59421720Y39400120D01*
G02X59416640Y39395040I-5080J0D01*
G01X59416640Y39395040D01*
G01X59282640Y39395040D01*
G01X59282640Y39395040D01*
G02X59277560Y39400120I0J5080D01*
G01X59277560Y39482120D01*
G02X59282640Y39487200I5080J0D01*
G37*
G01X59705591Y40329216D03*
G36*
G01X58918800Y39247720D02*
G01X58784800Y39247720D01*
G02X58779720Y39252800I0J5080D01*
G01X58779720Y39334800D01*
G02X58784800Y39339880I5080J0D01*
G01X58784800Y39339880D01*
G01X58918800Y39339880D01*
G01X58918800Y39339880D01*
G02X58923880Y39334800I0J-5080D01*
G01X58923880Y39252800D01*
G02X58918800Y39247720I-5080J0D01*
G37*
G36*
G01X58918800Y39395040D02*
G01X58784800Y39395040D01*
G01X58784800Y39395040D01*
G02X58779720Y39400120I0J5080D01*
G01X58779720Y39482120D01*
G02X58784800Y39487200I5080J0D01*
G01X58918800Y39487200D01*
G02X58923880Y39482120I0J-5080D01*
G01X58923880Y39400120D01*
G02X58918800Y39395040I-5080J0D01*
G01X58918800Y39395040D01*
G37*
G01X58338100Y40075216D03*
G36*
G01X61321640Y39247720D02*
G01X61187640Y39247720D01*
G02X61182560Y39252800I0J5080D01*
G01X61182560Y39334800D01*
G02X61187640Y39339880I5080J0D01*
G01X61187640Y39339880D01*
G01X61321640Y39339880D01*
G01X61321640Y39339880D01*
G02X61326720Y39334800I0J-5080D01*
G01X61326720Y39252800D01*
G02X61321640Y39247720I-5080J0D01*
G37*
G36*
G01X61187640Y39487200D02*
G01X61321640Y39487200D01*
G02X61326720Y39482120I0J-5080D01*
G01X61326720Y39400120D01*
G02X61321640Y39395040I-5080J0D01*
G01X61321640Y39395040D01*
G01X61187640Y39395040D01*
G01X61187640Y39395040D01*
G02X61182560Y39400120I0J5080D01*
G01X61182560Y39482120D01*
G02X61187640Y39487200I5080J0D01*
G37*
G01X61610591Y40329216D03*
G36*
G01X60823800Y39247720D02*
G01X60689800Y39247720D01*
G02X60684720Y39252800I0J5080D01*
G01X60684720Y39334800D01*
G02X60689800Y39339880I5080J0D01*
G01X60689800Y39339880D01*
G01X60823800Y39339880D01*
G01X60823800Y39339880D01*
G02X60828880Y39334800I0J-5080D01*
G01X60828880Y39252800D01*
G02X60823800Y39247720I-5080J0D01*
G37*
G36*
G01X60823800Y39395040D02*
G01X60689800Y39395040D01*
G01X60689800Y39395040D01*
G02X60684720Y39400120I0J5080D01*
G01X60684720Y39482120D01*
G02X60689800Y39487200I5080J0D01*
G01X60823800Y39487200D01*
G02X60828880Y39482120I0J-5080D01*
G01X60828880Y39400120D01*
G02X60823800Y39395040I-5080J0D01*
G01X60823800Y39395040D01*
G37*
G01X60243100Y40075216D03*
G36*
G01X61321640Y41152720D02*
G01X61187640Y41152720D01*
G02X61182560Y41157800I0J5080D01*
G01X61182560Y41239800D01*
G02X61187640Y41244880I5080J0D01*
G01X61187640Y41244880D01*
G01X61321640Y41244880D01*
G01X61321640Y41244880D01*
G02X61326720Y41239800I0J-5080D01*
G01X61326720Y41157800D01*
G02X61321640Y41152720I-5080J0D01*
G37*
G36*
G01X61187640Y41392200D02*
G01X61321640Y41392200D01*
G02X61326720Y41387120I0J-5080D01*
G01X61326720Y41305120D01*
G02X61321640Y41300040I-5080J0D01*
G01X61321640Y41300040D01*
G01X61187640Y41300040D01*
G01X61187640Y41300040D01*
G02X61182560Y41305120I0J5080D01*
G01X61182560Y41387120D01*
G02X61187640Y41392200I5080J0D01*
G37*
G01X61610591Y42234216D03*
G36*
G01X60823800Y41152720D02*
G01X60689800Y41152720D01*
G02X60684720Y41157800I0J5080D01*
G01X60684720Y41239800D01*
G02X60689800Y41244880I5080J0D01*
G01X60689800Y41244880D01*
G01X60823800Y41244880D01*
G01X60823800Y41244880D01*
G02X60828880Y41239800I0J-5080D01*
G01X60828880Y41157800D01*
G02X60823800Y41152720I-5080J0D01*
G37*
G36*
G01X60823800Y41300040D02*
G01X60689800Y41300040D01*
G01X60689800Y41300040D01*
G02X60684720Y41305120I0J5080D01*
G01X60684720Y41387120D01*
G02X60689800Y41392200I5080J0D01*
G01X60823800Y41392200D01*
G02X60828880Y41387120I0J-5080D01*
G01X60828880Y41305120D01*
G02X60823800Y41300040I-5080J0D01*
G01X60823800Y41300040D01*
G37*
G01X60243100Y41980216D03*
G36*
G01X53462880Y39247720D02*
G01X53328880Y39247720D01*
G02X53323800Y39252800I0J5080D01*
G01X53323800Y39334800D01*
G02X53328880Y39339880I5080J0D01*
G01X53328880Y39339880D01*
G01X53462880Y39339880D01*
G01X53462880Y39339880D01*
G02X53467960Y39334800I0J-5080D01*
G01X53467960Y39252800D01*
G02X53462880Y39247720I-5080J0D01*
G37*
G36*
G01X53328880Y39487200D02*
G01X53462880Y39487200D01*
G02X53467960Y39482120I0J-5080D01*
G01X53467960Y39400120D01*
G02X53462880Y39395040I-5080J0D01*
G01X53462880Y39395040D01*
G01X53328880Y39395040D01*
G01X53328880Y39395040D01*
G02X53323800Y39400120I0J5080D01*
G01X53323800Y39482120D01*
G02X53328880Y39487200I5080J0D01*
G37*
G01X53751831Y40329216D03*
G36*
G01X52965040Y39247720D02*
G01X52831040Y39247720D01*
G02X52825960Y39252800I0J5080D01*
G01X52825960Y39334800D01*
G02X52831040Y39339880I5080J0D01*
G01X52831040Y39339880D01*
G01X52965040Y39339880D01*
G01X52965040Y39339880D01*
G02X52970120Y39334800I0J-5080D01*
G01X52970120Y39252800D01*
G02X52965040Y39247720I-5080J0D01*
G37*
G36*
G01X52965040Y39395040D02*
G01X52831040Y39395040D01*
G01X52831040Y39395040D01*
G02X52825960Y39400120I0J5080D01*
G01X52825960Y39482120D01*
G02X52831040Y39487200I5080J0D01*
G01X52965040Y39487200D01*
G02X52970120Y39482120I0J-5080D01*
G01X52970120Y39400120D01*
G02X52965040Y39395040I-5080J0D01*
G01X52965040Y39395040D01*
G37*
G01X52384340Y40075216D03*
G54D27*
G01X51741568Y49664443D03*
G01X51881573Y49664443D03*
G54D35*
G01X51345084Y49700790D03*
G01X51440080Y49700790D03*
G01X51535076Y49700790D03*
G01X51535076Y49470970D03*
G01X51440080Y49470970D03*
G01X51345084Y49470970D03*
G04 Pad End*

M02*

