G04 Layer: BoardOutlineLayer*
G04 EasyEDA Pro v2.2.43.4, 2026-09-22 16:51:30*
G04 Gerber Generator version 0.3*
G04 Scale: 100 percent, Rotated: No, Reflected: No*
G04 Dimensions in millimeters*
G04 Leading zeros omitted, absolute positions, 4 integers and 5 decimals*
G04 Generated by one-click*
%FSLAX45Y45*%
%MOMM*%
%ADD10C,0.254*%
%ADD11C,0.0254*%
%ADD12C,0.3307*%
G75*


G04 Rect Start*
G54D10*
G01X30997508Y38969710D02*
G01X30997508Y50676040D01*
G02X31097509Y50776040I100000J0D01*
G01X31097509Y50776040D01*
G01X61853800Y50776040D01*
G01X61853800Y50776040D01*
G02X61953800Y50676040I0J-100000D01*
G01X61953800Y50676040D01*
G01X61953800Y38969710D01*
G01X61953800Y38969710D01*
G02X61853800Y38869710I-100000J0D01*
G01X61853800Y38869710D01*
G01X31097509Y38869710D01*
G02X30997508Y38969710I0J100000D01*
G54D11*
G01X31793200Y49229580D02*
G01X31793200Y49509580D01*
G01X32113200Y49509580D01*
G01X32113200Y49229580D01*
G01X31793200Y49229580D01*
G01X35603200Y49229580D02*
G01X35603200Y49509580D01*
G01X35923200Y49509580D01*
G01X35923200Y49229580D01*
G01X35603200Y49229580D01*
G01X37508200Y49229580D02*
G01X37508200Y49509580D01*
G01X37828200Y49509580D01*
G01X37828200Y49229580D01*
G01X37508200Y49229580D01*
G01X39413200Y49229580D02*
G01X39413200Y49509580D01*
G01X39733200Y49509580D01*
G01X39733200Y49229580D01*
G01X39413200Y49229580D01*
G01X41318200Y49229580D02*
G01X41318200Y49509580D01*
G01X41638200Y49509580D01*
G01X41638200Y49229580D01*
G01X41318200Y49229580D01*
G01X44173160Y49229580D02*
G01X44173160Y49509580D01*
G01X44493160Y49509580D01*
G01X44493160Y49229580D01*
G01X44173160Y49229580D01*
G01X46078160Y49229580D02*
G01X46078160Y49509580D01*
G01X46398160Y49509580D01*
G01X46398160Y49229580D01*
G01X46078160Y49229580D01*
G01X47983160Y49229580D02*
G01X47983160Y49509580D01*
G01X48303160Y49509580D01*
G01X48303160Y49229580D01*
G01X47983160Y49229580D01*
G01X49888160Y49229580D02*
G01X49888160Y49509580D01*
G01X50208160Y49509580D01*
G01X50208160Y49229580D01*
G01X49888160Y49229580D01*
G01X52748200Y49229580D02*
G01X52748200Y49509580D01*
G01X53068200Y49509580D01*
G01X53068200Y49229580D01*
G01X52748200Y49229580D01*
G01X54653200Y49229580D02*
G01X54653200Y49509580D01*
G01X54973200Y49509580D01*
G01X54973200Y49229580D01*
G01X54653200Y49229580D01*
G01X56553120Y49229580D02*
G01X56553120Y49509580D01*
G01X56873120Y49509580D01*
G01X56873120Y49229580D01*
G01X56553120Y49229580D01*
G01X58463200Y49229580D02*
G01X58463200Y49509580D01*
G01X58783200Y49509580D01*
G01X58783200Y49229580D01*
G01X58463200Y49229580D01*
G01X60845720Y49229580D02*
G01X60845720Y49509580D01*
G01X61165720Y49509580D01*
G01X61165720Y49229580D01*
G01X60845720Y49229580D01*
G01X31793200Y46847060D02*
G01X31793200Y47127060D01*
G01X32113200Y47127060D01*
G01X32113200Y46847060D01*
G01X31793200Y46847060D01*
G01X33698200Y46847060D02*
G01X33698200Y47127060D01*
G01X34018200Y47127060D01*
G01X34018200Y46847060D01*
G01X33698200Y46847060D01*
G01X35603200Y46847060D02*
G01X35603200Y47127060D01*
G01X35923200Y47127060D01*
G01X35923200Y46847060D01*
G01X35603200Y46847060D01*
G01X37508200Y46847060D02*
G01X37508200Y47127060D01*
G01X37828200Y47127060D01*
G01X37828200Y46847060D01*
G01X37508200Y46847060D01*
G01X39413200Y46847060D02*
G01X39413200Y47127060D01*
G01X39733200Y47127060D01*
G01X39733200Y46847060D01*
G01X39413200Y46847060D01*
G01X41318200Y46847060D02*
G01X41318200Y47127060D01*
G01X41638200Y47127060D01*
G01X41638200Y46847060D01*
G01X41318200Y46847060D01*
G01X43223200Y46847060D02*
G01X43223200Y47127060D01*
G01X43543200Y47127060D01*
G01X43543200Y46847060D01*
G01X43223200Y46847060D01*
G01X45128200Y46847060D02*
G01X45128200Y47127060D01*
G01X45448200Y47127060D01*
G01X45448200Y46847060D01*
G01X45128200Y46847060D01*
G01X47033200Y46847060D02*
G01X47033200Y47127060D01*
G01X47353200Y47127060D01*
G01X47353200Y46847060D01*
G01X47033200Y46847060D01*
G01X48938200Y46847060D02*
G01X48938200Y47127060D01*
G01X49258200Y47127060D01*
G01X49258200Y46847060D01*
G01X48938200Y46847060D01*
G01X50843200Y46847060D02*
G01X50843200Y47127060D01*
G01X51163200Y47127060D01*
G01X51163200Y46847060D01*
G01X50843200Y46847060D01*
G01X52748200Y46847060D02*
G01X52748200Y47127060D01*
G01X53068200Y47127060D01*
G01X53068200Y46847060D01*
G01X52748200Y46847060D01*
G01X54653200Y46847060D02*
G01X54653200Y47127060D01*
G01X54973200Y47127060D01*
G01X54973200Y46847060D01*
G01X54653200Y46847060D01*
G01X57508160Y46847060D02*
G01X57508160Y47127060D01*
G01X57828160Y47127060D01*
G01X57828160Y46847060D01*
G01X57508160Y46847060D01*
G01X60845720Y46847060D02*
G01X60845720Y47127060D01*
G01X61165720Y47127060D01*
G01X61165720Y46847060D01*
G01X60845720Y46847060D01*
G01X32270720Y44942060D02*
G01X32270720Y45222060D01*
G01X32590720Y45222060D01*
G01X32590720Y44942060D01*
G01X32270720Y44942060D01*
G01X34648160Y44942060D02*
G01X34648160Y45222060D01*
G01X34968160Y45222060D01*
G01X34968160Y44942060D01*
G01X34648160Y44942060D01*
G01X36553160Y44942060D02*
G01X36553160Y45222060D01*
G01X36873160Y45222060D01*
G01X36873160Y44942060D01*
G01X36553160Y44942060D01*
G01X38458160Y44942060D02*
G01X38458160Y45222060D01*
G01X38778160Y45222060D01*
G01X38778160Y44942060D01*
G01X38458160Y44942060D01*
G01X40363160Y44942060D02*
G01X40363160Y45222060D01*
G01X40683160Y45222060D01*
G01X40683160Y44942060D01*
G01X40363160Y44942060D01*
G01X42268160Y44942060D02*
G01X42268160Y45222060D01*
G01X42588160Y45222060D01*
G01X42588160Y44942060D01*
G01X42268160Y44942060D01*
G01X44173160Y44942060D02*
G01X44173160Y45222060D01*
G01X44493160Y45222060D01*
G01X44493160Y44942060D01*
G01X44173160Y44942060D01*
G01X46078160Y44942060D02*
G01X46078160Y45222060D01*
G01X46398160Y45222060D01*
G01X46398160Y44942060D01*
G01X46078160Y44942060D01*
G01X47983160Y44942060D02*
G01X47983160Y45222060D01*
G01X48303160Y45222060D01*
G01X48303160Y44942060D01*
G01X47983160Y44942060D01*
G01X49888160Y44942060D02*
G01X49888160Y45222060D01*
G01X50208160Y45222060D01*
G01X50208160Y44942060D01*
G01X49888160Y44942060D01*
G01X51793160Y44942060D02*
G01X51793160Y45222060D01*
G01X52113160Y45222060D01*
G01X52113160Y44942060D01*
G01X51793160Y44942060D01*
G01X53698160Y44942060D02*
G01X53698160Y45222060D01*
G01X54018160Y45222060D01*
G01X54018160Y44942060D01*
G01X53698160Y44942060D01*
G01X55603160Y44942060D02*
G01X55603160Y45222060D01*
G01X55923160Y45222060D01*
G01X55923160Y44942060D01*
G01X55603160Y44942060D01*
G01X57985680Y44942060D02*
G01X57985680Y45222060D01*
G01X58305680Y45222060D01*
G01X58305680Y44942060D01*
G01X57985680Y44942060D01*
G01X60840640Y44942060D02*
G01X60840640Y45222060D01*
G01X61160640Y45222060D01*
G01X61160640Y44942060D01*
G01X60840640Y44942060D01*
G01X32509480Y43037060D02*
G01X32509480Y43317060D01*
G01X32829480Y43317060D01*
G01X32829480Y43037060D01*
G01X32509480Y43037060D01*
G01X35125680Y43037060D02*
G01X35125680Y43317060D01*
G01X35445680Y43317060D01*
G01X35445680Y43037060D01*
G01X35125680Y43037060D01*
G01X37030680Y43037060D02*
G01X37030680Y43317060D01*
G01X37350680Y43317060D01*
G01X37350680Y43037060D01*
G01X37030680Y43037060D01*
G01X38935680Y43037060D02*
G01X38935680Y43317060D01*
G01X39255680Y43317060D01*
G01X39255680Y43037060D01*
G01X38935680Y43037060D01*
G01X40840680Y43037060D02*
G01X40840680Y43317060D01*
G01X41160680Y43317060D01*
G01X41160680Y43037060D01*
G01X40840680Y43037060D01*
G01X42745680Y43037060D02*
G01X42745680Y43317060D01*
G01X43065680Y43317060D01*
G01X43065680Y43037060D01*
G01X42745680Y43037060D01*
G01X44650680Y43037060D02*
G01X44650680Y43317060D01*
G01X44970680Y43317060D01*
G01X44970680Y43037060D01*
G01X44650680Y43037060D01*
G01X46555680Y43037060D02*
G01X46555680Y43317060D01*
G01X46875680Y43317060D01*
G01X46875680Y43037060D01*
G01X46555680Y43037060D01*
G01X48460680Y43037060D02*
G01X48460680Y43317060D01*
G01X48780680Y43317060D01*
G01X48780680Y43037060D01*
G01X48460680Y43037060D01*
G01X50365680Y43037060D02*
G01X50365680Y43317060D01*
G01X50685680Y43317060D01*
G01X50685680Y43037060D01*
G01X50365680Y43037060D01*
G01X52270680Y43037060D02*
G01X52270680Y43317060D01*
G01X52590680Y43317060D01*
G01X52590680Y43037060D01*
G01X52270680Y43037060D01*
G01X54175680Y43037060D02*
G01X54175680Y43317060D01*
G01X54495680Y43317060D01*
G01X54495680Y43037060D01*
G01X54175680Y43037060D01*
G01X57269400Y43037060D02*
G01X57269400Y43317060D01*
G01X57589400Y43317060D01*
G01X57589400Y43037060D01*
G01X57269400Y43037060D01*
G01X60845720Y43037060D02*
G01X60845720Y43317060D01*
G01X61165720Y43317060D01*
G01X61165720Y43037060D01*
G01X60845720Y43037060D01*
G01X32985149Y41132172D02*
G01X32985149Y41412172D01*
G01X33305149Y41412172D01*
G01X33305149Y41132172D01*
G01X32985149Y41132172D01*
G01X36080720Y41132060D02*
G01X36080720Y41412060D01*
G01X36400720Y41412060D01*
G01X36400720Y41132060D01*
G01X36080720Y41132060D01*
G01X37985720Y41132060D02*
G01X37985720Y41412060D01*
G01X38305720Y41412060D01*
G01X38305720Y41132060D01*
G01X37985720Y41132060D01*
G01X39890720Y41132060D02*
G01X39890720Y41412060D01*
G01X40210720Y41412060D01*
G01X40210720Y41132060D01*
G01X39890720Y41132060D01*
G01X41795720Y41132060D02*
G01X41795720Y41412060D01*
G01X42115720Y41412060D01*
G01X42115720Y41132060D01*
G01X41795720Y41132060D01*
G01X43700720Y41132060D02*
G01X43700720Y41412060D01*
G01X44020720Y41412060D01*
G01X44020720Y41132060D01*
G01X43700720Y41132060D01*
G01X45605720Y41132060D02*
G01X45605720Y41412060D01*
G01X45925720Y41412060D01*
G01X45925720Y41132060D01*
G01X45605720Y41132060D01*
G01X47510720Y41132060D02*
G01X47510720Y41412060D01*
G01X47830720Y41412060D01*
G01X47830720Y41132060D01*
G01X47510720Y41132060D01*
G01X49415720Y41132060D02*
G01X49415720Y41412060D01*
G01X49735720Y41412060D01*
G01X49735720Y41132060D01*
G01X49415720Y41132060D01*
G01X51320720Y41132060D02*
G01X51320720Y41412060D01*
G01X51640720Y41412060D01*
G01X51640720Y41132060D01*
G01X51320720Y41132060D01*
G01X53225720Y41132060D02*
G01X53225720Y41412060D01*
G01X53545720Y41412060D01*
G01X53545720Y41132060D01*
G01X53225720Y41132060D01*
G01X56080680Y41132060D02*
G01X56080680Y41412060D01*
G01X56400680Y41412060D01*
G01X56400680Y41132060D01*
G01X56080680Y41132060D01*
G01X58940720Y41132060D02*
G01X58940720Y41412060D01*
G01X59260720Y41412060D01*
G01X59260720Y41132060D01*
G01X58940720Y41132060D01*
G01X32031960Y39227060D02*
G01X32031960Y39507060D01*
G01X32351960Y39507060D01*
G01X32351960Y39227060D01*
G01X32031960Y39227060D01*
G01X34409400Y39227060D02*
G01X34409400Y39507060D01*
G01X34729400Y39507060D01*
G01X34729400Y39227060D01*
G01X34409400Y39227060D01*
G01X36791920Y39227060D02*
G01X36791920Y39507060D01*
G01X37111920Y39507060D01*
G01X37111920Y39227060D01*
G01X36791920Y39227060D01*
G01X43972500Y39232140D02*
G01X43972500Y39512140D01*
G01X44292500Y39512140D01*
G01X44292500Y39232140D01*
G01X43972500Y39232140D01*
G01X50843200Y39227060D02*
G01X50843200Y39507060D01*
G01X51163200Y39507060D01*
G01X51163200Y39227060D01*
G01X50843200Y39227060D01*
G01X55130720Y39227060D02*
G01X55130720Y39507060D01*
G01X55450720Y39507060D01*
G01X55450720Y39227060D01*
G01X55130720Y39227060D01*
G01X57035720Y39227060D02*
G01X57035720Y39507060D01*
G01X57355720Y39507060D01*
G01X57355720Y39227060D01*
G01X57035720Y39227060D01*
G01X58940720Y39227060D02*
G01X58940720Y39507060D01*
G01X59260720Y39507060D01*
G01X59260720Y39227060D01*
G01X58940720Y39227060D01*
G01X60845720Y39227060D02*
G01X60845720Y39507060D01*
G01X61165720Y39507060D01*
G01X61165720Y39227060D01*
G01X60845720Y39227060D01*
G01X60845720Y41132060D02*
G01X60845720Y41412060D01*
G01X61165720Y41412060D01*
G01X61165720Y41132060D01*
G01X60845720Y41132060D01*
G01X52986960Y39227060D02*
G01X52986960Y39507060D01*
G01X53306960Y39507060D01*
G01X53306960Y39227060D01*
G01X52986960Y39227060D01*
G04 Rect End*

M02*

