G04 Layer: TopSilkscreenLayer*
G04 EasyEDA Pro v2.2.43.4, 2026-09-22 16:51:30*
G04 Gerber Generator version 0.3*
G04 Scale: 100 percent, Rotated: No, Reflected: No*
G04 Dimensions in millimeters*
G04 Leading zeros omitted, absolute positions, 4 integers and 5 decimals*
G04 Generated by one-click*
%FSLAX45Y45*%
%MOMM*%
%ADD10C,0.1524*%
%ADD11C,0.5350*%
G75*


G04 Text Start*
G54D10*
G01X31869540Y50657854D02*
G01X31869540Y50611372D01*
G01X31872588Y50602228D01*
G01X31878938Y50595878D01*
G01X31888082Y50592830D01*
G01X31894432Y50592830D01*
G01X31903576Y50595878D01*
G01X31909672Y50602228D01*
G01X31912974Y50611372D01*
G01X31912974Y50657854D01*
G01X31943200Y50645408D02*
G01X31949296Y50648710D01*
G01X31958440Y50657854D01*
G01X31958440Y50592830D01*
G01X37584540Y50657854D02*
G01X37584540Y50611372D01*
G01X37587588Y50602228D01*
G01X37593938Y50595878D01*
G01X37603082Y50592830D01*
G01X37609432Y50592830D01*
G01X37618576Y50595878D01*
G01X37624672Y50602228D01*
G01X37627974Y50611372D01*
G01X37627974Y50657854D01*
G01X37664296Y50657854D02*
G01X37698332Y50657854D01*
G01X37679790Y50633216D01*
G01X37688934Y50633216D01*
G01X37695284Y50630168D01*
G01X37698332Y50626866D01*
G01X37701380Y50617722D01*
G01X37701380Y50611372D01*
G01X37698332Y50602228D01*
G01X37692236Y50595878D01*
G01X37682838Y50592830D01*
G01X37673440Y50592830D01*
G01X37664296Y50595878D01*
G01X37661248Y50599180D01*
G01X37658200Y50605276D01*
G01X39489540Y50657854D02*
G01X39489540Y50611372D01*
G01X39492588Y50602228D01*
G01X39498938Y50595878D01*
G01X39508082Y50592830D01*
G01X39514432Y50592830D01*
G01X39523576Y50595878D01*
G01X39529672Y50602228D01*
G01X39532974Y50611372D01*
G01X39532974Y50657854D01*
G01X39593934Y50657854D02*
G01X39563200Y50614674D01*
G01X39609428Y50614674D01*
G01X39593934Y50657854D02*
G01X39593934Y50592830D01*
G01X41394540Y50657854D02*
G01X41394540Y50611372D01*
G01X41397588Y50602228D01*
G01X41403938Y50595878D01*
G01X41413082Y50592830D01*
G01X41419432Y50592830D01*
G01X41428576Y50595878D01*
G01X41434672Y50602228D01*
G01X41437974Y50611372D01*
G01X41437974Y50657854D01*
G01X41505284Y50657854D02*
G01X41474296Y50657854D01*
G01X41471248Y50630168D01*
G01X41474296Y50633216D01*
G01X41483440Y50636264D01*
G01X41492838Y50636264D01*
G01X41502236Y50633216D01*
G01X41508332Y50626866D01*
G01X41511380Y50617722D01*
G01X41511380Y50611372D01*
G01X41508332Y50602228D01*
G01X41502236Y50595878D01*
G01X41492838Y50592830D01*
G01X41483440Y50592830D01*
G01X41474296Y50595878D01*
G01X41471248Y50599180D01*
G01X41468200Y50605276D01*
G01X44249500Y50657854D02*
G01X44249500Y50611372D01*
G01X44252548Y50602228D01*
G01X44258898Y50595878D01*
G01X44268042Y50592830D01*
G01X44274392Y50592830D01*
G01X44283536Y50595878D01*
G01X44289632Y50602228D01*
G01X44292934Y50611372D01*
G01X44292934Y50657854D01*
G01X44360244Y50648710D02*
G01X44357196Y50654806D01*
G01X44347798Y50657854D01*
G01X44341702Y50657854D01*
G01X44332304Y50654806D01*
G01X44326208Y50645408D01*
G01X44323160Y50630168D01*
G01X44323160Y50614674D01*
G01X44326208Y50602228D01*
G01X44332304Y50595878D01*
G01X44341702Y50592830D01*
G01X44344750Y50592830D01*
G01X44353894Y50595878D01*
G01X44360244Y50602228D01*
G01X44363292Y50611372D01*
G01X44363292Y50614674D01*
G01X44360244Y50623818D01*
G01X44353894Y50630168D01*
G01X44344750Y50633216D01*
G01X44341702Y50633216D01*
G01X44332304Y50630168D01*
G01X44326208Y50623818D01*
G01X44323160Y50614674D01*
G01X46154500Y50657854D02*
G01X46154500Y50611372D01*
G01X46157548Y50602228D01*
G01X46163898Y50595878D01*
G01X46173042Y50592830D01*
G01X46179392Y50592830D01*
G01X46188536Y50595878D01*
G01X46194632Y50602228D01*
G01X46197934Y50611372D01*
G01X46197934Y50657854D01*
G01X46271340Y50657854D02*
G01X46240352Y50592830D01*
G01X46228160Y50657854D02*
G01X46271340Y50657854D01*
G01X48059500Y50657854D02*
G01X48059500Y50611372D01*
G01X48062548Y50602228D01*
G01X48068898Y50595878D01*
G01X48078042Y50592830D01*
G01X48084392Y50592830D01*
G01X48093536Y50595878D01*
G01X48099632Y50602228D01*
G01X48102934Y50611372D01*
G01X48102934Y50657854D01*
G01X48148400Y50657854D02*
G01X48139256Y50654806D01*
G01X48136208Y50648710D01*
G01X48136208Y50642360D01*
G01X48139256Y50636264D01*
G01X48145352Y50633216D01*
G01X48157798Y50630168D01*
G01X48167196Y50626866D01*
G01X48173292Y50620770D01*
G01X48176340Y50614674D01*
G01X48176340Y50605276D01*
G01X48173292Y50599180D01*
G01X48170244Y50595878D01*
G01X48160846Y50592830D01*
G01X48148400Y50592830D01*
G01X48139256Y50595878D01*
G01X48136208Y50599180D01*
G01X48133160Y50605276D01*
G01X48133160Y50614674D01*
G01X48136208Y50620770D01*
G01X48142304Y50626866D01*
G01X48151702Y50630168D01*
G01X48163894Y50633216D01*
G01X48170244Y50636264D01*
G01X48173292Y50642360D01*
G01X48173292Y50648710D01*
G01X48170244Y50654806D01*
G01X48160846Y50657854D01*
G01X48148400Y50657854D01*
G01X49964500Y50657854D02*
G01X49964500Y50611372D01*
G01X49967548Y50602228D01*
G01X49973898Y50595878D01*
G01X49983042Y50592830D01*
G01X49989392Y50592830D01*
G01X49998536Y50595878D01*
G01X50004632Y50602228D01*
G01X50007934Y50611372D01*
G01X50007934Y50657854D01*
G01X50078292Y50636264D02*
G01X50075244Y50626866D01*
G01X50068894Y50620770D01*
G01X50059750Y50617722D01*
G01X50056702Y50617722D01*
G01X50047304Y50620770D01*
G01X50041208Y50626866D01*
G01X50038160Y50636264D01*
G01X50038160Y50639312D01*
G01X50041208Y50648710D01*
G01X50047304Y50654806D01*
G01X50056702Y50657854D01*
G01X50059750Y50657854D01*
G01X50068894Y50654806D01*
G01X50075244Y50648710D01*
G01X50078292Y50636264D01*
G01X50078292Y50620770D01*
G01X50075244Y50605276D01*
G01X50068894Y50595878D01*
G01X50059750Y50592830D01*
G01X50053400Y50592830D01*
G01X50044256Y50595878D01*
G01X50041208Y50602228D01*
G01X52829620Y50703574D02*
G01X52829620Y50657092D01*
G01X52832668Y50647948D01*
G01X52839018Y50641598D01*
G01X52848162Y50638550D01*
G01X52854512Y50638550D01*
G01X52863656Y50641598D01*
G01X52869752Y50647948D01*
G01X52873054Y50657092D01*
G01X52873054Y50703574D01*
G01X52903280Y50691128D02*
G01X52909376Y50694430D01*
G01X52918520Y50703574D01*
G01X52918520Y50638550D01*
G01X52967288Y50703574D02*
G01X52957890Y50700526D01*
G01X52951794Y50691128D01*
G01X52948746Y50675888D01*
G01X52948746Y50666490D01*
G01X52951794Y50650996D01*
G01X52957890Y50641598D01*
G01X52967288Y50638550D01*
G01X52973384Y50638550D01*
G01X52982782Y50641598D01*
G01X52988878Y50650996D01*
G01X52991926Y50666490D01*
G01X52991926Y50675888D01*
G01X52988878Y50691128D01*
G01X52982782Y50700526D01*
G01X52973384Y50703574D01*
G01X52967288Y50703574D01*
G01X54729540Y50657854D02*
G01X54729540Y50611372D01*
G01X54732588Y50602228D01*
G01X54738938Y50595878D01*
G01X54748082Y50592830D01*
G01X54754432Y50592830D01*
G01X54763576Y50595878D01*
G01X54769672Y50602228D01*
G01X54772974Y50611372D01*
G01X54772974Y50657854D01*
G01X54803200Y50645408D02*
G01X54809296Y50648710D01*
G01X54818440Y50657854D01*
G01X54818440Y50592830D01*
G01X54848666Y50645408D02*
G01X54854762Y50648710D01*
G01X54863906Y50657854D01*
G01X54863906Y50592830D01*
G01X56629460Y50657854D02*
G01X56629460Y50611372D01*
G01X56632508Y50602228D01*
G01X56638858Y50595878D01*
G01X56648002Y50592830D01*
G01X56654352Y50592830D01*
G01X56663496Y50595878D01*
G01X56669592Y50602228D01*
G01X56672894Y50611372D01*
G01X56672894Y50657854D01*
G01X56703120Y50645408D02*
G01X56709216Y50648710D01*
G01X56718360Y50657854D01*
G01X56718360Y50592830D01*
G01X56751634Y50642360D02*
G01X56751634Y50645408D01*
G01X56754682Y50651758D01*
G01X56757730Y50654806D01*
G01X56763826Y50657854D01*
G01X56776272Y50657854D01*
G01X56782622Y50654806D01*
G01X56785670Y50651758D01*
G01X56788718Y50645408D01*
G01X56788718Y50639312D01*
G01X56785670Y50633216D01*
G01X56779320Y50623818D01*
G01X56748586Y50592830D01*
G01X56791766Y50592830D01*
G01X58539540Y50657854D02*
G01X58539540Y50611372D01*
G01X58542588Y50602228D01*
G01X58548938Y50595878D01*
G01X58558082Y50592830D01*
G01X58564432Y50592830D01*
G01X58573576Y50595878D01*
G01X58579672Y50602228D01*
G01X58582974Y50611372D01*
G01X58582974Y50657854D01*
G01X58613200Y50645408D02*
G01X58619296Y50648710D01*
G01X58628440Y50657854D01*
G01X58628440Y50592830D01*
G01X58664762Y50657854D02*
G01X58698798Y50657854D01*
G01X58680256Y50633216D01*
G01X58689400Y50633216D01*
G01X58695750Y50630168D01*
G01X58698798Y50626866D01*
G01X58701846Y50617722D01*
G01X58701846Y50611372D01*
G01X58698798Y50602228D01*
G01X58692702Y50595878D01*
G01X58683304Y50592830D01*
G01X58673906Y50592830D01*
G01X58664762Y50595878D01*
G01X58661714Y50599180D01*
G01X58658666Y50605276D01*
G01X60922060Y50657854D02*
G01X60922060Y50611372D01*
G01X60925108Y50602228D01*
G01X60931458Y50595878D01*
G01X60940602Y50592830D01*
G01X60946952Y50592830D01*
G01X60956096Y50595878D01*
G01X60962192Y50602228D01*
G01X60965494Y50611372D01*
G01X60965494Y50657854D01*
G01X60995720Y50645408D02*
G01X61001816Y50648710D01*
G01X61010960Y50657854D01*
G01X61010960Y50592830D01*
G01X61071920Y50657854D02*
G01X61041186Y50614674D01*
G01X61087414Y50614674D01*
G01X61071920Y50657854D02*
G01X61071920Y50592830D01*
G01X31950820Y49464054D02*
G01X31950820Y49417572D01*
G01X31953868Y49408428D01*
G01X31960218Y49402078D01*
G01X31969362Y49399030D01*
G01X31975712Y49399030D01*
G01X31984856Y49402078D01*
G01X31990952Y49408428D01*
G01X31994254Y49417572D01*
G01X31994254Y49464054D01*
G01X32024480Y49451608D02*
G01X32030576Y49454910D01*
G01X32039720Y49464054D01*
G01X32039720Y49399030D01*
G01X32107030Y49464054D02*
G01X32076042Y49464054D01*
G01X32072994Y49436368D01*
G01X32076042Y49439416D01*
G01X32085186Y49442464D01*
G01X32094584Y49442464D01*
G01X32103982Y49439416D01*
G01X32110078Y49433066D01*
G01X32113126Y49423922D01*
G01X32113126Y49417572D01*
G01X32110078Y49408428D01*
G01X32103982Y49402078D01*
G01X32094584Y49399030D01*
G01X32085186Y49399030D01*
G01X32076042Y49402078D01*
G01X32072994Y49405380D01*
G01X32069946Y49411476D01*
G01X33779460Y48171354D02*
G01X33779460Y48124872D01*
G01X33782508Y48115728D01*
G01X33788858Y48109378D01*
G01X33798002Y48106330D01*
G01X33804352Y48106330D01*
G01X33813496Y48109378D01*
G01X33819592Y48115728D01*
G01X33822894Y48124872D01*
G01X33822894Y48171354D01*
G01X33853120Y48158908D02*
G01X33859216Y48162210D01*
G01X33868360Y48171354D01*
G01X33868360Y48106330D01*
G01X33935670Y48162210D02*
G01X33932622Y48168306D01*
G01X33923224Y48171354D01*
G01X33917128Y48171354D01*
G01X33907730Y48168306D01*
G01X33901634Y48158908D01*
G01X33898586Y48143668D01*
G01X33898586Y48128174D01*
G01X33901634Y48115728D01*
G01X33907730Y48109378D01*
G01X33917128Y48106330D01*
G01X33920176Y48106330D01*
G01X33929320Y48109378D01*
G01X33935670Y48115728D01*
G01X33938718Y48124872D01*
G01X33938718Y48128174D01*
G01X33935670Y48137318D01*
G01X33929320Y48143668D01*
G01X33920176Y48146716D01*
G01X33917128Y48146716D01*
G01X33907730Y48143668D01*
G01X33901634Y48137318D01*
G01X33898586Y48128174D01*
G01X35760820Y49464054D02*
G01X35760820Y49417572D01*
G01X35763868Y49408428D01*
G01X35770218Y49402078D01*
G01X35779362Y49399030D01*
G01X35785712Y49399030D01*
G01X35794856Y49402078D01*
G01X35800952Y49408428D01*
G01X35804254Y49417572D01*
G01X35804254Y49464054D01*
G01X35834480Y49451608D02*
G01X35840576Y49454910D01*
G01X35849720Y49464054D01*
G01X35849720Y49399030D01*
G01X35923126Y49464054D02*
G01X35892138Y49399030D01*
G01X35879946Y49464054D02*
G01X35923126Y49464054D01*
G01X37665820Y49464054D02*
G01X37665820Y49417572D01*
G01X37668868Y49408428D01*
G01X37675218Y49402078D01*
G01X37684362Y49399030D01*
G01X37690712Y49399030D01*
G01X37699856Y49402078D01*
G01X37705952Y49408428D01*
G01X37709254Y49417572D01*
G01X37709254Y49464054D01*
G01X37739480Y49451608D02*
G01X37745576Y49454910D01*
G01X37754720Y49464054D01*
G01X37754720Y49399030D01*
G01X37800186Y49464054D02*
G01X37791042Y49461006D01*
G01X37787994Y49454910D01*
G01X37787994Y49448560D01*
G01X37791042Y49442464D01*
G01X37797138Y49439416D01*
G01X37809584Y49436368D01*
G01X37818982Y49433066D01*
G01X37825078Y49426970D01*
G01X37828126Y49420874D01*
G01X37828126Y49411476D01*
G01X37825078Y49405380D01*
G01X37822030Y49402078D01*
G01X37812632Y49399030D01*
G01X37800186Y49399030D01*
G01X37791042Y49402078D01*
G01X37787994Y49405380D01*
G01X37784946Y49411476D01*
G01X37784946Y49420874D01*
G01X37787994Y49426970D01*
G01X37794090Y49433066D01*
G01X37803488Y49436368D01*
G01X37815680Y49439416D01*
G01X37822030Y49442464D01*
G01X37825078Y49448560D01*
G01X37825078Y49454910D01*
G01X37822030Y49461006D01*
G01X37812632Y49464054D01*
G01X37800186Y49464054D01*
G01X39570820Y49464054D02*
G01X39570820Y49417572D01*
G01X39573868Y49408428D01*
G01X39580218Y49402078D01*
G01X39589362Y49399030D01*
G01X39595712Y49399030D01*
G01X39604856Y49402078D01*
G01X39610952Y49408428D01*
G01X39614254Y49417572D01*
G01X39614254Y49464054D01*
G01X39644480Y49451608D02*
G01X39650576Y49454910D01*
G01X39659720Y49464054D01*
G01X39659720Y49399030D01*
G01X39730078Y49442464D02*
G01X39727030Y49433066D01*
G01X39720680Y49426970D01*
G01X39711536Y49423922D01*
G01X39708488Y49423922D01*
G01X39699090Y49426970D01*
G01X39692994Y49433066D01*
G01X39689946Y49442464D01*
G01X39689946Y49445512D01*
G01X39692994Y49454910D01*
G01X39699090Y49461006D01*
G01X39708488Y49464054D01*
G01X39711536Y49464054D01*
G01X39720680Y49461006D01*
G01X39727030Y49454910D01*
G01X39730078Y49442464D01*
G01X39730078Y49426970D01*
G01X39727030Y49411476D01*
G01X39720680Y49402078D01*
G01X39711536Y49399030D01*
G01X39705186Y49399030D01*
G01X39696042Y49402078D01*
G01X39692994Y49408428D01*
G01X41475820Y49464054D02*
G01X41475820Y49417572D01*
G01X41478868Y49408428D01*
G01X41485218Y49402078D01*
G01X41494362Y49399030D01*
G01X41500712Y49399030D01*
G01X41509856Y49402078D01*
G01X41515952Y49408428D01*
G01X41519254Y49417572D01*
G01X41519254Y49464054D01*
G01X41552528Y49448560D02*
G01X41552528Y49451608D01*
G01X41555576Y49457958D01*
G01X41558624Y49461006D01*
G01X41564720Y49464054D01*
G01X41577166Y49464054D01*
G01X41583516Y49461006D01*
G01X41586564Y49457958D01*
G01X41589612Y49451608D01*
G01X41589612Y49445512D01*
G01X41586564Y49439416D01*
G01X41580214Y49430018D01*
G01X41549480Y49399030D01*
G01X41592660Y49399030D01*
G01X41641428Y49464054D02*
G01X41632030Y49461006D01*
G01X41625934Y49451608D01*
G01X41622886Y49436368D01*
G01X41622886Y49426970D01*
G01X41625934Y49411476D01*
G01X41632030Y49402078D01*
G01X41641428Y49399030D01*
G01X41647524Y49399030D01*
G01X41656922Y49402078D01*
G01X41663018Y49411476D01*
G01X41666066Y49426970D01*
G01X41666066Y49436368D01*
G01X41663018Y49451608D01*
G01X41656922Y49461006D01*
G01X41647524Y49464054D01*
G01X41641428Y49464054D01*
G01X43380820Y49464054D02*
G01X43380820Y49417572D01*
G01X43383868Y49408428D01*
G01X43390218Y49402078D01*
G01X43399362Y49399030D01*
G01X43405712Y49399030D01*
G01X43414856Y49402078D01*
G01X43420952Y49408428D01*
G01X43424254Y49417572D01*
G01X43424254Y49464054D01*
G01X43457528Y49448560D02*
G01X43457528Y49451608D01*
G01X43460576Y49457958D01*
G01X43463624Y49461006D01*
G01X43469720Y49464054D01*
G01X43482166Y49464054D01*
G01X43488516Y49461006D01*
G01X43491564Y49457958D01*
G01X43494612Y49451608D01*
G01X43494612Y49445512D01*
G01X43491564Y49439416D01*
G01X43485214Y49430018D01*
G01X43454480Y49399030D01*
G01X43497660Y49399030D01*
G01X43527886Y49451608D02*
G01X43533982Y49454910D01*
G01X43543126Y49464054D01*
G01X43543126Y49399030D01*
G01X45285820Y49464054D02*
G01X45285820Y49417572D01*
G01X45288868Y49408428D01*
G01X45295218Y49402078D01*
G01X45304362Y49399030D01*
G01X45310712Y49399030D01*
G01X45319856Y49402078D01*
G01X45325952Y49408428D01*
G01X45329254Y49417572D01*
G01X45329254Y49464054D01*
G01X45362528Y49448560D02*
G01X45362528Y49451608D01*
G01X45365576Y49457958D01*
G01X45368624Y49461006D01*
G01X45374720Y49464054D01*
G01X45387166Y49464054D01*
G01X45393516Y49461006D01*
G01X45396564Y49457958D01*
G01X45399612Y49451608D01*
G01X45399612Y49445512D01*
G01X45396564Y49439416D01*
G01X45390214Y49430018D01*
G01X45359480Y49399030D01*
G01X45402660Y49399030D01*
G01X45435934Y49448560D02*
G01X45435934Y49451608D01*
G01X45438982Y49457958D01*
G01X45442030Y49461006D01*
G01X45448126Y49464054D01*
G01X45460572Y49464054D01*
G01X45466922Y49461006D01*
G01X45469970Y49457958D01*
G01X45473018Y49451608D01*
G01X45473018Y49445512D01*
G01X45469970Y49439416D01*
G01X45463620Y49430018D01*
G01X45432886Y49399030D01*
G01X45476066Y49399030D01*
G01X47190820Y49464054D02*
G01X47190820Y49417572D01*
G01X47193868Y49408428D01*
G01X47200218Y49402078D01*
G01X47209362Y49399030D01*
G01X47215712Y49399030D01*
G01X47224856Y49402078D01*
G01X47230952Y49408428D01*
G01X47234254Y49417572D01*
G01X47234254Y49464054D01*
G01X47267528Y49448560D02*
G01X47267528Y49451608D01*
G01X47270576Y49457958D01*
G01X47273624Y49461006D01*
G01X47279720Y49464054D01*
G01X47292166Y49464054D01*
G01X47298516Y49461006D01*
G01X47301564Y49457958D01*
G01X47304612Y49451608D01*
G01X47304612Y49445512D01*
G01X47301564Y49439416D01*
G01X47295214Y49430018D01*
G01X47264480Y49399030D01*
G01X47307660Y49399030D01*
G01X47343982Y49464054D02*
G01X47378018Y49464054D01*
G01X47359476Y49439416D01*
G01X47368620Y49439416D01*
G01X47374970Y49436368D01*
G01X47378018Y49433066D01*
G01X47381066Y49423922D01*
G01X47381066Y49417572D01*
G01X47378018Y49408428D01*
G01X47371922Y49402078D01*
G01X47362524Y49399030D01*
G01X47353126Y49399030D01*
G01X47343982Y49402078D01*
G01X47340934Y49405380D01*
G01X47337886Y49411476D01*
G01X49095820Y49464054D02*
G01X49095820Y49417572D01*
G01X49098868Y49408428D01*
G01X49105218Y49402078D01*
G01X49114362Y49399030D01*
G01X49120712Y49399030D01*
G01X49129856Y49402078D01*
G01X49135952Y49408428D01*
G01X49139254Y49417572D01*
G01X49139254Y49464054D01*
G01X49172528Y49448560D02*
G01X49172528Y49451608D01*
G01X49175576Y49457958D01*
G01X49178624Y49461006D01*
G01X49184720Y49464054D01*
G01X49197166Y49464054D01*
G01X49203516Y49461006D01*
G01X49206564Y49457958D01*
G01X49209612Y49451608D01*
G01X49209612Y49445512D01*
G01X49206564Y49439416D01*
G01X49200214Y49430018D01*
G01X49169480Y49399030D01*
G01X49212660Y49399030D01*
G01X49273620Y49464054D02*
G01X49242886Y49420874D01*
G01X49289114Y49420874D01*
G01X49273620Y49464054D02*
G01X49273620Y49399030D01*
G01X51000820Y49464054D02*
G01X51000820Y49417572D01*
G01X51003868Y49408428D01*
G01X51010218Y49402078D01*
G01X51019362Y49399030D01*
G01X51025712Y49399030D01*
G01X51034856Y49402078D01*
G01X51040952Y49408428D01*
G01X51044254Y49417572D01*
G01X51044254Y49464054D01*
G01X51077528Y49448560D02*
G01X51077528Y49451608D01*
G01X51080576Y49457958D01*
G01X51083624Y49461006D01*
G01X51089720Y49464054D01*
G01X51102166Y49464054D01*
G01X51108516Y49461006D01*
G01X51111564Y49457958D01*
G01X51114612Y49451608D01*
G01X51114612Y49445512D01*
G01X51111564Y49439416D01*
G01X51105214Y49430018D01*
G01X51074480Y49399030D01*
G01X51117660Y49399030D01*
G01X51184970Y49464054D02*
G01X51153982Y49464054D01*
G01X51150934Y49436368D01*
G01X51153982Y49439416D01*
G01X51163126Y49442464D01*
G01X51172524Y49442464D01*
G01X51181922Y49439416D01*
G01X51188018Y49433066D01*
G01X51191066Y49423922D01*
G01X51191066Y49417572D01*
G01X51188018Y49408428D01*
G01X51181922Y49402078D01*
G01X51172524Y49399030D01*
G01X51163126Y49399030D01*
G01X51153982Y49402078D01*
G01X51150934Y49405380D01*
G01X51147886Y49411476D01*
G01X52905820Y49464054D02*
G01X52905820Y49417572D01*
G01X52908868Y49408428D01*
G01X52915218Y49402078D01*
G01X52924362Y49399030D01*
G01X52930712Y49399030D01*
G01X52939856Y49402078D01*
G01X52945952Y49408428D01*
G01X52949254Y49417572D01*
G01X52949254Y49464054D01*
G01X52982528Y49448560D02*
G01X52982528Y49451608D01*
G01X52985576Y49457958D01*
G01X52988624Y49461006D01*
G01X52994720Y49464054D01*
G01X53007166Y49464054D01*
G01X53013516Y49461006D01*
G01X53016564Y49457958D01*
G01X53019612Y49451608D01*
G01X53019612Y49445512D01*
G01X53016564Y49439416D01*
G01X53010214Y49430018D01*
G01X52979480Y49399030D01*
G01X53022660Y49399030D01*
G01X53089970Y49454910D02*
G01X53086922Y49461006D01*
G01X53077524Y49464054D01*
G01X53071428Y49464054D01*
G01X53062030Y49461006D01*
G01X53055934Y49451608D01*
G01X53052886Y49436368D01*
G01X53052886Y49420874D01*
G01X53055934Y49408428D01*
G01X53062030Y49402078D01*
G01X53071428Y49399030D01*
G01X53074476Y49399030D01*
G01X53083620Y49402078D01*
G01X53089970Y49408428D01*
G01X53093018Y49417572D01*
G01X53093018Y49420874D01*
G01X53089970Y49430018D01*
G01X53083620Y49436368D01*
G01X53074476Y49439416D01*
G01X53071428Y49439416D01*
G01X53062030Y49436368D01*
G01X53055934Y49430018D01*
G01X53052886Y49420874D01*
G01X54810820Y49464054D02*
G01X54810820Y49417572D01*
G01X54813868Y49408428D01*
G01X54820218Y49402078D01*
G01X54829362Y49399030D01*
G01X54835712Y49399030D01*
G01X54844856Y49402078D01*
G01X54850952Y49408428D01*
G01X54854254Y49417572D01*
G01X54854254Y49464054D01*
G01X54887528Y49448560D02*
G01X54887528Y49451608D01*
G01X54890576Y49457958D01*
G01X54893624Y49461006D01*
G01X54899720Y49464054D01*
G01X54912166Y49464054D01*
G01X54918516Y49461006D01*
G01X54921564Y49457958D01*
G01X54924612Y49451608D01*
G01X54924612Y49445512D01*
G01X54921564Y49439416D01*
G01X54915214Y49430018D01*
G01X54884480Y49399030D01*
G01X54927660Y49399030D01*
G01X55001066Y49464054D02*
G01X54970078Y49399030D01*
G01X54957886Y49464054D02*
G01X55001066Y49464054D01*
G01X57665780Y49464054D02*
G01X57665780Y49417572D01*
G01X57668828Y49408428D01*
G01X57675178Y49402078D01*
G01X57684322Y49399030D01*
G01X57690672Y49399030D01*
G01X57699816Y49402078D01*
G01X57705912Y49408428D01*
G01X57709214Y49417572D01*
G01X57709214Y49464054D01*
G01X57742488Y49448560D02*
G01X57742488Y49451608D01*
G01X57745536Y49457958D01*
G01X57748584Y49461006D01*
G01X57754680Y49464054D01*
G01X57767126Y49464054D01*
G01X57773476Y49461006D01*
G01X57776524Y49457958D01*
G01X57779572Y49451608D01*
G01X57779572Y49445512D01*
G01X57776524Y49439416D01*
G01X57770174Y49430018D01*
G01X57739440Y49399030D01*
G01X57782620Y49399030D01*
G01X57828086Y49464054D02*
G01X57818942Y49461006D01*
G01X57815894Y49454910D01*
G01X57815894Y49448560D01*
G01X57818942Y49442464D01*
G01X57825038Y49439416D01*
G01X57837484Y49436368D01*
G01X57846882Y49433066D01*
G01X57852978Y49426970D01*
G01X57856026Y49420874D01*
G01X57856026Y49411476D01*
G01X57852978Y49405380D01*
G01X57849930Y49402078D01*
G01X57840532Y49399030D01*
G01X57828086Y49399030D01*
G01X57818942Y49402078D01*
G01X57815894Y49405380D01*
G01X57812846Y49411476D01*
G01X57812846Y49420874D01*
G01X57815894Y49426970D01*
G01X57821990Y49433066D01*
G01X57831388Y49436368D01*
G01X57843580Y49439416D01*
G01X57849930Y49442464D01*
G01X57852978Y49448560D01*
G01X57852978Y49454910D01*
G01X57849930Y49461006D01*
G01X57840532Y49464054D01*
G01X57828086Y49464054D01*
G01X61003340Y49464054D02*
G01X61003340Y49417572D01*
G01X61006388Y49408428D01*
G01X61012738Y49402078D01*
G01X61021882Y49399030D01*
G01X61028232Y49399030D01*
G01X61037376Y49402078D01*
G01X61043472Y49408428D01*
G01X61046774Y49417572D01*
G01X61046774Y49464054D01*
G01X61080048Y49448560D02*
G01X61080048Y49451608D01*
G01X61083096Y49457958D01*
G01X61086144Y49461006D01*
G01X61092240Y49464054D01*
G01X61104686Y49464054D01*
G01X61111036Y49461006D01*
G01X61114084Y49457958D01*
G01X61117132Y49451608D01*
G01X61117132Y49445512D01*
G01X61114084Y49439416D01*
G01X61107734Y49430018D01*
G01X61077000Y49399030D01*
G01X61120180Y49399030D01*
G01X61190538Y49442464D02*
G01X61187490Y49433066D01*
G01X61181140Y49426970D01*
G01X61171996Y49423922D01*
G01X61168948Y49423922D01*
G01X61159550Y49426970D01*
G01X61153454Y49433066D01*
G01X61150406Y49442464D01*
G01X61150406Y49445512D01*
G01X61153454Y49454910D01*
G01X61159550Y49461006D01*
G01X61168948Y49464054D01*
G01X61171996Y49464054D01*
G01X61181140Y49461006D01*
G01X61187490Y49454910D01*
G01X61190538Y49442464D01*
G01X61190538Y49426970D01*
G01X61187490Y49411476D01*
G01X61181140Y49402078D01*
G01X61171996Y49399030D01*
G01X61165646Y49399030D01*
G01X61156502Y49402078D01*
G01X61153454Y49408428D01*
G01X49065340Y73909014D02*
G01X49065340Y73862532D01*
G01X49068388Y73853388D01*
G01X49074738Y73847038D01*
G01X49083882Y73843990D01*
G01X49090232Y73843990D01*
G01X49099376Y73847038D01*
G01X49105472Y73853388D01*
G01X49108774Y73862532D01*
G01X49108774Y73909014D01*
G01X49145096Y73909014D02*
G01X49179132Y73909014D01*
G01X49160590Y73884376D01*
G01X49169734Y73884376D01*
G01X49176084Y73881328D01*
G01X49179132Y73878026D01*
G01X49182180Y73868882D01*
G01X49182180Y73862532D01*
G01X49179132Y73853388D01*
G01X49173036Y73847038D01*
G01X49163638Y73843990D01*
G01X49154240Y73843990D01*
G01X49145096Y73847038D01*
G01X49142048Y73850340D01*
G01X49139000Y73856436D01*
G01X49230948Y73909014D02*
G01X49221550Y73905966D01*
G01X49215454Y73896568D01*
G01X49212406Y73881328D01*
G01X49212406Y73871930D01*
G01X49215454Y73856436D01*
G01X49221550Y73847038D01*
G01X49230948Y73843990D01*
G01X49237044Y73843990D01*
G01X49246442Y73847038D01*
G01X49252538Y73856436D01*
G01X49255586Y73871930D01*
G01X49255586Y73881328D01*
G01X49252538Y73896568D01*
G01X49246442Y73905966D01*
G01X49237044Y73909014D01*
G01X49230948Y73909014D01*
G01X51442780Y73909014D02*
G01X51442780Y73862532D01*
G01X51445828Y73853388D01*
G01X51452178Y73847038D01*
G01X51461322Y73843990D01*
G01X51467672Y73843990D01*
G01X51476816Y73847038D01*
G01X51482912Y73853388D01*
G01X51486214Y73862532D01*
G01X51486214Y73909014D01*
G01X51522536Y73909014D02*
G01X51556572Y73909014D01*
G01X51538030Y73884376D01*
G01X51547174Y73884376D01*
G01X51553524Y73881328D01*
G01X51556572Y73878026D01*
G01X51559620Y73868882D01*
G01X51559620Y73862532D01*
G01X51556572Y73853388D01*
G01X51550476Y73847038D01*
G01X51541078Y73843990D01*
G01X51531680Y73843990D01*
G01X51522536Y73847038D01*
G01X51519488Y73850340D01*
G01X51516440Y73856436D01*
G01X51589846Y73896568D02*
G01X51595942Y73899870D01*
G01X51605086Y73909014D01*
G01X51605086Y73843990D01*
G01X53347780Y73909014D02*
G01X53347780Y73862532D01*
G01X53350828Y73853388D01*
G01X53357178Y73847038D01*
G01X53366322Y73843990D01*
G01X53372672Y73843990D01*
G01X53381816Y73847038D01*
G01X53387912Y73853388D01*
G01X53391214Y73862532D01*
G01X53391214Y73909014D01*
G01X53427536Y73909014D02*
G01X53461572Y73909014D01*
G01X53443030Y73884376D01*
G01X53452174Y73884376D01*
G01X53458524Y73881328D01*
G01X53461572Y73878026D01*
G01X53464620Y73868882D01*
G01X53464620Y73862532D01*
G01X53461572Y73853388D01*
G01X53455476Y73847038D01*
G01X53446078Y73843990D01*
G01X53436680Y73843990D01*
G01X53427536Y73847038D01*
G01X53424488Y73850340D01*
G01X53421440Y73856436D01*
G01X53497894Y73893520D02*
G01X53497894Y73896568D01*
G01X53500942Y73902918D01*
G01X53503990Y73905966D01*
G01X53510086Y73909014D01*
G01X53522532Y73909014D01*
G01X53528882Y73905966D01*
G01X53531930Y73902918D01*
G01X53534978Y73896568D01*
G01X53534978Y73890472D01*
G01X53531930Y73884376D01*
G01X53525580Y73874978D01*
G01X53494846Y73843990D01*
G01X53538026Y73843990D01*
G01X55252780Y73909014D02*
G01X55252780Y73862532D01*
G01X55255828Y73853388D01*
G01X55262178Y73847038D01*
G01X55271322Y73843990D01*
G01X55277672Y73843990D01*
G01X55286816Y73847038D01*
G01X55292912Y73853388D01*
G01X55296214Y73862532D01*
G01X55296214Y73909014D01*
G01X55332536Y73909014D02*
G01X55366572Y73909014D01*
G01X55348030Y73884376D01*
G01X55357174Y73884376D01*
G01X55363524Y73881328D01*
G01X55366572Y73878026D01*
G01X55369620Y73868882D01*
G01X55369620Y73862532D01*
G01X55366572Y73853388D01*
G01X55360476Y73847038D01*
G01X55351078Y73843990D01*
G01X55341680Y73843990D01*
G01X55332536Y73847038D01*
G01X55329488Y73850340D01*
G01X55326440Y73856436D01*
G01X55405942Y73909014D02*
G01X55439978Y73909014D01*
G01X55421436Y73884376D01*
G01X55430580Y73884376D01*
G01X55436930Y73881328D01*
G01X55439978Y73878026D01*
G01X55443026Y73868882D01*
G01X55443026Y73862532D01*
G01X55439978Y73853388D01*
G01X55433882Y73847038D01*
G01X55424484Y73843990D01*
G01X55415086Y73843990D01*
G01X55405942Y73847038D01*
G01X55402894Y73850340D01*
G01X55399846Y73856436D01*
G01X57157780Y73909014D02*
G01X57157780Y73862532D01*
G01X57160828Y73853388D01*
G01X57167178Y73847038D01*
G01X57176322Y73843990D01*
G01X57182672Y73843990D01*
G01X57191816Y73847038D01*
G01X57197912Y73853388D01*
G01X57201214Y73862532D01*
G01X57201214Y73909014D01*
G01X57237536Y73909014D02*
G01X57271572Y73909014D01*
G01X57253030Y73884376D01*
G01X57262174Y73884376D01*
G01X57268524Y73881328D01*
G01X57271572Y73878026D01*
G01X57274620Y73868882D01*
G01X57274620Y73862532D01*
G01X57271572Y73853388D01*
G01X57265476Y73847038D01*
G01X57256078Y73843990D01*
G01X57246680Y73843990D01*
G01X57237536Y73847038D01*
G01X57234488Y73850340D01*
G01X57231440Y73856436D01*
G01X57335580Y73909014D02*
G01X57304846Y73865834D01*
G01X57351074Y73865834D01*
G01X57335580Y73909014D02*
G01X57335580Y73843990D01*
G01X59062780Y73909014D02*
G01X59062780Y73862532D01*
G01X59065828Y73853388D01*
G01X59072178Y73847038D01*
G01X59081322Y73843990D01*
G01X59087672Y73843990D01*
G01X59096816Y73847038D01*
G01X59102912Y73853388D01*
G01X59106214Y73862532D01*
G01X59106214Y73909014D01*
G01X59142536Y73909014D02*
G01X59176572Y73909014D01*
G01X59158030Y73884376D01*
G01X59167174Y73884376D01*
G01X59173524Y73881328D01*
G01X59176572Y73878026D01*
G01X59179620Y73868882D01*
G01X59179620Y73862532D01*
G01X59176572Y73853388D01*
G01X59170476Y73847038D01*
G01X59161078Y73843990D01*
G01X59151680Y73843990D01*
G01X59142536Y73847038D01*
G01X59139488Y73850340D01*
G01X59136440Y73856436D01*
G01X59246930Y73909014D02*
G01X59215942Y73909014D01*
G01X59212894Y73881328D01*
G01X59215942Y73884376D01*
G01X59225086Y73887424D01*
G01X59234484Y73887424D01*
G01X59243882Y73884376D01*
G01X59249978Y73878026D01*
G01X59253026Y73868882D01*
G01X59253026Y73862532D01*
G01X59249978Y73853388D01*
G01X59243882Y73847038D01*
G01X59234484Y73843990D01*
G01X59225086Y73843990D01*
G01X59215942Y73847038D01*
G01X59212894Y73850340D01*
G01X59209846Y73856436D01*
G01X60967780Y73909014D02*
G01X60967780Y73862532D01*
G01X60970828Y73853388D01*
G01X60977178Y73847038D01*
G01X60986322Y73843990D01*
G01X60992672Y73843990D01*
G01X61001816Y73847038D01*
G01X61007912Y73853388D01*
G01X61011214Y73862532D01*
G01X61011214Y73909014D01*
G01X61047536Y73909014D02*
G01X61081572Y73909014D01*
G01X61063030Y73884376D01*
G01X61072174Y73884376D01*
G01X61078524Y73881328D01*
G01X61081572Y73878026D01*
G01X61084620Y73868882D01*
G01X61084620Y73862532D01*
G01X61081572Y73853388D01*
G01X61075476Y73847038D01*
G01X61066078Y73843990D01*
G01X61056680Y73843990D01*
G01X61047536Y73847038D01*
G01X61044488Y73850340D01*
G01X61041440Y73856436D01*
G01X61151930Y73899870D02*
G01X61148882Y73905966D01*
G01X61139484Y73909014D01*
G01X61133388Y73909014D01*
G01X61123990Y73905966D01*
G01X61117894Y73896568D01*
G01X61114846Y73881328D01*
G01X61114846Y73865834D01*
G01X61117894Y73853388D01*
G01X61123990Y73847038D01*
G01X61133388Y73843990D01*
G01X61136436Y73843990D01*
G01X61145580Y73847038D01*
G01X61151930Y73853388D01*
G01X61154978Y73862532D01*
G01X61154978Y73865834D01*
G01X61151930Y73874978D01*
G01X61145580Y73881328D01*
G01X61136436Y73884376D01*
G01X61133388Y73884376D01*
G01X61123990Y73881328D01*
G01X61117894Y73874978D01*
G01X61114846Y73865834D01*
G01X62872780Y73909014D02*
G01X62872780Y73862532D01*
G01X62875828Y73853388D01*
G01X62882178Y73847038D01*
G01X62891322Y73843990D01*
G01X62897672Y73843990D01*
G01X62906816Y73847038D01*
G01X62912912Y73853388D01*
G01X62916214Y73862532D01*
G01X62916214Y73909014D01*
G01X62952536Y73909014D02*
G01X62986572Y73909014D01*
G01X62968030Y73884376D01*
G01X62977174Y73884376D01*
G01X62983524Y73881328D01*
G01X62986572Y73878026D01*
G01X62989620Y73868882D01*
G01X62989620Y73862532D01*
G01X62986572Y73853388D01*
G01X62980476Y73847038D01*
G01X62971078Y73843990D01*
G01X62961680Y73843990D01*
G01X62952536Y73847038D01*
G01X62949488Y73850340D01*
G01X62946440Y73856436D01*
G01X63063026Y73909014D02*
G01X63032038Y73843990D01*
G01X63019846Y73909014D02*
G01X63063026Y73909014D01*
G01X64777780Y73909014D02*
G01X64777780Y73862532D01*
G01X64780828Y73853388D01*
G01X64787178Y73847038D01*
G01X64796322Y73843990D01*
G01X64802672Y73843990D01*
G01X64811816Y73847038D01*
G01X64817912Y73853388D01*
G01X64821214Y73862532D01*
G01X64821214Y73909014D01*
G01X64857536Y73909014D02*
G01X64891572Y73909014D01*
G01X64873030Y73884376D01*
G01X64882174Y73884376D01*
G01X64888524Y73881328D01*
G01X64891572Y73878026D01*
G01X64894620Y73868882D01*
G01X64894620Y73862532D01*
G01X64891572Y73853388D01*
G01X64885476Y73847038D01*
G01X64876078Y73843990D01*
G01X64866680Y73843990D01*
G01X64857536Y73847038D01*
G01X64854488Y73850340D01*
G01X64851440Y73856436D01*
G01X64940086Y73909014D02*
G01X64930942Y73905966D01*
G01X64927894Y73899870D01*
G01X64927894Y73893520D01*
G01X64930942Y73887424D01*
G01X64937038Y73884376D01*
G01X64949484Y73881328D01*
G01X64958882Y73878026D01*
G01X64964978Y73871930D01*
G01X64968026Y73865834D01*
G01X64968026Y73856436D01*
G01X64964978Y73850340D01*
G01X64961930Y73847038D01*
G01X64952532Y73843990D01*
G01X64940086Y73843990D01*
G01X64930942Y73847038D01*
G01X64927894Y73850340D01*
G01X64924846Y73856436D01*
G01X64924846Y73865834D01*
G01X64927894Y73871930D01*
G01X64933990Y73878026D01*
G01X64943388Y73881328D01*
G01X64955580Y73884376D01*
G01X64961930Y73887424D01*
G01X64964978Y73893520D01*
G01X64964978Y73899870D01*
G01X64961930Y73905966D01*
G01X64952532Y73909014D01*
G01X64940086Y73909014D01*
G01X66682780Y73909014D02*
G01X66682780Y73862532D01*
G01X66685828Y73853388D01*
G01X66692178Y73847038D01*
G01X66701322Y73843990D01*
G01X66707672Y73843990D01*
G01X66716816Y73847038D01*
G01X66722912Y73853388D01*
G01X66726214Y73862532D01*
G01X66726214Y73909014D01*
G01X66762536Y73909014D02*
G01X66796572Y73909014D01*
G01X66778030Y73884376D01*
G01X66787174Y73884376D01*
G01X66793524Y73881328D01*
G01X66796572Y73878026D01*
G01X66799620Y73868882D01*
G01X66799620Y73862532D01*
G01X66796572Y73853388D01*
G01X66790476Y73847038D01*
G01X66781078Y73843990D01*
G01X66771680Y73843990D01*
G01X66762536Y73847038D01*
G01X66759488Y73850340D01*
G01X66756440Y73856436D01*
G01X66869978Y73887424D02*
G01X66866930Y73878026D01*
G01X66860580Y73871930D01*
G01X66851436Y73868882D01*
G01X66848388Y73868882D01*
G01X66838990Y73871930D01*
G01X66832894Y73878026D01*
G01X66829846Y73887424D01*
G01X66829846Y73890472D01*
G01X66832894Y73899870D01*
G01X66838990Y73905966D01*
G01X66848388Y73909014D01*
G01X66851436Y73909014D01*
G01X66860580Y73905966D01*
G01X66866930Y73899870D01*
G01X66869978Y73887424D01*
G01X66869978Y73871930D01*
G01X66866930Y73856436D01*
G01X66860580Y73847038D01*
G01X66851436Y73843990D01*
G01X66845086Y73843990D01*
G01X66835942Y73847038D01*
G01X66832894Y73853388D01*
G01X68587780Y73909014D02*
G01X68587780Y73862532D01*
G01X68590828Y73853388D01*
G01X68597178Y73847038D01*
G01X68606322Y73843990D01*
G01X68612672Y73843990D01*
G01X68621816Y73847038D01*
G01X68627912Y73853388D01*
G01X68631214Y73862532D01*
G01X68631214Y73909014D01*
G01X68692174Y73909014D02*
G01X68661440Y73865834D01*
G01X68707668Y73865834D01*
G01X68692174Y73909014D02*
G01X68692174Y73843990D01*
G01X68756436Y73909014D02*
G01X68747038Y73905966D01*
G01X68740942Y73896568D01*
G01X68737894Y73881328D01*
G01X68737894Y73871930D01*
G01X68740942Y73856436D01*
G01X68747038Y73847038D01*
G01X68756436Y73843990D01*
G01X68762532Y73843990D01*
G01X68771930Y73847038D01*
G01X68778026Y73856436D01*
G01X68781074Y73871930D01*
G01X68781074Y73881328D01*
G01X68778026Y73896568D01*
G01X68771930Y73905966D01*
G01X68762532Y73909014D01*
G01X68756436Y73909014D01*
G01X70492780Y73909014D02*
G01X70492780Y73862532D01*
G01X70495828Y73853388D01*
G01X70502178Y73847038D01*
G01X70511322Y73843990D01*
G01X70517672Y73843990D01*
G01X70526816Y73847038D01*
G01X70532912Y73853388D01*
G01X70536214Y73862532D01*
G01X70536214Y73909014D01*
G01X70597174Y73909014D02*
G01X70566440Y73865834D01*
G01X70612668Y73865834D01*
G01X70597174Y73909014D02*
G01X70597174Y73843990D01*
G01X70642894Y73896568D02*
G01X70648990Y73899870D01*
G01X70658134Y73909014D01*
G01X70658134Y73843990D01*
G01X72397780Y73909014D02*
G01X72397780Y73862532D01*
G01X72400828Y73853388D01*
G01X72407178Y73847038D01*
G01X72416322Y73843990D01*
G01X72422672Y73843990D01*
G01X72431816Y73847038D01*
G01X72437912Y73853388D01*
G01X72441214Y73862532D01*
G01X72441214Y73909014D01*
G01X72502174Y73909014D02*
G01X72471440Y73865834D01*
G01X72517668Y73865834D01*
G01X72502174Y73909014D02*
G01X72502174Y73843990D01*
G01X72550942Y73893520D02*
G01X72550942Y73896568D01*
G01X72553990Y73902918D01*
G01X72557038Y73905966D01*
G01X72563134Y73909014D01*
G01X72575580Y73909014D01*
G01X72581930Y73905966D01*
G01X72584978Y73902918D01*
G01X72588026Y73896568D01*
G01X72588026Y73890472D01*
G01X72584978Y73884376D01*
G01X72578628Y73874978D01*
G01X72547894Y73843990D01*
G01X72591074Y73843990D01*
G01X74780300Y73909014D02*
G01X74780300Y73862532D01*
G01X74783348Y73853388D01*
G01X74789698Y73847038D01*
G01X74798842Y73843990D01*
G01X74805192Y73843990D01*
G01X74814336Y73847038D01*
G01X74820432Y73853388D01*
G01X74823734Y73862532D01*
G01X74823734Y73909014D01*
G01X74884694Y73909014D02*
G01X74853960Y73865834D01*
G01X74900188Y73865834D01*
G01X74884694Y73909014D02*
G01X74884694Y73843990D01*
G01X74936510Y73909014D02*
G01X74970546Y73909014D01*
G01X74952004Y73884376D01*
G01X74961148Y73884376D01*
G01X74967498Y73881328D01*
G01X74970546Y73878026D01*
G01X74973594Y73868882D01*
G01X74973594Y73862532D01*
G01X74970546Y73853388D01*
G01X74964450Y73847038D01*
G01X74955052Y73843990D01*
G01X74945654Y73843990D01*
G01X74936510Y73847038D01*
G01X74933462Y73850340D01*
G01X74930414Y73856436D01*
G01X76550274Y74193243D02*
G01X76550274Y74146761D01*
G01X76553322Y74137617D01*
G01X76559672Y74131267D01*
G01X76568816Y74128219D01*
G01X76575166Y74128219D01*
G01X76584310Y74131267D01*
G01X76590406Y74137617D01*
G01X76593708Y74146761D01*
G01X76593708Y74193243D01*
G01X76654668Y74193243D02*
G01X76623934Y74150063D01*
G01X76670162Y74150063D01*
G01X76654668Y74193243D02*
G01X76654668Y74128219D01*
G01X76731122Y74193243D02*
G01X76700388Y74150063D01*
G01X76746616Y74150063D01*
G01X76731122Y74193243D02*
G01X76731122Y74128219D01*
G01X49558100Y71836374D02*
G01X49558100Y71789892D01*
G01X49561148Y71780748D01*
G01X49567498Y71774398D01*
G01X49576642Y71771350D01*
G01X49582992Y71771350D01*
G01X49592136Y71774398D01*
G01X49598232Y71780748D01*
G01X49601534Y71789892D01*
G01X49601534Y71836374D01*
G01X49662494Y71836374D02*
G01X49631760Y71793194D01*
G01X49677988Y71793194D01*
G01X49662494Y71836374D02*
G01X49662494Y71771350D01*
G01X49745298Y71836374D02*
G01X49714310Y71836374D01*
G01X49711262Y71808688D01*
G01X49714310Y71811736D01*
G01X49723454Y71814784D01*
G01X49732852Y71814784D01*
G01X49742250Y71811736D01*
G01X49748346Y71805386D01*
G01X49751394Y71796242D01*
G01X49751394Y71789892D01*
G01X49748346Y71780748D01*
G01X49742250Y71774398D01*
G01X49732852Y71771350D01*
G01X49723454Y71771350D01*
G01X49714310Y71774398D01*
G01X49711262Y71777700D01*
G01X49708214Y71783796D01*
G01X52174300Y71836374D02*
G01X52174300Y71789892D01*
G01X52177348Y71780748D01*
G01X52183698Y71774398D01*
G01X52192842Y71771350D01*
G01X52199192Y71771350D01*
G01X52208336Y71774398D01*
G01X52214432Y71780748D01*
G01X52217734Y71789892D01*
G01X52217734Y71836374D01*
G01X52278694Y71836374D02*
G01X52247960Y71793194D01*
G01X52294188Y71793194D01*
G01X52278694Y71836374D02*
G01X52278694Y71771350D01*
G01X52361498Y71827230D02*
G01X52358450Y71833326D01*
G01X52349052Y71836374D01*
G01X52342956Y71836374D01*
G01X52333558Y71833326D01*
G01X52327462Y71823928D01*
G01X52324414Y71808688D01*
G01X52324414Y71793194D01*
G01X52327462Y71780748D01*
G01X52333558Y71774398D01*
G01X52342956Y71771350D01*
G01X52346004Y71771350D01*
G01X52355148Y71774398D01*
G01X52361498Y71780748D01*
G01X52364546Y71789892D01*
G01X52364546Y71793194D01*
G01X52361498Y71802338D01*
G01X52355148Y71808688D01*
G01X52346004Y71811736D01*
G01X52342956Y71811736D01*
G01X52333558Y71808688D01*
G01X52327462Y71802338D01*
G01X52324414Y71793194D01*
G01X54079300Y71836374D02*
G01X54079300Y71789892D01*
G01X54082348Y71780748D01*
G01X54088698Y71774398D01*
G01X54097842Y71771350D01*
G01X54104192Y71771350D01*
G01X54113336Y71774398D01*
G01X54119432Y71780748D01*
G01X54122734Y71789892D01*
G01X54122734Y71836374D01*
G01X54183694Y71836374D02*
G01X54152960Y71793194D01*
G01X54199188Y71793194D01*
G01X54183694Y71836374D02*
G01X54183694Y71771350D01*
G01X54272594Y71836374D02*
G01X54241606Y71771350D01*
G01X54229414Y71836374D02*
G01X54272594Y71836374D01*
G01X55984300Y71836374D02*
G01X55984300Y71789892D01*
G01X55987348Y71780748D01*
G01X55993698Y71774398D01*
G01X56002842Y71771350D01*
G01X56009192Y71771350D01*
G01X56018336Y71774398D01*
G01X56024432Y71780748D01*
G01X56027734Y71789892D01*
G01X56027734Y71836374D01*
G01X56088694Y71836374D02*
G01X56057960Y71793194D01*
G01X56104188Y71793194D01*
G01X56088694Y71836374D02*
G01X56088694Y71771350D01*
G01X56149654Y71836374D02*
G01X56140510Y71833326D01*
G01X56137462Y71827230D01*
G01X56137462Y71820880D01*
G01X56140510Y71814784D01*
G01X56146606Y71811736D01*
G01X56159052Y71808688D01*
G01X56168450Y71805386D01*
G01X56174546Y71799290D01*
G01X56177594Y71793194D01*
G01X56177594Y71783796D01*
G01X56174546Y71777700D01*
G01X56171498Y71774398D01*
G01X56162100Y71771350D01*
G01X56149654Y71771350D01*
G01X56140510Y71774398D01*
G01X56137462Y71777700D01*
G01X56134414Y71783796D01*
G01X56134414Y71793194D01*
G01X56137462Y71799290D01*
G01X56143558Y71805386D01*
G01X56152956Y71808688D01*
G01X56165148Y71811736D01*
G01X56171498Y71814784D01*
G01X56174546Y71820880D01*
G01X56174546Y71827230D01*
G01X56171498Y71833326D01*
G01X56162100Y71836374D01*
G01X56149654Y71836374D01*
G01X57889300Y71836374D02*
G01X57889300Y71789892D01*
G01X57892348Y71780748D01*
G01X57898698Y71774398D01*
G01X57907842Y71771350D01*
G01X57914192Y71771350D01*
G01X57923336Y71774398D01*
G01X57929432Y71780748D01*
G01X57932734Y71789892D01*
G01X57932734Y71836374D01*
G01X57993694Y71836374D02*
G01X57962960Y71793194D01*
G01X58009188Y71793194D01*
G01X57993694Y71836374D02*
G01X57993694Y71771350D01*
G01X58079546Y71814784D02*
G01X58076498Y71805386D01*
G01X58070148Y71799290D01*
G01X58061004Y71796242D01*
G01X58057956Y71796242D01*
G01X58048558Y71799290D01*
G01X58042462Y71805386D01*
G01X58039414Y71814784D01*
G01X58039414Y71817832D01*
G01X58042462Y71827230D01*
G01X58048558Y71833326D01*
G01X58057956Y71836374D01*
G01X58061004Y71836374D01*
G01X58070148Y71833326D01*
G01X58076498Y71827230D01*
G01X58079546Y71814784D01*
G01X58079546Y71799290D01*
G01X58076498Y71783796D01*
G01X58070148Y71774398D01*
G01X58061004Y71771350D01*
G01X58054654Y71771350D01*
G01X58045510Y71774398D01*
G01X58042462Y71780748D01*
G01X59794300Y71836374D02*
G01X59794300Y71789892D01*
G01X59797348Y71780748D01*
G01X59803698Y71774398D01*
G01X59812842Y71771350D01*
G01X59819192Y71771350D01*
G01X59828336Y71774398D01*
G01X59834432Y71780748D01*
G01X59837734Y71789892D01*
G01X59837734Y71836374D01*
G01X59905044Y71836374D02*
G01X59874056Y71836374D01*
G01X59871008Y71808688D01*
G01X59874056Y71811736D01*
G01X59883200Y71814784D01*
G01X59892598Y71814784D01*
G01X59901996Y71811736D01*
G01X59908092Y71805386D01*
G01X59911140Y71796242D01*
G01X59911140Y71789892D01*
G01X59908092Y71780748D01*
G01X59901996Y71774398D01*
G01X59892598Y71771350D01*
G01X59883200Y71771350D01*
G01X59874056Y71774398D01*
G01X59871008Y71777700D01*
G01X59867960Y71783796D01*
G01X59959908Y71836374D02*
G01X59950510Y71833326D01*
G01X59944414Y71823928D01*
G01X59941366Y71808688D01*
G01X59941366Y71799290D01*
G01X59944414Y71783796D01*
G01X59950510Y71774398D01*
G01X59959908Y71771350D01*
G01X59966004Y71771350D01*
G01X59975402Y71774398D01*
G01X59981498Y71783796D01*
G01X59984546Y71799290D01*
G01X59984546Y71808688D01*
G01X59981498Y71823928D01*
G01X59975402Y71833326D01*
G01X59966004Y71836374D01*
G01X59959908Y71836374D01*
G01X61699300Y71836374D02*
G01X61699300Y71789892D01*
G01X61702348Y71780748D01*
G01X61708698Y71774398D01*
G01X61717842Y71771350D01*
G01X61724192Y71771350D01*
G01X61733336Y71774398D01*
G01X61739432Y71780748D01*
G01X61742734Y71789892D01*
G01X61742734Y71836374D01*
G01X61810044Y71836374D02*
G01X61779056Y71836374D01*
G01X61776008Y71808688D01*
G01X61779056Y71811736D01*
G01X61788200Y71814784D01*
G01X61797598Y71814784D01*
G01X61806996Y71811736D01*
G01X61813092Y71805386D01*
G01X61816140Y71796242D01*
G01X61816140Y71789892D01*
G01X61813092Y71780748D01*
G01X61806996Y71774398D01*
G01X61797598Y71771350D01*
G01X61788200Y71771350D01*
G01X61779056Y71774398D01*
G01X61776008Y71777700D01*
G01X61772960Y71783796D01*
G01X61846366Y71823928D02*
G01X61852462Y71827230D01*
G01X61861606Y71836374D01*
G01X61861606Y71771350D01*
G01X63604300Y71836374D02*
G01X63604300Y71789892D01*
G01X63607348Y71780748D01*
G01X63613698Y71774398D01*
G01X63622842Y71771350D01*
G01X63629192Y71771350D01*
G01X63638336Y71774398D01*
G01X63644432Y71780748D01*
G01X63647734Y71789892D01*
G01X63647734Y71836374D01*
G01X63715044Y71836374D02*
G01X63684056Y71836374D01*
G01X63681008Y71808688D01*
G01X63684056Y71811736D01*
G01X63693200Y71814784D01*
G01X63702598Y71814784D01*
G01X63711996Y71811736D01*
G01X63718092Y71805386D01*
G01X63721140Y71796242D01*
G01X63721140Y71789892D01*
G01X63718092Y71780748D01*
G01X63711996Y71774398D01*
G01X63702598Y71771350D01*
G01X63693200Y71771350D01*
G01X63684056Y71774398D01*
G01X63681008Y71777700D01*
G01X63677960Y71783796D01*
G01X63754414Y71820880D02*
G01X63754414Y71823928D01*
G01X63757462Y71830278D01*
G01X63760510Y71833326D01*
G01X63766606Y71836374D01*
G01X63779052Y71836374D01*
G01X63785402Y71833326D01*
G01X63788450Y71830278D01*
G01X63791498Y71823928D01*
G01X63791498Y71817832D01*
G01X63788450Y71811736D01*
G01X63782100Y71802338D01*
G01X63751366Y71771350D01*
G01X63794546Y71771350D01*
G01X65509300Y71836374D02*
G01X65509300Y71789892D01*
G01X65512348Y71780748D01*
G01X65518698Y71774398D01*
G01X65527842Y71771350D01*
G01X65534192Y71771350D01*
G01X65543336Y71774398D01*
G01X65549432Y71780748D01*
G01X65552734Y71789892D01*
G01X65552734Y71836374D01*
G01X65620044Y71836374D02*
G01X65589056Y71836374D01*
G01X65586008Y71808688D01*
G01X65589056Y71811736D01*
G01X65598200Y71814784D01*
G01X65607598Y71814784D01*
G01X65616996Y71811736D01*
G01X65623092Y71805386D01*
G01X65626140Y71796242D01*
G01X65626140Y71789892D01*
G01X65623092Y71780748D01*
G01X65616996Y71774398D01*
G01X65607598Y71771350D01*
G01X65598200Y71771350D01*
G01X65589056Y71774398D01*
G01X65586008Y71777700D01*
G01X65582960Y71783796D01*
G01X65662462Y71836374D02*
G01X65696498Y71836374D01*
G01X65677956Y71811736D01*
G01X65687100Y71811736D01*
G01X65693450Y71808688D01*
G01X65696498Y71805386D01*
G01X65699546Y71796242D01*
G01X65699546Y71789892D01*
G01X65696498Y71780748D01*
G01X65690402Y71774398D01*
G01X65681004Y71771350D01*
G01X65671606Y71771350D01*
G01X65662462Y71774398D01*
G01X65659414Y71777700D01*
G01X65656366Y71783796D01*
G01X67414300Y71836374D02*
G01X67414300Y71789892D01*
G01X67417348Y71780748D01*
G01X67423698Y71774398D01*
G01X67432842Y71771350D01*
G01X67439192Y71771350D01*
G01X67448336Y71774398D01*
G01X67454432Y71780748D01*
G01X67457734Y71789892D01*
G01X67457734Y71836374D01*
G01X67525044Y71836374D02*
G01X67494056Y71836374D01*
G01X67491008Y71808688D01*
G01X67494056Y71811736D01*
G01X67503200Y71814784D01*
G01X67512598Y71814784D01*
G01X67521996Y71811736D01*
G01X67528092Y71805386D01*
G01X67531140Y71796242D01*
G01X67531140Y71789892D01*
G01X67528092Y71780748D01*
G01X67521996Y71774398D01*
G01X67512598Y71771350D01*
G01X67503200Y71771350D01*
G01X67494056Y71774398D01*
G01X67491008Y71777700D01*
G01X67487960Y71783796D01*
G01X67592100Y71836374D02*
G01X67561366Y71793194D01*
G01X67607594Y71793194D01*
G01X67592100Y71836374D02*
G01X67592100Y71771350D01*
G01X69319300Y71836374D02*
G01X69319300Y71789892D01*
G01X69322348Y71780748D01*
G01X69328698Y71774398D01*
G01X69337842Y71771350D01*
G01X69344192Y71771350D01*
G01X69353336Y71774398D01*
G01X69359432Y71780748D01*
G01X69362734Y71789892D01*
G01X69362734Y71836374D01*
G01X69430044Y71836374D02*
G01X69399056Y71836374D01*
G01X69396008Y71808688D01*
G01X69399056Y71811736D01*
G01X69408200Y71814784D01*
G01X69417598Y71814784D01*
G01X69426996Y71811736D01*
G01X69433092Y71805386D01*
G01X69436140Y71796242D01*
G01X69436140Y71789892D01*
G01X69433092Y71780748D01*
G01X69426996Y71774398D01*
G01X69417598Y71771350D01*
G01X69408200Y71771350D01*
G01X69399056Y71774398D01*
G01X69396008Y71777700D01*
G01X69392960Y71783796D01*
G01X69503450Y71836374D02*
G01X69472462Y71836374D01*
G01X69469414Y71808688D01*
G01X69472462Y71811736D01*
G01X69481606Y71814784D01*
G01X69491004Y71814784D01*
G01X69500402Y71811736D01*
G01X69506498Y71805386D01*
G01X69509546Y71796242D01*
G01X69509546Y71789892D01*
G01X69506498Y71780748D01*
G01X69500402Y71774398D01*
G01X69491004Y71771350D01*
G01X69481606Y71771350D01*
G01X69472462Y71774398D01*
G01X69469414Y71777700D01*
G01X69466366Y71783796D01*
G01X71224300Y71836374D02*
G01X71224300Y71789892D01*
G01X71227348Y71780748D01*
G01X71233698Y71774398D01*
G01X71242842Y71771350D01*
G01X71249192Y71771350D01*
G01X71258336Y71774398D01*
G01X71264432Y71780748D01*
G01X71267734Y71789892D01*
G01X71267734Y71836374D01*
G01X71335044Y71836374D02*
G01X71304056Y71836374D01*
G01X71301008Y71808688D01*
G01X71304056Y71811736D01*
G01X71313200Y71814784D01*
G01X71322598Y71814784D01*
G01X71331996Y71811736D01*
G01X71338092Y71805386D01*
G01X71341140Y71796242D01*
G01X71341140Y71789892D01*
G01X71338092Y71780748D01*
G01X71331996Y71774398D01*
G01X71322598Y71771350D01*
G01X71313200Y71771350D01*
G01X71304056Y71774398D01*
G01X71301008Y71777700D01*
G01X71297960Y71783796D01*
G01X71408450Y71827230D02*
G01X71405402Y71833326D01*
G01X71396004Y71836374D01*
G01X71389908Y71836374D01*
G01X71380510Y71833326D01*
G01X71374414Y71823928D01*
G01X71371366Y71808688D01*
G01X71371366Y71793194D01*
G01X71374414Y71780748D01*
G01X71380510Y71774398D01*
G01X71389908Y71771350D01*
G01X71392956Y71771350D01*
G01X71402100Y71774398D01*
G01X71408450Y71780748D01*
G01X71411498Y71789892D01*
G01X71411498Y71793194D01*
G01X71408450Y71802338D01*
G01X71402100Y71808688D01*
G01X71392956Y71811736D01*
G01X71389908Y71811736D01*
G01X71380510Y71808688D01*
G01X71374414Y71802338D01*
G01X71371366Y71793194D01*
G01X74318020Y71836374D02*
G01X74318020Y71789892D01*
G01X74321068Y71780748D01*
G01X74327418Y71774398D01*
G01X74336562Y71771350D01*
G01X74342912Y71771350D01*
G01X74352056Y71774398D01*
G01X74358152Y71780748D01*
G01X74361454Y71789892D01*
G01X74361454Y71836374D01*
G01X74428764Y71836374D02*
G01X74397776Y71836374D01*
G01X74394728Y71808688D01*
G01X74397776Y71811736D01*
G01X74406920Y71814784D01*
G01X74416318Y71814784D01*
G01X74425716Y71811736D01*
G01X74431812Y71805386D01*
G01X74434860Y71796242D01*
G01X74434860Y71789892D01*
G01X74431812Y71780748D01*
G01X74425716Y71774398D01*
G01X74416318Y71771350D01*
G01X74406920Y71771350D01*
G01X74397776Y71774398D01*
G01X74394728Y71777700D01*
G01X74391680Y71783796D01*
G01X74508266Y71836374D02*
G01X74477278Y71771350D01*
G01X74465086Y71836374D02*
G01X74508266Y71836374D01*
G01X77894340Y71836374D02*
G01X77894340Y71789892D01*
G01X77897388Y71780748D01*
G01X77903738Y71774398D01*
G01X77912882Y71771350D01*
G01X77919232Y71771350D01*
G01X77928376Y71774398D01*
G01X77934472Y71780748D01*
G01X77937774Y71789892D01*
G01X77937774Y71836374D01*
G01X78005084Y71836374D02*
G01X77974096Y71836374D01*
G01X77971048Y71808688D01*
G01X77974096Y71811736D01*
G01X77983240Y71814784D01*
G01X77992638Y71814784D01*
G01X78002036Y71811736D01*
G01X78008132Y71805386D01*
G01X78011180Y71796242D01*
G01X78011180Y71789892D01*
G01X78008132Y71780748D01*
G01X78002036Y71774398D01*
G01X77992638Y71771350D01*
G01X77983240Y71771350D01*
G01X77974096Y71774398D01*
G01X77971048Y71777700D01*
G01X77968000Y71783796D01*
G01X78056646Y71836374D02*
G01X78047502Y71833326D01*
G01X78044454Y71827230D01*
G01X78044454Y71820880D01*
G01X78047502Y71814784D01*
G01X78053598Y71811736D01*
G01X78066044Y71808688D01*
G01X78075442Y71805386D01*
G01X78081538Y71799290D01*
G01X78084586Y71793194D01*
G01X78084586Y71783796D01*
G01X78081538Y71777700D01*
G01X78078490Y71774398D01*
G01X78069092Y71771350D01*
G01X78056646Y71771350D01*
G01X78047502Y71774398D01*
G01X78044454Y71777700D01*
G01X78041406Y71783796D01*
G01X78041406Y71793194D01*
G01X78044454Y71799290D01*
G01X78050550Y71805386D01*
G01X78059948Y71808688D01*
G01X78072140Y71811736D01*
G01X78078490Y71814784D01*
G01X78081538Y71820880D01*
G01X78081538Y71827230D01*
G01X78078490Y71833326D01*
G01X78069092Y71836374D01*
G01X78056646Y71836374D01*
G01X33142768Y43749166D02*
G01X33142768Y43702684D01*
G01X33145816Y43693540D01*
G01X33152166Y43687190D01*
G01X33161310Y43684142D01*
G01X33167660Y43684142D01*
G01X33176804Y43687190D01*
G01X33182900Y43693540D01*
G01X33186202Y43702684D01*
G01X33186202Y43749166D01*
G01X33253512Y43749166D02*
G01X33222524Y43749166D01*
G01X33219476Y43721480D01*
G01X33222524Y43724528D01*
G01X33231668Y43727576D01*
G01X33241066Y43727576D01*
G01X33250464Y43724528D01*
G01X33256560Y43718178D01*
G01X33259608Y43709034D01*
G01X33259608Y43702684D01*
G01X33256560Y43693540D01*
G01X33250464Y43687190D01*
G01X33241066Y43684142D01*
G01X33231668Y43684142D01*
G01X33222524Y43687190D01*
G01X33219476Y43690492D01*
G01X33216428Y43696588D01*
G01X33329966Y43727576D02*
G01X33326918Y43718178D01*
G01X33320568Y43712082D01*
G01X33311424Y43709034D01*
G01X33308376Y43709034D01*
G01X33298978Y43712082D01*
G01X33292882Y43718178D01*
G01X33289834Y43727576D01*
G01X33289834Y43730624D01*
G01X33292882Y43740022D01*
G01X33298978Y43746118D01*
G01X33308376Y43749166D01*
G01X33311424Y43749166D01*
G01X33320568Y43746118D01*
G01X33326918Y43740022D01*
G01X33329966Y43727576D01*
G01X33329966Y43712082D01*
G01X33326918Y43696588D01*
G01X33320568Y43687190D01*
G01X33311424Y43684142D01*
G01X33305074Y43684142D01*
G01X33295930Y43687190D01*
G01X33292882Y43693540D01*
G01X54226620Y71729694D02*
G01X54226620Y71683212D01*
G01X54229668Y71674068D01*
G01X54236018Y71667718D01*
G01X54245162Y71664670D01*
G01X54251512Y71664670D01*
G01X54260656Y71667718D01*
G01X54266752Y71674068D01*
G01X54270054Y71683212D01*
G01X54270054Y71729694D01*
G01X54337364Y71720550D02*
G01X54334316Y71726646D01*
G01X54324918Y71729694D01*
G01X54318822Y71729694D01*
G01X54309424Y71726646D01*
G01X54303328Y71717248D01*
G01X54300280Y71702008D01*
G01X54300280Y71686514D01*
G01X54303328Y71674068D01*
G01X54309424Y71667718D01*
G01X54318822Y71664670D01*
G01X54321870Y71664670D01*
G01X54331014Y71667718D01*
G01X54337364Y71674068D01*
G01X54340412Y71683212D01*
G01X54340412Y71686514D01*
G01X54337364Y71695658D01*
G01X54331014Y71702008D01*
G01X54321870Y71705056D01*
G01X54318822Y71705056D01*
G01X54309424Y71702008D01*
G01X54303328Y71695658D01*
G01X54300280Y71686514D01*
G01X54389180Y71729694D02*
G01X54379782Y71726646D01*
G01X54373686Y71717248D01*
G01X54370638Y71702008D01*
G01X54370638Y71692610D01*
G01X54373686Y71677116D01*
G01X54379782Y71667718D01*
G01X54389180Y71664670D01*
G01X54395276Y71664670D01*
G01X54404674Y71667718D01*
G01X54410770Y71677116D01*
G01X54413818Y71692610D01*
G01X54413818Y71702008D01*
G01X54410770Y71717248D01*
G01X54404674Y71726646D01*
G01X54395276Y71729694D01*
G01X54389180Y71729694D01*
G01X56131620Y71729694D02*
G01X56131620Y71683212D01*
G01X56134668Y71674068D01*
G01X56141018Y71667718D01*
G01X56150162Y71664670D01*
G01X56156512Y71664670D01*
G01X56165656Y71667718D01*
G01X56171752Y71674068D01*
G01X56175054Y71683212D01*
G01X56175054Y71729694D01*
G01X56242364Y71720550D02*
G01X56239316Y71726646D01*
G01X56229918Y71729694D01*
G01X56223822Y71729694D01*
G01X56214424Y71726646D01*
G01X56208328Y71717248D01*
G01X56205280Y71702008D01*
G01X56205280Y71686514D01*
G01X56208328Y71674068D01*
G01X56214424Y71667718D01*
G01X56223822Y71664670D01*
G01X56226870Y71664670D01*
G01X56236014Y71667718D01*
G01X56242364Y71674068D01*
G01X56245412Y71683212D01*
G01X56245412Y71686514D01*
G01X56242364Y71695658D01*
G01X56236014Y71702008D01*
G01X56226870Y71705056D01*
G01X56223822Y71705056D01*
G01X56214424Y71702008D01*
G01X56208328Y71695658D01*
G01X56205280Y71686514D01*
G01X56275638Y71717248D02*
G01X56281734Y71720550D01*
G01X56290878Y71729694D01*
G01X56290878Y71664670D01*
G01X58036620Y71729694D02*
G01X58036620Y71683212D01*
G01X58039668Y71674068D01*
G01X58046018Y71667718D01*
G01X58055162Y71664670D01*
G01X58061512Y71664670D01*
G01X58070656Y71667718D01*
G01X58076752Y71674068D01*
G01X58080054Y71683212D01*
G01X58080054Y71729694D01*
G01X58147364Y71720550D02*
G01X58144316Y71726646D01*
G01X58134918Y71729694D01*
G01X58128822Y71729694D01*
G01X58119424Y71726646D01*
G01X58113328Y71717248D01*
G01X58110280Y71702008D01*
G01X58110280Y71686514D01*
G01X58113328Y71674068D01*
G01X58119424Y71667718D01*
G01X58128822Y71664670D01*
G01X58131870Y71664670D01*
G01X58141014Y71667718D01*
G01X58147364Y71674068D01*
G01X58150412Y71683212D01*
G01X58150412Y71686514D01*
G01X58147364Y71695658D01*
G01X58141014Y71702008D01*
G01X58131870Y71705056D01*
G01X58128822Y71705056D01*
G01X58119424Y71702008D01*
G01X58113328Y71695658D01*
G01X58110280Y71686514D01*
G01X58183686Y71714200D02*
G01X58183686Y71717248D01*
G01X58186734Y71723598D01*
G01X58189782Y71726646D01*
G01X58195878Y71729694D01*
G01X58208324Y71729694D01*
G01X58214674Y71726646D01*
G01X58217722Y71723598D01*
G01X58220770Y71717248D01*
G01X58220770Y71711152D01*
G01X58217722Y71705056D01*
G01X58211372Y71695658D01*
G01X58180638Y71664670D01*
G01X58223818Y71664670D01*
G01X59941620Y71729694D02*
G01X59941620Y71683212D01*
G01X59944668Y71674068D01*
G01X59951018Y71667718D01*
G01X59960162Y71664670D01*
G01X59966512Y71664670D01*
G01X59975656Y71667718D01*
G01X59981752Y71674068D01*
G01X59985054Y71683212D01*
G01X59985054Y71729694D01*
G01X60052364Y71720550D02*
G01X60049316Y71726646D01*
G01X60039918Y71729694D01*
G01X60033822Y71729694D01*
G01X60024424Y71726646D01*
G01X60018328Y71717248D01*
G01X60015280Y71702008D01*
G01X60015280Y71686514D01*
G01X60018328Y71674068D01*
G01X60024424Y71667718D01*
G01X60033822Y71664670D01*
G01X60036870Y71664670D01*
G01X60046014Y71667718D01*
G01X60052364Y71674068D01*
G01X60055412Y71683212D01*
G01X60055412Y71686514D01*
G01X60052364Y71695658D01*
G01X60046014Y71702008D01*
G01X60036870Y71705056D01*
G01X60033822Y71705056D01*
G01X60024424Y71702008D01*
G01X60018328Y71695658D01*
G01X60015280Y71686514D01*
G01X60091734Y71729694D02*
G01X60125770Y71729694D01*
G01X60107228Y71705056D01*
G01X60116372Y71705056D01*
G01X60122722Y71702008D01*
G01X60125770Y71698706D01*
G01X60128818Y71689562D01*
G01X60128818Y71683212D01*
G01X60125770Y71674068D01*
G01X60119674Y71667718D01*
G01X60110276Y71664670D01*
G01X60100878Y71664670D01*
G01X60091734Y71667718D01*
G01X60088686Y71671020D01*
G01X60085638Y71677116D01*
G01X61846620Y71729694D02*
G01X61846620Y71683212D01*
G01X61849668Y71674068D01*
G01X61856018Y71667718D01*
G01X61865162Y71664670D01*
G01X61871512Y71664670D01*
G01X61880656Y71667718D01*
G01X61886752Y71674068D01*
G01X61890054Y71683212D01*
G01X61890054Y71729694D01*
G01X61957364Y71720550D02*
G01X61954316Y71726646D01*
G01X61944918Y71729694D01*
G01X61938822Y71729694D01*
G01X61929424Y71726646D01*
G01X61923328Y71717248D01*
G01X61920280Y71702008D01*
G01X61920280Y71686514D01*
G01X61923328Y71674068D01*
G01X61929424Y71667718D01*
G01X61938822Y71664670D01*
G01X61941870Y71664670D01*
G01X61951014Y71667718D01*
G01X61957364Y71674068D01*
G01X61960412Y71683212D01*
G01X61960412Y71686514D01*
G01X61957364Y71695658D01*
G01X61951014Y71702008D01*
G01X61941870Y71705056D01*
G01X61938822Y71705056D01*
G01X61929424Y71702008D01*
G01X61923328Y71695658D01*
G01X61920280Y71686514D01*
G01X62021372Y71729694D02*
G01X61990638Y71686514D01*
G01X62036866Y71686514D01*
G01X62021372Y71729694D02*
G01X62021372Y71664670D01*
G01X63751620Y71729694D02*
G01X63751620Y71683212D01*
G01X63754668Y71674068D01*
G01X63761018Y71667718D01*
G01X63770162Y71664670D01*
G01X63776512Y71664670D01*
G01X63785656Y71667718D01*
G01X63791752Y71674068D01*
G01X63795054Y71683212D01*
G01X63795054Y71729694D01*
G01X63862364Y71720550D02*
G01X63859316Y71726646D01*
G01X63849918Y71729694D01*
G01X63843822Y71729694D01*
G01X63834424Y71726646D01*
G01X63828328Y71717248D01*
G01X63825280Y71702008D01*
G01X63825280Y71686514D01*
G01X63828328Y71674068D01*
G01X63834424Y71667718D01*
G01X63843822Y71664670D01*
G01X63846870Y71664670D01*
G01X63856014Y71667718D01*
G01X63862364Y71674068D01*
G01X63865412Y71683212D01*
G01X63865412Y71686514D01*
G01X63862364Y71695658D01*
G01X63856014Y71702008D01*
G01X63846870Y71705056D01*
G01X63843822Y71705056D01*
G01X63834424Y71702008D01*
G01X63828328Y71695658D01*
G01X63825280Y71686514D01*
G01X63932722Y71729694D02*
G01X63901734Y71729694D01*
G01X63898686Y71702008D01*
G01X63901734Y71705056D01*
G01X63910878Y71708104D01*
G01X63920276Y71708104D01*
G01X63929674Y71705056D01*
G01X63935770Y71698706D01*
G01X63938818Y71689562D01*
G01X63938818Y71683212D01*
G01X63935770Y71674068D01*
G01X63929674Y71667718D01*
G01X63920276Y71664670D01*
G01X63910878Y71664670D01*
G01X63901734Y71667718D01*
G01X63898686Y71671020D01*
G01X63895638Y71677116D01*
G01X65656620Y71729694D02*
G01X65656620Y71683212D01*
G01X65659668Y71674068D01*
G01X65666018Y71667718D01*
G01X65675162Y71664670D01*
G01X65681512Y71664670D01*
G01X65690656Y71667718D01*
G01X65696752Y71674068D01*
G01X65700054Y71683212D01*
G01X65700054Y71729694D01*
G01X65767364Y71720550D02*
G01X65764316Y71726646D01*
G01X65754918Y71729694D01*
G01X65748822Y71729694D01*
G01X65739424Y71726646D01*
G01X65733328Y71717248D01*
G01X65730280Y71702008D01*
G01X65730280Y71686514D01*
G01X65733328Y71674068D01*
G01X65739424Y71667718D01*
G01X65748822Y71664670D01*
G01X65751870Y71664670D01*
G01X65761014Y71667718D01*
G01X65767364Y71674068D01*
G01X65770412Y71683212D01*
G01X65770412Y71686514D01*
G01X65767364Y71695658D01*
G01X65761014Y71702008D01*
G01X65751870Y71705056D01*
G01X65748822Y71705056D01*
G01X65739424Y71702008D01*
G01X65733328Y71695658D01*
G01X65730280Y71686514D01*
G01X65837722Y71720550D02*
G01X65834674Y71726646D01*
G01X65825276Y71729694D01*
G01X65819180Y71729694D01*
G01X65809782Y71726646D01*
G01X65803686Y71717248D01*
G01X65800638Y71702008D01*
G01X65800638Y71686514D01*
G01X65803686Y71674068D01*
G01X65809782Y71667718D01*
G01X65819180Y71664670D01*
G01X65822228Y71664670D01*
G01X65831372Y71667718D01*
G01X65837722Y71674068D01*
G01X65840770Y71683212D01*
G01X65840770Y71686514D01*
G01X65837722Y71695658D01*
G01X65831372Y71702008D01*
G01X65822228Y71705056D01*
G01X65819180Y71705056D01*
G01X65809782Y71702008D01*
G01X65803686Y71695658D01*
G01X65800638Y71686514D01*
G01X67561620Y71729694D02*
G01X67561620Y71683212D01*
G01X67564668Y71674068D01*
G01X67571018Y71667718D01*
G01X67580162Y71664670D01*
G01X67586512Y71664670D01*
G01X67595656Y71667718D01*
G01X67601752Y71674068D01*
G01X67605054Y71683212D01*
G01X67605054Y71729694D01*
G01X67672364Y71720550D02*
G01X67669316Y71726646D01*
G01X67659918Y71729694D01*
G01X67653822Y71729694D01*
G01X67644424Y71726646D01*
G01X67638328Y71717248D01*
G01X67635280Y71702008D01*
G01X67635280Y71686514D01*
G01X67638328Y71674068D01*
G01X67644424Y71667718D01*
G01X67653822Y71664670D01*
G01X67656870Y71664670D01*
G01X67666014Y71667718D01*
G01X67672364Y71674068D01*
G01X67675412Y71683212D01*
G01X67675412Y71686514D01*
G01X67672364Y71695658D01*
G01X67666014Y71702008D01*
G01X67656870Y71705056D01*
G01X67653822Y71705056D01*
G01X67644424Y71702008D01*
G01X67638328Y71695658D01*
G01X67635280Y71686514D01*
G01X67748818Y71729694D02*
G01X67717830Y71664670D01*
G01X67705638Y71729694D02*
G01X67748818Y71729694D01*
G01X69466620Y71729694D02*
G01X69466620Y71683212D01*
G01X69469668Y71674068D01*
G01X69476018Y71667718D01*
G01X69485162Y71664670D01*
G01X69491512Y71664670D01*
G01X69500656Y71667718D01*
G01X69506752Y71674068D01*
G01X69510054Y71683212D01*
G01X69510054Y71729694D01*
G01X69577364Y71720550D02*
G01X69574316Y71726646D01*
G01X69564918Y71729694D01*
G01X69558822Y71729694D01*
G01X69549424Y71726646D01*
G01X69543328Y71717248D01*
G01X69540280Y71702008D01*
G01X69540280Y71686514D01*
G01X69543328Y71674068D01*
G01X69549424Y71667718D01*
G01X69558822Y71664670D01*
G01X69561870Y71664670D01*
G01X69571014Y71667718D01*
G01X69577364Y71674068D01*
G01X69580412Y71683212D01*
G01X69580412Y71686514D01*
G01X69577364Y71695658D01*
G01X69571014Y71702008D01*
G01X69561870Y71705056D01*
G01X69558822Y71705056D01*
G01X69549424Y71702008D01*
G01X69543328Y71695658D01*
G01X69540280Y71686514D01*
G01X69625878Y71729694D02*
G01X69616734Y71726646D01*
G01X69613686Y71720550D01*
G01X69613686Y71714200D01*
G01X69616734Y71708104D01*
G01X69622830Y71705056D01*
G01X69635276Y71702008D01*
G01X69644674Y71698706D01*
G01X69650770Y71692610D01*
G01X69653818Y71686514D01*
G01X69653818Y71677116D01*
G01X69650770Y71671020D01*
G01X69647722Y71667718D01*
G01X69638324Y71664670D01*
G01X69625878Y71664670D01*
G01X69616734Y71667718D01*
G01X69613686Y71671020D01*
G01X69610638Y71677116D01*
G01X69610638Y71686514D01*
G01X69613686Y71692610D01*
G01X69619782Y71698706D01*
G01X69629180Y71702008D01*
G01X69641372Y71705056D01*
G01X69647722Y71708104D01*
G01X69650770Y71714200D01*
G01X69650770Y71720550D01*
G01X69647722Y71726646D01*
G01X69638324Y71729694D01*
G01X69625878Y71729694D01*
G01X71371620Y71729694D02*
G01X71371620Y71683212D01*
G01X71374668Y71674068D01*
G01X71381018Y71667718D01*
G01X71390162Y71664670D01*
G01X71396512Y71664670D01*
G01X71405656Y71667718D01*
G01X71411752Y71674068D01*
G01X71415054Y71683212D01*
G01X71415054Y71729694D01*
G01X71482364Y71720550D02*
G01X71479316Y71726646D01*
G01X71469918Y71729694D01*
G01X71463822Y71729694D01*
G01X71454424Y71726646D01*
G01X71448328Y71717248D01*
G01X71445280Y71702008D01*
G01X71445280Y71686514D01*
G01X71448328Y71674068D01*
G01X71454424Y71667718D01*
G01X71463822Y71664670D01*
G01X71466870Y71664670D01*
G01X71476014Y71667718D01*
G01X71482364Y71674068D01*
G01X71485412Y71683212D01*
G01X71485412Y71686514D01*
G01X71482364Y71695658D01*
G01X71476014Y71702008D01*
G01X71466870Y71705056D01*
G01X71463822Y71705056D01*
G01X71454424Y71702008D01*
G01X71448328Y71695658D01*
G01X71445280Y71686514D01*
G01X71555770Y71708104D02*
G01X71552722Y71698706D01*
G01X71546372Y71692610D01*
G01X71537228Y71689562D01*
G01X71534180Y71689562D01*
G01X71524782Y71692610D01*
G01X71518686Y71698706D01*
G01X71515638Y71708104D01*
G01X71515638Y71711152D01*
G01X71518686Y71720550D01*
G01X71524782Y71726646D01*
G01X71534180Y71729694D01*
G01X71537228Y71729694D01*
G01X71546372Y71726646D01*
G01X71552722Y71720550D01*
G01X71555770Y71708104D01*
G01X71555770Y71692610D01*
G01X71552722Y71677116D01*
G01X71546372Y71667718D01*
G01X71537228Y71664670D01*
G01X71530878Y71664670D01*
G01X71521734Y71667718D01*
G01X71518686Y71674068D01*
G01X74226580Y71729694D02*
G01X74226580Y71683212D01*
G01X74229628Y71674068D01*
G01X74235978Y71667718D01*
G01X74245122Y71664670D01*
G01X74251472Y71664670D01*
G01X74260616Y71667718D01*
G01X74266712Y71674068D01*
G01X74270014Y71683212D01*
G01X74270014Y71729694D01*
G01X74343420Y71729694D02*
G01X74312432Y71664670D01*
G01X74300240Y71729694D02*
G01X74343420Y71729694D01*
G01X74392188Y71729694D02*
G01X74382790Y71726646D01*
G01X74376694Y71717248D01*
G01X74373646Y71702008D01*
G01X74373646Y71692610D01*
G01X74376694Y71677116D01*
G01X74382790Y71667718D01*
G01X74392188Y71664670D01*
G01X74398284Y71664670D01*
G01X74407682Y71667718D01*
G01X74413778Y71677116D01*
G01X74416826Y71692610D01*
G01X74416826Y71702008D01*
G01X74413778Y71717248D01*
G01X74407682Y71726646D01*
G01X74398284Y71729694D01*
G01X74392188Y71729694D01*
G01X77086620Y71729694D02*
G01X77086620Y71683212D01*
G01X77089668Y71674068D01*
G01X77096018Y71667718D01*
G01X77105162Y71664670D01*
G01X77111512Y71664670D01*
G01X77120656Y71667718D01*
G01X77126752Y71674068D01*
G01X77130054Y71683212D01*
G01X77130054Y71729694D01*
G01X77203460Y71729694D02*
G01X77172472Y71664670D01*
G01X77160280Y71729694D02*
G01X77203460Y71729694D01*
G01X77233686Y71717248D02*
G01X77239782Y71720550D01*
G01X77248926Y71729694D01*
G01X77248926Y71664670D01*
G01X32189580Y41844054D02*
G01X32189580Y41797572D01*
G01X32192628Y41788428D01*
G01X32198978Y41782078D01*
G01X32208122Y41779030D01*
G01X32214472Y41779030D01*
G01X32223616Y41782078D01*
G01X32229712Y41788428D01*
G01X32233014Y41797572D01*
G01X32233014Y41844054D01*
G01X32306420Y41844054D02*
G01X32275432Y41779030D01*
G01X32263240Y41844054D02*
G01X32306420Y41844054D01*
G01X32339694Y41828560D02*
G01X32339694Y41831608D01*
G01X32342742Y41837958D01*
G01X32345790Y41841006D01*
G01X32351886Y41844054D01*
G01X32364332Y41844054D01*
G01X32370682Y41841006D01*
G01X32373730Y41837958D01*
G01X32376778Y41831608D01*
G01X32376778Y41825512D01*
G01X32373730Y41819416D01*
G01X32367380Y41810018D01*
G01X32336646Y41779030D01*
G01X32379826Y41779030D01*
G01X34567020Y41844054D02*
G01X34567020Y41797572D01*
G01X34570068Y41788428D01*
G01X34576418Y41782078D01*
G01X34585562Y41779030D01*
G01X34591912Y41779030D01*
G01X34601056Y41782078D01*
G01X34607152Y41788428D01*
G01X34610454Y41797572D01*
G01X34610454Y41844054D01*
G01X34683860Y41844054D02*
G01X34652872Y41779030D01*
G01X34640680Y41844054D02*
G01X34683860Y41844054D01*
G01X34720182Y41844054D02*
G01X34754218Y41844054D01*
G01X34735676Y41819416D01*
G01X34744820Y41819416D01*
G01X34751170Y41816368D01*
G01X34754218Y41813066D01*
G01X34757266Y41803922D01*
G01X34757266Y41797572D01*
G01X34754218Y41788428D01*
G01X34748122Y41782078D01*
G01X34738724Y41779030D01*
G01X34729326Y41779030D01*
G01X34720182Y41782078D01*
G01X34717134Y41785380D01*
G01X34714086Y41791476D01*
G01X36949540Y41844054D02*
G01X36949540Y41797572D01*
G01X36952588Y41788428D01*
G01X36958938Y41782078D01*
G01X36968082Y41779030D01*
G01X36974432Y41779030D01*
G01X36983576Y41782078D01*
G01X36989672Y41788428D01*
G01X36992974Y41797572D01*
G01X36992974Y41844054D01*
G01X37066380Y41844054D02*
G01X37035392Y41779030D01*
G01X37023200Y41844054D02*
G01X37066380Y41844054D01*
G01X37127340Y41844054D02*
G01X37096606Y41800874D01*
G01X37142834Y41800874D01*
G01X37127340Y41844054D02*
G01X37127340Y41779030D01*
G01X44130120Y41849134D02*
G01X44130120Y41802652D01*
G01X44133168Y41793508D01*
G01X44139518Y41787158D01*
G01X44148662Y41784110D01*
G01X44155012Y41784110D01*
G01X44164156Y41787158D01*
G01X44170252Y41793508D01*
G01X44173554Y41802652D01*
G01X44173554Y41849134D01*
G01X44246960Y41849134D02*
G01X44215972Y41784110D01*
G01X44203780Y41849134D02*
G01X44246960Y41849134D01*
G01X44314270Y41849134D02*
G01X44283282Y41849134D01*
G01X44280234Y41821448D01*
G01X44283282Y41824496D01*
G01X44292426Y41827544D01*
G01X44301824Y41827544D01*
G01X44311222Y41824496D01*
G01X44317318Y41818146D01*
G01X44320366Y41809002D01*
G01X44320366Y41802652D01*
G01X44317318Y41793508D01*
G01X44311222Y41787158D01*
G01X44301824Y41784110D01*
G01X44292426Y41784110D01*
G01X44283282Y41787158D01*
G01X44280234Y41790460D01*
G01X44277186Y41796556D01*
G01X51000820Y41844054D02*
G01X51000820Y41797572D01*
G01X51003868Y41788428D01*
G01X51010218Y41782078D01*
G01X51019362Y41779030D01*
G01X51025712Y41779030D01*
G01X51034856Y41782078D01*
G01X51040952Y41788428D01*
G01X51044254Y41797572D01*
G01X51044254Y41844054D01*
G01X51117660Y41844054D02*
G01X51086672Y41779030D01*
G01X51074480Y41844054D02*
G01X51117660Y41844054D01*
G01X51184970Y41834910D02*
G01X51181922Y41841006D01*
G01X51172524Y41844054D01*
G01X51166428Y41844054D01*
G01X51157030Y41841006D01*
G01X51150934Y41831608D01*
G01X51147886Y41816368D01*
G01X51147886Y41800874D01*
G01X51150934Y41788428D01*
G01X51157030Y41782078D01*
G01X51166428Y41779030D01*
G01X51169476Y41779030D01*
G01X51178620Y41782078D01*
G01X51184970Y41788428D01*
G01X51188018Y41797572D01*
G01X51188018Y41800874D01*
G01X51184970Y41810018D01*
G01X51178620Y41816368D01*
G01X51169476Y41819416D01*
G01X51166428Y41819416D01*
G01X51157030Y41816368D01*
G01X51150934Y41810018D01*
G01X51147886Y41800874D01*
G01X55288340Y41844054D02*
G01X55288340Y41797572D01*
G01X55291388Y41788428D01*
G01X55297738Y41782078D01*
G01X55306882Y41779030D01*
G01X55313232Y41779030D01*
G01X55322376Y41782078D01*
G01X55328472Y41788428D01*
G01X55331774Y41797572D01*
G01X55331774Y41844054D01*
G01X55405180Y41844054D02*
G01X55374192Y41779030D01*
G01X55362000Y41844054D02*
G01X55405180Y41844054D01*
G01X55478586Y41844054D02*
G01X55447598Y41779030D01*
G01X55435406Y41844054D02*
G01X55478586Y41844054D01*
G01X57193340Y41844054D02*
G01X57193340Y41797572D01*
G01X57196388Y41788428D01*
G01X57202738Y41782078D01*
G01X57211882Y41779030D01*
G01X57218232Y41779030D01*
G01X57227376Y41782078D01*
G01X57233472Y41788428D01*
G01X57236774Y41797572D01*
G01X57236774Y41844054D01*
G01X57310180Y41844054D02*
G01X57279192Y41779030D01*
G01X57267000Y41844054D02*
G01X57310180Y41844054D01*
G01X57355646Y41844054D02*
G01X57346502Y41841006D01*
G01X57343454Y41834910D01*
G01X57343454Y41828560D01*
G01X57346502Y41822464D01*
G01X57352598Y41819416D01*
G01X57365044Y41816368D01*
G01X57374442Y41813066D01*
G01X57380538Y41806970D01*
G01X57383586Y41800874D01*
G01X57383586Y41791476D01*
G01X57380538Y41785380D01*
G01X57377490Y41782078D01*
G01X57368092Y41779030D01*
G01X57355646Y41779030D01*
G01X57346502Y41782078D01*
G01X57343454Y41785380D01*
G01X57340406Y41791476D01*
G01X57340406Y41800874D01*
G01X57343454Y41806970D01*
G01X57349550Y41813066D01*
G01X57358948Y41816368D01*
G01X57371140Y41819416D01*
G01X57377490Y41822464D01*
G01X57380538Y41828560D01*
G01X57380538Y41834910D01*
G01X57377490Y41841006D01*
G01X57368092Y41844054D01*
G01X57355646Y41844054D01*
G01X59098340Y41844054D02*
G01X59098340Y41797572D01*
G01X59101388Y41788428D01*
G01X59107738Y41782078D01*
G01X59116882Y41779030D01*
G01X59123232Y41779030D01*
G01X59132376Y41782078D01*
G01X59138472Y41788428D01*
G01X59141774Y41797572D01*
G01X59141774Y41844054D01*
G01X59215180Y41844054D02*
G01X59184192Y41779030D01*
G01X59172000Y41844054D02*
G01X59215180Y41844054D01*
G01X59285538Y41822464D02*
G01X59282490Y41813066D01*
G01X59276140Y41806970D01*
G01X59266996Y41803922D01*
G01X59263948Y41803922D01*
G01X59254550Y41806970D01*
G01X59248454Y41813066D01*
G01X59245406Y41822464D01*
G01X59245406Y41825512D01*
G01X59248454Y41834910D01*
G01X59254550Y41841006D01*
G01X59263948Y41844054D01*
G01X59266996Y41844054D01*
G01X59276140Y41841006D01*
G01X59282490Y41834910D01*
G01X59285538Y41822464D01*
G01X59285538Y41806970D01*
G01X59282490Y41791476D01*
G01X59276140Y41782078D01*
G01X59266996Y41779030D01*
G01X59260646Y41779030D01*
G01X59251502Y41782078D01*
G01X59248454Y41788428D01*
G01X61003340Y41844054D02*
G01X61003340Y41797572D01*
G01X61006388Y41788428D01*
G01X61012738Y41782078D01*
G01X61021882Y41779030D01*
G01X61028232Y41779030D01*
G01X61037376Y41782078D01*
G01X61043472Y41788428D01*
G01X61046774Y41797572D01*
G01X61046774Y41844054D01*
G01X61092240Y41844054D02*
G01X61083096Y41841006D01*
G01X61080048Y41834910D01*
G01X61080048Y41828560D01*
G01X61083096Y41822464D01*
G01X61089192Y41819416D01*
G01X61101638Y41816368D01*
G01X61111036Y41813066D01*
G01X61117132Y41806970D01*
G01X61120180Y41800874D01*
G01X61120180Y41791476D01*
G01X61117132Y41785380D01*
G01X61114084Y41782078D01*
G01X61104686Y41779030D01*
G01X61092240Y41779030D01*
G01X61083096Y41782078D01*
G01X61080048Y41785380D01*
G01X61077000Y41791476D01*
G01X61077000Y41800874D01*
G01X61080048Y41806970D01*
G01X61086144Y41813066D01*
G01X61095542Y41816368D01*
G01X61107734Y41819416D01*
G01X61114084Y41822464D01*
G01X61117132Y41828560D01*
G01X61117132Y41834910D01*
G01X61114084Y41841006D01*
G01X61104686Y41844054D01*
G01X61092240Y41844054D01*
G01X61168948Y41844054D02*
G01X61159550Y41841006D01*
G01X61153454Y41831608D01*
G01X61150406Y41816368D01*
G01X61150406Y41806970D01*
G01X61153454Y41791476D01*
G01X61159550Y41782078D01*
G01X61168948Y41779030D01*
G01X61175044Y41779030D01*
G01X61184442Y41782078D01*
G01X61190538Y41791476D01*
G01X61193586Y41806970D01*
G01X61193586Y41816368D01*
G01X61190538Y41831608D01*
G01X61184442Y41841006D01*
G01X61175044Y41844054D01*
G01X61168948Y41844054D01*
G01X60125720Y42536554D02*
G01X60125720Y42490072D01*
G01X60128768Y42480928D01*
G01X60135118Y42474578D01*
G01X60144262Y42471530D01*
G01X60150612Y42471530D01*
G01X60159756Y42474578D01*
G01X60165852Y42480928D01*
G01X60169154Y42490072D01*
G01X60169154Y42536554D01*
G01X60214620Y42536554D02*
G01X60205476Y42533506D01*
G01X60202428Y42527410D01*
G01X60202428Y42521060D01*
G01X60205476Y42514964D01*
G01X60211572Y42511916D01*
G01X60224018Y42508868D01*
G01X60233416Y42505566D01*
G01X60239512Y42499470D01*
G01X60242560Y42493374D01*
G01X60242560Y42483976D01*
G01X60239512Y42477880D01*
G01X60236464Y42474578D01*
G01X60227066Y42471530D01*
G01X60214620Y42471530D01*
G01X60205476Y42474578D01*
G01X60202428Y42477880D01*
G01X60199380Y42483976D01*
G01X60199380Y42493374D01*
G01X60202428Y42499470D01*
G01X60208524Y42505566D01*
G01X60217922Y42508868D01*
G01X60230114Y42511916D01*
G01X60236464Y42514964D01*
G01X60239512Y42521060D01*
G01X60239512Y42527410D01*
G01X60236464Y42533506D01*
G01X60227066Y42536554D01*
G01X60214620Y42536554D01*
G01X60272786Y42524108D02*
G01X60278882Y42527410D01*
G01X60288026Y42536554D01*
G01X60288026Y42471530D01*
G01X52266960Y40631554D02*
G01X52266960Y40585072D01*
G01X52270008Y40575928D01*
G01X52276358Y40569578D01*
G01X52285502Y40566530D01*
G01X52291852Y40566530D01*
G01X52300996Y40569578D01*
G01X52307092Y40575928D01*
G01X52310394Y40585072D01*
G01X52310394Y40631554D01*
G01X52355860Y40631554D02*
G01X52346716Y40628506D01*
G01X52343668Y40622410D01*
G01X52343668Y40616060D01*
G01X52346716Y40609964D01*
G01X52352812Y40606916D01*
G01X52365258Y40603868D01*
G01X52374656Y40600566D01*
G01X52380752Y40594470D01*
G01X52383800Y40588374D01*
G01X52383800Y40578976D01*
G01X52380752Y40572880D01*
G01X52377704Y40569578D01*
G01X52368306Y40566530D01*
G01X52355860Y40566530D01*
G01X52346716Y40569578D01*
G01X52343668Y40572880D01*
G01X52340620Y40578976D01*
G01X52340620Y40588374D01*
G01X52343668Y40594470D01*
G01X52349764Y40600566D01*
G01X52359162Y40603868D01*
G01X52371354Y40606916D01*
G01X52377704Y40609964D01*
G01X52380752Y40616060D01*
G01X52380752Y40622410D01*
G01X52377704Y40628506D01*
G01X52368306Y40631554D01*
G01X52355860Y40631554D01*
G01X52417074Y40616060D02*
G01X52417074Y40619108D01*
G01X52420122Y40625458D01*
G01X52423170Y40628506D01*
G01X52429266Y40631554D01*
G01X52441712Y40631554D01*
G01X52448062Y40628506D01*
G01X52451110Y40625458D01*
G01X52454158Y40619108D01*
G01X52454158Y40613012D01*
G01X52451110Y40606916D01*
G01X52444760Y40597518D01*
G01X52414026Y40566530D01*
G01X52457206Y40566530D01*
G04 Text End*

M02*

