G04 Layer: BottomPasteMaskLayer*
G04 EasyEDA Pro v2.2.43.4, 2026-09-22 16:51:30*
G04 Gerber Generator version 0.3*
G04 Scale: 100 percent, Rotated: No, Reflected: No*
G04 Dimensions in millimeters*
G04 Leading zeros omitted, absolute positions, 4 integers and 5 decimals*
G04 Generated by one-click*
%FSLAX45Y45*%
%MOMM*%
%AMPolygonMacro1*4,1,4,-0.67,0.41,0.67,0.41,0.67,-0.41,-0.67,-0.41,-0.67,0.41,0*%
%AMPolygonMacro2*4,1,4,0.67,-0.41,-0.67,-0.41,-0.67,0.41,0.67,0.41,0.67,-0.41,0*%
%AMPolygonMacro3*4,1,4,-0.67,0.41,0.67,0.41,0.67,-0.41,-0.67,-0.41,-0.67,0.41,0*%
%AMPolygonMacro4*4,1,4,-0.67,0.41,0.67,0.41,0.67,-0.41,-0.67,-0.41,-0.67,0.41,0*%
%AMPolygonMacro5*4,1,4,0.67,-0.41,-0.67,-0.41,-0.67,0.41,0.67,0.41,0.67,-0.41,0*%
%AMPolygonMacro6*4,1,4,0.67,-0.41,-0.67,-0.41,-0.67,0.41,0.67,0.41,0.67,-0.41,0*%
%AMPolygonMacro7*4,1,4,-0.67,0.41,0.67,0.41,0.67,-0.41,-0.67,-0.41,-0.67,0.41,0*%
%AMPolygonMacro8*4,1,4,0.67,-0.41,-0.67,-0.41,-0.67,0.41,0.67,0.41,0.67,-0.41,0*%
%AMPolygonMacro9*4,1,4,-0.67,0.41,0.67,0.41,0.67,-0.41,-0.67,-0.41,-0.67,0.41,0*%
%AMPolygonMacro10*4,1,4,0.67,-0.41,-0.67,-0.41,-0.67,0.41,0.67,0.41,0.67,-0.41,0*%
%AMPolygonMacro11*4,1,4,0.67,-0.41,-0.67,-0.41,-0.67,0.41,0.67,0.41,0.67,-0.41,0*%
%AMPolygonMacro12*4,1,4,-0.67,0.41,0.67,0.41,0.67,-0.41,-0.67,-0.41,-0.67,0.41,0*%
%AMPolygonMacro13*4,1,4,-0.67,0.41,0.67,0.41,0.67,-0.41,-0.67,-0.41,-0.67,0.41,0*%
%AMPolygonMacro14*4,1,4,-0.67,0.41,0.67,0.41,0.67,-0.41,-0.67,-0.41,-0.67,0.41,0*%
%AMPolygonMacro15*4,1,4,0.67,-0.41,-0.67,-0.41,-0.67,0.41,0.67,0.41,0.67,-0.41,0*%
%ADD10R,0.95999X0.88001*%
%ADD11R,2.0X1.7*%
%ADD12R,0.3X1.5*%
%ADD13R,1.5X1.9*%
%ADD14O,1.5X0.3*%
%ADD15O,0.3X1.5*%
%ADD16R,2.47X0.98001*%
%ADD17R,2.47X3.59999*%
%ADD18R,1.2X1.4*%
%ADD19R,0.8053X0.9*%
%ADD20R,0.8X0.9*%
%ADD21R,0.9X0.8*%
%ADD22R,1.9X1.5*%
%ADD23O,1.5X0.27*%
%ADD24O,0.27X1.5*%
%ADD25PolygonMacro1*%
%ADD26PolygonMacro2*%
%ADD27R,2.49999X2.55001*%
%ADD28PolygonMacro3*%
%ADD29PolygonMacro4*%
%ADD30PolygonMacro5*%
%ADD31PolygonMacro6*%
%ADD32PolygonMacro7*%
%ADD33PolygonMacro8*%
%ADD34PolygonMacro9*%
%ADD35PolygonMacro10*%
%ADD36PolygonMacro11*%
%ADD37PolygonMacro12*%
%ADD38PolygonMacro13*%
%ADD39PolygonMacro14*%
%ADD40PolygonMacro15*%
%ADD41R,0.532X1.07201*%
G75*


G04 PolygonModel Start*
G36*
G01X31276120Y49173143D02*
G01X31404118Y49173143D01*
G01X31409119Y49178144D01*
G01X31409119Y49293145D01*
G01X31404118Y49298144D01*
G01X31363115Y49298647D01*
G01X31363115Y49253645D01*
G01X31318116Y49253645D01*
G01X31318116Y49297646D01*
G01X31276120Y49298144D01*
G01X31271119Y49293145D01*
G01X31271119Y49178144D01*
G01X31276120Y49173143D01*
G37*
G36*
G01X31404121Y49514138D02*
G01X31276122Y49514138D01*
G01X31271121Y49509136D01*
G01X31271121Y49394135D01*
G01X31276122Y49389137D01*
G01X31317126Y49388634D01*
G01X31317126Y49433635D01*
G01X31362124Y49433635D01*
G01X31362124Y49389635D01*
G01X31404121Y49389137D01*
G01X31409122Y49394135D01*
G01X31409122Y49509136D01*
G01X31404121Y49514138D01*
G37*
G36*
G01X31274520Y46794103D02*
G01X31402518Y46794103D01*
G01X31407519Y46799104D01*
G01X31407519Y46914105D01*
G01X31402518Y46919104D01*
G01X31361515Y46919606D01*
G01X31361515Y46874605D01*
G01X31316516Y46874605D01*
G01X31316516Y46918606D01*
G01X31274520Y46919104D01*
G01X31269518Y46914105D01*
G01X31269518Y46799104D01*
G01X31274520Y46794103D01*
G37*
G36*
G01X31402520Y47135098D02*
G01X31274522Y47135098D01*
G01X31269521Y47130096D01*
G01X31269521Y47015095D01*
G01X31274522Y47010096D01*
G01X31315525Y47009594D01*
G01X31315525Y47054595D01*
G01X31360524Y47054595D01*
G01X31360524Y47010594D01*
G01X31402520Y47010096D01*
G01X31407522Y47015095D01*
G01X31407522Y47130096D01*
G01X31402520Y47135098D01*
G37*
G36*
G01X31757120Y44884023D02*
G01X31885118Y44884023D01*
G01X31890119Y44889024D01*
G01X31890119Y45004025D01*
G01X31885118Y45009024D01*
G01X31844115Y45009526D01*
G01X31844115Y44964525D01*
G01X31799116Y44964525D01*
G01X31799116Y45008526D01*
G01X31757120Y45009024D01*
G01X31752118Y45004025D01*
G01X31752118Y44889024D01*
G01X31757120Y44884023D01*
G37*
G36*
G01X31885120Y45225018D02*
G01X31757122Y45225018D01*
G01X31752121Y45220016D01*
G01X31752121Y45105015D01*
G01X31757122Y45100016D01*
G01X31798125Y45099514D01*
G01X31798125Y45144515D01*
G01X31843124Y45144515D01*
G01X31843124Y45100514D01*
G01X31885120Y45100016D01*
G01X31890122Y45105015D01*
G01X31890122Y45220016D01*
G01X31885120Y45225018D01*
G37*
G36*
G01X31990800Y42984103D02*
G01X32118798Y42984103D01*
G01X32123799Y42989104D01*
G01X32123799Y43104105D01*
G01X32118798Y43109104D01*
G01X32077795Y43109606D01*
G01X32077795Y43064605D01*
G01X32032796Y43064605D01*
G01X32032796Y43108606D01*
G01X31990800Y43109104D01*
G01X31985798Y43104105D01*
G01X31985798Y42989104D01*
G01X31990800Y42984103D01*
G37*
G36*
G01X32118800Y43325098D02*
G01X31990802Y43325098D01*
G01X31985801Y43320096D01*
G01X31985801Y43205095D01*
G01X31990802Y43200096D01*
G01X32031805Y43199594D01*
G01X32031805Y43244595D01*
G01X32076804Y43244595D01*
G01X32076804Y43200594D01*
G01X32118800Y43200096D01*
G01X32123802Y43205095D01*
G01X32123802Y43320096D01*
G01X32118800Y43325098D01*
G37*
G36*
G01X31516286Y39170992D02*
G01X31644284Y39170992D01*
G01X31649285Y39175994D01*
G01X31649285Y39290995D01*
G01X31644284Y39295993D01*
G01X31603281Y39296496D01*
G01X31603281Y39251495D01*
G01X31558282Y39251495D01*
G01X31558282Y39295495D01*
G01X31516286Y39295993D01*
G01X31511284Y39290995D01*
G01X31511284Y39175994D01*
G01X31516286Y39170992D01*
G37*
G36*
G01X31644286Y39511987D02*
G01X31516288Y39511987D01*
G01X31511287Y39506986D01*
G01X31511287Y39391985D01*
G01X31516288Y39386986D01*
G01X31557291Y39386483D01*
G01X31557291Y39431485D01*
G01X31602290Y39431485D01*
G01X31602290Y39387484D01*
G01X31644286Y39386986D01*
G01X31649288Y39391985D01*
G01X31649288Y39506986D01*
G01X31644286Y39511987D01*
G37*
G36*
G01X33184316Y46795516D02*
G01X33312315Y46795516D01*
G01X33317316Y46800517D01*
G01X33317316Y46915518D01*
G01X33312315Y46920517D01*
G01X33271311Y46921020D01*
G01X33271311Y46876019D01*
G01X33226313Y46876019D01*
G01X33226313Y46920019D01*
G01X33184316Y46920517D01*
G01X33179315Y46915518D01*
G01X33179315Y46800517D01*
G01X33184316Y46795516D01*
G37*
G36*
G01X33312317Y47136511D02*
G01X33184319Y47136511D01*
G01X33179318Y47131510D01*
G01X33179318Y47016509D01*
G01X33184319Y47011510D01*
G01X33225322Y47011007D01*
G01X33225322Y47056008D01*
G01X33270321Y47056008D01*
G01X33270321Y47012008D01*
G01X33312317Y47011510D01*
G01X33317318Y47016509D01*
G01X33317318Y47131510D01*
G01X33312317Y47136511D01*
G37*
G36*
G01X32469637Y41076442D02*
G01X32597635Y41076442D01*
G01X32602636Y41081443D01*
G01X32602636Y41196444D01*
G01X32597635Y41201443D01*
G01X32556632Y41201946D01*
G01X32556632Y41156945D01*
G01X32511633Y41156945D01*
G01X32511633Y41200945D01*
G01X32469637Y41201443D01*
G01X32464635Y41196444D01*
G01X32464635Y41081443D01*
G01X32469637Y41076442D01*
G37*
G36*
G01X32597637Y41417437D02*
G01X32469639Y41417437D01*
G01X32464638Y41412436D01*
G01X32464638Y41297435D01*
G01X32469639Y41292436D01*
G01X32510642Y41291933D01*
G01X32510642Y41336934D01*
G01X32555641Y41336934D01*
G01X32555641Y41292934D01*
G01X32597637Y41292436D01*
G01X32602639Y41297435D01*
G01X32602639Y41412436D01*
G01X32597637Y41417437D01*
G37*
G36*
G01X33898717Y39169113D02*
G01X34026715Y39169113D01*
G01X34031716Y39174114D01*
G01X34031716Y39289115D01*
G01X34026715Y39294114D01*
G01X33985712Y39294617D01*
G01X33985712Y39249615D01*
G01X33940713Y39249615D01*
G01X33940713Y39293616D01*
G01X33898717Y39294114D01*
G01X33893716Y39289115D01*
G01X33893716Y39174114D01*
G01X33898717Y39169113D01*
G37*
G36*
G01X34026718Y39510108D02*
G01X33898719Y39510108D01*
G01X33893718Y39505106D01*
G01X33893718Y39390105D01*
G01X33898719Y39385107D01*
G01X33939723Y39384604D01*
G01X33939723Y39429605D01*
G01X33984721Y39429605D01*
G01X33984721Y39385604D01*
G01X34026718Y39385107D01*
G01X34031719Y39390105D01*
G01X34031719Y39505106D01*
G01X34026718Y39510108D01*
G37*
G36*
G01X35089600Y49176623D02*
G01X35217598Y49176623D01*
G01X35222599Y49181624D01*
G01X35222599Y49296625D01*
G01X35217598Y49301624D01*
G01X35176595Y49302126D01*
G01X35176595Y49257125D01*
G01X35131596Y49257125D01*
G01X35131596Y49301126D01*
G01X35089600Y49301624D01*
G01X35084598Y49296625D01*
G01X35084598Y49181624D01*
G01X35089600Y49176623D01*
G37*
G36*
G01X35217600Y49517618D02*
G01X35089602Y49517618D01*
G01X35084601Y49512616D01*
G01X35084601Y49397615D01*
G01X35089602Y49392616D01*
G01X35130605Y49392114D01*
G01X35130605Y49437115D01*
G01X35175604Y49437115D01*
G01X35175604Y49393114D01*
G01X35217600Y49392616D01*
G01X35222602Y49397615D01*
G01X35222602Y49512616D01*
G01X35217600Y49517618D01*
G37*
G36*
G01X35092618Y46792036D02*
G01X35220617Y46792036D01*
G01X35225618Y46797037D01*
G01X35225618Y46912039D01*
G01X35220617Y46917037D01*
G01X35179613Y46917540D01*
G01X35179613Y46872539D01*
G01X35134615Y46872539D01*
G01X35134615Y46916539D01*
G01X35092618Y46917037D01*
G01X35087617Y46912039D01*
G01X35087617Y46797037D01*
G01X35092618Y46792036D01*
G37*
G36*
G01X35220619Y47133031D02*
G01X35092621Y47133031D01*
G01X35087620Y47128030D01*
G01X35087620Y47013029D01*
G01X35092621Y47008030D01*
G01X35133624Y47007527D01*
G01X35133624Y47052528D01*
G01X35178623Y47052528D01*
G01X35178623Y47008528D01*
G01X35220619Y47008030D01*
G01X35225620Y47013029D01*
G01X35225620Y47128030D01*
G01X35220619Y47133031D01*
G37*
G36*
G01X34134560Y44889103D02*
G01X34262558Y44889103D01*
G01X34267559Y44894104D01*
G01X34267559Y45009105D01*
G01X34262558Y45014104D01*
G01X34221555Y45014606D01*
G01X34221555Y44969605D01*
G01X34176556Y44969605D01*
G01X34176556Y45013606D01*
G01X34134560Y45014104D01*
G01X34129558Y45009105D01*
G01X34129558Y44894104D01*
G01X34134560Y44889103D01*
G37*
G36*
G01X34262560Y45230098D02*
G01X34134562Y45230098D01*
G01X34129561Y45225096D01*
G01X34129561Y45110095D01*
G01X34134562Y45105096D01*
G01X34175565Y45104594D01*
G01X34175565Y45149595D01*
G01X34220564Y45149595D01*
G01X34220564Y45105594D01*
G01X34262560Y45105096D01*
G01X34267562Y45110095D01*
G01X34267562Y45225096D01*
G01X34262560Y45230098D01*
G37*
G36*
G01X34611898Y42981640D02*
G01X34739896Y42981640D01*
G01X34744897Y42986641D01*
G01X34744897Y43101642D01*
G01X34739896Y43106641D01*
G01X34698893Y43107144D01*
G01X34698893Y43062143D01*
G01X34653894Y43062143D01*
G01X34653894Y43106143D01*
G01X34611898Y43106641D01*
G01X34606897Y43101642D01*
G01X34606897Y42986641D01*
G01X34611898Y42981640D01*
G37*
G36*
G01X34739899Y43322635D02*
G01X34611901Y43322635D01*
G01X34606899Y43317634D01*
G01X34606899Y43202633D01*
G01X34611901Y43197634D01*
G01X34652904Y43197131D01*
G01X34652904Y43242132D01*
G01X34697902Y43242132D01*
G01X34697902Y43198132D01*
G01X34739899Y43197634D01*
G01X34744900Y43202633D01*
G01X34744900Y43317634D01*
G01X34739899Y43322635D01*
G37*
G36*
G01X35563458Y41078042D02*
G01X35691456Y41078042D01*
G01X35696458Y41083043D01*
G01X35696458Y41198044D01*
G01X35691456Y41203043D01*
G01X35650453Y41203546D01*
G01X35650453Y41158545D01*
G01X35605455Y41158545D01*
G01X35605455Y41202545D01*
G01X35563458Y41203043D01*
G01X35558457Y41198044D01*
G01X35558457Y41083043D01*
G01X35563458Y41078042D01*
G37*
G36*
G01X35691459Y41419037D02*
G01X35563461Y41419037D01*
G01X35558459Y41414036D01*
G01X35558459Y41299035D01*
G01X35563461Y41294036D01*
G01X35604464Y41293533D01*
G01X35604464Y41338534D01*
G01X35649463Y41338534D01*
G01X35649463Y41294534D01*
G01X35691459Y41294036D01*
G01X35696460Y41299035D01*
G01X35696460Y41414036D01*
G01X35691459Y41419037D01*
G37*
G36*
G01X36997999Y49174754D02*
G01X37125998Y49174754D01*
G01X37130999Y49179756D01*
G01X37130999Y49294757D01*
G01X37125998Y49299755D01*
G01X37084994Y49300258D01*
G01X37084994Y49255257D01*
G01X37039996Y49255257D01*
G01X37039996Y49299258D01*
G01X36997999Y49299755D01*
G01X36992998Y49294757D01*
G01X36992998Y49179756D01*
G01X36997999Y49174754D01*
G37*
G36*
G01X37126000Y49515749D02*
G01X36998002Y49515749D01*
G01X36993001Y49510748D01*
G01X36993001Y49395747D01*
G01X36998002Y49390748D01*
G01X37039005Y49390245D01*
G01X37039005Y49435247D01*
G01X37084004Y49435247D01*
G01X37084004Y49391246D01*
G01X37126000Y49390748D01*
G01X37131001Y49395747D01*
G01X37131001Y49510748D01*
G01X37126000Y49515749D01*
G37*
G36*
G01X36994600Y46794103D02*
G01X37122598Y46794103D01*
G01X37127599Y46799104D01*
G01X37127599Y46914105D01*
G01X37122598Y46919104D01*
G01X37081595Y46919606D01*
G01X37081595Y46874605D01*
G01X37036596Y46874605D01*
G01X37036596Y46918606D01*
G01X36994600Y46919104D01*
G01X36989598Y46914105D01*
G01X36989598Y46799104D01*
G01X36994600Y46794103D01*
G37*
G36*
G01X37122600Y47135098D02*
G01X36994602Y47135098D01*
G01X36989601Y47130096D01*
G01X36989601Y47015095D01*
G01X36994602Y47010096D01*
G01X37035605Y47009594D01*
G01X37035605Y47054595D01*
G01X37080604Y47054595D01*
G01X37080604Y47010594D01*
G01X37122600Y47010096D01*
G01X37127602Y47015095D01*
G01X37127602Y47130096D01*
G01X37122600Y47135098D01*
G37*
G36*
G01X36044640Y44889103D02*
G01X36172638Y44889103D01*
G01X36177639Y44894104D01*
G01X36177639Y45009105D01*
G01X36172638Y45014104D01*
G01X36131635Y45014606D01*
G01X36131635Y44969605D01*
G01X36086636Y44969605D01*
G01X36086636Y45013606D01*
G01X36044640Y45014104D01*
G01X36039638Y45009105D01*
G01X36039638Y44894104D01*
G01X36044640Y44889103D01*
G37*
G36*
G01X36172640Y45230098D02*
G01X36044642Y45230098D01*
G01X36039641Y45225096D01*
G01X36039641Y45110095D01*
G01X36044642Y45105096D01*
G01X36085645Y45104594D01*
G01X36085645Y45149595D01*
G01X36130644Y45149595D01*
G01X36130644Y45105594D01*
G01X36172640Y45105096D01*
G01X36177642Y45110095D01*
G01X36177642Y45225096D01*
G01X36172640Y45230098D01*
G37*
G36*
G01X36517000Y42983240D02*
G01X36644998Y42983240D01*
G01X36649999Y42988241D01*
G01X36649999Y43103242D01*
G01X36644998Y43108241D01*
G01X36603995Y43108744D01*
G01X36603995Y43063743D01*
G01X36558996Y43063743D01*
G01X36558996Y43107743D01*
G01X36517000Y43108241D01*
G01X36511998Y43103242D01*
G01X36511998Y42988241D01*
G01X36517000Y42983240D01*
G37*
G36*
G01X36645000Y43324235D02*
G01X36517002Y43324235D01*
G01X36512001Y43319234D01*
G01X36512001Y43204233D01*
G01X36517002Y43199234D01*
G01X36558005Y43198731D01*
G01X36558005Y43243732D01*
G01X36603004Y43243732D01*
G01X36603004Y43199732D01*
G01X36645000Y43199234D01*
G01X36650002Y43204233D01*
G01X36650002Y43319234D01*
G01X36645000Y43324235D01*
G37*
G36*
G01X37468839Y41074842D02*
G01X37596837Y41074842D01*
G01X37601839Y41079843D01*
G01X37601839Y41194844D01*
G01X37596837Y41199843D01*
G01X37555834Y41200346D01*
G01X37555834Y41155344D01*
G01X37510836Y41155344D01*
G01X37510836Y41199345D01*
G01X37468839Y41199843D01*
G01X37463838Y41194844D01*
G01X37463838Y41079843D01*
G01X37468839Y41074842D01*
G37*
G36*
G01X37596840Y41415837D02*
G01X37468842Y41415837D01*
G01X37463840Y41410835D01*
G01X37463840Y41295834D01*
G01X37468842Y41290836D01*
G01X37509845Y41290333D01*
G01X37509845Y41335334D01*
G01X37554844Y41335334D01*
G01X37554844Y41291333D01*
G01X37596840Y41290836D01*
G01X37601841Y41295834D01*
G01X37601841Y41410835D01*
G01X37596840Y41415837D01*
G37*
G36*
G01X36278240Y39169113D02*
G01X36406238Y39169113D01*
G01X36411239Y39174114D01*
G01X36411239Y39289115D01*
G01X36406238Y39294114D01*
G01X36365235Y39294617D01*
G01X36365235Y39249615D01*
G01X36320236Y39249615D01*
G01X36320236Y39293616D01*
G01X36278240Y39294114D01*
G01X36273238Y39289115D01*
G01X36273238Y39174114D01*
G01X36278240Y39169113D01*
G37*
G36*
G01X36406240Y39510108D02*
G01X36278242Y39510108D01*
G01X36273241Y39505106D01*
G01X36273241Y39390105D01*
G01X36278242Y39385107D01*
G01X36319245Y39384604D01*
G01X36319245Y39429605D01*
G01X36364244Y39429605D01*
G01X36364244Y39385604D01*
G01X36406240Y39385107D01*
G01X36411242Y39390105D01*
G01X36411242Y39505106D01*
G01X36406240Y39510108D01*
G37*
G36*
G01X38904680Y49176623D02*
G01X39032678Y49176623D01*
G01X39037679Y49181624D01*
G01X39037679Y49296625D01*
G01X39032678Y49301624D01*
G01X38991675Y49302126D01*
G01X38991675Y49257125D01*
G01X38946676Y49257125D01*
G01X38946676Y49301126D01*
G01X38904680Y49301624D01*
G01X38899678Y49296625D01*
G01X38899678Y49181624D01*
G01X38904680Y49176623D01*
G37*
G36*
G01X39032680Y49517618D02*
G01X38904682Y49517618D01*
G01X38899681Y49512616D01*
G01X38899681Y49397615D01*
G01X38904682Y49392616D01*
G01X38945685Y49392114D01*
G01X38945685Y49437115D01*
G01X38990684Y49437115D01*
G01X38990684Y49393114D01*
G01X39032680Y49392616D01*
G01X39037682Y49397615D01*
G01X39037682Y49512616D01*
G01X39032680Y49517618D01*
G37*
G36*
G01X38901310Y46790436D02*
G01X39029309Y46790436D01*
G01X39034310Y46795437D01*
G01X39034310Y46910438D01*
G01X39029309Y46915437D01*
G01X38988305Y46915940D01*
G01X38988305Y46870939D01*
G01X38943307Y46870939D01*
G01X38943307Y46914939D01*
G01X38901310Y46915437D01*
G01X38896309Y46910438D01*
G01X38896309Y46795437D01*
G01X38901310Y46790436D01*
G37*
G36*
G01X39029311Y47131431D02*
G01X38901313Y47131431D01*
G01X38896312Y47126430D01*
G01X38896312Y47011429D01*
G01X38901313Y47006430D01*
G01X38942316Y47005927D01*
G01X38942316Y47050928D01*
G01X38987315Y47050928D01*
G01X38987315Y47006928D01*
G01X39029311Y47006430D01*
G01X39034312Y47011429D01*
G01X39034312Y47126430D01*
G01X39029311Y47131431D01*
G37*
G36*
G01X37944560Y44884023D02*
G01X38072558Y44884023D01*
G01X38077559Y44889024D01*
G01X38077559Y45004025D01*
G01X38072558Y45009024D01*
G01X38031555Y45009526D01*
G01X38031555Y44964525D01*
G01X37986556Y44964525D01*
G01X37986556Y45008526D01*
G01X37944560Y45009024D01*
G01X37939558Y45004025D01*
G01X37939558Y44889024D01*
G01X37944560Y44884023D01*
G37*
G36*
G01X38072560Y45225018D02*
G01X37944562Y45225018D01*
G01X37939561Y45220016D01*
G01X37939561Y45105015D01*
G01X37944562Y45100016D01*
G01X37985565Y45099514D01*
G01X37985565Y45144515D01*
G01X38030564Y45144515D01*
G01X38030564Y45100514D01*
G01X38072560Y45100016D01*
G01X38077562Y45105015D01*
G01X38077562Y45220016D01*
G01X38072560Y45225018D01*
G37*
G36*
G01X38420590Y42985120D02*
G01X38548588Y42985120D01*
G01X38553589Y42990121D01*
G01X38553589Y43105122D01*
G01X38548588Y43110121D01*
G01X38507585Y43110624D01*
G01X38507585Y43065623D01*
G01X38462586Y43065623D01*
G01X38462586Y43109623D01*
G01X38420590Y43110121D01*
G01X38415589Y43105122D01*
G01X38415589Y42990121D01*
G01X38420590Y42985120D01*
G37*
G36*
G01X38548591Y43326115D02*
G01X38420592Y43326115D01*
G01X38415591Y43321114D01*
G01X38415591Y43206112D01*
G01X38420592Y43201114D01*
G01X38461596Y43200611D01*
G01X38461596Y43245612D01*
G01X38506594Y43245612D01*
G01X38506594Y43201612D01*
G01X38548591Y43201114D01*
G01X38553592Y43206112D01*
G01X38553592Y43321114D01*
G01X38548591Y43326115D01*
G37*
G36*
G01X39377230Y41081522D02*
G01X39505228Y41081522D01*
G01X39510230Y41086523D01*
G01X39510230Y41201524D01*
G01X39505228Y41206523D01*
G01X39464225Y41207026D01*
G01X39464225Y41162025D01*
G01X39419226Y41162025D01*
G01X39419226Y41206025D01*
G01X39377230Y41206523D01*
G01X39372229Y41201524D01*
G01X39372229Y41086523D01*
G01X39377230Y41081522D01*
G37*
G36*
G01X39505231Y41422517D02*
G01X39377233Y41422517D01*
G01X39372231Y41417516D01*
G01X39372231Y41302515D01*
G01X39377233Y41297516D01*
G01X39418236Y41297013D01*
G01X39418236Y41342014D01*
G01X39463235Y41342014D01*
G01X39463235Y41298014D01*
G01X39505231Y41297516D01*
G01X39510232Y41302515D01*
G01X39510232Y41417516D01*
G01X39505231Y41422517D01*
G37*
G36*
G01X40804600Y49171543D02*
G01X40932598Y49171543D01*
G01X40937599Y49176544D01*
G01X40937599Y49291545D01*
G01X40932598Y49296544D01*
G01X40891595Y49297046D01*
G01X40891595Y49252045D01*
G01X40846596Y49252045D01*
G01X40846596Y49296046D01*
G01X40804600Y49296544D01*
G01X40799598Y49291545D01*
G01X40799598Y49176544D01*
G01X40804600Y49171543D01*
G37*
G36*
G01X40932600Y49512538D02*
G01X40804602Y49512538D01*
G01X40799601Y49507536D01*
G01X40799601Y49392535D01*
G01X40804602Y49387536D01*
G01X40845605Y49387034D01*
G01X40845605Y49432035D01*
G01X40890604Y49432035D01*
G01X40890604Y49388034D01*
G01X40932600Y49387536D01*
G01X40937602Y49392535D01*
G01X40937602Y49507536D01*
G01X40932600Y49512538D01*
G37*
G36*
G01X40808101Y46795516D02*
G01X40936099Y46795516D01*
G01X40941100Y46800517D01*
G01X40941100Y46915518D01*
G01X40936099Y46920517D01*
G01X40895096Y46921020D01*
G01X40895096Y46876019D01*
G01X40850097Y46876019D01*
G01X40850097Y46920019D01*
G01X40808101Y46920517D01*
G01X40803100Y46915518D01*
G01X40803100Y46800517D01*
G01X40808101Y46795516D01*
G37*
G36*
G01X40936102Y47136511D02*
G01X40808104Y47136511D01*
G01X40803102Y47131510D01*
G01X40803102Y47016509D01*
G01X40808104Y47011510D01*
G01X40849107Y47011007D01*
G01X40849107Y47056008D01*
G01X40894105Y47056008D01*
G01X40894105Y47012008D01*
G01X40936102Y47011510D01*
G01X40941103Y47016509D01*
G01X40941103Y47131510D01*
G01X40936102Y47136511D01*
G37*
G36*
G01X39849560Y44884023D02*
G01X39977558Y44884023D01*
G01X39982559Y44889024D01*
G01X39982559Y45004025D01*
G01X39977558Y45009024D01*
G01X39936555Y45009526D01*
G01X39936555Y44964525D01*
G01X39891556Y44964525D01*
G01X39891556Y45008526D01*
G01X39849560Y45009024D01*
G01X39844558Y45004025D01*
G01X39844558Y44889024D01*
G01X39849560Y44884023D01*
G37*
G36*
G01X39977560Y45225018D02*
G01X39849562Y45225018D01*
G01X39844561Y45220016D01*
G01X39844561Y45105015D01*
G01X39849562Y45100016D01*
G01X39890565Y45099514D01*
G01X39890565Y45144515D01*
G01X39935564Y45144515D01*
G01X39935564Y45100514D01*
G01X39977560Y45100016D01*
G01X39982562Y45105015D01*
G01X39982562Y45220016D01*
G01X39977560Y45225018D01*
G37*
G36*
G01X40327080Y42984103D02*
G01X40455078Y42984103D01*
G01X40460079Y42989104D01*
G01X40460079Y43104105D01*
G01X40455078Y43109104D01*
G01X40414075Y43109606D01*
G01X40414075Y43064605D01*
G01X40369076Y43064605D01*
G01X40369076Y43108606D01*
G01X40327080Y43109104D01*
G01X40322078Y43104105D01*
G01X40322078Y42989104D01*
G01X40327080Y42984103D01*
G37*
G36*
G01X40455080Y43325098D02*
G01X40327082Y43325098D01*
G01X40322081Y43320096D01*
G01X40322081Y43205095D01*
G01X40327082Y43200096D01*
G01X40368085Y43199594D01*
G01X40368085Y43244595D01*
G01X40413084Y43244595D01*
G01X40413084Y43200594D01*
G01X40455080Y43200096D01*
G01X40460082Y43205095D01*
G01X40460082Y43320096D01*
G01X40455080Y43325098D01*
G37*
G36*
G01X41278941Y41076442D02*
G01X41406939Y41076442D01*
G01X41411940Y41081443D01*
G01X41411940Y41196444D01*
G01X41406939Y41201443D01*
G01X41365936Y41201946D01*
G01X41365936Y41156945D01*
G01X41320937Y41156945D01*
G01X41320937Y41200945D01*
G01X41278941Y41201443D01*
G01X41273940Y41196444D01*
G01X41273940Y41081443D01*
G01X41278941Y41076442D01*
G37*
G36*
G01X41406942Y41417437D02*
G01X41278943Y41417437D01*
G01X41273942Y41412436D01*
G01X41273942Y41297435D01*
G01X41278943Y41292436D01*
G01X41319947Y41291933D01*
G01X41319947Y41336934D01*
G01X41364945Y41336934D01*
G01X41364945Y41292934D01*
G01X41406942Y41292436D01*
G01X41411943Y41297435D01*
G01X41411943Y41412436D01*
G01X41406942Y41417437D01*
G37*
G36*
G01X42704520Y46789023D02*
G01X42832518Y46789023D01*
G01X42837519Y46794024D01*
G01X42837519Y46909025D01*
G01X42832518Y46914024D01*
G01X42791515Y46914526D01*
G01X42791515Y46869525D01*
G01X42746516Y46869525D01*
G01X42746516Y46913526D01*
G01X42704520Y46914024D01*
G01X42699518Y46909025D01*
G01X42699518Y46794024D01*
G01X42704520Y46789023D01*
G37*
G36*
G01X42832520Y47130018D02*
G01X42704522Y47130018D01*
G01X42699521Y47125016D01*
G01X42699521Y47010015D01*
G01X42704522Y47005016D01*
G01X42745525Y47004514D01*
G01X42745525Y47049515D01*
G01X42790524Y47049515D01*
G01X42790524Y47005514D01*
G01X42832520Y47005016D01*
G01X42837522Y47010015D01*
G01X42837522Y47125016D01*
G01X42832520Y47130018D01*
G37*
G36*
G01X41759640Y44884023D02*
G01X41887638Y44884023D01*
G01X41892639Y44889024D01*
G01X41892639Y45004025D01*
G01X41887638Y45009024D01*
G01X41846635Y45009526D01*
G01X41846635Y44964525D01*
G01X41801636Y44964525D01*
G01X41801636Y45008526D01*
G01X41759640Y45009024D01*
G01X41754638Y45004025D01*
G01X41754638Y44889024D01*
G01X41759640Y44884023D01*
G37*
G36*
G01X41887640Y45225018D02*
G01X41759642Y45225018D01*
G01X41754641Y45220016D01*
G01X41754641Y45105015D01*
G01X41759642Y45100016D01*
G01X41800645Y45099514D01*
G01X41800645Y45144515D01*
G01X41845644Y45144515D01*
G01X41845644Y45100514D01*
G01X41887640Y45100016D01*
G01X41892642Y45105015D01*
G01X41892642Y45220016D01*
G01X41887640Y45225018D01*
G37*
G36*
G01X42232080Y42984103D02*
G01X42360078Y42984103D01*
G01X42365079Y42989104D01*
G01X42365079Y43104105D01*
G01X42360078Y43109104D01*
G01X42319075Y43109606D01*
G01X42319075Y43064605D01*
G01X42274076Y43064605D01*
G01X42274076Y43108606D01*
G01X42232080Y43109104D01*
G01X42227078Y43104105D01*
G01X42227078Y42989104D01*
G01X42232080Y42984103D01*
G37*
G36*
G01X42360080Y43325098D02*
G01X42232082Y43325098D01*
G01X42227081Y43320096D01*
G01X42227081Y43205095D01*
G01X42232082Y43200096D01*
G01X42273085Y43199594D01*
G01X42273085Y43244595D01*
G01X42318084Y43244595D01*
G01X42318084Y43200594D01*
G01X42360080Y43200096D01*
G01X42365082Y43205095D01*
G01X42365082Y43320096D01*
G01X42360080Y43325098D01*
G37*
G36*
G01X43185732Y41071362D02*
G01X43313730Y41071362D01*
G01X43318731Y41076363D01*
G01X43318731Y41191364D01*
G01X43313730Y41196363D01*
G01X43272727Y41196866D01*
G01X43272727Y41151865D01*
G01X43227728Y41151865D01*
G01X43227728Y41195865D01*
G01X43185732Y41196363D01*
G01X43180730Y41191364D01*
G01X43180730Y41076363D01*
G01X43185732Y41071362D01*
G37*
G36*
G01X43313732Y41412357D02*
G01X43185734Y41412357D01*
G01X43180733Y41407356D01*
G01X43180733Y41292355D01*
G01X43185734Y41287356D01*
G01X43226737Y41286853D01*
G01X43226737Y41331854D01*
G01X43271736Y41331854D01*
G01X43271736Y41287854D01*
G01X43313732Y41287356D01*
G01X43318734Y41292355D01*
G01X43318734Y41407356D01*
G01X43313732Y41412357D01*
G37*
G36*
G01X43421012Y39169113D02*
G01X43549010Y39169113D01*
G01X43554011Y39174114D01*
G01X43554011Y39289115D01*
G01X43549010Y39294114D01*
G01X43508007Y39294617D01*
G01X43508007Y39249615D01*
G01X43463008Y39249615D01*
G01X43463008Y39293616D01*
G01X43421012Y39294114D01*
G01X43416010Y39289115D01*
G01X43416010Y39174114D01*
G01X43421012Y39169113D01*
G37*
G36*
G01X43549012Y39510108D02*
G01X43421014Y39510108D01*
G01X43416013Y39505106D01*
G01X43416013Y39390105D01*
G01X43421014Y39385107D01*
G01X43462017Y39384604D01*
G01X43462017Y39429605D01*
G01X43507016Y39429605D01*
G01X43507016Y39385604D01*
G01X43549012Y39385107D01*
G01X43554014Y39390105D01*
G01X43554014Y39505106D01*
G01X43549012Y39510108D01*
G37*
G36*
G01X43668522Y49173154D02*
G01X43796520Y49173154D01*
G01X43801521Y49178155D01*
G01X43801521Y49293156D01*
G01X43796520Y49298155D01*
G01X43755517Y49298658D01*
G01X43755517Y49253657D01*
G01X43710518Y49253657D01*
G01X43710518Y49297657D01*
G01X43668522Y49298155D01*
G01X43663521Y49293156D01*
G01X43663521Y49178155D01*
G01X43668522Y49173154D01*
G37*
G36*
G01X43796523Y49514149D02*
G01X43668525Y49514149D01*
G01X43663523Y49509148D01*
G01X43663523Y49394147D01*
G01X43668525Y49389148D01*
G01X43709528Y49388645D01*
G01X43709528Y49433646D01*
G01X43754526Y49433646D01*
G01X43754526Y49389646D01*
G01X43796523Y49389148D01*
G01X43801524Y49394147D01*
G01X43801524Y49509148D01*
G01X43796523Y49514149D01*
G37*
G36*
G01X44614600Y46794103D02*
G01X44742598Y46794103D01*
G01X44747599Y46799104D01*
G01X44747599Y46914105D01*
G01X44742598Y46919104D01*
G01X44701595Y46919606D01*
G01X44701595Y46874605D01*
G01X44656596Y46874605D01*
G01X44656596Y46918606D01*
G01X44614600Y46919104D01*
G01X44609598Y46914105D01*
G01X44609598Y46799104D01*
G01X44614600Y46794103D01*
G37*
G36*
G01X44742600Y47135098D02*
G01X44614602Y47135098D01*
G01X44609601Y47130096D01*
G01X44609601Y47015095D01*
G01X44614602Y47010096D01*
G01X44655605Y47009594D01*
G01X44655605Y47054595D01*
G01X44700604Y47054595D01*
G01X44700604Y47010594D01*
G01X44742600Y47010096D01*
G01X44747602Y47015095D01*
G01X44747602Y47130096D01*
G01X44742600Y47135098D01*
G37*
G36*
G01X43659560Y44894183D02*
G01X43787558Y44894183D01*
G01X43792559Y44899184D01*
G01X43792559Y45014185D01*
G01X43787558Y45019184D01*
G01X43746555Y45019686D01*
G01X43746555Y44974685D01*
G01X43701556Y44974685D01*
G01X43701556Y45018686D01*
G01X43659560Y45019184D01*
G01X43654558Y45014185D01*
G01X43654558Y44899184D01*
G01X43659560Y44894183D01*
G37*
G36*
G01X43787560Y45235178D02*
G01X43659562Y45235178D01*
G01X43654561Y45230176D01*
G01X43654561Y45115175D01*
G01X43659562Y45110176D01*
G01X43700565Y45109674D01*
G01X43700565Y45154675D01*
G01X43745564Y45154675D01*
G01X43745564Y45110674D01*
G01X43787560Y45110176D01*
G01X43792562Y45115175D01*
G01X43792562Y45230176D01*
G01X43787560Y45235178D01*
G37*
G36*
G01X44135882Y42980040D02*
G01X44263880Y42980040D01*
G01X44268881Y42985041D01*
G01X44268881Y43100042D01*
G01X44263880Y43105041D01*
G01X44222877Y43105544D01*
G01X44222877Y43060543D01*
G01X44177878Y43060543D01*
G01X44177878Y43104543D01*
G01X44135882Y43105041D01*
G01X44130881Y43100042D01*
G01X44130881Y42985041D01*
G01X44135882Y42980040D01*
G37*
G36*
G01X44263883Y43321035D02*
G01X44135885Y43321035D01*
G01X44130883Y43316034D01*
G01X44130883Y43201032D01*
G01X44135885Y43196034D01*
G01X44176888Y43195531D01*
G01X44176888Y43240532D01*
G01X44221886Y43240532D01*
G01X44221886Y43196532D01*
G01X44263883Y43196034D01*
G01X44268884Y43201032D01*
G01X44268884Y43316034D01*
G01X44263883Y43321035D01*
G37*
G36*
G01X45092120Y41079103D02*
G01X45220118Y41079103D01*
G01X45225119Y41084104D01*
G01X45225119Y41199105D01*
G01X45220118Y41204104D01*
G01X45179115Y41204606D01*
G01X45179115Y41159605D01*
G01X45134116Y41159605D01*
G01X45134116Y41203606D01*
G01X45092120Y41204104D01*
G01X45087118Y41199105D01*
G01X45087118Y41084104D01*
G01X45092120Y41079103D01*
G37*
G36*
G01X45220120Y41420098D02*
G01X45092122Y41420098D01*
G01X45087121Y41415096D01*
G01X45087121Y41300095D01*
G01X45092122Y41295096D01*
G01X45133125Y41294594D01*
G01X45133125Y41339595D01*
G01X45178124Y41339595D01*
G01X45178124Y41295594D01*
G01X45220120Y41295096D01*
G01X45225122Y41300095D01*
G01X45225122Y41415096D01*
G01X45220120Y41420098D01*
G37*
G36*
G01X45565153Y49173154D02*
G01X45693151Y49173154D01*
G01X45698152Y49178155D01*
G01X45698152Y49293156D01*
G01X45693151Y49298155D01*
G01X45652148Y49298658D01*
G01X45652148Y49253657D01*
G01X45607149Y49253657D01*
G01X45607149Y49297657D01*
G01X45565153Y49298155D01*
G01X45560151Y49293156D01*
G01X45560151Y49178155D01*
G01X45565153Y49173154D01*
G37*
G36*
G01X45693153Y49514149D02*
G01X45565155Y49514149D01*
G01X45560154Y49509148D01*
G01X45560154Y49394147D01*
G01X45565155Y49389148D01*
G01X45606158Y49388645D01*
G01X45606158Y49433646D01*
G01X45651157Y49433646D01*
G01X45651157Y49389646D01*
G01X45693153Y49389148D01*
G01X45698155Y49394147D01*
G01X45698155Y49509148D01*
G01X45693153Y49514149D01*
G37*
G36*
G01X46519600Y46794103D02*
G01X46647598Y46794103D01*
G01X46652599Y46799104D01*
G01X46652599Y46914105D01*
G01X46647598Y46919104D01*
G01X46606595Y46919606D01*
G01X46606595Y46874605D01*
G01X46561596Y46874605D01*
G01X46561596Y46918606D01*
G01X46519600Y46919104D01*
G01X46514598Y46914105D01*
G01X46514598Y46799104D01*
G01X46519600Y46794103D01*
G37*
G36*
G01X46647600Y47135098D02*
G01X46519602Y47135098D01*
G01X46514601Y47130096D01*
G01X46514601Y47015095D01*
G01X46519602Y47010096D01*
G01X46560605Y47009594D01*
G01X46560605Y47054595D01*
G01X46605604Y47054595D01*
G01X46605604Y47010594D01*
G01X46647600Y47010096D01*
G01X46652602Y47015095D01*
G01X46652602Y47130096D01*
G01X46647600Y47135098D01*
G37*
G36*
G01X45564560Y44884023D02*
G01X45692558Y44884023D01*
G01X45697559Y44889024D01*
G01X45697559Y45004025D01*
G01X45692558Y45009024D01*
G01X45651555Y45009526D01*
G01X45651555Y44964525D01*
G01X45606556Y44964525D01*
G01X45606556Y45008526D01*
G01X45564560Y45009024D01*
G01X45559558Y45004025D01*
G01X45559558Y44889024D01*
G01X45564560Y44884023D01*
G37*
G36*
G01X45692560Y45225018D02*
G01X45564562Y45225018D01*
G01X45559561Y45220016D01*
G01X45559561Y45105015D01*
G01X45564562Y45100016D01*
G01X45605565Y45099514D01*
G01X45605565Y45144515D01*
G01X45650564Y45144515D01*
G01X45650564Y45100514D01*
G01X45692560Y45100016D01*
G01X45697562Y45105015D01*
G01X45697562Y45220016D01*
G01X45692560Y45225018D01*
G37*
G36*
G01X46039193Y42981640D02*
G01X46167191Y42981640D01*
G01X46172192Y42986641D01*
G01X46172192Y43101642D01*
G01X46167191Y43106641D01*
G01X46126188Y43107144D01*
G01X46126188Y43062143D01*
G01X46081189Y43062143D01*
G01X46081189Y43106143D01*
G01X46039193Y43106641D01*
G01X46034192Y43101642D01*
G01X46034192Y42986641D01*
G01X46039193Y42981640D01*
G37*
G36*
G01X46167194Y43322635D02*
G01X46039195Y43322635D01*
G01X46034194Y43317634D01*
G01X46034194Y43202633D01*
G01X46039195Y43197634D01*
G01X46080199Y43197131D01*
G01X46080199Y43242132D01*
G01X46125197Y43242132D01*
G01X46125197Y43198132D01*
G01X46167194Y43197634D01*
G01X46172195Y43202633D01*
G01X46172195Y43317634D01*
G01X46167194Y43322635D01*
G37*
G36*
G01X46995833Y41078042D02*
G01X47123831Y41078042D01*
G01X47128833Y41083043D01*
G01X47128833Y41198044D01*
G01X47123831Y41203043D01*
G01X47082828Y41203546D01*
G01X47082828Y41158545D01*
G01X47037829Y41158545D01*
G01X47037829Y41202545D01*
G01X46995833Y41203043D01*
G01X46990832Y41198044D01*
G01X46990832Y41083043D01*
G01X46995833Y41078042D01*
G37*
G36*
G01X47123834Y41419037D02*
G01X46995836Y41419037D01*
G01X46990834Y41414036D01*
G01X46990834Y41299035D01*
G01X46995836Y41294036D01*
G01X47036839Y41293533D01*
G01X47036839Y41338534D01*
G01X47081838Y41338534D01*
G01X47081838Y41294534D01*
G01X47123834Y41294036D01*
G01X47128835Y41299035D01*
G01X47128835Y41414036D01*
G01X47123834Y41419037D01*
G37*
G36*
G01X47474640Y49176623D02*
G01X47602638Y49176623D01*
G01X47607639Y49181624D01*
G01X47607639Y49296625D01*
G01X47602638Y49301624D01*
G01X47561635Y49302126D01*
G01X47561635Y49257125D01*
G01X47516636Y49257125D01*
G01X47516636Y49301126D01*
G01X47474640Y49301624D01*
G01X47469638Y49296625D01*
G01X47469638Y49181624D01*
G01X47474640Y49176623D01*
G37*
G36*
G01X47602640Y49517618D02*
G01X47474642Y49517618D01*
G01X47469641Y49512616D01*
G01X47469641Y49397615D01*
G01X47474642Y49392616D01*
G01X47515645Y49392114D01*
G01X47515645Y49437115D01*
G01X47560644Y49437115D01*
G01X47560644Y49393114D01*
G01X47602640Y49392616D01*
G01X47607642Y49397615D01*
G01X47607642Y49512616D01*
G01X47602640Y49517618D01*
G37*
G36*
G01X48424600Y46794103D02*
G01X48552598Y46794103D01*
G01X48557599Y46799104D01*
G01X48557599Y46914105D01*
G01X48552598Y46919104D01*
G01X48511595Y46919606D01*
G01X48511595Y46874605D01*
G01X48466596Y46874605D01*
G01X48466596Y46918606D01*
G01X48424600Y46919104D01*
G01X48419598Y46914105D01*
G01X48419598Y46799104D01*
G01X48424600Y46794103D01*
G37*
G36*
G01X48552600Y47135098D02*
G01X48424602Y47135098D01*
G01X48419601Y47130096D01*
G01X48419601Y47015095D01*
G01X48424602Y47010096D01*
G01X48465605Y47009594D01*
G01X48465605Y47054595D01*
G01X48510604Y47054595D01*
G01X48510604Y47010594D01*
G01X48552600Y47010096D01*
G01X48557602Y47015095D01*
G01X48557602Y47130096D01*
G01X48552600Y47135098D01*
G37*
G36*
G01X47473544Y44886838D02*
G01X47601542Y44886838D01*
G01X47606543Y44891839D01*
G01X47606543Y45006840D01*
G01X47601542Y45011839D01*
G01X47560539Y45012342D01*
G01X47560539Y44967341D01*
G01X47515540Y44967341D01*
G01X47515540Y45011341D01*
G01X47473544Y45011839D01*
G01X47468542Y45006840D01*
G01X47468542Y44891839D01*
G01X47473544Y44886838D01*
G37*
G36*
G01X47601544Y45227833D02*
G01X47473546Y45227833D01*
G01X47468545Y45222832D01*
G01X47468545Y45107831D01*
G01X47473546Y45102832D01*
G01X47514549Y45102329D01*
G01X47514549Y45147330D01*
G01X47559548Y45147330D01*
G01X47559548Y45103330D01*
G01X47601544Y45102832D01*
G01X47606546Y45107831D01*
G01X47606546Y45222832D01*
G01X47601544Y45227833D01*
G37*
G36*
G01X47947080Y42979023D02*
G01X48075078Y42979023D01*
G01X48080079Y42984024D01*
G01X48080079Y43099025D01*
G01X48075078Y43104024D01*
G01X48034075Y43104526D01*
G01X48034075Y43059525D01*
G01X47989076Y43059525D01*
G01X47989076Y43103526D01*
G01X47947080Y43104024D01*
G01X47942078Y43099025D01*
G01X47942078Y42984024D01*
G01X47947080Y42979023D01*
G37*
G36*
G01X48075080Y43320018D02*
G01X47947082Y43320018D01*
G01X47942081Y43315016D01*
G01X47942081Y43200015D01*
G01X47947082Y43195016D01*
G01X47988085Y43194514D01*
G01X47988085Y43239515D01*
G01X48033084Y43239515D01*
G01X48033084Y43195514D01*
G01X48075080Y43195016D01*
G01X48080082Y43200015D01*
G01X48080082Y43315016D01*
G01X48075080Y43320018D01*
G37*
G36*
G01X48899423Y41079922D02*
G01X49027422Y41079922D01*
G01X49032423Y41084923D01*
G01X49032423Y41199924D01*
G01X49027422Y41204923D01*
G01X48986418Y41205426D01*
G01X48986418Y41160424D01*
G01X48941420Y41160424D01*
G01X48941420Y41204425D01*
G01X48899423Y41204923D01*
G01X48894422Y41199924D01*
G01X48894422Y41084923D01*
G01X48899423Y41079922D01*
G37*
G36*
G01X49027424Y41420917D02*
G01X48899426Y41420917D01*
G01X48894425Y41415915D01*
G01X48894425Y41300914D01*
G01X48899426Y41295916D01*
G01X48940429Y41295413D01*
G01X48940429Y41340414D01*
G01X48985428Y41340414D01*
G01X48985428Y41296413D01*
G01X49027424Y41295916D01*
G01X49032425Y41300914D01*
G01X49032425Y41415915D01*
G01X49027424Y41420917D01*
G37*
G36*
G01X49373654Y49173154D02*
G01X49501652Y49173154D01*
G01X49506654Y49178155D01*
G01X49506654Y49293156D01*
G01X49501652Y49298155D01*
G01X49460649Y49298658D01*
G01X49460649Y49253657D01*
G01X49415650Y49253657D01*
G01X49415650Y49297657D01*
G01X49373654Y49298155D01*
G01X49368653Y49293156D01*
G01X49368653Y49178155D01*
G01X49373654Y49173154D01*
G37*
G36*
G01X49501655Y49514149D02*
G01X49373657Y49514149D01*
G01X49368655Y49509148D01*
G01X49368655Y49394147D01*
G01X49373657Y49389148D01*
G01X49414660Y49388645D01*
G01X49414660Y49433646D01*
G01X49459659Y49433646D01*
G01X49459659Y49389646D01*
G01X49501655Y49389148D01*
G01X49506656Y49394147D01*
G01X49506656Y49509148D01*
G01X49501655Y49514149D01*
G37*
G36*
G01X50324520Y46794103D02*
G01X50452518Y46794103D01*
G01X50457519Y46799104D01*
G01X50457519Y46914105D01*
G01X50452518Y46919104D01*
G01X50411515Y46919606D01*
G01X50411515Y46874605D01*
G01X50366516Y46874605D01*
G01X50366516Y46918606D01*
G01X50324520Y46919104D01*
G01X50319518Y46914105D01*
G01X50319518Y46799104D01*
G01X50324520Y46794103D01*
G37*
G36*
G01X50452520Y47135098D02*
G01X50324522Y47135098D01*
G01X50319521Y47130096D01*
G01X50319521Y47015095D01*
G01X50324522Y47010096D01*
G01X50365525Y47009594D01*
G01X50365525Y47054595D01*
G01X50410524Y47054595D01*
G01X50410524Y47010594D01*
G01X50452520Y47010096D01*
G01X50457522Y47015095D01*
G01X50457522Y47130096D01*
G01X50452520Y47135098D01*
G37*
G36*
G01X49375254Y44886838D02*
G01X49503253Y44886838D01*
G01X49508254Y44891839D01*
G01X49508254Y45006840D01*
G01X49503253Y45011839D01*
G01X49462249Y45012342D01*
G01X49462249Y44967341D01*
G01X49417251Y44967341D01*
G01X49417251Y45011341D01*
G01X49375254Y45011839D01*
G01X49370253Y45006840D01*
G01X49370253Y44891839D01*
G01X49375254Y44886838D01*
G37*
G36*
G01X49503255Y45227833D02*
G01X49375257Y45227833D01*
G01X49370256Y45222832D01*
G01X49370256Y45107831D01*
G01X49375257Y45102832D01*
G01X49416260Y45102329D01*
G01X49416260Y45147330D01*
G01X49461259Y45147330D01*
G01X49461259Y45103330D01*
G01X49503255Y45102832D01*
G01X49508256Y45107831D01*
G01X49508256Y45222832D01*
G01X49503255Y45227833D01*
G37*
G36*
G01X49847694Y42981640D02*
G01X49975693Y42981640D01*
G01X49980694Y42986641D01*
G01X49980694Y43101642D01*
G01X49975693Y43106641D01*
G01X49934689Y43107144D01*
G01X49934689Y43062143D01*
G01X49889691Y43062143D01*
G01X49889691Y43106143D01*
G01X49847694Y43106641D01*
G01X49842693Y43101642D01*
G01X49842693Y42986641D01*
G01X49847694Y42981640D01*
G37*
G36*
G01X49975695Y43322635D02*
G01X49847697Y43322635D01*
G01X49842696Y43317634D01*
G01X49842696Y43202633D01*
G01X49847697Y43197634D01*
G01X49888700Y43197131D01*
G01X49888700Y43242132D01*
G01X49933699Y43242132D01*
G01X49933699Y43198132D01*
G01X49975695Y43197634D01*
G01X49980696Y43202633D01*
G01X49980696Y43317634D01*
G01X49975695Y43322635D01*
G37*
G36*
G01X50807814Y41076442D02*
G01X50935813Y41076442D01*
G01X50940814Y41081443D01*
G01X50940814Y41196444D01*
G01X50935813Y41201443D01*
G01X50894809Y41201946D01*
G01X50894809Y41156945D01*
G01X50849811Y41156945D01*
G01X50849811Y41200945D01*
G01X50807814Y41201443D01*
G01X50802813Y41196444D01*
G01X50802813Y41081443D01*
G01X50807814Y41076442D01*
G37*
G36*
G01X50935815Y41417437D02*
G01X50807817Y41417437D01*
G01X50802816Y41412436D01*
G01X50802816Y41297435D01*
G01X50807817Y41292436D01*
G01X50848820Y41291933D01*
G01X50848820Y41336934D01*
G01X50893819Y41336934D01*
G01X50893819Y41292934D01*
G01X50935815Y41292436D01*
G01X50940816Y41297435D01*
G01X50940816Y41412436D01*
G01X50935815Y41417437D01*
G37*
G36*
G01X50364850Y39172408D02*
G01X50492848Y39172408D01*
G01X50497849Y39177410D01*
G01X50497849Y39292411D01*
G01X50492848Y39297409D01*
G01X50451845Y39297912D01*
G01X50451845Y39252911D01*
G01X50406846Y39252911D01*
G01X50406846Y39296912D01*
G01X50364850Y39297409D01*
G01X50359849Y39292411D01*
G01X50359849Y39177410D01*
G01X50364850Y39172408D01*
G37*
G36*
G01X50492851Y39513403D02*
G01X50364853Y39513403D01*
G01X50359851Y39508402D01*
G01X50359851Y39393401D01*
G01X50364853Y39388402D01*
G01X50405856Y39387899D01*
G01X50405856Y39432901D01*
G01X50450854Y39432901D01*
G01X50450854Y39388900D01*
G01X50492851Y39388402D01*
G01X50497852Y39393401D01*
G01X50497852Y39508402D01*
G01X50492851Y39513403D01*
G37*
G36*
G01X52232005Y49174754D02*
G01X52360003Y49174754D01*
G01X52365004Y49179756D01*
G01X52365004Y49294757D01*
G01X52360003Y49299755D01*
G01X52319000Y49300258D01*
G01X52319000Y49255257D01*
G01X52274001Y49255257D01*
G01X52274001Y49299258D01*
G01X52232005Y49299755D01*
G01X52227004Y49294757D01*
G01X52227004Y49179756D01*
G01X52232005Y49174754D01*
G37*
G36*
G01X52360006Y49515749D02*
G01X52232008Y49515749D01*
G01X52227006Y49510748D01*
G01X52227006Y49395747D01*
G01X52232008Y49390748D01*
G01X52273011Y49390245D01*
G01X52273011Y49435247D01*
G01X52318009Y49435247D01*
G01X52318009Y49391246D01*
G01X52360006Y49390748D01*
G01X52365007Y49395747D01*
G01X52365007Y49510748D01*
G01X52360006Y49515749D01*
G37*
G36*
G01X52234600Y46789023D02*
G01X52362598Y46789023D01*
G01X52367599Y46794024D01*
G01X52367599Y46909025D01*
G01X52362598Y46914024D01*
G01X52321595Y46914526D01*
G01X52321595Y46869525D01*
G01X52276596Y46869525D01*
G01X52276596Y46913526D01*
G01X52234600Y46914024D01*
G01X52229598Y46909025D01*
G01X52229598Y46794024D01*
G01X52234600Y46789023D01*
G37*
G36*
G01X52362600Y47130018D02*
G01X52234602Y47130018D01*
G01X52229601Y47125016D01*
G01X52229601Y47010015D01*
G01X52234602Y47005016D01*
G01X52275605Y47004514D01*
G01X52275605Y47049515D01*
G01X52320604Y47049515D01*
G01X52320604Y47005514D01*
G01X52362600Y47005016D01*
G01X52367602Y47010015D01*
G01X52367602Y47125016D01*
G01X52362600Y47130018D01*
G37*
G36*
G01X51279560Y44889103D02*
G01X51407558Y44889103D01*
G01X51412559Y44894104D01*
G01X51412559Y45009105D01*
G01X51407558Y45014104D01*
G01X51366555Y45014606D01*
G01X51366555Y44969605D01*
G01X51321556Y44969605D01*
G01X51321556Y45013606D01*
G01X51279560Y45014104D01*
G01X51274558Y45009105D01*
G01X51274558Y44894104D01*
G01X51279560Y44889103D01*
G37*
G36*
G01X51407560Y45230098D02*
G01X51279562Y45230098D01*
G01X51274561Y45225096D01*
G01X51274561Y45110095D01*
G01X51279562Y45105096D01*
G01X51320565Y45104594D01*
G01X51320565Y45149595D01*
G01X51365564Y45149595D01*
G01X51365564Y45105594D01*
G01X51407560Y45105096D01*
G01X51412562Y45110095D01*
G01X51412562Y45225096D01*
G01X51407560Y45230098D01*
G37*
G36*
G01X51759565Y42981640D02*
G01X51887563Y42981640D01*
G01X51892564Y42986641D01*
G01X51892564Y43101642D01*
G01X51887563Y43106641D01*
G01X51846560Y43107144D01*
G01X51846560Y43062143D01*
G01X51801561Y43062143D01*
G01X51801561Y43106143D01*
G01X51759565Y43106641D01*
G01X51754564Y43101642D01*
G01X51754564Y42986641D01*
G01X51759565Y42981640D01*
G37*
G36*
G01X51887566Y43322635D02*
G01X51759568Y43322635D01*
G01X51754566Y43317634D01*
G01X51754566Y43202633D01*
G01X51759568Y43197634D01*
G01X51800571Y43197131D01*
G01X51800571Y43242132D01*
G01X51845569Y43242132D01*
G01X51845569Y43198132D01*
G01X51887566Y43197634D01*
G01X51892567Y43202633D01*
G01X51892567Y43317634D01*
G01X51887566Y43322635D01*
G37*
G36*
G01X52707925Y41074842D02*
G01X52835923Y41074842D01*
G01X52840924Y41079843D01*
G01X52840924Y41194844D01*
G01X52835923Y41199843D01*
G01X52794920Y41200346D01*
G01X52794920Y41155344D01*
G01X52749921Y41155344D01*
G01X52749921Y41199345D01*
G01X52707925Y41199843D01*
G01X52702924Y41194844D01*
G01X52702924Y41079843D01*
G01X52707925Y41074842D01*
G37*
G36*
G01X52835926Y41415837D02*
G01X52707927Y41415837D01*
G01X52702926Y41410835D01*
G01X52702926Y41295834D01*
G01X52707927Y41290836D01*
G01X52748931Y41290333D01*
G01X52748931Y41335334D01*
G01X52793929Y41335334D01*
G01X52793929Y41291333D01*
G01X52835926Y41290836D01*
G01X52840927Y41295834D01*
G01X52840927Y41410835D01*
G01X52835926Y41415837D01*
G37*
G36*
G01X52472365Y39169113D02*
G01X52600363Y39169113D01*
G01X52605365Y39174114D01*
G01X52605365Y39289115D01*
G01X52600363Y39294114D01*
G01X52559360Y39294617D01*
G01X52559360Y39249615D01*
G01X52514362Y39249615D01*
G01X52514362Y39293616D01*
G01X52472365Y39294114D01*
G01X52467364Y39289115D01*
G01X52467364Y39174114D01*
G01X52472365Y39169113D01*
G37*
G36*
G01X52600366Y39510108D02*
G01X52472368Y39510108D01*
G01X52467366Y39505106D01*
G01X52467366Y39390105D01*
G01X52472368Y39385107D01*
G01X52513371Y39384604D01*
G01X52513371Y39429605D01*
G01X52558370Y39429605D01*
G01X52558370Y39385604D01*
G01X52600366Y39385107D01*
G01X52605367Y39390105D01*
G01X52605367Y39505106D01*
G01X52600366Y39510108D01*
G37*
G36*
G01X54143307Y49173154D02*
G01X54271305Y49173154D01*
G01X54276306Y49178155D01*
G01X54276306Y49293156D01*
G01X54271305Y49298155D01*
G01X54230302Y49298658D01*
G01X54230302Y49253657D01*
G01X54185303Y49253657D01*
G01X54185303Y49297657D01*
G01X54143307Y49298155D01*
G01X54138305Y49293156D01*
G01X54138305Y49178155D01*
G01X54143307Y49173154D01*
G37*
G36*
G01X54271308Y49514149D02*
G01X54143309Y49514149D01*
G01X54138308Y49509148D01*
G01X54138308Y49394147D01*
G01X54143309Y49389148D01*
G01X54184313Y49388645D01*
G01X54184313Y49433646D01*
G01X54229311Y49433646D01*
G01X54229311Y49389646D01*
G01X54271308Y49389148D01*
G01X54276309Y49394147D01*
G01X54276309Y49509148D01*
G01X54271308Y49514149D01*
G37*
G36*
G01X54139600Y46794103D02*
G01X54267598Y46794103D01*
G01X54272599Y46799104D01*
G01X54272599Y46914105D01*
G01X54267598Y46919104D01*
G01X54226595Y46919606D01*
G01X54226595Y46874605D01*
G01X54181596Y46874605D01*
G01X54181596Y46918606D01*
G01X54139600Y46919104D01*
G01X54134598Y46914105D01*
G01X54134598Y46799104D01*
G01X54139600Y46794103D01*
G37*
G36*
G01X54267600Y47135098D02*
G01X54139602Y47135098D01*
G01X54134601Y47130096D01*
G01X54134601Y47015095D01*
G01X54139602Y47010096D01*
G01X54180605Y47009594D01*
G01X54180605Y47054595D01*
G01X54225604Y47054595D01*
G01X54225604Y47010594D01*
G01X54267600Y47010096D01*
G01X54272602Y47015095D01*
G01X54272602Y47130096D01*
G01X54267600Y47135098D01*
G37*
G36*
G01X53184787Y44886838D02*
G01X53312785Y44886838D01*
G01X53317786Y44891839D01*
G01X53317786Y45006840D01*
G01X53312785Y45011839D01*
G01X53271782Y45012342D01*
G01X53271782Y44967341D01*
G01X53226783Y44967341D01*
G01X53226783Y45011341D01*
G01X53184787Y45011839D01*
G01X53179786Y45006840D01*
G01X53179786Y44891839D01*
G01X53184787Y44886838D01*
G37*
G36*
G01X53312788Y45227833D02*
G01X53184789Y45227833D01*
G01X53179788Y45222832D01*
G01X53179788Y45107831D01*
G01X53184789Y45102832D01*
G01X53225793Y45102329D01*
G01X53225793Y45147330D01*
G01X53270791Y45147330D01*
G01X53270791Y45103330D01*
G01X53312788Y45102832D01*
G01X53317789Y45107831D01*
G01X53317789Y45222832D01*
G01X53312788Y45227833D01*
G37*
G36*
G01X53660707Y42983240D02*
G01X53788705Y42983240D01*
G01X53793706Y42988241D01*
G01X53793706Y43103242D01*
G01X53788705Y43108241D01*
G01X53747702Y43108744D01*
G01X53747702Y43063743D01*
G01X53702703Y43063743D01*
G01X53702703Y43107743D01*
G01X53660707Y43108241D01*
G01X53655705Y43103242D01*
G01X53655705Y42988241D01*
G01X53660707Y42983240D01*
G37*
G36*
G01X53788708Y43324235D02*
G01X53660709Y43324235D01*
G01X53655708Y43319234D01*
G01X53655708Y43204233D01*
G01X53660709Y43199234D01*
G01X53701713Y43198731D01*
G01X53701713Y43243732D01*
G01X53746711Y43243732D01*
G01X53746711Y43199732D01*
G01X53788708Y43199234D01*
G01X53793709Y43204233D01*
G01X53793709Y43319234D01*
G01X53788708Y43324235D01*
G37*
G36*
G01X56045017Y49178234D02*
G01X56173016Y49178234D01*
G01X56178017Y49183235D01*
G01X56178017Y49298236D01*
G01X56173016Y49303235D01*
G01X56132012Y49303738D01*
G01X56132012Y49258737D01*
G01X56087014Y49258737D01*
G01X56087014Y49302737D01*
G01X56045017Y49303235D01*
G01X56040016Y49298236D01*
G01X56040016Y49183235D01*
G01X56045017Y49178234D01*
G37*
G36*
G01X56173018Y49519229D02*
G01X56045020Y49519229D01*
G01X56040019Y49514228D01*
G01X56040019Y49399227D01*
G01X56045020Y49394228D01*
G01X56086023Y49393725D01*
G01X56086023Y49438726D01*
G01X56131022Y49438726D01*
G01X56131022Y49394726D01*
G01X56173018Y49394228D01*
G01X56178019Y49399227D01*
G01X56178019Y49514228D01*
G01X56173018Y49519229D01*
G37*
G36*
G01X55091578Y44886838D02*
G01X55219576Y44886838D01*
G01X55224577Y44891839D01*
G01X55224577Y45006840D01*
G01X55219576Y45011839D01*
G01X55178573Y45012342D01*
G01X55178573Y44967341D01*
G01X55133574Y44967341D01*
G01X55133574Y45011341D01*
G01X55091578Y45011839D01*
G01X55086576Y45006840D01*
G01X55086576Y44891839D01*
G01X55091578Y44886838D01*
G37*
G36*
G01X55219578Y45227833D02*
G01X55091580Y45227833D01*
G01X55086579Y45222832D01*
G01X55086579Y45107831D01*
G01X55091580Y45102832D01*
G01X55132583Y45102329D01*
G01X55132583Y45147330D01*
G01X55177582Y45147330D01*
G01X55177582Y45103330D01*
G01X55219578Y45102832D01*
G01X55224580Y45107831D01*
G01X55224580Y45222832D01*
G01X55219578Y45227833D01*
G37*
G36*
G01X56760880Y42984103D02*
G01X56888878Y42984103D01*
G01X56893879Y42989104D01*
G01X56893879Y43104105D01*
G01X56888878Y43109104D01*
G01X56847875Y43109606D01*
G01X56847875Y43064605D01*
G01X56802876Y43064605D01*
G01X56802876Y43108606D01*
G01X56760880Y43109104D01*
G01X56755878Y43104105D01*
G01X56755878Y42989104D01*
G01X56760880Y42984103D01*
G37*
G36*
G01X56888880Y43325098D02*
G01X56760882Y43325098D01*
G01X56755881Y43320096D01*
G01X56755881Y43205095D01*
G01X56760882Y43200096D01*
G01X56801885Y43199594D01*
G01X56801885Y43244595D01*
G01X56846884Y43244595D01*
G01X56846884Y43200594D01*
G01X56888880Y43200096D01*
G01X56893882Y43205095D01*
G01X56893882Y43320096D01*
G01X56888880Y43325098D01*
G37*
G36*
G01X55569098Y41081522D02*
G01X55697096Y41081522D01*
G01X55702097Y41086523D01*
G01X55702097Y41201524D01*
G01X55697096Y41206523D01*
G01X55656093Y41207026D01*
G01X55656093Y41162025D01*
G01X55611094Y41162025D01*
G01X55611094Y41206025D01*
G01X55569098Y41206523D01*
G01X55564096Y41201524D01*
G01X55564096Y41086523D01*
G01X55569098Y41081522D01*
G37*
G36*
G01X55697098Y41422517D02*
G01X55569100Y41422517D01*
G01X55564099Y41417516D01*
G01X55564099Y41302515D01*
G01X55569100Y41297516D01*
G01X55610103Y41297013D01*
G01X55610103Y41342014D01*
G01X55655102Y41342014D01*
G01X55655102Y41298014D01*
G01X55697098Y41297516D01*
G01X55702100Y41302515D01*
G01X55702100Y41417516D01*
G01X55697098Y41422517D01*
G37*
G36*
G01X56520658Y39169113D02*
G01X56648656Y39169113D01*
G01X56653657Y39174114D01*
G01X56653657Y39289115D01*
G01X56648656Y39294114D01*
G01X56607653Y39294617D01*
G01X56607653Y39249615D01*
G01X56562654Y39249615D01*
G01X56562654Y39293616D01*
G01X56520658Y39294114D01*
G01X56515657Y39289115D01*
G01X56515657Y39174114D01*
G01X56520658Y39169113D01*
G37*
G36*
G01X56648659Y39510108D02*
G01X56520660Y39510108D01*
G01X56515659Y39505106D01*
G01X56515659Y39390105D01*
G01X56520660Y39385107D01*
G01X56561664Y39384604D01*
G01X56561664Y39429605D01*
G01X56606662Y39429605D01*
G01X56606662Y39385604D01*
G01X56648659Y39385107D01*
G01X56653660Y39390105D01*
G01X56653660Y39505106D01*
G01X56648659Y39510108D01*
G37*
G36*
G01X57953408Y49174754D02*
G01X58081407Y49174754D01*
G01X58086408Y49179756D01*
G01X58086408Y49294757D01*
G01X58081407Y49299755D01*
G01X58040403Y49300258D01*
G01X58040403Y49255257D01*
G01X57995405Y49255257D01*
G01X57995405Y49299258D01*
G01X57953408Y49299755D01*
G01X57948407Y49294757D01*
G01X57948407Y49179756D01*
G01X57953408Y49174754D01*
G37*
G36*
G01X58081409Y49515749D02*
G01X57953411Y49515749D01*
G01X57948410Y49510748D01*
G01X57948410Y49395747D01*
G01X57953411Y49390748D01*
G01X57994414Y49390245D01*
G01X57994414Y49435247D01*
G01X58039413Y49435247D01*
G01X58039413Y49391246D01*
G01X58081409Y49390748D01*
G01X58086410Y49395747D01*
G01X58086410Y49510748D01*
G01X58081409Y49515749D01*
G37*
G36*
G01X56999640Y46794103D02*
G01X57127638Y46794103D01*
G01X57132639Y46799104D01*
G01X57132639Y46914105D01*
G01X57127638Y46919104D01*
G01X57086635Y46919606D01*
G01X57086635Y46874605D01*
G01X57041636Y46874605D01*
G01X57041636Y46918606D01*
G01X56999640Y46919104D01*
G01X56994638Y46914105D01*
G01X56994638Y46799104D01*
G01X56999640Y46794103D01*
G37*
G36*
G01X57127640Y47135098D02*
G01X56999642Y47135098D01*
G01X56994641Y47130096D01*
G01X56994641Y47015095D01*
G01X56999642Y47010096D01*
G01X57040645Y47009594D01*
G01X57040645Y47054595D01*
G01X57085644Y47054595D01*
G01X57085644Y47010594D01*
G01X57127640Y47010096D01*
G01X57132642Y47015095D01*
G01X57132642Y47130096D01*
G01X57127640Y47135098D01*
G37*
G36*
G01X57470808Y44886838D02*
G01X57598807Y44886838D01*
G01X57603808Y44891839D01*
G01X57603808Y45006840D01*
G01X57598807Y45011839D01*
G01X57557803Y45012342D01*
G01X57557803Y44967341D01*
G01X57512805Y44967341D01*
G01X57512805Y45011341D01*
G01X57470808Y45011839D01*
G01X57465807Y45006840D01*
G01X57465807Y44891839D01*
G01X57470808Y44886838D01*
G37*
G36*
G01X57598809Y45227833D02*
G01X57470811Y45227833D01*
G01X57465810Y45222832D01*
G01X57465810Y45107831D01*
G01X57470811Y45102832D01*
G01X57511814Y45102329D01*
G01X57511814Y45147330D01*
G01X57556813Y45147330D01*
G01X57556813Y45103330D01*
G01X57598809Y45102832D01*
G01X57603810Y45107831D01*
G01X57603810Y45222832D01*
G01X57598809Y45227833D01*
G37*
G36*
G01X58425848Y41076442D02*
G01X58553847Y41076442D01*
G01X58558848Y41081443D01*
G01X58558848Y41196444D01*
G01X58553847Y41201443D01*
G01X58512843Y41201946D01*
G01X58512843Y41156945D01*
G01X58467845Y41156945D01*
G01X58467845Y41200945D01*
G01X58425848Y41201443D01*
G01X58420847Y41196444D01*
G01X58420847Y41081443D01*
G01X58425848Y41076442D01*
G37*
G36*
G01X58553849Y41417437D02*
G01X58425851Y41417437D01*
G01X58420850Y41412436D01*
G01X58420850Y41297435D01*
G01X58425851Y41292436D01*
G01X58466854Y41291933D01*
G01X58466854Y41336934D01*
G01X58511853Y41336934D01*
G01X58511853Y41292934D01*
G01X58553849Y41292436D01*
G01X58558850Y41297435D01*
G01X58558850Y41412436D01*
G01X58553849Y41417437D01*
G37*
G36*
G01X58427449Y39169113D02*
G01X58555447Y39169113D01*
G01X58560448Y39174114D01*
G01X58560448Y39289115D01*
G01X58555447Y39294114D01*
G01X58514444Y39294617D01*
G01X58514444Y39249615D01*
G01X58469445Y39249615D01*
G01X58469445Y39293616D01*
G01X58427449Y39294114D01*
G01X58422447Y39289115D01*
G01X58422447Y39174114D01*
G01X58427449Y39169113D01*
G37*
G36*
G01X58555449Y39510108D02*
G01X58427451Y39510108D01*
G01X58422450Y39505106D01*
G01X58422450Y39390105D01*
G01X58427451Y39385107D01*
G01X58468454Y39384604D01*
G01X58468454Y39429605D01*
G01X58513453Y39429605D01*
G01X58513453Y39385604D01*
G01X58555449Y39385107D01*
G01X58560451Y39390105D01*
G01X58560451Y39505106D01*
G01X58555449Y39510108D01*
G37*
G36*
G01X60332639Y49174754D02*
G01X60460637Y49174754D01*
G01X60465639Y49179756D01*
G01X60465639Y49294757D01*
G01X60460637Y49299755D01*
G01X60419634Y49300258D01*
G01X60419634Y49255257D01*
G01X60374635Y49255257D01*
G01X60374635Y49299258D01*
G01X60332639Y49299755D01*
G01X60327638Y49294757D01*
G01X60327638Y49179756D01*
G01X60332639Y49174754D01*
G37*
G36*
G01X60460640Y49515749D02*
G01X60332642Y49515749D01*
G01X60327640Y49510748D01*
G01X60327640Y49395747D01*
G01X60332642Y49390748D01*
G01X60373645Y49390245D01*
G01X60373645Y49435247D01*
G01X60418643Y49435247D01*
G01X60418643Y49391246D01*
G01X60460640Y49390748D01*
G01X60465641Y49395747D01*
G01X60465641Y49510748D01*
G01X60460640Y49515749D01*
G37*
G36*
G01X60332120Y46794103D02*
G01X60460118Y46794103D01*
G01X60465119Y46799104D01*
G01X60465119Y46914105D01*
G01X60460118Y46919104D01*
G01X60419115Y46919606D01*
G01X60419115Y46874605D01*
G01X60374116Y46874605D01*
G01X60374116Y46918606D01*
G01X60332120Y46919104D01*
G01X60327118Y46914105D01*
G01X60327118Y46799104D01*
G01X60332120Y46794103D01*
G37*
G36*
G01X60460120Y47135098D02*
G01X60332122Y47135098D01*
G01X60327121Y47130096D01*
G01X60327121Y47015095D01*
G01X60332122Y47010096D01*
G01X60373125Y47009594D01*
G01X60373125Y47054595D01*
G01X60418124Y47054595D01*
G01X60418124Y47010594D01*
G01X60460120Y47010096D01*
G01X60465122Y47015095D01*
G01X60465122Y47130096D01*
G01X60460120Y47135098D01*
G37*
G36*
G01X60327040Y44884023D02*
G01X60455038Y44884023D01*
G01X60460039Y44889024D01*
G01X60460039Y45004025D01*
G01X60455038Y45009024D01*
G01X60414035Y45009526D01*
G01X60414035Y44964525D01*
G01X60369036Y44964525D01*
G01X60369036Y45008526D01*
G01X60327040Y45009024D01*
G01X60322038Y45004025D01*
G01X60322038Y44889024D01*
G01X60327040Y44884023D01*
G37*
G36*
G01X60455040Y45225018D02*
G01X60327042Y45225018D01*
G01X60322041Y45220016D01*
G01X60322041Y45105015D01*
G01X60327042Y45100016D01*
G01X60368045Y45099514D01*
G01X60368045Y45144515D01*
G01X60413044Y45144515D01*
G01X60413044Y45100514D01*
G01X60455040Y45100016D01*
G01X60460042Y45105015D01*
G01X60460042Y45220016D01*
G01X60455040Y45225018D01*
G37*
G36*
G01X60327040Y42984103D02*
G01X60455038Y42984103D01*
G01X60460039Y42989104D01*
G01X60460039Y43104105D01*
G01X60455038Y43109104D01*
G01X60414035Y43109606D01*
G01X60414035Y43064605D01*
G01X60369036Y43064605D01*
G01X60369036Y43108606D01*
G01X60327040Y43109104D01*
G01X60322038Y43104105D01*
G01X60322038Y42989104D01*
G01X60327040Y42984103D01*
G37*
G36*
G01X60455040Y43325098D02*
G01X60327042Y43325098D01*
G01X60322041Y43320096D01*
G01X60322041Y43205095D01*
G01X60327042Y43200096D01*
G01X60368045Y43199594D01*
G01X60368045Y43244595D01*
G01X60413044Y43244595D01*
G01X60413044Y43200594D01*
G01X60455040Y43200096D01*
G01X60460042Y43205095D01*
G01X60460042Y43320096D01*
G01X60455040Y43325098D01*
G37*
G36*
G01X60332639Y41076442D02*
G01X60460637Y41076442D01*
G01X60465639Y41081443D01*
G01X60465639Y41196444D01*
G01X60460637Y41201443D01*
G01X60419634Y41201946D01*
G01X60419634Y41156945D01*
G01X60374635Y41156945D01*
G01X60374635Y41200945D01*
G01X60332639Y41201443D01*
G01X60327638Y41196444D01*
G01X60327638Y41081443D01*
G01X60332639Y41076442D01*
G37*
G36*
G01X60460640Y41417437D02*
G01X60332642Y41417437D01*
G01X60327640Y41412436D01*
G01X60327640Y41297435D01*
G01X60332642Y41292436D01*
G01X60373645Y41291933D01*
G01X60373645Y41336934D01*
G01X60418643Y41336934D01*
G01X60418643Y41292934D01*
G01X60460640Y41292436D01*
G01X60465641Y41297435D01*
G01X60465641Y41412436D01*
G01X60460640Y41417437D01*
G37*
G36*
G01X60331039Y39165912D02*
G01X60459037Y39165912D01*
G01X60464038Y39170914D01*
G01X60464038Y39285915D01*
G01X60459037Y39290913D01*
G01X60418034Y39291416D01*
G01X60418034Y39246415D01*
G01X60373035Y39246415D01*
G01X60373035Y39290415D01*
G01X60331039Y39290913D01*
G01X60326038Y39285915D01*
G01X60326038Y39170914D01*
G01X60331039Y39165912D01*
G37*
G36*
G01X60459040Y39506907D02*
G01X60331041Y39506907D01*
G01X60326040Y39501906D01*
G01X60326040Y39386905D01*
G01X60331041Y39381906D01*
G01X60372045Y39381403D01*
G01X60372045Y39426405D01*
G01X60417043Y39426405D01*
G01X60417043Y39382404D01*
G01X60459040Y39381906D01*
G01X60464041Y39386905D01*
G01X60464041Y39501906D01*
G01X60459040Y39506907D01*
G37*
G36*
G01X54612040Y39169023D02*
G01X54740038Y39169023D01*
G01X54745039Y39174024D01*
G01X54745039Y39289025D01*
G01X54740038Y39294024D01*
G01X54699035Y39294526D01*
G01X54699035Y39249525D01*
G01X54654036Y39249525D01*
G01X54654036Y39293526D01*
G01X54612040Y39294024D01*
G01X54607038Y39289025D01*
G01X54607038Y39174024D01*
G01X54612040Y39169023D01*
G37*
G36*
G01X54740040Y39510018D02*
G01X54612042Y39510018D01*
G01X54607041Y39505016D01*
G01X54607041Y39390015D01*
G01X54612042Y39385016D01*
G01X54653045Y39384514D01*
G01X54653045Y39429515D01*
G01X54698044Y39429515D01*
G01X54698044Y39385514D01*
G01X54740040Y39385016D01*
G01X54745042Y39390015D01*
G01X54745042Y39505016D01*
G01X54740040Y39510018D01*
G37*
G36*
G01X32355822Y49183540D02*
G01X32483820Y49183540D01*
G01X32488821Y49188541D01*
G01X32488821Y49303542D01*
G01X32483820Y49308541D01*
G01X32442817Y49309044D01*
G01X32442817Y49264043D01*
G01X32397818Y49264043D01*
G01X32397818Y49308043D01*
G01X32355822Y49308541D01*
G01X32350820Y49303542D01*
G01X32350820Y49188541D01*
G01X32355822Y49183540D01*
G37*
G36*
G01X32355822Y49398541D02*
G01X32397818Y49398544D01*
G01X32397818Y49443042D01*
G01X32442817Y49443042D01*
G01X32442817Y49399044D01*
G01X32483820Y49398541D01*
G01X32488821Y49403542D01*
G01X32488821Y49518541D01*
G01X32483820Y49523542D01*
G01X32355822Y49523542D01*
G01X32350820Y49518541D01*
G01X32350820Y49403542D01*
G01X32355822Y49398541D01*
G37*
G36*
G01X32476142Y46794142D02*
G01X32604140Y46794142D01*
G01X32609141Y46799143D01*
G01X32609141Y46914144D01*
G01X32604140Y46919143D01*
G01X32563137Y46919646D01*
G01X32563137Y46874645D01*
G01X32518138Y46874645D01*
G01X32518138Y46918645D01*
G01X32476142Y46919143D01*
G01X32471140Y46914144D01*
G01X32471140Y46799143D01*
G01X32476142Y46794142D01*
G37*
G36*
G01X32476142Y47009143D02*
G01X32518138Y47009145D01*
G01X32518138Y47053644D01*
G01X32563137Y47053644D01*
G01X32563137Y47009646D01*
G01X32604140Y47009143D01*
G01X32609141Y47014144D01*
G01X32609141Y47129142D01*
G01X32604140Y47134144D01*
G01X32476142Y47134144D01*
G01X32471140Y47129142D01*
G01X32471140Y47014144D01*
G01X32476142Y47009143D01*
G37*
G36*
G01X32972381Y44887344D02*
G01X33100380Y44887344D01*
G01X33105381Y44892345D01*
G01X33105381Y45007346D01*
G01X33100380Y45012345D01*
G01X33059376Y45012847D01*
G01X33059376Y44967846D01*
G01X33014378Y44967846D01*
G01X33014378Y45011847D01*
G01X32972381Y45012345D01*
G01X32967380Y45007346D01*
G01X32967380Y44892345D01*
G01X32972381Y44887344D01*
G37*
G36*
G01X32972381Y45102344D02*
G01X33014378Y45102347D01*
G01X33014378Y45146845D01*
G01X33059376Y45146845D01*
G01X33059376Y45102847D01*
G01X33100380Y45102344D01*
G01X33105381Y45107346D01*
G01X33105381Y45222344D01*
G01X33100380Y45227345D01*
G01X32972381Y45227345D01*
G01X32967380Y45222344D01*
G01X32967380Y45107346D01*
G01X32972381Y45102344D01*
G37*
G36*
G01X33207662Y42983746D02*
G01X33335660Y42983746D01*
G01X33340661Y42988747D01*
G01X33340661Y43103748D01*
G01X33335660Y43108747D01*
G01X33294657Y43109250D01*
G01X33294657Y43064248D01*
G01X33249658Y43064248D01*
G01X33249658Y43108249D01*
G01X33207662Y43108747D01*
G01X33202660Y43103748D01*
G01X33202660Y42988747D01*
G01X33207662Y42983746D01*
G37*
G36*
G01X33207662Y43198746D02*
G01X33249658Y43198749D01*
G01X33249658Y43243247D01*
G01X33294657Y43243247D01*
G01X33294657Y43199249D01*
G01X33335660Y43198746D01*
G01X33340661Y43203748D01*
G01X33340661Y43318746D01*
G01X33335660Y43323747D01*
G01X33207662Y43323747D01*
G01X33202660Y43318746D01*
G01X33202660Y43203748D01*
G01X33207662Y43198746D01*
G37*
G36*
G01X33675022Y41078548D02*
G01X33803020Y41078548D01*
G01X33808021Y41083549D01*
G01X33808021Y41198550D01*
G01X33803020Y41203549D01*
G01X33762017Y41204051D01*
G01X33762017Y41159050D01*
G01X33717018Y41159050D01*
G01X33717018Y41203051D01*
G01X33675022Y41203549D01*
G01X33670020Y41198550D01*
G01X33670020Y41083549D01*
G01X33675022Y41078548D01*
G37*
G36*
G01X33675022Y41293548D02*
G01X33717018Y41293551D01*
G01X33717018Y41338049D01*
G01X33762017Y41338049D01*
G01X33762017Y41294051D01*
G01X33803020Y41293548D01*
G01X33808021Y41298550D01*
G01X33808021Y41413548D01*
G01X33803020Y41418549D01*
G01X33675022Y41418549D01*
G01X33670020Y41413548D01*
G01X33670020Y41298550D01*
G01X33675022Y41293548D01*
G37*
G36*
G01X32740302Y39174698D02*
G01X32868300Y39174698D01*
G01X32873301Y39179699D01*
G01X32873301Y39294700D01*
G01X32868300Y39299699D01*
G01X32827297Y39300202D01*
G01X32827297Y39255201D01*
G01X32782298Y39255201D01*
G01X32782298Y39299201D01*
G01X32740302Y39299699D01*
G01X32735300Y39294700D01*
G01X32735300Y39179699D01*
G01X32740302Y39174698D01*
G37*
G36*
G01X32740302Y39389699D02*
G01X32782298Y39389702D01*
G01X32782298Y39434200D01*
G01X32827297Y39434200D01*
G01X32827297Y39390202D01*
G01X32868300Y39389699D01*
G01X32873301Y39394700D01*
G01X32873301Y39509699D01*
G01X32868300Y39514700D01*
G01X32740302Y39514700D01*
G01X32735300Y39509699D01*
G01X32735300Y39394700D01*
G01X32740302Y39389699D01*
G37*
G36*
G01X61548623Y49027930D02*
G01X61676622Y49027930D01*
G01X61681623Y49032931D01*
G01X61681623Y49147932D01*
G01X61676622Y49152931D01*
G01X61635618Y49153434D01*
G01X61635618Y49108432D01*
G01X61590620Y49108432D01*
G01X61590620Y49152433D01*
G01X61548623Y49152931D01*
G01X61543622Y49147932D01*
G01X61543622Y49032931D01*
G01X61548623Y49027930D01*
G37*
G36*
G01X61548623Y49242930D02*
G01X61590620Y49242933D01*
G01X61590620Y49287431D01*
G01X61635618Y49287431D01*
G01X61635618Y49243433D01*
G01X61676622Y49242930D01*
G01X61681623Y49247932D01*
G01X61681623Y49362930D01*
G01X61676622Y49367931D01*
G01X61548623Y49367931D01*
G01X61543622Y49362930D01*
G01X61543622Y49247932D01*
G01X61548623Y49242930D01*
G37*
G36*
G01X61536084Y46751998D02*
G01X61664083Y46751998D01*
G01X61669084Y46757000D01*
G01X61669084Y46872001D01*
G01X61664083Y46876999D01*
G01X61623079Y46877502D01*
G01X61623079Y46832501D01*
G01X61578081Y46832501D01*
G01X61578081Y46876502D01*
G01X61536084Y46876999D01*
G01X61531083Y46872001D01*
G01X61531083Y46757000D01*
G01X61536084Y46751998D01*
G37*
G36*
G01X61536084Y46966999D02*
G01X61578081Y46967002D01*
G01X61578081Y47011500D01*
G01X61623079Y47011500D01*
G01X61623079Y46967502D01*
G01X61664083Y46966999D01*
G01X61669084Y46972001D01*
G01X61669084Y47086999D01*
G01X61664083Y47092000D01*
G01X61536084Y47092000D01*
G01X61531083Y47086999D01*
G01X61531083Y46972001D01*
G01X61536084Y46966999D01*
G37*
G36*
G01X61501982Y44880488D02*
G01X61629980Y44880488D01*
G01X61634981Y44885490D01*
G01X61634981Y45000491D01*
G01X61629980Y45005489D01*
G01X61588977Y45005992D01*
G01X61588977Y44960991D01*
G01X61543978Y44960991D01*
G01X61543978Y45004992D01*
G01X61501982Y45005489D01*
G01X61496980Y45000491D01*
G01X61496980Y44885490D01*
G01X61501982Y44880488D01*
G37*
G36*
G01X61501982Y45095489D02*
G01X61543978Y45095492D01*
G01X61543978Y45139990D01*
G01X61588977Y45139990D01*
G01X61588977Y45095992D01*
G01X61629980Y45095489D01*
G01X61634981Y45100490D01*
G01X61634981Y45215489D01*
G01X61629980Y45220490D01*
G01X61501982Y45220490D01*
G01X61496980Y45215489D01*
G01X61496980Y45100490D01*
G01X61501982Y45095489D01*
G37*
G36*
G01X61544455Y42947542D02*
G01X61672453Y42947542D01*
G01X61677455Y42952544D01*
G01X61677455Y43067545D01*
G01X61672453Y43072543D01*
G01X61631450Y43073046D01*
G01X61631450Y43028045D01*
G01X61586452Y43028045D01*
G01X61586452Y43072045D01*
G01X61544455Y43072543D01*
G01X61539454Y43067545D01*
G01X61539454Y42952544D01*
G01X61544455Y42947542D01*
G37*
G36*
G01X61544455Y43162543D02*
G01X61586452Y43162546D01*
G01X61586452Y43207044D01*
G01X61631450Y43207044D01*
G01X61631450Y43163046D01*
G01X61672453Y43162543D01*
G01X61677455Y43167544D01*
G01X61677455Y43282543D01*
G01X61672453Y43287544D01*
G01X61544455Y43287544D01*
G01X61539454Y43282543D01*
G01X61539454Y43167544D01*
G01X61544455Y43162543D01*
G37*
G36*
G01X61538235Y41064795D02*
G01X61666233Y41064795D01*
G01X61671235Y41069796D01*
G01X61671235Y41184797D01*
G01X61666233Y41189796D01*
G01X61625230Y41190299D01*
G01X61625230Y41145298D01*
G01X61580231Y41145298D01*
G01X61580231Y41189298D01*
G01X61538235Y41189796D01*
G01X61533234Y41184797D01*
G01X61533234Y41069796D01*
G01X61538235Y41064795D01*
G37*
G36*
G01X61538235Y41279796D02*
G01X61580231Y41279798D01*
G01X61580231Y41324297D01*
G01X61625230Y41324297D01*
G01X61625230Y41280299D01*
G01X61666233Y41279796D01*
G01X61671235Y41284797D01*
G01X61671235Y41399796D01*
G01X61666233Y41404797D01*
G01X61538235Y41404797D01*
G01X61533234Y41399796D01*
G01X61533234Y41284797D01*
G01X61538235Y41279796D01*
G37*
G36*
G01X61485280Y39169518D02*
G01X61613278Y39169518D01*
G01X61618279Y39174519D01*
G01X61618279Y39289520D01*
G01X61613278Y39294519D01*
G01X61572275Y39295022D01*
G01X61572275Y39250021D01*
G01X61527276Y39250021D01*
G01X61527276Y39294021D01*
G01X61485280Y39294519D01*
G01X61480278Y39289520D01*
G01X61480278Y39174519D01*
G01X61485280Y39169518D01*
G37*
G36*
G01X61485280Y39384519D02*
G01X61527276Y39384521D01*
G01X61527276Y39429019D01*
G01X61572275Y39429019D01*
G01X61572275Y39385022D01*
G01X61613278Y39384519D01*
G01X61618279Y39389520D01*
G01X61618279Y39504518D01*
G01X61613278Y39509520D01*
G01X61485280Y39509520D01*
G01X61480278Y39504518D01*
G01X61480278Y39389520D01*
G01X61485280Y39384519D01*
G37*
G36*
G01X45386588Y39447521D02*
G01X45514586Y39447521D01*
G01X45519587Y39452523D01*
G01X45519587Y39567524D01*
G01X45514586Y39572522D01*
G01X45473583Y39573025D01*
G01X45473583Y39528024D01*
G01X45428584Y39528024D01*
G01X45428584Y39572024D01*
G01X45386588Y39572522D01*
G01X45381586Y39567524D01*
G01X45381586Y39452523D01*
G01X45386588Y39447521D01*
G37*
G36*
G01X45514588Y39788516D02*
G01X45386590Y39788516D01*
G01X45381589Y39783515D01*
G01X45381589Y39668514D01*
G01X45386590Y39663515D01*
G01X45427593Y39663012D01*
G01X45427593Y39708014D01*
G01X45472592Y39708014D01*
G01X45472592Y39664013D01*
G01X45514588Y39663515D01*
G01X45519590Y39668514D01*
G01X45519590Y39783515D01*
G01X45514588Y39788516D01*
G37*
G36*
G01X45386588Y39895057D02*
G01X45514586Y39895057D01*
G01X45519587Y39900058D01*
G01X45519587Y40015059D01*
G01X45514586Y40020058D01*
G01X45473583Y40020561D01*
G01X45473583Y39975559D01*
G01X45428584Y39975559D01*
G01X45428584Y40019560D01*
G01X45386588Y40020058D01*
G01X45381586Y40015059D01*
G01X45381586Y39900058D01*
G01X45386588Y39895057D01*
G37*
G36*
G01X45386588Y40110057D02*
G01X45428584Y40110060D01*
G01X45428584Y40154558D01*
G01X45473583Y40154558D01*
G01X45473583Y40110560D01*
G01X45514586Y40110057D01*
G01X45519587Y40115059D01*
G01X45519587Y40230057D01*
G01X45514586Y40235058D01*
G01X45386588Y40235058D01*
G01X45381586Y40230057D01*
G01X45381586Y40115059D01*
G01X45386588Y40110057D01*
G37*
G36*
G01X51580087Y50200936D02*
G01X51580087Y50090936D01*
G01X51550085Y50090936D01*
G01X51550085Y50200936D01*
G01X51580087Y50200936D01*
G37*
G36*
G01X51600097Y50090936D02*
G01X51600097Y50200936D01*
G01X51630100Y50200936D01*
G01X51630100Y50090936D01*
G01X51600097Y50090936D01*
G37*
G36*
G01X51090078Y50090936D02*
G01X51090078Y50200936D01*
G01X51150078Y50200936D01*
G01X51150078Y50090936D01*
G01X51090078Y50090936D01*
G37*
G36*
G01X51530075Y50200936D02*
G01X51530075Y50090936D01*
G01X51500072Y50090936D01*
G01X51500072Y50200936D01*
G01X51530075Y50200936D01*
G37*
G36*
G01X51650097Y50090936D02*
G01X51650097Y50200936D01*
G01X51710097Y50200936D01*
G01X51710097Y50090936D01*
G01X51650097Y50090936D01*
G37*
G36*
G01X51790082Y50200936D02*
G01X51790082Y50090936D01*
G01X51730082Y50090936D01*
G01X51730082Y50200936D01*
G01X51790082Y50200936D01*
G37*
G36*
G01X51480088Y50200936D02*
G01X51480088Y50090936D01*
G01X51450085Y50090936D01*
G01X51450085Y50200936D01*
G01X51480088Y50200936D01*
G37*
G36*
G01X51430075Y50200936D02*
G01X51430075Y50090936D01*
G01X51400072Y50090936D01*
G01X51400072Y50200936D01*
G01X51430075Y50200936D01*
G37*
G36*
G01X51170088Y50090936D02*
G01X51170088Y50200936D01*
G01X51230088Y50200936D01*
G01X51230088Y50090936D01*
G01X51170088Y50090936D01*
G37*
G36*
G01X51380088Y50200936D02*
G01X51380088Y50090936D01*
G01X51350085Y50090936D01*
G01X51350085Y50200936D01*
G01X51380088Y50200936D01*
G37*
G36*
G01X51330101Y50200936D02*
G01X51330101Y50090936D01*
G01X51300098Y50090936D01*
G01X51300098Y50200936D01*
G01X51330101Y50200936D01*
G37*
G36*
G01X51280088Y50200936D02*
G01X51280088Y50090936D01*
G01X51250085Y50090936D01*
G01X51250085Y50200936D01*
G01X51280088Y50200936D01*
G37*
G36*
G01X51877062Y50101096D02*
G01X51874075Y50100946D01*
G01X51871082Y50100946D01*
G01X51868095Y50101096D01*
G01X51865119Y50101393D01*
G01X51862159Y50101840D01*
G01X51859228Y50102432D01*
G01X51856328Y50103171D01*
G01X51853470Y50104053D01*
G01X51850658Y50105076D01*
G01X51847902Y50106237D01*
G01X51845205Y50107535D01*
G01X51842579Y50108968D01*
G01X51840026Y50110527D01*
G01X51837554Y50112211D01*
G01X51835169Y50114020D01*
G01X51832878Y50115942D01*
G01X51830684Y50117977D01*
G01X51828596Y50120118D01*
G01X51826615Y50122361D01*
G01X51824750Y50124700D01*
G01X51823005Y50127129D01*
G01X51821382Y50129643D01*
G01X51819886Y50132234D01*
G01X51818520Y50134896D01*
G01X51817290Y50137621D01*
G01X51816198Y50140408D01*
G01X51815243Y50143242D01*
G01X51814433Y50146123D01*
G01X51813767Y50149039D01*
G01X51813249Y50151985D01*
G01X51812876Y50154954D01*
G01X51812652Y50157939D01*
G01X51812579Y50160928D01*
G01X51812579Y50240928D01*
G01X51812652Y50243918D01*
G01X51812876Y50246902D01*
G01X51813249Y50249872D01*
G01X51813767Y50252818D01*
G01X51814433Y50255734D01*
G01X51815243Y50258614D01*
G01X51816198Y50261449D01*
G01X51817290Y50264235D01*
G01X51818520Y50266961D01*
G01X51819886Y50269623D01*
G01X51821382Y50272213D01*
G01X51823005Y50274728D01*
G01X51824750Y50277156D01*
G01X51826615Y50279496D01*
G01X51828596Y50281738D01*
G01X51830684Y50283880D01*
G01X51832878Y50285914D01*
G01X51835169Y50287837D01*
G01X51837554Y50289645D01*
G01X51840026Y50291329D01*
G01X51842579Y50292889D01*
G01X51845205Y50294322D01*
G01X51847902Y50295620D01*
G01X51850658Y50296780D01*
G01X51853470Y50297804D01*
G01X51856328Y50298685D01*
G01X51859228Y50299424D01*
G01X51862159Y50300016D01*
G01X51865119Y50300463D01*
G01X51868095Y50300760D01*
G01X51871082Y50300910D01*
G01X51874075Y50300910D01*
G01X51877062Y50300760D01*
G01X51880038Y50300463D01*
G01X51882998Y50300016D01*
G01X51885929Y50299424D01*
G01X51888829Y50298685D01*
G01X51891687Y50297804D01*
G01X51894499Y50296780D01*
G01X51897255Y50295620D01*
G01X51899952Y50294322D01*
G01X51902578Y50292889D01*
G01X51905131Y50291329D01*
G01X51907603Y50289645D01*
G01X51909988Y50287837D01*
G01X51912279Y50285914D01*
G01X51914473Y50283880D01*
G01X51916561Y50281738D01*
G01X51918542Y50279496D01*
G01X51920407Y50277156D01*
G01X51922152Y50274728D01*
G01X51923775Y50272213D01*
G01X51925271Y50269623D01*
G01X51926637Y50266961D01*
G01X51927867Y50264235D01*
G01X51928959Y50261449D01*
G01X51929914Y50258614D01*
G01X51930724Y50255734D01*
G01X51931390Y50252818D01*
G01X51931908Y50249872D01*
G01X51932281Y50246902D01*
G01X51932505Y50243918D01*
G01X51932578Y50240928D01*
G01X51932578Y50160928D01*
G01X51932505Y50157939D01*
G01X51932281Y50154954D01*
G01X51931908Y50151985D01*
G01X51931390Y50149039D01*
G01X51930724Y50146123D01*
G01X51929914Y50143242D01*
G01X51928959Y50140408D01*
G01X51927867Y50137621D01*
G01X51926637Y50134896D01*
G01X51925271Y50132234D01*
G01X51923775Y50129643D01*
G01X51922152Y50127129D01*
G01X51920407Y50124700D01*
G01X51918542Y50122361D01*
G01X51916561Y50120118D01*
G01X51914473Y50117977D01*
G01X51912279Y50115942D01*
G01X51909988Y50114020D01*
G01X51907603Y50112211D01*
G01X51905131Y50110527D01*
G01X51902578Y50108968D01*
G01X51899952Y50107535D01*
G01X51897255Y50106237D01*
G01X51894499Y50105076D01*
G01X51891687Y50104053D01*
G01X51888829Y50103171D01*
G01X51885929Y50102432D01*
G01X51882998Y50101840D01*
G01X51880038Y50101393D01*
G01X51877062Y50101096D01*
G37*
G36*
G01X51006085Y50100946D02*
G01X51003098Y50101096D01*
G01X51000122Y50101393D01*
G01X50997162Y50101840D01*
G01X50994231Y50102432D01*
G01X50991331Y50103171D01*
G01X50988473Y50104053D01*
G01X50985661Y50105076D01*
G01X50982905Y50106237D01*
G01X50980208Y50107535D01*
G01X50977582Y50108968D01*
G01X50975029Y50110527D01*
G01X50972557Y50112211D01*
G01X50970172Y50114020D01*
G01X50967881Y50115942D01*
G01X50965687Y50117977D01*
G01X50963599Y50120118D01*
G01X50961618Y50122361D01*
G01X50959753Y50124700D01*
G01X50958008Y50127129D01*
G01X50956385Y50129643D01*
G01X50954889Y50132234D01*
G01X50953523Y50134896D01*
G01X50952293Y50137621D01*
G01X50951201Y50140408D01*
G01X50950246Y50143242D01*
G01X50949436Y50146123D01*
G01X50948770Y50149039D01*
G01X50948252Y50151985D01*
G01X50947879Y50154954D01*
G01X50947655Y50157939D01*
G01X50947582Y50160928D01*
G01X50947582Y50240928D01*
G01X50947655Y50243918D01*
G01X50947879Y50246902D01*
G01X50948252Y50249872D01*
G01X50948770Y50252818D01*
G01X50949436Y50255734D01*
G01X50950246Y50258614D01*
G01X50951201Y50261449D01*
G01X50952293Y50264235D01*
G01X50953523Y50266961D01*
G01X50954889Y50269623D01*
G01X50956385Y50272213D01*
G01X50958008Y50274728D01*
G01X50959753Y50277156D01*
G01X50961618Y50279496D01*
G01X50963599Y50281738D01*
G01X50965687Y50283880D01*
G01X50967881Y50285914D01*
G01X50970172Y50287837D01*
G01X50972557Y50289645D01*
G01X50975029Y50291329D01*
G01X50977582Y50292889D01*
G01X50980208Y50294322D01*
G01X50982905Y50295620D01*
G01X50985661Y50296780D01*
G01X50988473Y50297804D01*
G01X50991331Y50298685D01*
G01X50994231Y50299424D01*
G01X50997162Y50300016D01*
G01X51000122Y50300463D01*
G01X51003098Y50300760D01*
G01X51006085Y50300910D01*
G01X51009078Y50300910D01*
G01X51012065Y50300760D01*
G01X51015041Y50300463D01*
G01X51018001Y50300016D01*
G01X51020932Y50299424D01*
G01X51023832Y50298685D01*
G01X51026690Y50297804D01*
G01X51029502Y50296780D01*
G01X51032258Y50295620D01*
G01X51034955Y50294322D01*
G01X51037581Y50292889D01*
G01X51040134Y50291329D01*
G01X51042606Y50289645D01*
G01X51044991Y50287837D01*
G01X51047282Y50285914D01*
G01X51049476Y50283880D01*
G01X51051564Y50281738D01*
G01X51053545Y50279496D01*
G01X51055410Y50277156D01*
G01X51057155Y50274728D01*
G01X51058778Y50272213D01*
G01X51060274Y50269623D01*
G01X51061640Y50266961D01*
G01X51062870Y50264235D01*
G01X51063962Y50261449D01*
G01X51064917Y50258614D01*
G01X51065727Y50255734D01*
G01X51066393Y50252818D01*
G01X51066911Y50249872D01*
G01X51067284Y50246902D01*
G01X51067508Y50243918D01*
G01X51067581Y50240928D01*
G01X51067581Y50160928D01*
G01X51067508Y50157939D01*
G01X51067284Y50154954D01*
G01X51066911Y50151985D01*
G01X51066393Y50149039D01*
G01X51065727Y50146123D01*
G01X51064917Y50143242D01*
G01X51063962Y50140408D01*
G01X51062870Y50137621D01*
G01X51061640Y50134896D01*
G01X51060274Y50132234D01*
G01X51058778Y50129643D01*
G01X51057155Y50127129D01*
G01X51055410Y50124700D01*
G01X51053545Y50122361D01*
G01X51051564Y50120118D01*
G01X51049476Y50117977D01*
G01X51047282Y50115942D01*
G01X51044991Y50114020D01*
G01X51042606Y50112211D01*
G01X51040134Y50110527D01*
G01X51037581Y50108968D01*
G01X51034955Y50107535D01*
G01X51032258Y50106237D01*
G01X51029502Y50105076D01*
G01X51026690Y50104053D01*
G01X51023832Y50103171D01*
G01X51020932Y50102432D01*
G01X51018001Y50101840D01*
G01X51015041Y50101393D01*
G01X51012065Y50101096D01*
G01X51009078Y50100946D01*
G01X51006085Y50100946D01*
G37*
G36*
G01X51012065Y50546112D02*
G01X51009078Y50545962D01*
G01X51006085Y50545962D01*
G01X51003098Y50546112D01*
G01X51000122Y50546409D01*
G01X50997162Y50546856D01*
G01X50994231Y50547448D01*
G01X50991331Y50548187D01*
G01X50988473Y50549068D01*
G01X50985661Y50550092D01*
G01X50982905Y50551253D01*
G01X50980208Y50552551D01*
G01X50977582Y50553983D01*
G01X50975029Y50555543D01*
G01X50972557Y50557227D01*
G01X50970172Y50559035D01*
G01X50967881Y50560958D01*
G01X50965687Y50562993D01*
G01X50963599Y50565134D01*
G01X50961618Y50567377D01*
G01X50959753Y50569716D01*
G01X50958008Y50572144D01*
G01X50956385Y50574659D01*
G01X50954889Y50577250D01*
G01X50953523Y50579912D01*
G01X50952293Y50582637D01*
G01X50951201Y50585423D01*
G01X50950246Y50588258D01*
G01X50949436Y50591138D01*
G01X50948770Y50594054D01*
G01X50948252Y50597001D01*
G01X50947879Y50599970D01*
G01X50947655Y50602954D01*
G01X50947582Y50605944D01*
G01X50947582Y50635944D01*
G01X50947655Y50638934D01*
G01X50947879Y50641918D01*
G01X50948252Y50644887D01*
G01X50948770Y50647834D01*
G01X50949436Y50650750D01*
G01X50950246Y50653630D01*
G01X50951201Y50656465D01*
G01X50952293Y50659251D01*
G01X50953523Y50661976D01*
G01X50954889Y50664638D01*
G01X50956385Y50667229D01*
G01X50958008Y50669744D01*
G01X50959753Y50672172D01*
G01X50961618Y50674511D01*
G01X50963599Y50676754D01*
G01X50965687Y50678895D01*
G01X50967881Y50680930D01*
G01X50970172Y50682853D01*
G01X50972557Y50684661D01*
G01X50975029Y50686345D01*
G01X50977582Y50687905D01*
G01X50980208Y50689337D01*
G01X50982905Y50690635D01*
G01X50985661Y50691796D01*
G01X50988473Y50692820D01*
G01X50991331Y50693701D01*
G01X50994231Y50694440D01*
G01X50997162Y50695032D01*
G01X51000122Y50695479D01*
G01X51003098Y50695776D01*
G01X51006085Y50695926D01*
G01X51009078Y50695926D01*
G01X51012065Y50695776D01*
G01X51015041Y50695479D01*
G01X51018001Y50695032D01*
G01X51020932Y50694440D01*
G01X51023832Y50693701D01*
G01X51026690Y50692820D01*
G01X51029502Y50691796D01*
G01X51032258Y50690635D01*
G01X51034955Y50689337D01*
G01X51037581Y50687905D01*
G01X51040134Y50686345D01*
G01X51042606Y50684661D01*
G01X51044991Y50682853D01*
G01X51047282Y50680930D01*
G01X51049476Y50678895D01*
G01X51051564Y50676754D01*
G01X51053545Y50674511D01*
G01X51055410Y50672172D01*
G01X51057155Y50669744D01*
G01X51058778Y50667229D01*
G01X51060274Y50664638D01*
G01X51061640Y50661976D01*
G01X51062870Y50659251D01*
G01X51063962Y50656465D01*
G01X51064917Y50653630D01*
G01X51065727Y50650750D01*
G01X51066393Y50647834D01*
G01X51066911Y50644887D01*
G01X51067284Y50641918D01*
G01X51067508Y50638934D01*
G01X51067581Y50635944D01*
G01X51067581Y50605944D01*
G01X51067508Y50602954D01*
G01X51067284Y50599970D01*
G01X51066911Y50597001D01*
G01X51066393Y50594054D01*
G01X51065727Y50591138D01*
G01X51064917Y50588258D01*
G01X51063962Y50585423D01*
G01X51062870Y50582637D01*
G01X51061640Y50579912D01*
G01X51060274Y50577250D01*
G01X51058778Y50574659D01*
G01X51057155Y50572144D01*
G01X51055410Y50569716D01*
G01X51053545Y50567377D01*
G01X51051564Y50565134D01*
G01X51049476Y50562993D01*
G01X51047282Y50560958D01*
G01X51044991Y50559035D01*
G01X51042606Y50557227D01*
G01X51040134Y50555543D01*
G01X51037581Y50553983D01*
G01X51034955Y50552551D01*
G01X51032258Y50551253D01*
G01X51029502Y50550092D01*
G01X51026690Y50549068D01*
G01X51023832Y50548187D01*
G01X51020932Y50547448D01*
G01X51018001Y50546856D01*
G01X51015041Y50546409D01*
G01X51012065Y50546112D01*
G37*
G36*
G01X51871082Y50545962D02*
G01X51868095Y50546112D01*
G01X51865119Y50546409D01*
G01X51862159Y50546856D01*
G01X51859228Y50547448D01*
G01X51856328Y50548187D01*
G01X51853470Y50549068D01*
G01X51850658Y50550092D01*
G01X51847902Y50551253D01*
G01X51845205Y50552551D01*
G01X51842579Y50553983D01*
G01X51840026Y50555543D01*
G01X51837554Y50557227D01*
G01X51835169Y50559035D01*
G01X51832878Y50560958D01*
G01X51830684Y50562993D01*
G01X51828596Y50565134D01*
G01X51826615Y50567377D01*
G01X51824750Y50569716D01*
G01X51823005Y50572144D01*
G01X51821382Y50574659D01*
G01X51819886Y50577250D01*
G01X51818520Y50579912D01*
G01X51817290Y50582637D01*
G01X51816198Y50585423D01*
G01X51815243Y50588258D01*
G01X51814433Y50591138D01*
G01X51813767Y50594054D01*
G01X51813249Y50597001D01*
G01X51812876Y50599970D01*
G01X51812652Y50602954D01*
G01X51812579Y50605944D01*
G01X51812579Y50635944D01*
G01X51812652Y50638934D01*
G01X51812876Y50641918D01*
G01X51813249Y50644887D01*
G01X51813767Y50647834D01*
G01X51814433Y50650750D01*
G01X51815243Y50653630D01*
G01X51816198Y50656465D01*
G01X51817290Y50659251D01*
G01X51818520Y50661976D01*
G01X51819886Y50664638D01*
G01X51821382Y50667229D01*
G01X51823005Y50669744D01*
G01X51824750Y50672172D01*
G01X51826615Y50674511D01*
G01X51828596Y50676754D01*
G01X51830684Y50678895D01*
G01X51832878Y50680930D01*
G01X51835169Y50682853D01*
G01X51837554Y50684661D01*
G01X51840026Y50686345D01*
G01X51842579Y50687905D01*
G01X51845205Y50689337D01*
G01X51847902Y50690635D01*
G01X51850658Y50691796D01*
G01X51853470Y50692820D01*
G01X51856328Y50693701D01*
G01X51859228Y50694440D01*
G01X51862159Y50695032D01*
G01X51865119Y50695479D01*
G01X51868095Y50695776D01*
G01X51871082Y50695926D01*
G01X51874075Y50695926D01*
G01X51877062Y50695776D01*
G01X51880038Y50695479D01*
G01X51882998Y50695032D01*
G01X51885929Y50694440D01*
G01X51888829Y50693701D01*
G01X51891687Y50692820D01*
G01X51894499Y50691796D01*
G01X51897255Y50690635D01*
G01X51899952Y50689337D01*
G01X51902578Y50687905D01*
G01X51905131Y50686345D01*
G01X51907603Y50684661D01*
G01X51909988Y50682853D01*
G01X51912279Y50680930D01*
G01X51914473Y50678895D01*
G01X51916561Y50676754D01*
G01X51918542Y50674511D01*
G01X51920407Y50672172D01*
G01X51922152Y50669744D01*
G01X51923775Y50667229D01*
G01X51925271Y50664638D01*
G01X51926637Y50661976D01*
G01X51927867Y50659251D01*
G01X51928959Y50656465D01*
G01X51929914Y50653630D01*
G01X51930724Y50650750D01*
G01X51931390Y50647834D01*
G01X51931908Y50644887D01*
G01X51932281Y50641918D01*
G01X51932505Y50638934D01*
G01X51932578Y50635944D01*
G01X51932578Y50605944D01*
G01X51932505Y50602954D01*
G01X51932281Y50599970D01*
G01X51931908Y50597001D01*
G01X51931390Y50594054D01*
G01X51930724Y50591138D01*
G01X51929914Y50588258D01*
G01X51928959Y50585423D01*
G01X51927867Y50582637D01*
G01X51926637Y50579912D01*
G01X51925271Y50577250D01*
G01X51923775Y50574659D01*
G01X51922152Y50572144D01*
G01X51920407Y50569716D01*
G01X51918542Y50567377D01*
G01X51916561Y50565134D01*
G01X51914473Y50562993D01*
G01X51912279Y50560958D01*
G01X51909988Y50559035D01*
G01X51907603Y50557227D01*
G01X51905131Y50555543D01*
G01X51902578Y50553983D01*
G01X51899952Y50552551D01*
G01X51897255Y50551253D01*
G01X51894499Y50550092D01*
G01X51891687Y50549068D01*
G01X51888829Y50548187D01*
G01X51885929Y50547448D01*
G01X51882998Y50546856D01*
G01X51880038Y50546409D01*
G01X51877062Y50546112D01*
G01X51874075Y50545962D01*
G01X51871082Y50545962D01*
G37*
G36*
G01X49212378Y40659599D02*
G01X49292378Y40659599D01*
G01X49297379Y40654597D01*
G01X49297379Y40631801D01*
G01X49260379Y40631801D01*
G01X49260379Y40598801D01*
G01X49297379Y40598801D01*
G01X49297379Y40574598D01*
G01X49292378Y40569599D01*
G01X49212378Y40569599D01*
G01X49207379Y40574598D01*
G01X49207379Y40654597D01*
G01X49212378Y40659599D01*
G37*
G36*
G01X49451382Y40569601D02*
G01X49371382Y40569601D01*
G01X49366381Y40574603D01*
G01X49366381Y40597399D01*
G01X49403381Y40597399D01*
G01X49403381Y40630399D01*
G01X49366381Y40630399D01*
G01X49366381Y40654602D01*
G01X49371382Y40659601D01*
G01X49451382Y40659601D01*
G01X49456381Y40654602D01*
G01X49456381Y40574603D01*
G01X49451382Y40569601D01*
G37*
G36*
G01X49207298Y40502119D02*
G01X49287298Y40502119D01*
G01X49292299Y40497117D01*
G01X49292299Y40474321D01*
G01X49255299Y40474321D01*
G01X49255299Y40441321D01*
G01X49292299Y40441321D01*
G01X49292299Y40417118D01*
G01X49287298Y40412119D01*
G01X49207298Y40412119D01*
G01X49202299Y40417118D01*
G01X49202299Y40497117D01*
G01X49207298Y40502119D01*
G37*
G36*
G01X49446302Y40412121D02*
G01X49366302Y40412121D01*
G01X49361301Y40417123D01*
G01X49361301Y40439919D01*
G01X49398301Y40439919D01*
G01X49398301Y40472919D01*
G01X49361301Y40472919D01*
G01X49361301Y40497122D01*
G01X49366302Y40502121D01*
G01X49446302Y40502121D01*
G01X49451301Y40497122D01*
G01X49451301Y40417123D01*
G01X49446302Y40412121D01*
G37*
G36*
G01X48861858Y40344639D02*
G01X48941858Y40344639D01*
G01X48946859Y40339637D01*
G01X48946859Y40316841D01*
G01X48909859Y40316841D01*
G01X48909859Y40283841D01*
G01X48946859Y40283841D01*
G01X48946859Y40259638D01*
G01X48941858Y40254639D01*
G01X48861858Y40254639D01*
G01X48856859Y40259638D01*
G01X48856859Y40339637D01*
G01X48861858Y40344639D01*
G37*
G36*
G01X49100862Y40254641D02*
G01X49020862Y40254641D01*
G01X49015861Y40259643D01*
G01X49015861Y40282439D01*
G01X49052861Y40282439D01*
G01X49052861Y40315439D01*
G01X49015861Y40315439D01*
G01X49015861Y40339642D01*
G01X49020862Y40344641D01*
G01X49100862Y40344641D01*
G01X49105861Y40339642D01*
G01X49105861Y40259643D01*
G01X49100862Y40254641D01*
G37*
G36*
G01X39993831Y39737920D02*
G01X39993831Y39865918D01*
G01X39988830Y39870919D01*
G01X39873829Y39870919D01*
G01X39868830Y39865918D01*
G01X39868327Y39824915D01*
G01X39913328Y39824915D01*
G01X39913328Y39779916D01*
G01X39869328Y39779916D01*
G01X39868830Y39737920D01*
G01X39873829Y39732919D01*
G01X39988830Y39732919D01*
G01X39993831Y39737920D01*
G37*
G36*
G01X39652836Y39865921D02*
G01X39652836Y39737923D01*
G01X39657837Y39732921D01*
G01X39772838Y39732921D01*
G01X39777837Y39737923D01*
G01X39778340Y39778926D01*
G01X39733339Y39778926D01*
G01X39733339Y39823924D01*
G01X39777339Y39823924D01*
G01X39777837Y39865921D01*
G01X39772838Y39870922D01*
G01X39657837Y39870922D01*
G01X39652836Y39865921D01*
G37*
G36*
G01X40074869Y39864038D02*
G01X40074869Y39736040D01*
G01X40079870Y39731038D01*
G01X40194871Y39731038D01*
G01X40199870Y39736040D01*
G01X40200373Y39777043D01*
G01X40155372Y39777043D01*
G01X40155372Y39822042D01*
G01X40199372Y39822042D01*
G01X40199870Y39864038D01*
G01X40194871Y39869039D01*
G01X40079870Y39869039D01*
G01X40074869Y39864038D01*
G37*
G36*
G01X40289870Y39864038D02*
G01X40289872Y39822042D01*
G01X40334371Y39822042D01*
G01X40334371Y39777043D01*
G01X40290373Y39777043D01*
G01X40289870Y39736040D01*
G01X40294871Y39731038D01*
G01X40409870Y39731038D01*
G01X40414871Y39736040D01*
G01X40414871Y39864038D01*
G01X40409870Y39869039D01*
G01X40294871Y39869039D01*
G01X40289870Y39864038D01*
G37*

G04 Pad Start*
G54D10*
G01X32552640Y49980571D03*
G01X32552640Y49658549D03*
G01X36362640Y49990731D03*
G01X36362640Y49668709D03*
G01X38267640Y49980571D03*
G01X38267640Y49658549D03*
G01X40172640Y49990731D03*
G01X40172640Y49668709D03*
G01X42077640Y49980571D03*
G01X42077640Y49658549D03*
G01X44932600Y49990731D03*
G01X44932600Y49668709D03*
G01X46837600Y49975491D03*
G01X46837600Y49653469D03*
G01X48742600Y49990731D03*
G01X48742600Y49668709D03*
G01X50657760Y50000891D03*
G01X50657760Y49678869D03*
G01X53507640Y49980571D03*
G01X53507640Y49658549D03*
G01X55417720Y49980571D03*
G01X55417720Y49658549D03*
G01X57312560Y49980571D03*
G01X57312560Y49658549D03*
G01X59217560Y49995811D03*
G01X59217560Y49673789D03*
G01X61595000Y49995811D03*
G01X61595000Y49673789D03*
G01X32542480Y47603131D03*
G01X32542480Y47281109D03*
G01X33025080Y45687971D03*
G01X33025080Y45365949D03*
G01X33263840Y43782971D03*
G01X33263840Y43460949D03*
G01X32791400Y39978051D03*
G01X32791400Y39656029D03*
G01X34452560Y47603131D03*
G01X34452560Y47281109D03*
G01X33741360Y41888131D03*
G01X33741360Y41566109D03*
G01X35168840Y39983131D03*
G01X35168840Y39661109D03*
G01X36362640Y47603131D03*
G01X36362640Y47281109D03*
G01X35407600Y45698131D03*
G01X35407600Y45376109D03*
G01X35880040Y43788051D03*
G01X35880040Y43466029D03*
G01X36845240Y41888131D03*
G01X36845240Y41566109D03*
G01X38262560Y47613291D03*
G01X38262560Y47291269D03*
G01X37312600Y45687971D03*
G01X37312600Y45365949D03*
G01X37795200Y43798211D03*
G01X37795200Y43476189D03*
G01X38745160Y41893211D03*
G01X38745160Y41571189D03*
G01X37556440Y39978051D03*
G01X37556440Y39656029D03*
G01X40172640Y47603131D03*
G01X40172640Y47281109D03*
G01X39217600Y45687971D03*
G01X39217600Y45365949D03*
G01X39690040Y43782971D03*
G01X39690040Y43460949D03*
G01X40655240Y41883051D03*
G01X40655240Y41561029D03*
G01X42077640Y47592971D03*
G01X42077640Y47270949D03*
G01X41122600Y45693051D03*
G01X41122600Y45371029D03*
G01X41605200Y43793131D03*
G01X41605200Y43471109D03*
G01X42555160Y41883051D03*
G01X42555160Y41561029D03*
G01X43982640Y47598051D03*
G01X43982640Y47276029D03*
G01X43027600Y45703211D03*
G01X43027600Y45381189D03*
G01X43510200Y43788051D03*
G01X43510200Y43466029D03*
G01X44460160Y41883051D03*
G01X44460160Y41561029D03*
G01X44693840Y39988211D03*
G01X44693840Y39666189D03*
G01X45887640Y47603131D03*
G01X45887640Y47281109D03*
G01X44932600Y45693051D03*
G01X44932600Y45371029D03*
G01X45415200Y43777891D03*
G01X45415200Y43455869D03*
G01X46365160Y41883051D03*
G01X46365160Y41561029D03*
G01X47787560Y47587891D03*
G01X47787560Y47265869D03*
G01X46837600Y45703211D03*
G01X46837600Y45381189D03*
G01X47315120Y43782971D03*
G01X47315120Y43460949D03*
G01X48265080Y41883051D03*
G01X48265080Y41561029D03*
G01X49692560Y47598051D03*
G01X49692560Y47276029D03*
G01X48742600Y45698131D03*
G01X48742600Y45376109D03*
G01X49220120Y43777891D03*
G01X49220120Y43455869D03*
G01X50170080Y41883051D03*
G01X50170080Y41561029D03*
G01X52075080Y41888131D03*
G01X52075080Y41566109D03*
G01X51602640Y39988211D03*
G01X51602640Y39666189D03*
G01X51125120Y43793131D03*
G01X51125120Y43471109D03*
G01X50647600Y45687971D03*
G01X50647600Y45365949D03*
G01X51602640Y47587891D03*
G01X51602640Y47265869D03*
G01X53502560Y47587891D03*
G01X53502560Y47265869D03*
G01X52547520Y45682891D03*
G01X52547520Y45360869D03*
G01X53030120Y43793131D03*
G01X53030120Y43471109D03*
G01X53746400Y39978051D03*
G01X53746400Y39656029D03*
G01X53985160Y41877971D03*
G01X53985160Y41555949D03*
G01X55407560Y47587891D03*
G01X55407560Y47265869D03*
G01X54462680Y45693051D03*
G01X54462680Y45371029D03*
G01X54935120Y43788051D03*
G01X54935120Y43466029D03*
G01X55890160Y39978051D03*
G01X55890160Y39656029D03*
G01X56357520Y45687971D03*
G01X56357520Y45365949D03*
G01X58028840Y43788051D03*
G01X58028840Y43466029D03*
G01X56845200Y41883051D03*
G01X56845200Y41561029D03*
G01X57795160Y39983131D03*
G01X57795160Y39661109D03*
G01X58262520Y47592971D03*
G01X58262520Y47270949D03*
G01X58745120Y45687971D03*
G01X58745120Y45365949D03*
G01X59700160Y41888131D03*
G01X59700160Y41566109D03*
G01X59710320Y39978051D03*
G01X59710320Y39656029D03*
G01X61605160Y47592971D03*
G01X61605160Y47270949D03*
G01X61600080Y45693051D03*
G01X61600080Y45371029D03*
G01X61605160Y43767731D03*
G01X61605160Y43445709D03*
G01X61610240Y41883051D03*
G01X61610240Y41561029D03*
G01X61605160Y39967891D03*
G01X61605160Y39645869D03*
G54D11*
G01X48581196Y39369505D03*
G01X48091204Y39369505D03*
G54D12*
G01X48261207Y39624495D03*
G01X48311194Y39624495D03*
G01X48361206Y39624495D03*
G01X48411194Y39624495D03*
G54D13*
G01X45785868Y39431380D03*
G01X45785868Y40231378D03*
G54D14*
G01X46685619Y39629931D03*
G01X46685619Y39679943D03*
G01X46685619Y39729930D03*
G01X46685619Y39779943D03*
G01X46685619Y39829930D03*
G01X46685619Y39879943D03*
G01X46685619Y39929930D03*
G01X46685619Y39979943D03*
G01X46685619Y40029930D03*
G01X46685619Y40079942D03*
G01X46685619Y40129930D03*
G01X46685619Y40179942D03*
G01X46685619Y40229929D03*
G01X46685619Y40279942D03*
G01X46685619Y40329929D03*
G01X46685619Y40379942D03*
G54D15*
G01X46880614Y40574938D03*
G01X46930627Y40574938D03*
G01X46980614Y40574938D03*
G01X47030627Y40574938D03*
G01X47080614Y40574938D03*
G01X47130627Y40574938D03*
G01X47180614Y40574938D03*
G01X47230626Y40574938D03*
G01X47280614Y40574938D03*
G01X47330626Y40574938D03*
G01X47380613Y40574938D03*
G01X47430626Y40574938D03*
G01X47480613Y40574938D03*
G01X47530626Y40574938D03*
G01X47580613Y40574938D03*
G01X47630626Y40574938D03*
G54D14*
G01X47823259Y40379942D03*
G01X47823259Y40329929D03*
G01X47823259Y40279942D03*
G01X47823259Y40229929D03*
G01X47823259Y40179942D03*
G01X47823259Y40129930D03*
G01X47823259Y40079942D03*
G01X47823259Y40029930D03*
G01X47823259Y39979943D03*
G01X47823259Y39929930D03*
G01X47823259Y39879943D03*
G01X47823259Y39829930D03*
G01X47823259Y39779943D03*
G01X47823259Y39729930D03*
G01X47823259Y39679943D03*
G01X47823259Y39629931D03*
G54D15*
G01X47630626Y39434935D03*
G01X47580613Y39434935D03*
G01X47530626Y39434935D03*
G01X47480613Y39434935D03*
G01X47430626Y39434935D03*
G01X47380613Y39434935D03*
G01X47330626Y39434935D03*
G01X47280614Y39434935D03*
G01X47230626Y39434935D03*
G01X47180614Y39434935D03*
G01X47130627Y39434935D03*
G01X47080614Y39434935D03*
G01X47030627Y39434935D03*
G01X46980614Y39434935D03*
G01X46930627Y39434935D03*
G01X46880614Y39434935D03*
G54D16*
G01X49723682Y40213131D03*
G01X49723682Y39983134D03*
G01X49723682Y39753137D03*
G54D17*
G01X49156703Y39983134D03*
G54D18*
G01X46325849Y39949989D03*
G01X46325849Y39729974D03*
G01X46155847Y39729974D03*
G01X46155847Y39949989D03*
G54D20*
G01X46175926Y39540262D03*
G01X46315930Y39540262D03*
G01X46315930Y40160022D03*
G01X46175926Y40160022D03*
G01X49560414Y39350154D03*
G01X49420410Y39350154D03*
G54D21*
G01X48724452Y39850250D03*
G01X48724452Y39710245D03*
G54D20*
G01X49559212Y39522598D03*
G01X49419207Y39522598D03*
G54D21*
G01X48905097Y39852485D03*
G01X48905097Y39712481D03*
G01X47853600Y39350798D03*
G01X47853600Y39490802D03*
G54D20*
G01X47913442Y40777160D03*
G01X47773438Y40777160D03*
G01X40752156Y39532517D03*
G01X40892161Y39532517D03*
G01X40895166Y40148149D03*
G01X40755161Y40148149D03*
G54D11*
G01X42967796Y39369505D03*
G01X42477804Y39369505D03*
G54D12*
G01X42647807Y39624495D03*
G01X42697794Y39624495D03*
G01X42747806Y39624495D03*
G01X42797794Y39624495D03*
G54D22*
G01X39637359Y40128075D03*
G01X40437358Y40128075D03*
G54D23*
G01X41275013Y39620303D03*
G01X41275013Y39670315D03*
G01X41275013Y39720303D03*
G01X41275013Y39770315D03*
G01X41275013Y39820302D03*
G01X41275013Y39870315D03*
G01X41275013Y39920302D03*
G01X41275013Y39970315D03*
G01X41275013Y40020302D03*
G01X41275013Y40070315D03*
G01X41275013Y40120302D03*
G01X41275013Y40170314D03*
G54D24*
G01X41425000Y40320301D03*
G01X41475013Y40320301D03*
G01X41525000Y40320301D03*
G01X41575013Y40320301D03*
G01X41625000Y40320301D03*
G01X41675012Y40320301D03*
G01X41725000Y40320301D03*
G01X41775012Y40320301D03*
G01X41824999Y40320301D03*
G01X41875012Y40320301D03*
G01X41924999Y40320301D03*
G01X41975012Y40320301D03*
G54D23*
G01X42124999Y40170314D03*
G01X42124999Y40120302D03*
G01X42124999Y40070315D03*
G01X42124999Y40020302D03*
G01X42124999Y39970315D03*
G01X42124999Y39920302D03*
G01X42124999Y39870315D03*
G01X42124999Y39820302D03*
G01X42124999Y39770315D03*
G01X42124999Y39720303D03*
G01X42124999Y39670315D03*
G01X42124999Y39620303D03*
G54D24*
G01X41975012Y39470316D03*
G01X41924999Y39470316D03*
G01X41875012Y39470316D03*
G01X41824999Y39470316D03*
G01X41775012Y39470316D03*
G01X41725000Y39470316D03*
G01X41675012Y39470316D03*
G01X41625000Y39470316D03*
G01X41575013Y39470316D03*
G01X41525000Y39470316D03*
G01X41475013Y39470316D03*
G01X41425000Y39470316D03*
G54D18*
G01X40912004Y39939956D03*
G01X40912004Y39719941D03*
G01X40742002Y39719941D03*
G01X40742002Y39939956D03*
G54D21*
G01X41097200Y39478102D03*
G01X41097200Y39338098D03*
G01X42252900Y39376198D03*
G01X42252900Y39516202D03*
G54D20*
G01X42452442Y40421560D03*
G01X42312438Y40421560D03*
G54D21*
G01X51120040Y49777802D03*
G01X51120040Y49637798D03*
G01X50919305Y49777609D03*
G01X50919305Y49637604D03*
G01X38417500Y39998498D03*
G01X38417500Y40138502D03*
G01X39497000Y39452702D03*
G01X39497000Y39312698D03*
G01X38223107Y40001137D03*
G01X38223107Y40141142D03*
G01X39674800Y39452702D03*
G01X39674800Y39312698D03*
G54D16*
G01X38591211Y39368603D03*
G01X38591211Y39598600D03*
G01X38591211Y39828597D03*
G54D17*
G01X39158189Y39598600D03*
G54D25*
G01X32202120Y49296320D03*
G54D26*
G01X32202120Y49443640D03*
G54D27*
G01X32558071Y50331736D03*
G54D25*
G01X31704280Y49296320D03*
G54D28*
G01X31704280Y49443640D03*
G54D27*
G01X31190580Y50077736D03*
G54D25*
G01X36012120Y49296320D03*
G54D26*
G01X36012120Y49443640D03*
G54D27*
G01X36368071Y50331736D03*
G54D25*
G01X35514280Y49296320D03*
G54D28*
G01X35514280Y49443640D03*
G54D27*
G01X35000580Y50077736D03*
G54D25*
G01X37917120Y49296320D03*
G54D26*
G01X37917120Y49443640D03*
G54D27*
G01X38273071Y50331736D03*
G54D25*
G01X37419280Y49296320D03*
G54D28*
G01X37419280Y49443640D03*
G54D27*
G01X36905580Y50077736D03*
G54D25*
G01X39822120Y49296320D03*
G54D26*
G01X39822120Y49443640D03*
G54D27*
G01X40178071Y50331736D03*
G54D25*
G01X39324280Y49296320D03*
G54D28*
G01X39324280Y49443640D03*
G54D27*
G01X38810580Y50077736D03*
G54D25*
G01X41727120Y49296320D03*
G54D26*
G01X41727120Y49443640D03*
G54D27*
G01X42083071Y50331736D03*
G54D25*
G01X41229280Y49296320D03*
G54D28*
G01X41229280Y49443640D03*
G54D27*
G01X40715580Y50077736D03*
G54D29*
G01X44582080Y49296320D03*
G54D30*
G01X44582080Y49443640D03*
G54D27*
G01X44938031Y50331736D03*
G54D25*
G01X44084240Y49296320D03*
G54D28*
G01X44084240Y49443640D03*
G54D27*
G01X43570540Y50077736D03*
G54D29*
G01X46487080Y49296320D03*
G54D30*
G01X46487080Y49443640D03*
G54D27*
G01X46843031Y50331736D03*
G54D25*
G01X45989240Y49296320D03*
G54D28*
G01X45989240Y49443640D03*
G54D27*
G01X45475540Y50077736D03*
G54D29*
G01X48392080Y49296320D03*
G54D30*
G01X48392080Y49443640D03*
G54D27*
G01X48748031Y50331736D03*
G54D25*
G01X47894240Y49296320D03*
G54D28*
G01X47894240Y49443640D03*
G54D27*
G01X47380540Y50077736D03*
G54D29*
G01X50297080Y49296320D03*
G54D30*
G01X50297080Y49443640D03*
G54D27*
G01X50653031Y50331736D03*
G54D25*
G01X49799240Y49296320D03*
G54D28*
G01X49799240Y49443640D03*
G54D27*
G01X49285540Y50077736D03*
G54D25*
G01X53157120Y49296320D03*
G54D26*
G01X53157120Y49443640D03*
G54D27*
G01X53513071Y50331736D03*
G54D25*
G01X52659280Y49296320D03*
G54D28*
G01X52659280Y49443640D03*
G54D27*
G01X52145580Y50077736D03*
G54D25*
G01X55062120Y49296320D03*
G54D26*
G01X55062120Y49443640D03*
G54D27*
G01X55418071Y50331736D03*
G54D25*
G01X54564280Y49296320D03*
G54D28*
G01X54564280Y49443640D03*
G54D27*
G01X54050580Y50077736D03*
G54D29*
G01X56962040Y49296320D03*
G54D30*
G01X56962040Y49443640D03*
G54D27*
G01X57317991Y50331736D03*
G54D25*
G01X56464200Y49296320D03*
G54D28*
G01X56464200Y49443640D03*
G54D27*
G01X55950500Y50077736D03*
G54D25*
G01X58872120Y49296320D03*
G54D26*
G01X58872120Y49443640D03*
G54D27*
G01X59228071Y50331736D03*
G54D25*
G01X58374280Y49296320D03*
G54D28*
G01X58374280Y49443640D03*
G54D27*
G01X57860580Y50077736D03*
G54D29*
G01X61254640Y49296320D03*
G54D30*
G01X61254640Y49443640D03*
G54D27*
G01X61610591Y50331736D03*
G54D25*
G01X60756800Y49296320D03*
G54D28*
G01X60756800Y49443640D03*
G54D27*
G01X60243100Y50077736D03*
G54D25*
G01X32202120Y46913800D03*
G54D31*
G01X32202120Y47061120D03*
G54D27*
G01X32558071Y47949216D03*
G54D25*
G01X31704280Y46913800D03*
G54D32*
G01X31704280Y47061120D03*
G54D27*
G01X31190580Y47695216D03*
G54D25*
G01X34107120Y46913800D03*
G54D31*
G01X34107120Y47061120D03*
G54D27*
G01X34463071Y47949216D03*
G54D25*
G01X33609280Y46913800D03*
G54D32*
G01X33609280Y47061120D03*
G54D27*
G01X33095580Y47695216D03*
G54D25*
G01X36012120Y46913800D03*
G54D31*
G01X36012120Y47061120D03*
G54D27*
G01X36368071Y47949216D03*
G54D25*
G01X35514280Y46913800D03*
G54D32*
G01X35514280Y47061120D03*
G54D27*
G01X35000580Y47695216D03*
G54D25*
G01X37917120Y46913800D03*
G54D31*
G01X37917120Y47061120D03*
G54D27*
G01X38273071Y47949216D03*
G54D25*
G01X37419280Y46913800D03*
G54D32*
G01X37419280Y47061120D03*
G54D27*
G01X36905580Y47695216D03*
G54D25*
G01X39822120Y46913800D03*
G54D31*
G01X39822120Y47061120D03*
G54D27*
G01X40178071Y47949216D03*
G54D25*
G01X39324280Y46913800D03*
G54D32*
G01X39324280Y47061120D03*
G54D27*
G01X38810580Y47695216D03*
G54D25*
G01X41727120Y46913800D03*
G54D31*
G01X41727120Y47061120D03*
G54D27*
G01X42083071Y47949216D03*
G54D25*
G01X41229280Y46913800D03*
G54D32*
G01X41229280Y47061120D03*
G54D27*
G01X40715580Y47695216D03*
G54D25*
G01X43632120Y46913800D03*
G54D31*
G01X43632120Y47061120D03*
G54D27*
G01X43988071Y47949216D03*
G54D25*
G01X43134280Y46913800D03*
G54D32*
G01X43134280Y47061120D03*
G54D27*
G01X42620580Y47695216D03*
G54D25*
G01X45537120Y46913800D03*
G54D31*
G01X45537120Y47061120D03*
G54D27*
G01X45893071Y47949216D03*
G54D25*
G01X45039280Y46913800D03*
G54D32*
G01X45039280Y47061120D03*
G54D27*
G01X44525580Y47695216D03*
G54D25*
G01X47442120Y46913800D03*
G54D31*
G01X47442120Y47061120D03*
G54D27*
G01X47798071Y47949216D03*
G54D25*
G01X46944280Y46913800D03*
G54D32*
G01X46944280Y47061120D03*
G54D27*
G01X46430580Y47695216D03*
G54D25*
G01X49347120Y46913800D03*
G54D31*
G01X49347120Y47061120D03*
G54D27*
G01X49703071Y47949216D03*
G54D25*
G01X48849280Y46913800D03*
G54D32*
G01X48849280Y47061120D03*
G54D27*
G01X48335580Y47695216D03*
G54D25*
G01X51252120Y46913800D03*
G54D31*
G01X51252120Y47061120D03*
G54D27*
G01X51608071Y47949216D03*
G54D25*
G01X50754280Y46913800D03*
G54D32*
G01X50754280Y47061120D03*
G54D27*
G01X50240580Y47695216D03*
G54D25*
G01X53157120Y46913800D03*
G54D31*
G01X53157120Y47061120D03*
G54D27*
G01X53513071Y47949216D03*
G54D25*
G01X52659280Y46913800D03*
G54D32*
G01X52659280Y47061120D03*
G54D27*
G01X52145580Y47695216D03*
G54D25*
G01X55062120Y46913800D03*
G54D31*
G01X55062120Y47061120D03*
G54D27*
G01X55418071Y47949216D03*
G54D25*
G01X54564280Y46913800D03*
G54D32*
G01X54564280Y47061120D03*
G54D27*
G01X54050580Y47695216D03*
G54D25*
G01X57917080Y46913800D03*
G54D31*
G01X57917080Y47061120D03*
G54D27*
G01X58273031Y47949216D03*
G54D25*
G01X57419240Y46913800D03*
G54D32*
G01X57419240Y47061120D03*
G54D27*
G01X56905540Y47695216D03*
G54D29*
G01X61254640Y46913800D03*
G54D33*
G01X61254640Y47061120D03*
G54D27*
G01X61610591Y47949216D03*
G54D25*
G01X60756800Y46913800D03*
G54D32*
G01X60756800Y47061120D03*
G54D27*
G01X60243100Y47695216D03*
G54D29*
G01X32679640Y45008800D03*
G54D33*
G01X32679640Y45156120D03*
G54D27*
G01X33035591Y46044216D03*
G54D25*
G01X32181800Y45008800D03*
G54D32*
G01X32181800Y45156120D03*
G54D27*
G01X31668100Y45790216D03*
G54D29*
G01X35057080Y45008800D03*
G54D33*
G01X35057080Y45156120D03*
G54D27*
G01X35413031Y46044216D03*
G54D25*
G01X34559240Y45008800D03*
G54D32*
G01X34559240Y45156120D03*
G54D27*
G01X34045540Y45790216D03*
G54D29*
G01X36962080Y45008800D03*
G54D33*
G01X36962080Y45156120D03*
G54D27*
G01X37318031Y46044216D03*
G54D25*
G01X36464240Y45008800D03*
G54D32*
G01X36464240Y45156120D03*
G54D27*
G01X35950540Y45790216D03*
G54D29*
G01X38867080Y45008800D03*
G54D33*
G01X38867080Y45156120D03*
G54D27*
G01X39223031Y46044216D03*
G54D25*
G01X38369240Y45008800D03*
G54D32*
G01X38369240Y45156120D03*
G54D27*
G01X37855540Y45790216D03*
G54D29*
G01X40772080Y45008800D03*
G54D33*
G01X40772080Y45156120D03*
G54D27*
G01X41128031Y46044216D03*
G54D25*
G01X40274240Y45008800D03*
G54D32*
G01X40274240Y45156120D03*
G54D27*
G01X39760540Y45790216D03*
G54D29*
G01X42677080Y45008800D03*
G54D33*
G01X42677080Y45156120D03*
G54D27*
G01X43033031Y46044216D03*
G54D25*
G01X42179240Y45008800D03*
G54D32*
G01X42179240Y45156120D03*
G54D27*
G01X41665540Y45790216D03*
G54D29*
G01X44582080Y45008800D03*
G54D33*
G01X44582080Y45156120D03*
G54D27*
G01X44938031Y46044216D03*
G54D25*
G01X44084240Y45008800D03*
G54D32*
G01X44084240Y45156120D03*
G54D27*
G01X43570540Y45790216D03*
G54D29*
G01X46487080Y45008800D03*
G54D33*
G01X46487080Y45156120D03*
G54D27*
G01X46843031Y46044216D03*
G54D25*
G01X45989240Y45008800D03*
G54D32*
G01X45989240Y45156120D03*
G54D27*
G01X45475540Y45790216D03*
G54D29*
G01X48392080Y45008800D03*
G54D33*
G01X48392080Y45156120D03*
G54D27*
G01X48748031Y46044216D03*
G54D25*
G01X47894240Y45008800D03*
G54D32*
G01X47894240Y45156120D03*
G54D27*
G01X47380540Y45790216D03*
G54D29*
G01X50297080Y45008800D03*
G54D33*
G01X50297080Y45156120D03*
G54D27*
G01X50653031Y46044216D03*
G54D25*
G01X49799240Y45008800D03*
G54D32*
G01X49799240Y45156120D03*
G54D27*
G01X49285540Y45790216D03*
G54D25*
G01X52202080Y45008800D03*
G54D31*
G01X52202080Y45156120D03*
G54D27*
G01X52558031Y46044216D03*
G54D25*
G01X51704240Y45008800D03*
G54D32*
G01X51704240Y45156120D03*
G54D27*
G01X51190540Y45790216D03*
G54D25*
G01X54107080Y45008800D03*
G54D31*
G01X54107080Y45156120D03*
G54D27*
G01X54463031Y46044216D03*
G54D25*
G01X53609240Y45008800D03*
G54D32*
G01X53609240Y45156120D03*
G54D27*
G01X53095540Y45790216D03*
G54D25*
G01X56012080Y45008800D03*
G54D31*
G01X56012080Y45156120D03*
G54D27*
G01X56368031Y46044216D03*
G54D25*
G01X55514240Y45008800D03*
G54D32*
G01X55514240Y45156120D03*
G54D27*
G01X55000540Y45790216D03*
G54D34*
G01X58394600Y45008800D03*
G54D35*
G01X58394600Y45156120D03*
G54D27*
G01X58750551Y46044216D03*
G54D25*
G01X57896760Y45008800D03*
G54D32*
G01X57896760Y45156120D03*
G54D27*
G01X57383060Y45790216D03*
G54D25*
G01X61249560Y45008800D03*
G54D31*
G01X61249560Y45156120D03*
G54D27*
G01X61605511Y46044216D03*
G54D25*
G01X60751720Y45008800D03*
G54D32*
G01X60751720Y45156120D03*
G54D27*
G01X60238020Y45790216D03*
G54D34*
G01X32918400Y43103800D03*
G54D35*
G01X32918400Y43251120D03*
G54D27*
G01X33274351Y44139216D03*
G54D25*
G01X32420560Y43103800D03*
G54D32*
G01X32420560Y43251120D03*
G54D27*
G01X31906860Y43885216D03*
G54D34*
G01X35534600Y43103800D03*
G54D35*
G01X35534600Y43251120D03*
G54D27*
G01X35890551Y44139216D03*
G54D25*
G01X35036760Y43103800D03*
G54D32*
G01X35036760Y43251120D03*
G54D27*
G01X34523060Y43885216D03*
G54D34*
G01X37439600Y43103800D03*
G54D35*
G01X37439600Y43251120D03*
G54D27*
G01X37795551Y44139216D03*
G54D25*
G01X36941760Y43103800D03*
G54D32*
G01X36941760Y43251120D03*
G54D27*
G01X36428060Y43885216D03*
G54D34*
G01X39344600Y43103800D03*
G54D35*
G01X39344600Y43251120D03*
G54D27*
G01X39700551Y44139216D03*
G54D25*
G01X38846760Y43103800D03*
G54D32*
G01X38846760Y43251120D03*
G54D27*
G01X38333060Y43885216D03*
G54D34*
G01X41249600Y43103800D03*
G54D35*
G01X41249600Y43251120D03*
G54D27*
G01X41605551Y44139216D03*
G54D25*
G01X40751760Y43103800D03*
G54D32*
G01X40751760Y43251120D03*
G54D27*
G01X40238060Y43885216D03*
G54D34*
G01X43154600Y43103800D03*
G54D35*
G01X43154600Y43251120D03*
G54D27*
G01X43510551Y44139216D03*
G54D25*
G01X42656760Y43103800D03*
G54D32*
G01X42656760Y43251120D03*
G54D27*
G01X42143060Y43885216D03*
G54D34*
G01X45059600Y43103800D03*
G54D35*
G01X45059600Y43251120D03*
G54D27*
G01X45415551Y44139216D03*
G54D25*
G01X44561760Y43103800D03*
G54D32*
G01X44561760Y43251120D03*
G54D27*
G01X44048060Y43885216D03*
G54D34*
G01X46964600Y43103800D03*
G54D35*
G01X46964600Y43251120D03*
G54D27*
G01X47320551Y44139216D03*
G54D25*
G01X46466760Y43103800D03*
G54D32*
G01X46466760Y43251120D03*
G54D27*
G01X45953060Y43885216D03*
G54D34*
G01X48869600Y43103800D03*
G54D35*
G01X48869600Y43251120D03*
G54D27*
G01X49225551Y44139216D03*
G54D25*
G01X48371760Y43103800D03*
G54D32*
G01X48371760Y43251120D03*
G54D27*
G01X47858060Y43885216D03*
G54D34*
G01X50774600Y43103800D03*
G54D35*
G01X50774600Y43251120D03*
G54D27*
G01X51130551Y44139216D03*
G54D25*
G01X50276760Y43103800D03*
G54D32*
G01X50276760Y43251120D03*
G54D27*
G01X49763060Y43885216D03*
G54D34*
G01X52679600Y43103800D03*
G54D35*
G01X52679600Y43251120D03*
G54D27*
G01X53035551Y44139216D03*
G54D25*
G01X52181760Y43103800D03*
G54D32*
G01X52181760Y43251120D03*
G54D27*
G01X51668060Y43885216D03*
G54D34*
G01X54584600Y43103800D03*
G54D35*
G01X54584600Y43251120D03*
G54D27*
G01X54940551Y44139216D03*
G54D25*
G01X54086760Y43103800D03*
G54D32*
G01X54086760Y43251120D03*
G54D27*
G01X53573060Y43885216D03*
G54D25*
G01X57678320Y43103800D03*
G54D31*
G01X57678320Y43251120D03*
G54D27*
G01X58034271Y44139216D03*
G54D25*
G01X57180480Y43103800D03*
G54D32*
G01X57180480Y43251120D03*
G54D27*
G01X56666780Y43885216D03*
G54D29*
G01X61254640Y43103800D03*
G54D33*
G01X61254640Y43251120D03*
G54D27*
G01X61610591Y44139216D03*
G54D25*
G01X60756800Y43103800D03*
G54D32*
G01X60756800Y43251120D03*
G54D27*
G01X60243100Y43885216D03*
G54D28*
G01X33394068Y41198911D03*
G54D36*
G01X33394068Y41346232D03*
G54D27*
G01X33750019Y42234328D03*
G54D28*
G01X32896228Y41198911D03*
G54D37*
G01X32896228Y41346232D03*
G54D27*
G01X32382529Y41980328D03*
G54D38*
G01X36489640Y41198800D03*
G54D30*
G01X36489640Y41346120D03*
G54D27*
G01X36845591Y42234216D03*
G54D37*
G01X35991800Y41198800D03*
G54D28*
G01X35991800Y41346120D03*
G54D27*
G01X35478100Y41980216D03*
G54D38*
G01X38394640Y41198800D03*
G54D30*
G01X38394640Y41346120D03*
G54D27*
G01X38750591Y42234216D03*
G54D37*
G01X37896800Y41198800D03*
G54D28*
G01X37896800Y41346120D03*
G54D27*
G01X37383100Y41980216D03*
G54D38*
G01X40299640Y41198800D03*
G54D30*
G01X40299640Y41346120D03*
G54D27*
G01X40655591Y42234216D03*
G54D37*
G01X39801800Y41198800D03*
G54D28*
G01X39801800Y41346120D03*
G54D27*
G01X39288100Y41980216D03*
G54D38*
G01X42204640Y41198800D03*
G54D30*
G01X42204640Y41346120D03*
G54D27*
G01X42560591Y42234216D03*
G54D37*
G01X41706800Y41198800D03*
G54D28*
G01X41706800Y41346120D03*
G54D27*
G01X41193100Y41980216D03*
G54D38*
G01X44109640Y41198800D03*
G54D30*
G01X44109640Y41346120D03*
G54D27*
G01X44465591Y42234216D03*
G54D37*
G01X43611800Y41198800D03*
G54D28*
G01X43611800Y41346120D03*
G54D27*
G01X43098100Y41980216D03*
G54D38*
G01X46014640Y41198800D03*
G54D30*
G01X46014640Y41346120D03*
G54D27*
G01X46370591Y42234216D03*
G54D37*
G01X45516800Y41198800D03*
G54D28*
G01X45516800Y41346120D03*
G54D27*
G01X45003100Y41980216D03*
G54D38*
G01X47919640Y41198800D03*
G54D30*
G01X47919640Y41346120D03*
G54D27*
G01X48275591Y42234216D03*
G54D37*
G01X47421800Y41198800D03*
G54D28*
G01X47421800Y41346120D03*
G54D27*
G01X46908100Y41980216D03*
G54D38*
G01X49824640Y41198800D03*
G54D30*
G01X49824640Y41346120D03*
G54D27*
G01X50180591Y42234216D03*
G54D37*
G01X49326800Y41198800D03*
G54D28*
G01X49326800Y41346120D03*
G54D27*
G01X48813100Y41980216D03*
G54D38*
G01X51729640Y41198800D03*
G54D30*
G01X51729640Y41346120D03*
G54D27*
G01X52085591Y42234216D03*
G54D37*
G01X51231800Y41198800D03*
G54D28*
G01X51231800Y41346120D03*
G54D27*
G01X50718100Y41980216D03*
G54D38*
G01X53634640Y41198800D03*
G54D30*
G01X53634640Y41346120D03*
G54D27*
G01X53990591Y42234216D03*
G54D37*
G01X53136800Y41198800D03*
G54D28*
G01X53136800Y41346120D03*
G54D27*
G01X52623100Y41980216D03*
G54D39*
G01X56489600Y41198800D03*
G54D40*
G01X56489600Y41346120D03*
G54D27*
G01X56845551Y42234216D03*
G54D37*
G01X55991760Y41198800D03*
G54D28*
G01X55991760Y41346120D03*
G54D27*
G01X55478060Y41980216D03*
G54D38*
G01X59349640Y41198800D03*
G54D30*
G01X59349640Y41346120D03*
G54D27*
G01X59705591Y42234216D03*
G54D37*
G01X58851800Y41198800D03*
G54D28*
G01X58851800Y41346120D03*
G54D27*
G01X58338100Y41980216D03*
G54D38*
G01X32440880Y39293800D03*
G54D30*
G01X32440880Y39441120D03*
G54D27*
G01X32796831Y40329216D03*
G54D37*
G01X31943040Y39293800D03*
G54D28*
G01X31943040Y39441120D03*
G54D27*
G01X31429340Y40075216D03*
G54D37*
G01X34818320Y39293800D03*
G54D26*
G01X34818320Y39441120D03*
G54D27*
G01X35174271Y40329216D03*
G54D37*
G01X34320480Y39293800D03*
G54D28*
G01X34320480Y39441120D03*
G54D27*
G01X33806780Y40075216D03*
G54D38*
G01X37200840Y39293800D03*
G54D30*
G01X37200840Y39441120D03*
G54D27*
G01X37556791Y40329216D03*
G54D37*
G01X36703000Y39293800D03*
G54D28*
G01X36703000Y39441120D03*
G54D27*
G01X36189300Y40075216D03*
G54D28*
G01X44381420Y39298880D03*
G54D36*
G01X44381420Y39446200D03*
G54D27*
G01X44737371Y40334296D03*
G54D28*
G01X43883580Y39298880D03*
G54D37*
G01X43883580Y39446200D03*
G54D27*
G01X43369880Y40080296D03*
G54D37*
G01X51252120Y39293800D03*
G54D26*
G01X51252120Y39441120D03*
G54D27*
G01X51608071Y40329216D03*
G54D37*
G01X50754280Y39293800D03*
G54D28*
G01X50754280Y39441120D03*
G54D27*
G01X50240580Y40075216D03*
G54D38*
G01X55539640Y39293800D03*
G54D30*
G01X55539640Y39441120D03*
G54D27*
G01X55895591Y40329216D03*
G54D37*
G01X55041800Y39293800D03*
G54D28*
G01X55041800Y39441120D03*
G54D27*
G01X54528100Y40075216D03*
G54D38*
G01X57444640Y39293800D03*
G54D30*
G01X57444640Y39441120D03*
G54D27*
G01X57800591Y40329216D03*
G54D37*
G01X56946800Y39293800D03*
G54D28*
G01X56946800Y39441120D03*
G54D27*
G01X56433100Y40075216D03*
G54D38*
G01X59349640Y39293800D03*
G54D30*
G01X59349640Y39441120D03*
G54D27*
G01X59705591Y40329216D03*
G54D37*
G01X58851800Y39293800D03*
G54D28*
G01X58851800Y39441120D03*
G54D27*
G01X58338100Y40075216D03*
G54D38*
G01X61254640Y39293800D03*
G54D30*
G01X61254640Y39441120D03*
G54D27*
G01X61610591Y40329216D03*
G54D37*
G01X60756800Y39293800D03*
G54D28*
G01X60756800Y39441120D03*
G54D27*
G01X60243100Y40075216D03*
G54D38*
G01X61254640Y41198800D03*
G54D30*
G01X61254640Y41346120D03*
G54D27*
G01X61610591Y42234216D03*
G54D37*
G01X60756800Y41198800D03*
G54D28*
G01X60756800Y41346120D03*
G54D27*
G01X60243100Y41980216D03*
G54D37*
G01X53395880Y39293800D03*
G54D26*
G01X53395880Y39441120D03*
G54D27*
G01X53751831Y40329216D03*
G54D37*
G01X52898040Y39293800D03*
G54D28*
G01X52898040Y39441120D03*
G54D27*
G01X52384340Y40075216D03*
G54D20*
G01X51741568Y49664443D03*
G01X51881573Y49664443D03*
G54D41*
G01X51345084Y49700790D03*
G01X51440080Y49700790D03*
G01X51535076Y49700790D03*
G01X51535076Y49470970D03*
G01X51440080Y49470970D03*
G01X51345084Y49470970D03*
G04 Pad End*

M02*

